<svg width="260" height="260" viewBox="0 0 260 260" fill="none" xmlns="http://www.w3.org/2000/svg">
<g clip-path="url(#clip0_199_93)">
<path d="M213.529 61.8647C215.546 65.1605 217.407 68.5458 218.129 65.8527C218.851 63.1596 223.993 75.952 222.583 81.2158C221.894 83.7864 223.034 89.8647 225.051 93.1605C227.068 96.4563 226.224 99.1163 224.362 95.7311C224.362 95.7311 221.779 95.039 220.369 100.303C219.68 102.873 222.263 103.565 224.969 104.291C230.947 103.137 230.259 105.708 230.259 105.708C229.799 107.422 230.19 109.407 231.431 111.664C247.874 124.598 246.111 152.334 226.496 172.4C217.664 184.203 196.876 198.313 198.286 193.049C198.286 193.049 195.703 192.357 188.88 196.17C176.169 201.293 163.491 206.292 152.912 203.458C143.022 198.053 125.055 201.635 120.938 206.174C117.666 208.052 120.249 208.744 122.832 209.437C128.811 208.283 134.822 207.007 137.528 207.733C143.539 206.457 142.817 209.15 141.407 214.414C136.692 221.678 143.875 226.358 151.871 228.501C160.555 228.073 159.867 230.643 155.75 235.182C155.029 237.875 151.634 239.721 150.912 242.414C152.929 245.709 108.244 253.547 91.6545 251.989C86.3651 250.571 76.4751 245.166 71.1857 243.749C66.5851 239.761 58.5898 237.618 56.0066 236.926C48.8228 232.246 42.9589 222.147 35.201 208.785C29.3374 198.685 23.5641 188.742 25.4585 192.005C27.3529 195.268 24.0481 197.268 24.0481 197.268C24.0481 197.268 15.3465 155.445 16.7569 150.181L18.6188 153.567C21.325 154.292 19.3401 150.874 18.1673 144.918C15.0099 135.544 15.6989 132.973 22.7509 106.654C33.7966 75.7639 39.3236 65.9615 70.2395 46.0371C109.266 17.0025 150.523 11.1325 178.143 24.1748C190.706 30.4276 210.216 52.5801 213.406 61.8318L213.529 61.8647ZM202.935 186.029C196.236 189.876 198.942 190.601 204.953 189.325C211.653 185.479 227.873 167.258 233.999 154.73C236.131 146.773 236.82 144.202 232.826 148.774C229.521 150.775 223.994 160.577 219.189 167.686C213.785 177.522 206.363 184.061 202.968 185.907L202.935 186.029ZM146.884 162.482C152.174 163.9 182.515 135.293 185.336 124.766C187.468 116.809 180.768 120.655 160.398 143.537C152.288 152.647 146.761 162.449 146.761 162.449L146.884 162.482ZM143.948 184.262C146.655 184.987 149.927 183.109 153.355 181.141C156.783 179.173 160.055 177.295 157.348 176.569C157.348 176.569 154.044 178.57 150.649 180.416C147.254 182.261 143.948 184.262 143.948 184.262ZM122.536 147.561C115.836 151.408 115.115 154.101 117.821 154.826C117.821 154.826 120.404 155.518 123.832 153.55C123.832 153.55 127.104 151.672 132.516 153.122C135.1 153.814 145.227 148 150.754 138.197L160.275 123.823L147.564 128.946C140.865 132.792 134.165 136.639 133.443 139.332C133.443 139.332 126.743 143.178 122.627 147.717L122.536 147.561ZM122.904 82.7153C125.611 83.4405 134.893 80.2861 143.578 79.8579C164.973 74.3074 159.684 72.8901 139.01 75.7475C124.315 77.4515 117.615 81.298 122.904 82.7153ZM96.2053 213.847C98.7885 214.54 102.183 212.694 104.89 213.419C107.093 212.085 107.333 211.188 105.611 210.726C105.611 210.726 103.028 210.034 99.6003 212.002C96.1725 213.97 93.6223 213.155 96.3285 213.88L96.2053 213.847ZM40.7266 114.357C41.3008 123.039 42.0225 120.346 62.2366 97.5541C83.2953 72.102 108.077 53.4206 116.073 55.563C118.779 56.2882 121.362 56.9802 119.468 53.7174C117.45 50.4216 104.773 55.4215 84.6731 66.9608C61.8674 77.775 40.2426 105.831 40.6938 114.48L40.7266 114.357ZM24.2686 143.797C28.2622 139.226 29.6726 133.962 26.4006 135.84C24.5964 135.357 23.924 134.258 24.3832 132.545C25.072 129.974 22.4889 129.282 22.4889 129.282L20.3897 137.116C21.5624 143.072 20.8408 145.765 24.2686 143.797Z" fill="#0B0C10"/>
<path d="M74.235 210.35C73.8469 210.35 74.235 207.827 76.1752 200.077C76.9513 197.166 77.5288 195.039 77.5288 195.426C77.5288 195.616 78.1154 194.065 78.6929 192.515C80.2451 187.478 80.6331 185.342 81.0212 185.342C81.0212 185.342 80.6331 186.693 80.2451 188.253C78.4944 193.489 75.9766 203.375 75.9766 203.952C76.1662 204.15 76.5542 202.789 77.1408 200.653C77.9168 198.517 78.6929 195.616 79.081 194.065C79.469 192.714 80.8316 187.865 82.1853 183.404C85.1001 172.941 87.2298 166.93 89.946 158.395C91.1102 154.709 92.0848 151.609 92.0848 151.609C91.8953 151.42 92.0848 151.42 92.0848 151.42C92.4728 151.609 92.6713 151.609 92.4728 151.231V150.645C92.6713 151.032 93.0594 149.482 93.0594 148.896C93.4474 149.086 93.4474 148.896 93.6459 148.121C93.8445 147.346 93.8355 146.959 93.8355 146.76L94.025 146.373C94.2235 146.373 94.6115 145.4 94.9996 144.435C95.5771 142.885 96.9398 139.199 97.7158 137.847C97.9054 137.46 97.9054 136.874 97.9054 136.874C97.9054 136.685 98.0949 136.487 98.0949 136.487C98.0949 136.099 98.2934 135.712 98.6814 135.513C98.8709 134.927 99.268 133.377 100.044 131.827C101.019 129.304 103.148 123.302 103.347 122.328C103.536 121.553 102.76 123.68 101.795 126.402C100.044 130.665 98.1039 135.513 98.1039 135.513C97.9144 135.703 97.9144 135.513 97.9144 135.315V134.738C98.1039 134.927 99.0785 132.602 98.889 132.413V131.44C99.0785 131.241 99.277 130.665 99.277 130.466C99.277 130.268 99.6651 129.304 100.053 128.331L100.441 126.393C100.441 126.393 100.829 125.618 101.028 124.645C101.217 123.671 101.416 123.094 101.416 123.094C101.226 122.896 100.838 124.257 100.062 126.393C99.6741 127.555 98.6995 129.106 98.3114 129.881C97.9234 130.656 97.7249 131.431 97.7249 131.629C97.7249 131.629 97.3368 132.404 97.1383 133.377C96.7503 133.963 96.7503 134.738 96.7503 134.927L97.3278 133.377C97.5263 132.792 97.7158 132.602 97.9144 132.792C97.9144 132.99 97.9144 133.377 97.7249 133.377V133.567C97.7249 133.567 97.7249 134.342 97.1383 134.927C96.7503 136.478 96.7503 136.865 97.1383 136.478C97.3278 136.09 97.3278 135.703 97.7249 136.09C98.1129 136.478 97.1383 137.64 96.9488 137.64C96.9488 137.64 96.7593 137.829 96.9488 137.829C96.9488 138.028 96.9488 138.604 96.7593 138.992L96.1727 139.767L96.5607 138.794C96.5607 138.208 96.5608 137.631 96.7593 137.433V137.045C96.1727 137.631 95.0086 140.921 93.4564 145.382C92.8699 147.319 91.7058 150.419 91.1282 152.168C90.5416 154.105 89.5761 156.629 88.9895 158.368C88.6014 159.729 87.8254 162.243 87.4373 163.604C86.8598 164.956 86.4627 166.128 86.4627 166.704C86.4627 166.903 86.4627 167.092 86.2732 166.903L85.4971 168.84C85.3076 169.814 84.9106 170.778 84.9106 170.778C84.7211 170.778 84.7211 170.967 84.7211 171.165C84.7211 171.55 84.7842 171.742 84.9106 171.742V171.941C84.9106 171.941 84.9106 172.13 84.7211 172.13C84.333 172.319 84.333 172.716 84.333 172.905V173.094C84.1345 172.905 83.7464 172.905 83.7464 173.094C83.7464 173.283 84.1345 173.68 84.1345 173.68C83.7464 173.68 83.5569 173.869 83.5569 174.067V173.094C83.7464 172.319 84.1345 171.932 84.1345 171.733C84.1345 171.733 84.1345 171.544 84.333 171.156C84.9106 169.219 85.6866 166.695 85.4971 166.695C85.4971 166.695 85.3076 166.894 85.3076 167.083C85.3076 167.341 85.1783 167.341 84.9196 167.083C84.9196 166.894 84.7301 166.894 84.7301 167.47C84.7301 167.669 84.5406 168.056 84.342 168.444C83.7555 169.606 82.5914 174.067 82.7899 174.257C82.7899 174.257 82.7899 174.644 82.6004 174.644C82.6004 174.644 82.4018 174.833 82.6004 175.23C82.6004 175.807 82.6004 176.203 82.4018 176.203C82.2033 176.203 82.2123 176.789 82.2123 177.177C82.2123 177.762 82.2123 178.15 81.8243 178.15C81.8243 178.15 81.6258 178.339 81.6258 178.925C81.6258 179.114 81.6258 180.088 81.4363 181.061C81.2468 181.638 81.0482 182.611 81.0482 183.197C80.6602 183.584 79.4961 189.785 78.332 193.272C77.7544 195.021 77.5559 194.435 78.332 191.921C78.5305 190.947 78.5305 189.785 78.5305 189.785C78.5305 189.785 77.9439 191.533 77.3664 193.471C76.7888 195.408 76.3918 196.958 76.3918 196.769C76.2023 196.769 77.9439 189.208 78.72 186.693C79.108 185.531 79.4961 184.368 79.3066 184.368C79.108 184.17 79.3066 183.206 79.4961 183.206C79.6856 183.206 79.6856 183.404 79.6856 183.593C79.9443 183.335 79.9443 183.14 79.6856 183.008C79.4961 182.422 79.4961 182.232 79.6856 182.232C80.0736 182.232 80.0736 182.043 80.0736 181.647C79.8149 181.52 79.8149 181.457 80.0736 181.457C80.2721 181.647 80.2721 181.457 80.2721 181.268C80.2721 181.079 80.2721 180.493 80.4617 180.295C80.6512 180.097 80.6512 179.52 80.6512 179.52V179.331C81.0392 179.331 81.4272 177.195 81.4272 176.807C81.6167 176.996 82.4018 174.869 82.2033 174.284V173.31C82.3297 172.926 82.459 172.797 82.5914 172.923V171.562C82.7177 171.172 82.7809 171.235 82.7809 171.751C82.5914 172.337 82.7809 172.337 82.7809 171.95C83.1689 171.751 83.1689 171.174 83.1689 170.976V170.003C83.2952 169.486 83.3584 169.357 83.3584 169.615C83.5569 170.003 83.5569 169.615 83.5569 169.03C83.5569 168.444 83.5569 168.056 83.3584 168.056C83.3584 168.444 80.6421 177.357 79.6675 181.043C79.2795 182.593 79.081 183.179 77.9168 187.243C77.5288 188.406 76.9422 190.731 76.3647 192.479C75.2006 196.94 75.2006 196.742 75.002 196.553C74.8757 196.553 74.8757 196.682 75.002 196.94C75.002 197.13 75.002 197.526 74.8125 197.526C74.8125 197.526 72.2858 207.214 72.2858 207.8C72.4753 207.989 72.6738 207.8 72.8723 207.214C73.4589 206.052 73.4589 206.241 72.8723 207.989C72.6828 208.963 72.4843 209.152 72.0963 209.152C71.3202 209.152 71.3202 208.954 72.0963 206.827C72.2858 206.052 72.4843 205.277 72.4843 205.078C72.4843 204.88 72.4843 204.691 72.8723 204.303C72.8723 204.114 73.0618 203.33 73.0618 202.942C73.2514 202.167 73.6484 200.032 74.226 197.706C75.2006 192.858 75.3901 193.444 75.002 193.444C75.002 193.633 74.8125 193.444 74.8125 193.245C74.8125 192.858 75.002 192.858 75.2006 192.858C75.3901 193.245 75.3901 192.858 75.3901 192.669C75.3901 192.41 75.3269 192.347 75.2006 192.479C75.2006 192.669 75.002 192.669 75.002 192.479C75.002 192.479 79.081 177.168 79.469 175.23C79.6585 174.842 79.469 174.842 79.469 174.842C79.2795 175.032 79.081 175.23 79.081 175.428C79.081 176.014 78.3049 178.528 78.1064 178.141C78.1064 177.753 80.0465 170.192 80.4346 169.03C80.6241 168.444 81.0212 167.867 81.0212 167.867V167.479C81.2107 167.092 81.4092 166.506 81.5987 165.731C81.7972 164.956 82.5733 162.433 83.3494 159.72C84.1255 157.197 84.9015 153.709 85.2896 152.546C85.8762 150.221 86.4537 147.508 88.0059 143.246C88.3939 141.885 89.558 138.785 90.3341 136.072C91.1102 133.549 92.4728 129.673 93.0504 127.348C93.8264 125.023 94.6025 122.887 94.801 122.112C94.9996 121.535 95.5771 120.364 95.7756 119.201L97.1383 115.128C97.5263 113.965 98.3024 112.604 98.6905 111.64C99.277 110.09 99.0785 109.892 99.8546 108.54C100.053 107.954 100.243 107.377 100.243 106.99C100.243 106.8 100.432 105.827 101.019 105.052C101.993 102.529 102.372 101.564 102.183 101.366V101.177C102.372 101.177 102.372 100.789 102.372 100.789C102.372 100.657 102.502 100.591 102.76 100.591C102.887 100.465 102.887 100.402 102.76 100.402C102.174 100.402 102.174 99.6267 102.76 99.6267C102.95 99.6267 102.95 99.4374 102.95 99.4374C102.95 99.3113 103.013 99.2482 103.139 99.2482C103.338 99.2482 103.139 99.2482 102.95 98.8607C102.824 98.7345 102.887 98.6714 103.139 98.6714C103.272 98.6714 103.338 98.6083 103.338 98.4821C103.139 98.4821 103.139 98.0946 103.338 97.3196C103.527 96.7428 103.915 96.3463 103.915 96.157C103.915 96.157 103.915 95.7695 104.114 95.382C104.114 95.1927 104.114 94.4086 104.502 93.6336C105.666 90.9209 107.029 87.8207 107.029 87.2349C107.218 87.0457 107.417 86.2616 107.615 85.8831C108.003 85.1081 108.193 84.7205 108.193 84.333C108.391 84.1438 108.779 83.3597 108.969 82.7829C109.357 81.8096 109.357 81.2328 109.556 81.2328V80.8453C109.556 80.2595 110.142 79.6827 110.332 78.7094C110.981 77.676 111.24 77.1593 111.108 77.1593C110.72 77.5468 106.063 78.1326 103.924 78.1326C102.76 78.5201 101.398 78.5201 97.9054 79.1059C96.9307 79.3042 96.1547 79.4935 96.1547 79.4935C95.9652 79.1059 95.5681 79.4935 94.9905 79.4935C93.8264 79.881 92.6623 80.0793 90.5236 80.0793C89.7475 80.2685 88.5834 80.2685 87.6088 80.656C86.6342 80.656 85.2806 80.8543 84.5045 80.8543C83.7284 81.0436 82.5643 81.0436 81.7882 81.0436C78.6839 81.6203 76.1571 81.6203 70.9231 81.8186C69.9485 81.8186 69.1724 81.8186 69.1724 81.6203C68.9829 81.8186 68.7844 81.8186 68.1978 81.8186C62.9548 81.6203 62.7653 81.6203 61.7907 80.8453C61.0146 80.2595 60.6266 80.0702 60.6266 80.0702C60.4371 80.0702 60.04 79.872 59.8505 79.6827C59.661 79.4935 59.2639 79.0969 58.6864 78.9077C57.9103 78.7184 57.7118 77.5558 58.2983 77.1593C58.4878 77.1593 58.4878 76.7718 58.4878 76.5735C58.4878 76.0568 58.2291 75.7985 57.7118 75.7985C57.3237 75.9967 56.7371 75.7985 56.7371 75.7985C56.7371 75.6092 57.3237 75.6092 57.5132 75.6092C58.2893 75.4199 57.9013 75.4199 57.3237 75.0234C56.5476 75.0234 56.3491 74.8342 56.5476 74.8342C56.674 74.708 56.6108 74.6449 56.3581 74.6449C56.1686 74.6449 55.7716 74.4556 55.7716 74.4556C55.7716 74.1973 55.7084 74.1973 55.5821 74.4556C54.806 74.8432 54.806 74.0681 55.5821 73.4823C56.0994 73.0918 56.1626 72.8965 55.7716 72.8965C55.3835 73.2841 55.185 73.2841 55.185 72.7073C55.185 71.9322 55.573 71.734 57.3237 70.7697C58.4878 70.1929 60.04 69.4178 60.8161 69.4178C61.5921 69.2196 62.5668 68.832 63.1443 68.832C64.895 68.4445 68.7754 68.2462 68.9649 68.4445C69.0912 68.4445 69.2206 68.3784 69.3529 68.2462C69.3529 68.2462 69.9305 67.8587 70.3275 68.2462C70.8449 68.2462 71.1036 68.1171 71.1036 67.8587C70.9051 67.6695 71.1036 67.6695 71.2931 67.8587C71.6812 68.2462 71.8797 67.8587 72.2677 67.6695C72.3941 67.5373 72.4572 67.5373 72.4572 67.6695C72.2677 67.8587 72.4572 67.8587 73.4318 67.8587C74.0094 67.6695 74.4064 67.6695 74.4064 67.4712C74.4064 67.4712 74.7945 67.2819 75.3811 67.2819C75.9676 67.2819 76.1571 67.2819 76.1571 67.4712V67.6695C76.3466 67.6695 76.3466 67.4712 76.3466 67.2819C76.3466 66.6961 76.1571 66.6961 76.5361 67.0927L76.9242 67.4802C76.5361 67.6785 76.9242 67.6785 77.1137 67.4802C77.3032 67.291 77.3032 67.0927 77.3032 67.0927C77.1137 67.0927 78.6658 66.7052 80.606 66.7052H89.919C102.923 66.3176 105.838 66.3176 106.027 66.5159C106.027 66.7052 106.217 66.7052 106.217 66.5159C106.406 66.3266 106.605 66.3266 106.993 66.5159C107.381 66.7052 108.933 66.7052 111.649 66.5159L115.728 66.3266L116.892 63.614C119.22 58.1886 120.773 55.0884 122.523 51.9882C122.911 51.0149 123.498 49.8524 123.498 49.8524C123.11 49.6631 123.498 49.6631 123.498 49.6631C123.687 49.8524 124.084 48.8881 124.084 48.5005C123.886 48.5005 124.084 48.113 124.274 47.9237V48.113C124.662 48.113 124.662 47.9237 124.662 47.9237C124.662 47.7255 124.861 47.5362 125.05 47.5362C125.637 47.5362 126.025 47.1487 126.214 47.1487C126.801 46.9504 126.99 46.9504 127.189 47.1487C127.321 47.4071 127.58 47.5362 127.965 47.5362C128.163 47.1487 128.353 47.1487 128.353 47.5362C128.741 47.5362 128.939 47.7255 129.129 47.7255C129.318 47.9237 129.318 48.113 129.318 48.8881C129.129 49.4738 129.318 49.6631 129.318 49.4738C129.706 49.4738 129.905 49.0863 130.095 49.0863C130.612 49.0863 130.741 49.6691 130.483 50.8347V52.5831C130.871 52.5831 131.069 52.1955 131.069 52.1955C131.069 52.0063 131.457 51.808 131.845 51.808C132.432 51.808 132.432 52.0063 132.82 53.3581C133.009 54.1332 133.208 55.1065 133.208 55.1065C133.397 55.3047 133.397 55.6923 133.397 55.8815C133.208 56.269 133.009 56.8548 133.208 56.8548C133.208 56.8548 133.397 56.4673 133.596 56.2781C133.855 56.1519 134.05 56.215 134.182 56.4673C134.57 57.2424 134.372 61.1176 133.596 64.0285L133.208 66.3537H147.764C155.913 66.5429 163.096 66.5429 163.484 66.5429C164.26 66.7322 166.399 66.7322 168.339 66.7322C170.478 67.1197 172.219 67.1197 172.418 67.1197C172.418 67.309 175.333 67.5072 178.437 67.5072C186.396 68.2823 192.605 68.4806 192.993 68.8681C193.381 69.2556 193.182 69.2556 192.605 69.2556C192.415 68.8681 192.027 69.2556 192.027 69.2556C192.027 69.4539 192.415 69.4539 193.191 69.4539C193.967 69.4539 193.967 69.6431 193.579 69.2556C193.191 68.8681 193.579 68.8681 194.157 68.8681C194.545 68.8681 195.132 68.8681 195.132 69.2556C195.132 69.3878 195.002 69.4539 194.744 69.4539C194.356 69.2556 194.157 69.2556 194.157 69.4539C194.157 69.4539 195.132 69.6431 196.296 69.6431C197.27 69.8324 199.211 70.2289 200.564 70.4182C201.728 70.6074 202.892 70.8057 203.479 70.8057C203.738 70.8057 203.671 70.8718 203.28 71.004C202.895 71.2623 203.025 71.2623 203.668 71.004C204.056 71.004 204.445 71.004 204.445 71.3915C204.445 71.3915 204.634 71.5808 204.833 71.5808C205.609 71.5808 203.479 71.9683 202.694 71.9683C202.306 71.9683 202.495 71.77 202.883 71.77C203.659 71.5808 203.271 71.5808 201.719 71.5808C200.555 71.77 198.615 71.5808 197.64 71.5808C196.666 71.3915 195.312 71.3915 194.536 71.3915C193.372 71.3915 193.173 71.2022 193.561 71.004C194.139 70.6164 193.949 70.8057 192.975 70.8057C191.612 70.8057 191.224 70.8057 191.423 71.004C191.423 71.3915 190.836 71.3915 188.896 71.004C185.792 71.004 185.981 71.3915 189.085 71.5808C193.164 71.77 199.761 72.5541 199.373 72.7433C199.174 72.7433 197.622 72.7433 196.269 72.5451C194.716 72.3558 192.19 72.3558 190.25 71.9683C187.723 71.9683 187.335 72.1575 189.085 72.3558C192.966 72.7433 191.414 72.7433 186.369 72.5451C183.653 72.5451 181.126 72.5451 180.937 72.3558C180.747 72.3558 180.549 72.3558 180.549 72.5451C180.29 72.6772 180.094 72.6772 179.962 72.5451C179.772 72.3558 179.574 72.3558 179.574 72.5451C179.574 72.5451 179.574 72.7433 179.186 72.7433C178.41 72.7433 158.421 72.9326 153.765 72.9326C146.78 73.3201 130.085 74.6809 129.896 75.0685V75.6543C129.896 75.6543 132.035 75.2667 134.94 75.0685C142.9 74.2934 153.765 73.7166 151.825 74.0952C151.049 74.0952 150.074 74.4827 149.496 74.4827C148.522 74.4827 146.392 74.6719 144.452 74.8702C142.512 74.8702 139.407 75.456 137.467 75.456C135.527 75.6453 133 75.8435 131.836 75.8435C129.12 76.0418 129.697 75.8435 128.145 79.142C127.757 80.1153 126.593 82.0529 126.007 83.4048L124.842 86.1174C124.842 86.3067 124.842 86.5049 124.644 86.5049C124.644 86.5049 124.256 86.5049 124.256 86.8925C124.256 87.0817 124.066 87.4692 123.868 88.2443C123.48 89.4069 122.117 92.1195 121.54 93.6696C121.54 94.2554 121.152 94.643 121.152 94.643C121.152 94.9013 121.088 95.0305 120.962 95.0305V95.418C120.773 95.418 120.574 95.8055 120.375 96.5806C119.987 97.3556 119.798 97.7432 119.599 97.7432L119.41 98.1307C119.41 98.3289 118.823 99.4915 118.435 100.654C117.659 101.627 117.271 102.79 117.271 102.979C117.271 102.979 117.271 103.367 116.883 103.565C116.757 103.691 116.694 103.82 116.694 103.953C116.694 103.953 116.694 104.34 116.504 104.34C116.504 104.529 116.306 104.728 116.306 104.728C116.306 104.926 115.918 105.701 115.53 106.088C115.34 106.863 114.555 107.837 114.365 108.612C114.176 109.198 113.779 109.973 113.589 109.973C113.201 110.549 112.425 111.721 112.425 112.298C112.425 112.875 112.227 113.271 111.839 113.271C111.839 113.271 111.649 113.659 111.839 113.659L111.451 114.046C111.261 114.235 111.063 114.434 111.063 114.235L110.675 114.425V115.2C110.675 115.2 110.675 115.389 110.476 115.389C110.286 115.777 110.088 115.975 110.088 116.164C110.088 116.555 109.892 116.618 109.501 116.353C109.243 116.227 109.18 116.227 109.312 116.353C109.501 116.939 109.312 118.291 108.924 118.291C108.924 118.291 108.536 118.291 108.924 118.48C108.924 118.48 108.924 119.066 108.536 119.255C107.372 122.166 106.984 123.329 106.596 124.293C106.397 125.266 106.009 126.231 106.009 125.456C106.009 125.329 105.946 125.329 105.82 125.456C105.561 125.588 105.561 125.846 105.82 126.231C105.561 126.231 105.561 126.297 105.82 126.429C105.82 126.816 105.431 128.177 105.043 127.781V128.367C105.233 128.556 105.043 128.754 105.043 128.556C104.911 128.556 104.845 128.619 104.845 128.745C105.043 129.331 104.267 131.458 103.87 131.656C103.612 131.782 103.612 131.845 103.87 131.845C103.87 131.845 103.87 132.233 103.482 132.431C103.482 132.62 103.293 133.017 103.293 133.404C103.293 133.594 103.094 133.594 103.094 133.792C102.905 133.792 102.706 134.369 102.706 134.567C101.732 136.703 101.344 136.892 100.956 136.703C100.829 136.703 100.829 136.766 100.956 136.892C101.214 137.283 101.214 137.541 100.956 137.667C100.956 137.856 100.766 138.055 100.766 138.64C100.378 139.226 99.6019 141.741 99.0153 141.353C99.0153 141.353 98.8258 141.353 98.8258 141.741C98.8258 141.741 99.0153 141.93 99.2139 141.93L99.0153 142.128C98.8258 142.128 98.6273 142.317 98.8258 142.317C99.2139 142.317 99.0153 143.093 98.6363 143.093C98.2573 143.093 98.0497 143.282 98.2483 143.669C98.2483 144.255 97.6617 145.805 97.2737 145.418V146.193C97.2737 146.391 97.0842 146.968 96.8856 147.166C96.8856 146.968 96.8856 146.778 96.6961 146.968C96.5638 146.968 96.5638 146.775 96.6961 146.391C96.6961 146.193 96.8856 145.805 96.8856 145.418C96.8856 145.219 97.2737 144.444 97.6617 143.669C98.0497 142.894 98.8258 140.569 99.8004 138.046C100.775 135.91 101.353 133.783 101.741 133.585C101.93 133.008 101.93 132.81 101.93 132.81V132.233C102.056 131.842 102.056 131.713 101.93 131.845C101.741 131.845 101.741 132.233 101.741 132.233C101.741 132.422 101.741 132.62 101.353 132.81C101.163 133.008 100.965 133.395 100.965 133.395C100.965 133.783 99.6019 137.081 99.2139 136.883C99.2139 136.694 99.7914 135.91 99.9899 135.333C100.965 132.81 100.378 133.395 99.2139 135.919C98.8258 137.081 98.0497 138.631 98.0497 139.019C97.8602 139.605 97.6617 139.992 97.6617 139.992C97.6617 139.992 97.2737 140.578 97.2737 140.767C97.0842 141.155 96.6961 142.128 96.4976 142.903C96.1095 143.678 95.92 144.255 95.7215 144.255C95.7215 144.444 95.144 145.805 94.7469 146.968C94.1693 148.13 93.3933 150.266 92.8067 151.618C92.2201 153.168 91.8321 154.529 91.8321 154.718C91.8321 155.106 91.6426 155.304 91.6426 155.493C91.4441 156.07 90.4785 159.567 90.4785 159.756C90.4785 159.945 90.4785 159.945 90.289 159.945C90.289 159.945 89.9009 160.333 90.289 160.333C90.289 160.522 90.289 160.72 89.9009 160.72C89.9009 160.72 89.7114 160.91 89.7114 161.306C89.7114 161.495 89.1248 163.631 88.3578 166.155C87.5817 168.867 86.6071 171.193 86.6071 171.193C86.8056 171.58 87.5817 169.255 88.5473 166.542C90.8755 159.369 92.0396 156.079 92.4277 155.692C92.6262 155.502 92.4277 156.079 91.8501 157.827C86.6071 172.752 82.1492 187.099 82.3387 187.676C82.3387 187.676 82.3387 187.865 82.1492 187.676C82.1492 187.676 81.7611 187.676 82.1492 188.253C82.1492 188.451 82.1492 188.64 81.7611 188.451C81.7611 188.451 81.5626 188.64 81.7611 188.838C81.7611 189.424 81.7611 189.613 81.5626 189.424C81.5626 188.451 81.9506 186.712 82.5372 184.774C84.0894 179.925 84.2879 179.349 83.7013 180.124C83.7013 180.313 82.3387 184.585 82.1492 185.36C81.7611 186.522 81.3731 187.883 81.3731 188.271C81.1836 188.469 81.1836 188.658 81.1836 188.856C81.1836 189.244 80.9941 189.83 80.597 190.794C80.4075 191.569 80.4075 192.344 80.4075 192.542C80.597 192.93 80.7955 192.732 80.597 192.344C80.209 191.767 80.597 191.767 80.597 191.767C80.9851 191.957 80.9851 191.767 80.9851 191.38C80.597 190.794 80.597 190.605 80.9851 190.992C81.3731 191.38 81.1746 191.38 81.1746 190.605C81.0482 190.346 81.0482 190.283 81.1746 190.416C81.3009 190.548 81.3641 190.485 81.3641 190.226C81.3641 190.028 81.3641 189.839 81.5536 189.64C81.5536 189.83 81.5536 190.803 81.1655 191.966C80.7775 193.516 80.579 193.714 80.3895 193.317L80.2 192.542L80.0014 193.317C79.6134 193.516 79.8119 193.705 80.0014 194.093C80.3895 194.678 80.2 194.678 80.2 193.903V193.714C80.588 194.489 80.2 195.652 79.6134 195.462C79.6134 195.462 79.6134 195.075 80.0014 195.075C80.1338 194.943 80.1338 194.813 80.0014 194.687C79.4239 194.102 79.0268 196.048 79.2253 196.823C79.4149 197.211 79.4149 197.598 79.2253 197.598V197.986C79.2253 198.175 79.2253 198.572 79.0268 198.761C78.6388 198.95 78.4493 198.95 78.4493 198.761C78.4493 198.572 78.4493 198.572 78.2507 198.761C78.2507 198.95 78.4493 199.148 78.6388 199.148C78.6388 199.148 78.6388 199.923 78.2507 201.672C77.8627 203.024 77.2761 204.384 77.2761 204.772C77.0866 205.159 77.0866 205.358 76.8881 205.159C76.5001 205.159 76.5001 205.349 76.8881 205.547C76.8881 206.064 76.7587 206.259 76.5001 206.133C76.3737 206.007 76.3737 206.136 76.5001 206.52V207.295C76.3105 207.295 76.3105 207.494 76.3105 207.881C76.3105 208.07 76.3105 208.269 76.121 208.269C75.9315 208.458 75.5345 209.044 75.1464 210.594C74.7584 214.28 73.9823 215.244 74.1718 212.144V210.396L74.235 210.35ZM75.0111 67.6965C74.8216 67.6965 75.0111 67.8858 75.2096 67.6965C75.5976 67.6965 75.5976 67.4982 75.5976 67.4982C75.4081 67.4982 75.2096 67.4982 75.0111 67.6965ZM75.2096 206.088C75.2096 206.277 75.2096 206.475 75.2096 206.277V205.889C75.2096 205.631 75.2096 205.694 75.2096 206.079V206.088ZM75.3991 203.961V204.934C75.3991 205.193 75.3991 205.193 75.3991 204.934C75.5886 204.348 75.5886 203.961 75.5886 203.772C75.5886 203.513 75.5254 203.576 75.3991 203.961ZM75.5976 190.587V191.56C75.5976 191.818 75.5976 191.818 75.5976 191.56C75.9857 190.983 75.9857 190.785 75.9857 190.587C75.9857 190.388 75.9857 190.398 75.5976 190.587ZM75.9857 205.123C75.9857 205.313 75.9857 205.511 75.9857 205.313V204.925C75.9857 204.793 75.9857 204.856 75.9857 205.114V205.123ZM76.1752 200.662C76.1752 200.861 76.3647 201.05 76.3647 201.05V200.662C76.3647 200.404 76.3015 200.404 76.1752 200.662ZM76.9513 204.15C76.9513 204.339 77.1408 204.727 77.1408 204.727V204.15C77.1408 204.018 77.0776 204.018 76.9513 204.15ZM77.1498 203.177C77.1498 203.375 77.3393 203.763 77.3393 203.763V203.177C77.3393 203.051 77.2761 203.051 77.1498 203.177ZM77.3393 202.212C77.3393 202.6 77.5288 202.798 77.5288 202.798V202.212C77.5288 202.086 77.4656 202.086 77.3393 202.212ZM77.5378 201.239C77.5378 201.627 77.9259 201.825 77.9259 201.825V201.239C77.9259 201.113 77.7965 201.113 77.5378 201.239ZM78.1154 199.689C78.1154 199.878 78.3049 200.077 78.3049 200.077V199.689C78.3049 199.563 78.2417 199.563 78.1154 199.689ZM78.7019 196.976C78.7019 197.166 79.09 197.562 79.09 197.562V196.976C79.09 196.85 78.9606 196.85 78.7019 196.976ZM79.6675 173.328C79.6675 173.716 79.478 173.914 79.478 174.103C79.478 174.879 79.6675 174.689 80.0556 173.716C80.0556 173.325 79.9262 173.196 79.6675 173.328ZM80.2541 171.589C80.2541 171.778 80.0556 171.977 80.0556 172.364C80.0556 173.139 80.2541 172.95 80.4436 172.175C80.4436 171.787 80.4436 171.589 80.2541 171.589ZM80.6421 170.616L80.4526 170.805V171.193C80.6421 171.193 80.6421 170.994 80.6421 170.805V170.616ZM81.6077 166.939C81.4182 166.939 80.6331 169.264 80.6331 170.039C81.0212 170.237 81.4092 168.687 81.6077 167.714V166.939ZM81.8063 165.776C81.8063 165.965 81.6077 166.164 81.6077 166.551C81.6077 166.74 81.8063 166.74 81.8063 166.551C82.1943 166.164 82.1943 165.965 82.1943 165.776C82.1943 165.587 82.1943 165.587 81.8063 165.776ZM82.1943 173.914C82.1943 174.103 82.3838 174.302 82.3838 174.302V173.914C82.3838 173.788 82.3206 173.788 82.1943 173.914ZM84.333 178.564C84.333 178.952 84.1345 179.141 84.1345 179.34C84.333 179.529 84.5225 178.952 84.5225 178.366L84.333 178.564ZM84.9106 176.825C84.7211 177.213 84.7211 177.798 84.7211 177.988C84.7211 178.177 84.5316 177.988 84.9106 177.402C85.1091 177.014 85.2986 176.429 85.2986 176.239C85.2986 176.05 85.2986 176.239 84.9106 176.825ZM87.8254 159.954C87.8254 159.954 87.2388 160.928 86.8508 162.279C86.4627 163.442 86.2642 164.803 85.8761 165.38C85.6776 165.569 85.4881 165.956 85.4881 166.155C85.4881 166.93 86.2642 165.767 86.8508 162.856C87.6268 161.495 87.8254 159.945 87.8254 159.945V159.954ZM85.8852 173.328C85.8852 173.716 85.6866 173.914 85.6866 174.103C85.8852 174.293 86.2732 173.716 86.2732 173.13L85.8852 173.319V173.328ZM86.4627 171.977C86.4627 172.166 86.2732 172.364 86.2732 172.752C86.4627 172.941 86.6613 172.166 86.6613 171.778L86.4717 171.977H86.4627ZM95.7756 137.667C96.1637 136.505 96.5517 135.531 96.5517 135.531C96.5517 134.945 94.025 141.155 94.025 141.732C94.025 142.119 94.2235 141.732 94.801 140.758C94.9996 140.173 95.5771 138.821 95.7756 137.658V137.667ZM101.019 137.478C101.019 137.22 100.956 137.09 100.829 137.09V137.478L101.019 137.667V137.478ZM105.287 117.894C105.098 117.894 103.347 121.193 103.347 121.58C103.347 122.157 103.536 121.968 104.123 120.995C105.098 118.859 105.287 117.894 105.287 117.894ZM108.202 110.73C108.202 110.73 105.287 116.93 105.287 117.318C105.287 117.894 105.675 117.507 107.038 114.217C107.814 112.28 108.202 110.919 108.202 110.73ZM107.426 120.22C107.227 120.409 107.426 120.409 107.615 120.22C107.615 120.03 108.003 120.03 107.615 119.832C107.615 119.832 107.426 120.021 107.426 120.22ZM108.4 117.894C108.202 118.282 108.012 118.868 108.012 118.868C108.012 119.066 108.202 118.868 108.4 118.291C108.59 117.903 108.978 117.318 108.978 117.128C108.978 117.128 108.59 117.327 108.4 117.903V117.894ZM108.978 108.981L108.59 109.558L109.177 108.981C109.366 108.783 109.366 108.206 109.366 108.008C109.366 107.81 109.366 108.396 108.978 108.981ZM110.53 113.244C110.53 113.244 110.341 113.632 110.142 113.821C110.142 114.208 109.754 114.794 109.556 115.182C109.366 115.768 109.366 115.957 109.366 115.957C109.556 115.957 109.754 115.371 110.142 114.794C110.53 114.019 110.53 113.244 110.53 113.244ZM112.47 109.18C112.272 109.18 111.306 111.117 111.306 111.316C111.306 111.901 111.893 110.739 112.281 109.964C112.479 109.576 112.479 109.189 112.479 109.189L112.47 109.18ZM168.176 71.77C167.788 71.77 168.176 71.9683 168.564 71.9683C169.341 71.9683 169.539 71.77 169.341 71.77H168.176ZM172.445 69.8234C171.47 69.8234 172.255 70.2109 173.609 70.2109C175.36 70.2109 175.748 69.8234 174.972 69.8234H172.445ZM179.818 70.2199C179.628 70.4092 180.007 70.4092 180.792 70.4092C181.577 70.4092 181.956 70.4092 181.956 70.2199H179.818ZM182.146 71.77C181.956 71.9683 182.146 71.9683 182.335 71.9683C182.594 71.9683 182.723 71.9022 182.723 71.77H182.146ZM190.881 70.6074C190.881 70.6074 190.304 70.6074 189.528 70.4182C188.553 70.4182 187.199 70.4182 186.035 70.2289H182.931C182.344 70.2289 184.095 70.4182 186.423 70.6165C188.95 70.8057 190.89 70.8057 190.89 70.8057V70.6165L190.881 70.6074ZM184.673 71.9593C184.673 71.761 184.285 71.761 184.086 71.761H183.31L183.897 71.9593C184.285 71.9593 184.673 72.3468 184.673 72.3468V71.9593ZM191.08 68.8591C190.493 68.6698 189.528 68.6698 188.941 68.6698H187.966L189.131 68.8591C189.907 68.8591 190.493 69.2466 191.071 69.2466H192.045L191.071 68.8591H191.08ZM196.314 70.4092C196.124 70.5984 196.314 70.5984 196.503 70.5984C196.693 70.5984 196.693 70.5984 196.693 70.4092H196.305H196.314ZM196.702 70.7967C196.512 70.995 196.702 70.995 197.09 70.995C197.216 70.995 197.279 70.9289 197.279 70.7967H196.693H196.702ZM198.841 70.6074C198.651 70.7967 198.841 70.7967 199.229 70.7967C199.361 70.7967 199.427 70.7336 199.427 70.6074H198.841ZM200.979 71.3825C200.781 71.5717 200.979 71.5717 201.367 71.5717C201.494 71.5717 201.557 71.5087 201.557 71.3825H200.979Z" fill="url(#paint0_linear_199_93)"/>
<path d="M121.201 140.045C121.275 139.97 121.056 139.97 120.695 139.97C120.186 140.045 120.041 139.97 119.606 139.533L119.026 138.95C118.955 138.512 118.81 138.221 118.661 138.292C118.371 138.363 117.862 138.071 117.862 137.854C117.862 137.709 117.788 137.634 117.717 137.634C117.646 137.634 117.498 137.343 117.282 136.976C116.773 135.956 116.918 134.935 118.007 131.362C118.371 130.487 118.297 130.558 119.312 128.371C119.967 126.914 121.778 123.777 121.997 123.56C122.068 123.56 122.361 123.123 122.651 122.686C124.031 120.645 126.857 118.092 128.455 117.508C129.69 117.071 130.341 117 132.226 117.288C133.17 117.363 133.386 117.434 133.315 117.654C133.315 117.725 133.315 117.8 133.386 117.725C133.457 117.651 133.602 117.725 133.75 117.871C133.821 117.946 134.04 118.092 134.114 118.092C134.259 118.092 134.55 118.237 134.769 118.458L135.204 118.824L136.003 118.02C136.367 117.583 136.873 117.217 136.947 117.217C137.092 117.217 137.237 117.217 137.312 117.146C137.312 117.074 137.457 117 137.531 117.074C137.605 117.149 137.75 117.074 137.821 116.929C137.868 116.881 137.892 116.881 137.892 116.929C137.892 117.074 138.111 117.149 138.472 117.149C139.126 117.149 139.561 117.515 139.561 118.098C139.561 118.319 139.632 118.465 139.706 118.465C139.706 118.465 139.925 118.756 140.07 119.048L140.36 119.56L139.706 121.238C139.342 122.187 139.052 122.987 139.126 123.062C139.126 123.133 139.126 123.208 139.055 123.133C138.836 123.062 138.691 123.571 138.836 123.791C138.91 123.866 138.836 123.866 138.765 123.866C138.62 123.72 138.256 124.374 138.401 124.594C138.472 124.666 138.401 124.74 138.33 124.74C138.259 124.74 138.185 124.74 138.256 124.815C138.33 124.886 138.256 124.961 138.185 125.032C138.114 125.032 137.241 126.781 136.59 128.314C135.791 130.209 135.211 133.711 135.575 134.366C135.646 134.586 135.72 134.949 135.72 135.169C135.794 135.535 135.865 135.681 136.084 135.681C136.738 135.827 140.074 133.64 143.193 131.162C146.748 128.317 146.964 128.171 147.254 127.663C147.325 127.442 147.399 127.442 147.399 127.734C147.399 127.978 147.472 128.002 147.618 127.805C147.834 127.439 148.124 127.734 147.908 128.097C147.763 128.534 147.763 128.609 148.053 128.388C148.15 128.291 148.15 128.388 148.053 128.68C147.908 128.9 147.763 129.192 147.763 129.338C147.763 129.409 147.692 129.558 147.618 129.558C147.544 129.558 146.603 130.433 145.443 131.599C144.354 132.694 142.903 134.152 142.107 134.806C141.237 135.535 140.873 135.973 140.947 136.047C141.092 136.264 142.687 134.806 144.647 132.694C145.517 131.819 146.242 131.091 146.316 131.091C146.391 131.162 147.767 129.704 148.057 129.195C148.153 129.048 148.202 129.048 148.202 129.195C148.202 129.704 147.767 130.362 146.387 131.894C145.588 132.843 144.937 133.572 145.008 133.644C145.008 133.715 144.937 133.864 144.718 134.01L144.428 134.301C144.428 134.301 144.502 134.301 144.502 134.372C144.502 134.518 144.212 134.739 144.067 134.739C143.996 134.739 143.922 134.739 143.851 134.81C143.777 134.881 143.851 134.881 143.922 134.881C143.993 134.81 144.067 134.81 144.067 134.881C144.067 135.101 141.311 137.943 141.092 138.017C140.947 138.017 140.728 138.163 140.512 138.238C140.148 138.529 139.932 138.604 140.077 138.383C140.077 138.238 139.861 138.312 139.571 138.455C139.281 138.675 138.991 138.821 138.991 138.821C138.991 138.967 139.426 138.892 139.645 138.675C139.79 138.529 139.865 138.455 139.935 138.529C140.006 138.6 139.645 138.967 139.281 139.258L138.917 139.478L139.281 139.407C139.716 139.262 141.166 138.458 141.821 137.875C142.475 137.363 142.691 137.292 142.475 137.583C142.404 137.654 142.475 137.654 142.62 137.583C142.765 137.437 142.836 137.292 142.836 137.217C142.836 137.142 143.345 136.488 143.996 135.905C145.156 134.593 148.202 130.802 148.566 130.145C148.637 129.853 148.856 129.707 148.93 129.707C149.075 129.707 149.075 129.928 148.93 129.999C148.785 130.073 148.785 130.219 148.785 130.29C148.785 130.362 148.785 130.362 148.93 130.219C149.001 130.148 149.001 130.073 149.001 130.148C149.001 130.731 143.126 138.316 142.836 138.17C142.765 138.095 142.691 138.17 142.546 138.316C142.449 138.462 142.497 138.486 142.691 138.387C142.835 138.242 142.835 138.266 142.691 138.458C142.546 138.604 142.327 138.75 142.256 138.678C142.185 138.607 142.185 138.678 142.256 138.75C142.33 138.895 141.241 139.845 140.516 140.207C139.935 140.574 137.686 140.645 137.106 140.353C136.887 140.207 136.671 140.133 136.597 140.133C136.452 140.133 135.872 139.621 135.217 138.967C134.128 137.871 133.838 137.654 133.332 137.288C133.187 137.214 132.968 136.776 132.678 136.339L132.314 135.535V133.42C132.388 131.013 132.678 129.555 133.764 126.273C134.128 125.398 134.344 124.669 134.273 124.594L133.838 125.032C133.619 125.323 133.332 125.69 133.113 125.907C132.894 126.124 132.459 126.71 132.098 127.219C131.733 127.731 131.443 128.168 131.373 128.168C131.373 128.168 131.592 127.731 131.953 127.293C133.548 125.032 133.838 124.449 133.403 124.886C133.184 125.178 131.083 128.093 129.123 130.938C128.614 131.667 128.253 132.325 128.253 132.325C128.3 132.372 128.3 132.396 128.253 132.396C128.182 132.396 127.528 133.125 126.874 134C125.133 136.332 124.408 137.207 123.393 138.156C122.887 138.665 122.523 139.106 122.523 139.177C122.523 139.248 122.378 139.323 122.088 139.397C121.798 139.468 121.724 139.468 121.872 139.614C122.017 139.685 122.162 139.685 122.236 139.614C122.307 139.614 122.307 139.685 122.236 139.906C122.162 140.197 122.162 140.272 122.381 140.197C122.818 140.05 122.963 139.928 122.816 139.831C122.671 139.76 122.742 139.685 123.032 139.611C123.251 139.465 123.322 139.394 123.322 139.319C123.251 139.248 123.322 139.173 123.393 139.173C123.683 139.173 124.047 138.807 125.568 136.695C127.019 134.725 127.238 134.434 126.874 134.579C126.727 134.627 126.703 134.553 126.799 134.359C127.019 133.993 127.234 133.85 127.164 134.142C127.019 134.359 127.089 134.359 127.234 134.213C127.454 134.067 127.454 133.993 127.379 133.847C127.283 133.75 127.283 133.701 127.379 133.701C127.525 133.772 127.744 133.555 128.105 132.972C128.61 132.169 129.845 130.419 130.064 130.202C130.209 130.056 129.41 131.514 128.469 132.972C127.815 133.922 127.525 134.576 127.599 134.722C127.67 134.939 127.599 134.939 127.528 134.793C127.383 134.501 127.164 134.793 127.309 135.159C127.356 135.256 127.332 135.256 127.238 135.159C127.167 135.088 127.093 135.088 127.019 135.159C126.944 135.23 127.019 135.379 127.089 135.525C127.164 135.671 127.234 135.746 127.089 135.746C127.019 135.746 126.944 135.817 126.944 135.891C126.897 135.939 126.874 135.89 126.874 135.746C126.944 135.308 126.729 135.454 126.439 136.037C126.294 136.403 126.294 136.475 126.439 136.329C126.513 136.254 126.658 136.183 126.729 136.254C126.799 136.329 125.494 138.37 125.349 138.37C125.278 138.37 125.349 138.153 125.349 138.004C125.42 137.712 125.42 137.637 125.278 137.712C125.204 137.783 125.204 138.004 125.204 138.224C125.278 138.59 125.059 139.028 124.84 138.807C124.84 138.807 124.769 138.878 124.84 139.024C124.84 139.17 124.769 139.245 124.55 139.245C124.479 139.245 124.405 139.245 124.405 139.316C124.55 139.536 122.665 140.994 122.23 140.919C122.155 140.919 121.865 140.848 121.575 140.702C121.066 140.482 120.921 140.336 121.211 140.045H121.201ZM121.926 132.752C121.855 132.752 121.926 132.681 121.997 132.681C122.068 132.681 122.142 132.609 122.068 132.535C121.997 132.535 122.068 132.389 122.139 132.389C122.209 132.389 122.648 131.586 123.154 130.64C124.823 127.358 126.634 124.733 128.813 122.764C129.177 122.397 129.467 122.106 129.393 122.106C129.248 122.106 126.998 124.367 126.273 125.242C125.329 126.483 124.098 128.449 123.373 129.907C122.938 130.565 122.648 131.148 122.574 131.148C122.429 131.148 123.518 128.961 124.314 127.649C125.039 126.483 124.894 126.554 124.098 127.72C122.864 129.616 121.123 133.627 121.488 133.627C121.562 133.627 121.707 133.481 121.778 133.26C121.923 133.04 121.923 132.823 121.923 132.748L121.926 132.752ZM130.995 123.93C133.099 121.231 133.679 120.431 133.244 120.794C133.029 120.94 131.865 121.302 131.72 121.302C131.649 121.231 131.575 121.302 131.575 121.377C131.575 121.452 131.504 121.594 131.285 121.669C131.139 121.766 131.09 121.766 131.14 121.669C131.211 121.523 131.14 121.523 130.921 121.669C130.776 121.74 130.631 121.885 130.701 121.96C130.772 121.96 130.631 122.106 130.556 122.252C130.41 122.349 130.386 122.325 130.482 122.18C130.772 121.814 130.482 121.889 130.118 122.252C129.973 122.397 129.973 122.472 130.118 122.397C130.215 122.35 130.215 122.399 130.118 122.543C129.902 122.764 129.754 122.835 129.902 122.618C130.047 122.397 129.828 122.472 129.467 122.764C129.322 122.984 129.177 123.13 129.248 123.201C129.248 123.276 129.248 123.347 129.177 123.276C129.106 123.201 128.813 123.421 128.523 123.713C128.233 124.005 127.943 124.225 127.869 124.225C127.798 124.154 127.723 124.154 127.798 124.225C127.869 124.371 127.433 125.028 127.288 124.954C127.143 124.883 125.983 126.412 126.054 126.486C126.054 126.486 126.199 126.415 126.344 126.266C126.708 125.829 126.415 126.341 125.329 127.944C124.82 128.748 124.169 129.768 123.95 130.206C123.37 131.372 122.789 132.538 122.86 132.538C122.931 132.538 123.515 132.03 124.165 131.443C125.761 130.056 128.951 126.486 130.985 123.933L130.995 123.93ZM126.135 136.834C126.135 136.688 126.064 136.688 125.845 136.98C125.7 137.126 125.555 137.417 125.555 137.488C125.555 137.709 125.629 137.709 125.7 137.488C125.7 137.417 125.845 137.271 125.919 137.197C126.064 137.126 126.135 136.98 126.135 136.831V136.834ZM127.295 125.022C127.366 125.096 126.786 125.896 126.641 125.896C126.57 125.968 126.712 125.751 126.86 125.459C127.076 125.167 127.295 125.022 127.295 125.022ZM133.17 124.73C134.185 123.418 134.33 123.198 134.04 123.418C133.386 124.001 129.11 129.761 129.251 129.982C129.301 130.079 129.857 129.374 130.921 127.866C131.72 126.771 132.735 125.388 133.17 124.73ZM134.04 124.147C133.895 124.218 133.821 124.364 133.821 124.438V124.584C133.821 124.513 133.966 124.364 134.04 124.218C134.186 124.024 134.186 124 134.04 124.147ZM134.985 138.221C134.985 138.221 134.914 138.292 134.914 138.366C134.914 138.441 134.985 138.512 135.13 138.512C135.204 138.512 135.275 138.438 135.204 138.366C135.204 138.295 135.059 138.221 134.985 138.221ZM135.13 129.616C135.059 129.687 135.13 129.761 135.275 129.687C135.345 129.687 135.42 129.616 135.42 129.616C135.42 129.395 135.204 129.395 135.13 129.616ZM135.855 127.354C135.784 127.425 135.71 127.5 135.71 127.575C135.71 127.792 135.784 127.72 135.929 127.5C135.929 127.429 135.929 127.354 135.858 127.354H135.855ZM138.681 139.607C138.462 139.607 138.317 139.679 138.317 139.753C138.317 139.899 138.607 139.899 138.897 139.753C139.042 139.607 138.968 139.607 138.678 139.607H138.681ZM140.134 136.834C140.205 136.834 140.205 136.763 140.134 136.688C140.134 136.617 140.205 136.542 140.279 136.542C140.425 136.542 140.499 136.471 140.425 136.397C140.35 136.251 140.425 136.251 140.57 136.325C140.789 136.397 141.005 136.18 140.789 136.105C140.715 136.034 140.134 136.397 139.484 136.834C138.249 137.637 138.104 138 139.339 137.271C139.703 136.98 140.064 136.834 140.138 136.834H140.134ZM139.48 139.462C139.409 139.462 139.264 139.533 139.19 139.607C139.19 139.679 139.19 139.753 139.335 139.753C139.406 139.753 139.554 139.679 139.625 139.607C139.696 139.536 139.625 139.462 139.48 139.462ZM142.671 135.305L142.381 135.596C142.236 135.742 142.161 135.888 142.161 135.888C142.232 135.888 142.381 135.742 142.526 135.596C142.6 135.451 142.745 135.305 142.671 135.305ZM144.994 133.555L144.559 133.922C144.195 134.288 144.124 134.434 144.34 134.288H144.411L144.701 133.922L144.991 133.555H144.994Z" fill="white"/>
<path d="M147.097 145.913C146.951 145.913 146.951 145.693 146.951 145.402C146.951 144.965 147.022 144.965 146.88 145.256C146.809 145.476 146.661 145.547 146.59 145.476C146.518 145.402 146.37 145.256 146.224 145.185C146.004 145.04 145.859 144.894 145.859 144.603C145.859 144.238 145.859 144.167 145.713 144.312C145.422 144.603 145.203 144.458 144.986 144.092C144.912 143.947 144.766 143.801 144.621 143.801C144.401 143.801 144.11 143.365 144.11 142.999C144.11 142.854 144.039 142.779 143.89 142.779C143.525 142.779 143.088 142.052 143.163 141.686C143.234 141.541 143.163 141.395 143.092 141.395C143.017 141.321 143.017 141.175 143.092 140.884C143.237 140.519 143.237 140.373 143.092 140.302C142.995 140.205 142.97 140.205 143.017 140.302C143.017 140.448 143.017 140.668 142.946 140.884C142.875 141.175 142.875 141.321 142.946 141.466C143.043 141.563 143.02 141.587 142.875 141.537C142.51 141.392 142.439 140.664 142.51 139.571C142.581 139.06 142.655 138.478 142.655 138.333C142.801 137.822 144.184 135.057 144.255 135.132C144.401 135.206 144.837 134.113 144.837 133.822C144.837 133.775 144.861 133.751 144.908 133.751C144.983 133.822 146.072 131.714 147.31 129.166C149.857 124.073 150.801 122.398 152.184 120.361C153.057 119.051 154.15 117.742 154.15 118.033C154.15 118.107 153.642 119.051 152.766 120.581C152.039 121.891 151.819 122.401 151.894 122.401C151.968 122.401 153.277 119.999 153.277 119.853C153.277 119.782 153.423 119.708 153.497 119.633C153.568 119.562 153.933 118.977 154.224 118.395C154.515 117.738 154.735 117.302 154.735 117.376C154.782 117.523 154.856 117.523 154.955 117.376C155.026 117.231 155.1 117.231 155.026 117.522C155.026 117.738 155.026 117.813 155.097 117.813C155.242 117.813 155.317 117.738 155.317 117.667C155.317 117.231 155.608 117.813 155.608 118.324C155.608 118.76 155.679 118.906 155.899 118.835C156.264 118.764 156.7 119.853 156.7 120.801C156.7 121.528 156.335 123.349 156.119 123.931C155.973 124.442 155.973 124.513 156.19 124.222C156.287 124.028 156.335 124.052 156.335 124.293C156.288 124.487 156.336 124.536 156.48 124.439C156.626 124.293 156.771 124.219 156.697 124.219C156.697 124.148 157.499 123.417 157.57 123.417C157.715 123.417 158.006 123.197 158.006 123.051C158.006 122.98 157.932 122.98 157.786 123.051C157.641 123.197 157.715 123.051 157.857 122.906C158.223 122.469 158.439 122.395 158.077 122.76C158.006 122.906 158.006 122.977 158.077 122.977C158.148 122.906 158.804 122.249 159.461 121.522C160.117 120.794 160.844 120.067 161.135 119.776L161.571 119.339L161.206 119.776C161.061 119.996 160.841 120.212 160.841 120.212C160.841 120.287 160.475 120.649 160.113 121.085C159.677 121.596 159.968 121.376 160.77 120.578C161.497 119.776 162.153 119.194 162.224 119.194C162.295 119.265 162.295 119.122 162.295 119.048C162.224 118.828 163.023 118.101 163.168 118.175C163.242 118.246 163.242 118.175 163.168 118.104C163.097 117.958 165.204 115.63 165.35 115.776C165.35 115.776 165.424 115.921 165.279 116.067L165.424 115.921C165.861 115.485 165.932 115.41 165.57 115.63L165.935 115.265C166.226 114.974 166.662 114.537 166.737 114.317C166.953 113.881 166.882 113.881 166.882 114.246C166.882 114.537 167.101 114.561 167.538 114.317C168.049 114.101 168.12 114.101 168.411 114.317C169.284 114.899 169.866 116.138 169.795 117.227C169.649 118.757 167.975 123.197 166.013 127.125C165.357 128.509 164.048 131.856 164.122 131.927C164.122 131.998 164.122 132.073 164.051 132.218C163.98 132.364 164.122 132.218 164.487 131.853C165.143 131.196 165.143 131.271 164.558 132.073C164.413 132.289 164.267 132.509 164.338 132.509C164.409 132.509 164.409 132.58 164.409 132.655C164.362 132.704 164.362 132.729 164.409 132.729C164.555 132.655 164.555 132.509 164.555 132.364C164.484 132.218 164.484 132.147 164.555 132.218C164.7 132.364 164.771 132.218 164.92 132.147C164.991 132.076 164.991 132.002 164.92 132.002C164.92 132.002 164.991 131.785 165.14 131.636C165.648 131.129 165.867 130.834 166.013 130.618C166.087 130.472 166.013 130.472 165.867 130.689C165.796 130.834 165.648 130.909 165.648 130.834C165.648 130.834 165.938 130.398 166.375 129.816C166.811 129.234 167.176 128.868 167.176 128.943C167.176 129.017 167.031 129.234 166.74 129.525C165.867 130.618 166.084 130.543 167.105 129.379C167.762 128.577 167.833 128.286 167.471 128.652C167.251 128.797 167.251 128.723 167.471 128.506C167.616 128.286 167.762 128.215 167.836 128.286C167.911 128.357 168.492 127.778 168.492 127.63C168.492 127.559 168.347 127.63 168.127 127.775L168.272 127.63C168.563 127.339 168.709 127.122 168.78 127.122C168.854 127.268 169.727 126.394 169.727 126.249C169.727 126.178 169.656 126.178 169.511 126.32C169.365 126.466 169.511 126.249 169.801 125.884C170.092 125.592 170.309 125.447 170.383 125.447C170.458 125.447 170.603 125.447 170.674 125.301C170.749 125.23 170.749 125.156 170.749 125.156L171.987 123.917C171.987 123.846 171.912 123.917 171.33 124.499L170.749 125.156V125.085C170.674 125.085 170.894 124.794 171.256 124.428C171.618 124.063 171.983 123.772 172.058 123.846C172.203 123.917 173.076 123.044 173.005 122.899C172.934 122.828 172.934 122.753 173.076 122.828C173.147 122.828 173.441 122.828 173.732 122.608C174.073 122.364 174.049 122.388 173.661 122.679C172.934 123.261 170.17 126.1 169.514 126.899C169.223 127.264 169.585 126.97 170.316 126.242C171.117 125.515 171.99 124.642 172.281 124.422C172.646 124.131 173.154 123.694 173.445 123.403C173.664 123.183 174.172 122.747 174.537 122.53C174.903 122.239 175.193 122.094 175.264 122.019C175.264 121.972 175.216 121.9 175.119 121.803C174.974 121.657 175.045 121.728 175.41 121.728C175.775 121.803 175.917 121.803 175.992 121.657C176.063 121.437 176.574 121.437 176.719 121.657C176.79 121.728 176.939 121.803 177.084 121.948C177.304 121.948 177.304 122.094 177.304 122.168C177.233 122.313 177.304 122.533 177.45 122.676C177.595 122.967 177.67 123.041 177.521 123.112C177.424 123.159 177.424 123.183 177.521 123.183C178.031 123.183 178.468 125.44 178.177 127.041C178.177 127.261 178.031 127.768 178.031 128.134C177.96 128.499 177.886 129.152 177.812 129.663C177.741 130.1 177.666 130.973 177.595 131.484C177.521 131.991 177.521 132.722 177.375 133.084C177.304 133.812 177.304 135.558 177.375 135.778C177.446 135.852 177.521 136.069 177.446 136.289C177.375 136.8 177.883 137.162 178.61 137.017C179.266 136.945 181.664 135.707 182.903 134.834C183.484 134.397 184.868 133.379 186.032 132.577C187.922 131.193 189.888 129.447 189.888 129.156C189.888 129.085 190.033 129.01 190.179 128.936C190.324 128.865 190.47 128.936 190.47 129.01C190.47 129.156 190.541 129.156 190.615 129.01C190.832 128.645 190.906 128.936 190.761 129.376C190.541 129.887 189.232 131.558 188.795 131.849C188.65 131.995 188.575 132.069 188.65 132.069C188.795 132.069 190.47 130.394 190.47 130.249C190.47 130.029 190.906 129.738 191.271 129.738C191.417 129.738 191.637 129.883 191.637 130.103C191.708 130.394 191.782 130.685 191.856 130.831C192.513 131.704 190.909 133.741 187.202 136.8C186.546 137.308 185.893 137.893 185.673 138.11C185.453 138.255 185.308 138.401 185.382 138.255C185.453 138.184 185.162 138.329 184.8 138.546C183.708 139.419 182.108 140.292 181.235 140.512C180.217 140.803 179.997 140.949 180.653 140.949C181.089 140.949 182.544 140.221 183.999 139.274C185.237 138.546 185.308 138.472 184.726 139.054C183.853 139.781 182.253 140.874 181.597 141.165C180.65 141.531 179.997 141.456 179.124 140.945C178.613 140.725 178.251 140.58 178.177 140.58C178.031 140.58 177.741 140.36 177.45 140.069L176.286 138.905C175.484 138.248 174.903 137.595 174.466 136.939C174.246 136.648 174.03 136.431 174.03 136.431C173.959 136.502 173.959 136.431 173.959 136.357C173.959 136.066 173.448 134.756 173.377 134.827C173.306 134.902 173.306 134.756 173.306 134.611C173.377 134.465 173.377 134.32 173.306 134.391C173.015 134.536 172.941 134.171 173.015 132.208C173.086 130.171 173.38 128.641 173.962 127.041C174.108 126.604 174.182 126.239 174.182 126.168C173.891 125.948 169.308 131.771 166.906 135.409C166.179 136.502 165.377 137.666 165.086 137.957C164.504 138.685 163.05 139.778 162.83 139.703C162.759 139.632 162.539 139.632 162.319 139.558C162.102 139.483 161.954 139.412 161.954 139.267C161.954 139.196 161.588 138.976 161.152 138.756C160.716 138.536 160.35 138.319 160.35 138.245C160.35 138.17 160.205 137.808 160.059 137.517C159.914 137.226 159.839 137.081 159.839 137.226C159.839 137.372 159.839 137.446 159.768 137.446C159.697 137.446 159.623 137.375 159.623 137.226C159.623 137.155 159.478 136.935 159.332 136.79C158.821 136.424 158.676 135.917 158.605 135.115C158.53 133.294 160.35 127.037 162.096 123.18C162.312 122.669 162.532 122.161 162.603 122.016C162.823 121.508 162.532 121.725 162.096 122.307C161.805 122.672 160.858 123.907 159.985 125.146C158.165 127.548 155.983 130.75 154.894 132.57C154.092 133.954 152.929 136.282 152.638 136.935C152.567 137.155 152.421 137.446 152.421 137.446C152.347 137.517 152.201 137.883 152.056 138.319C151.839 139.047 151.038 140.647 149.001 144.58C148.781 145.016 148.491 145.453 148.345 145.598C147.98 145.964 147.472 146.109 147.327 145.964C147.256 145.964 147.181 145.893 147.107 145.893L147.097 145.913ZM143.315 139.944C143.268 140.09 143.293 140.139 143.389 140.089C143.461 140.018 143.535 139.873 143.461 139.798C143.389 139.653 143.389 139.727 143.315 139.944ZM144.117 139.507C143.897 139.727 143.461 140.38 143.461 140.671C143.461 140.891 143.897 140.38 144.117 139.869C144.262 139.358 144.337 139.287 144.117 139.504V139.507ZM145.135 136.306C145.064 136.306 144.699 136.962 144.333 137.69C143.532 139.436 143.606 139.365 143.677 139.365C143.748 139.365 143.968 138.854 144.333 138.201C145.135 136.526 145.206 136.309 145.135 136.309V136.306ZM144.624 138.563C144.77 138.417 144.77 138.272 144.695 138.198C144.624 138.052 144.55 138.198 144.404 138.563C144.333 138.854 144.259 139.074 144.259 139.074C144.404 139.074 144.404 139.003 144.404 138.928C144.404 138.783 144.475 138.708 144.624 138.563ZM144.77 137.907C144.841 138.052 144.841 138.126 144.915 138.052C144.989 138.052 144.915 137.907 144.844 137.832C144.699 137.687 144.699 137.761 144.773 137.903L144.77 137.907ZM146.079 134.269C146.37 133.612 146.735 132.959 146.661 132.959C146.59 132.888 146.295 133.47 146.004 134.198L145.203 135.798C145.057 136.089 145.057 136.164 145.203 136.164C145.277 136.164 145.348 136.018 145.422 135.798C145.494 135.653 145.713 134.996 146.079 134.269ZM145.933 143.51C145.862 143.51 145.713 143.656 145.642 143.73C145.497 143.876 145.351 143.95 145.277 143.95C145.203 143.95 145.132 144.021 145.203 144.096C145.348 144.387 145.494 144.387 145.784 144.096C146.075 143.879 146.075 143.514 145.93 143.514L145.933 143.51ZM146.299 140.817C146.228 140.817 146.153 140.962 146.153 141.033C146.153 141.179 146.228 141.253 146.299 141.179C146.37 141.179 146.444 141.033 146.444 140.959C146.444 140.884 146.373 140.813 146.299 140.813V140.817ZM147.317 131.646C147.246 131.575 147.097 131.866 146.951 132.157C146.515 132.959 146.732 132.959 147.097 132.228C147.242 131.937 147.388 131.717 147.317 131.646ZM150.009 131.575C149.863 131.672 149.79 131.649 149.79 131.504C149.935 131.359 149.861 131.284 149.79 131.359C149.718 131.433 149.644 131.504 149.718 131.65C149.718 131.721 149.79 131.941 149.718 132.015C149.647 132.235 149.573 132.235 149.499 132.09C149.428 131.944 149.353 132.015 149.428 132.09C149.499 132.235 149.428 132.597 149.282 132.963C148.846 133.836 149.282 133.108 149.79 132.161C150.08 131.579 150.155 131.433 150.009 131.579V131.575ZM150.226 130.993C150.08 131.064 150.08 130.993 150.151 130.848C150.151 130.798 150.128 130.773 150.08 130.773C150.009 130.848 149.935 130.993 150.009 130.993C150.08 131.213 150.3 131.213 150.446 130.993C150.446 130.922 150.375 130.922 150.229 130.993H150.226ZM150.591 130.266C150.446 130.12 150.446 129.975 150.662 130.046C150.808 130.046 150.882 130.046 150.953 129.975C151.024 129.904 150.953 129.829 150.808 129.904C150.591 129.975 150.591 129.904 150.737 129.538C150.957 129.173 151.173 129.173 151.028 129.538C151.028 129.613 151.173 129.393 151.393 128.956C151.684 128.52 151.829 128.154 151.758 128.083C151.687 127.938 152.124 126.99 152.269 127.064C152.269 127.064 152.414 127.064 152.414 126.919C152.414 126.773 152.414 126.773 152.34 126.773C152.269 126.848 152.269 126.773 152.269 126.702C152.34 126.557 152.414 126.482 152.56 126.557C152.607 126.557 152.607 126.508 152.56 126.411C152.56 126.34 152.56 126.195 152.631 126.195C152.702 126.195 152.776 126.049 152.776 125.904C152.776 125.829 153.067 125.102 153.433 124.303C153.724 123.576 154.234 122.483 154.525 121.755C154.745 121.099 155.036 120.517 155.107 120.591C155.182 120.662 155.107 120.591 155.107 120.517C155.036 120.371 155.036 120.226 154.962 120.226C154.962 120.226 154.742 120.882 154.451 121.535C154.16 122.263 153.142 124.445 152.124 126.482C150.595 129.538 150.304 130.12 150.524 130.34C150.621 130.437 150.597 130.461 150.453 130.411C150.307 130.411 150.236 130.411 150.307 130.482C150.378 130.628 150.743 130.628 150.743 130.482C150.743 130.411 150.672 130.337 150.598 130.266H150.591ZM151.535 128.009C151.751 128.009 151.68 128.3 151.464 128.445C151.39 128.516 151.318 128.665 151.39 128.736C151.39 128.807 151.39 128.882 151.318 128.882C151.173 128.882 151.173 128.811 151.173 128.811C151.173 128.665 151.464 128.009 151.538 128.009H151.535ZM154.664 129.538C155.391 128.52 155.902 127.647 155.902 127.647C155.682 127.647 152.918 131.575 152.482 132.523C151.9 133.616 151.39 134.705 151.464 134.634C151.535 134.563 151.971 133.832 152.482 133.034C152.99 132.161 153.937 130.631 154.664 129.542V129.538ZM151.971 127.643C151.874 127.887 151.898 127.91 152.042 127.714C152.117 127.569 152.188 127.423 152.188 127.349C152.188 127.132 152.188 127.278 151.968 127.64L151.971 127.643ZM154.518 129.027C154.228 129.173 154.153 129.244 154.302 129.244C154.302 129.244 154.447 129.173 154.518 129.027C154.615 128.881 154.615 128.881 154.518 129.027ZM155.32 128.009C155.686 127.572 155.902 127.281 155.976 127.427C156.047 127.498 156.267 127.352 156.487 127.061L156.853 126.554L156.416 126.919C155.834 127.43 155.98 127.21 156.491 126.554C156.782 126.263 156.927 126.043 156.856 126.188C156.785 126.554 156.856 126.479 157.221 126.043C157.512 125.606 157.512 125.532 157.221 125.823C157.076 125.968 156.93 126.043 156.93 125.897C156.93 125.897 157.076 125.677 157.221 125.532C157.367 125.461 157.512 125.386 157.512 125.461C157.512 125.461 157.583 125.461 157.732 125.315C158.023 125.095 158.168 124.804 157.877 124.95C157.732 125.021 157.732 124.95 157.806 124.804C157.877 124.733 157.952 124.733 158.026 124.804C158.097 124.804 158.754 124.077 159.481 123.203C160.208 122.256 160.935 121.312 161.155 121.092C161.372 120.801 161.446 120.801 161.301 120.872C161.081 121.017 160.645 121.528 160.208 122.036C159.843 122.547 159.406 122.909 159.335 122.838C159.335 122.838 158.679 123.494 157.952 124.368C156.568 126.114 154.677 128.733 154.752 128.733L155.334 128.005L155.32 128.009ZM155.973 124.662C155.828 124.807 155.753 124.953 155.753 124.953C155.753 125.17 155.828 125.098 155.973 124.807C156.07 124.613 156.07 124.565 155.973 124.662ZM157.573 125.024C157.719 124.953 157.719 125.024 157.719 125.095C157.719 125.166 157.719 125.241 157.573 125.315C157.526 125.315 157.502 125.291 157.502 125.244C157.502 125.17 157.502 125.098 157.573 125.024ZM158.446 124.151C158.517 124.151 158.517 124.222 158.446 124.371C158.375 124.442 158.226 124.587 158.08 124.587C158.009 124.587 158.08 124.442 158.151 124.371C158.223 124.225 158.371 124.151 158.442 124.151H158.446ZM158.957 123.352C159.102 123.207 159.173 123.061 159.173 123.207C159.173 123.352 158.737 124.009 158.666 123.863C158.666 123.792 158.811 123.572 158.957 123.352ZM159.467 121.968C159.467 121.968 159.251 122.188 159.102 122.334C158.882 122.554 158.811 122.699 158.811 122.699C158.882 122.699 158.957 122.554 159.176 122.334C159.396 122.114 159.467 121.968 159.467 121.968ZM160.922 129.027C160.922 128.953 160.922 128.882 160.851 128.882L160.56 129.464C160.415 129.9 160.34 130.046 160.269 129.9C160.198 129.755 160.124 129.826 160.198 130.046C160.198 130.191 160.053 131.064 159.833 132.012C159.467 133.467 159.176 134.996 159.396 134.776C159.467 134.705 159.616 134.12 159.762 133.321C159.982 132.157 160.634 129.9 160.925 129.027H160.922ZM160.702 132.012C160.557 131.941 160.195 134.049 160.195 134.34C160.195 134.776 160.266 134.411 160.486 133.247C160.631 132.59 160.702 132.008 160.702 132.008V132.012ZM160.922 128.445C160.851 128.3 160.851 128.154 160.922 128.08V128.151C160.922 128.296 161.067 128.296 161.142 128.296C161.216 128.296 161.213 128.225 161.213 128.151C161.142 128.005 161.142 127.931 161.213 127.931C161.284 127.931 161.284 127.785 161.284 127.64C161.355 127.058 161.355 126.692 161.504 126.547C161.575 126.472 161.795 125.819 162.16 125.017C162.451 124.215 162.887 123.342 162.962 122.98C163.327 122.324 163.398 121.962 163.327 121.962C163.327 121.962 163.398 121.816 163.543 121.671C163.618 121.599 163.689 121.451 163.618 121.38C163.398 121.234 161 127.42 161.071 127.64C161.145 127.785 161.071 127.785 161 127.785C160.929 127.711 160.709 128.076 160.563 128.587C160.198 129.606 160.198 130.042 160.563 129.169C160.709 128.804 160.783 128.587 160.929 128.662C161.149 128.733 161.074 128.733 160.929 128.442L160.922 128.445ZM161.067 130.411C160.922 130.702 160.851 131.139 160.776 131.43C160.727 131.721 160.775 131.697 160.922 131.359C160.993 131.068 161.067 130.631 161.142 130.34C161.189 130.049 161.164 130.073 161.067 130.411ZM162.447 119.566C162.447 119.566 162.157 119.786 161.937 120.077C161.646 120.297 161.5 120.513 161.5 120.513C161.571 120.513 161.791 120.297 162.082 120.077C162.299 119.786 162.447 119.566 162.447 119.566ZM161.94 138.563C161.575 138.783 161.575 138.928 161.94 138.928C162.086 138.928 162.231 138.783 162.231 138.708C162.302 138.489 162.231 138.417 161.94 138.563ZM163.249 118.622C163.175 118.622 163.029 118.767 162.884 118.913C162.813 119.058 162.667 119.204 162.738 119.204C162.809 119.204 162.884 119.058 163.029 118.913C163.175 118.767 163.32 118.622 163.249 118.622ZM164.413 117.238C164.413 117.238 164.267 117.454 164.048 117.674L163.757 117.965C163.828 117.965 164.047 117.82 164.193 117.674C164.409 117.454 164.484 117.238 164.409 117.238H164.413ZM164.051 132.739C163.76 132.956 163.76 133.03 163.831 133.03C163.902 133.03 163.976 132.956 164.051 132.81C164.197 132.664 164.197 132.64 164.051 132.739ZM164.196 116.947C163.76 117.383 163.686 117.529 163.976 117.383C164.047 117.312 164.267 117.163 164.413 116.876C164.559 116.632 164.487 116.656 164.196 116.947ZM164.122 121.021C164.075 121.167 164.099 121.191 164.196 121.092C164.267 120.946 164.342 120.946 164.267 120.872C164.196 120.801 164.196 120.872 164.122 121.017V121.021ZM165.651 115.999C165.434 116.145 165.286 116.365 165.143 116.365C165.001 116.365 164.998 116.436 164.998 116.436C165.143 116.507 164.998 116.656 164.853 116.872C164.707 117.018 164.562 117.163 164.633 117.163C164.633 117.163 164.998 116.872 165.36 116.436C165.725 116.07 165.796 115.854 165.651 115.999ZM164.995 119.275C164.924 119.275 164.924 119.349 164.924 119.495C164.924 119.64 164.924 119.64 165.069 119.349C165.143 119.275 165.069 119.204 164.998 119.275H164.995ZM168.486 128.154C168.269 128.374 168.195 128.445 168.269 128.445C168.344 128.445 168.415 128.374 168.486 128.225C168.632 128.079 168.632 128.055 168.486 128.154ZM170.305 125.535C170.305 125.535 170.16 125.609 169.94 125.826C169.72 126.046 169.72 126.191 169.72 126.191C169.795 126.191 169.866 126.046 170.086 125.826C170.305 125.606 170.376 125.535 170.302 125.535H170.305ZM171.107 128.591C171.253 128.445 171.327 128.3 171.327 128.3C171.253 128.3 171.107 128.445 170.962 128.591C170.816 128.736 170.816 128.882 170.816 128.882L171.107 128.591ZM174.307 126.408C174.307 126.628 174.453 127.064 174.527 126.919C174.527 126.919 174.527 126.773 174.456 126.554C174.382 126.408 174.311 126.334 174.311 126.408H174.307Z" fill="white"/>
</g>
<defs>
<linearGradient id="paint0_linear_199_93" x1="55" y1="47" x2="205" y2="47" gradientUnits="userSpaceOnUse">
<stop stop-color="#00FF8F"/>
<stop offset="1" stop-color="#00A1FF"/>
</linearGradient>
<clipPath id="clip0_199_93">
<rect width="260" height="260" rx="27" fill="white"/>
</clipPath>
</defs>
</svg>
