<svg width="260" height="260" viewBox="0 0 260 260" fill="none" xmlns="http://www.w3.org/2000/svg">
<g clip-path="url(#clip0_247_49)">
<mask id="mask0_247_49" style="mask-type:luminance" maskUnits="userSpaceOnUse" x="0" y="0" width="260" height="260">
<path d="M233 0H27C12.0883 0 0 12.0883 0 27V233C0 247.912 12.0883 260 27 260H233C247.912 260 260 247.912 260 233V27C260 12.0883 247.912 0 233 0Z" fill="white"/>
</mask>
<g mask="url(#mask0_247_49)">
<path d="M213.529 61.8647C215.546 65.1605 217.407 68.5458 218.129 65.8527C218.851 63.1596 223.993 75.952 222.583 81.2158C221.894 83.7864 223.034 89.8647 225.051 93.1605C227.068 96.4563 226.224 99.1163 224.362 95.7311C224.362 95.7311 221.779 95.039 220.369 100.303C219.68 102.873 222.263 103.565 224.969 104.291C230.947 103.137 230.259 105.708 230.259 105.708C229.799 107.422 230.19 109.407 231.431 111.664C247.874 124.598 246.111 152.334 226.496 172.4C217.664 184.203 196.876 198.313 198.286 193.049C198.286 193.049 195.703 192.357 188.88 196.17C176.169 201.293 163.491 206.292 152.912 203.458C143.022 198.053 125.055 201.635 120.938 206.174C117.666 208.052 120.249 208.744 122.832 209.437C128.811 208.283 134.822 207.007 137.528 207.733C143.539 206.457 142.817 209.15 141.407 214.414C136.692 221.678 143.875 226.358 151.871 228.501C160.555 228.073 159.867 230.643 155.75 235.182C155.029 237.875 151.634 239.721 150.912 242.414C152.929 245.709 108.244 253.547 91.6545 251.989C86.3651 250.571 76.4751 245.166 71.1857 243.749C66.5851 239.761 58.5898 237.618 56.0066 236.926C48.8228 232.246 42.9589 222.147 35.201 208.785C29.3374 198.685 23.5641 188.742 25.4585 192.005C27.3529 195.268 24.0481 197.268 24.0481 197.268C24.0481 197.268 15.3465 155.445 16.7569 150.181L18.6188 153.567C21.325 154.292 19.3401 150.874 18.1673 144.918C15.0099 135.544 15.6989 132.973 22.7509 106.654C33.7966 75.7639 39.3236 65.9615 70.2395 46.0371C109.266 17.0025 150.523 11.1325 178.143 24.1748C190.706 30.4276 210.216 52.5801 213.406 61.8318L213.529 61.8647ZM202.935 186.029C196.236 189.876 198.942 190.601 204.953 189.325C211.653 185.479 227.873 167.258 233.999 154.73C236.131 146.773 236.82 144.202 232.826 148.774C229.521 150.775 223.994 160.577 219.189 167.686C213.785 177.522 206.363 184.061 202.968 185.907L202.935 186.029ZM146.884 162.482C152.174 163.9 182.515 135.293 185.336 124.766C187.468 116.809 180.768 120.655 160.398 143.537C152.288 152.647 146.761 162.449 146.761 162.449L146.884 162.482ZM143.948 184.262C146.655 184.987 149.927 183.109 153.355 181.141C156.783 179.173 160.055 177.295 157.348 176.569C157.348 176.569 154.044 178.57 150.649 180.416C147.254 182.261 143.948 184.262 143.948 184.262ZM122.536 147.561C115.836 151.408 115.115 154.101 117.821 154.826C117.821 154.826 120.404 155.518 123.832 153.55C123.832 153.55 127.104 151.672 132.516 153.122C135.1 153.814 145.227 148 150.754 138.197L160.275 123.823L147.564 128.946C140.865 132.792 134.165 136.639 133.443 139.332C133.443 139.332 126.743 143.178 122.627 147.717L122.536 147.561ZM122.904 82.7153C125.611 83.4405 134.893 80.2861 143.578 79.8579C164.973 74.3074 159.684 72.8901 139.01 75.7475C124.315 77.4515 117.615 81.298 122.904 82.7153ZM96.2053 213.847C98.7885 214.54 102.183 212.694 104.89 213.419C107.093 212.085 107.333 211.188 105.611 210.726C105.611 210.726 103.028 210.034 99.6003 212.002C96.1725 213.97 93.6223 213.155 96.3285 213.88L96.2053 213.847ZM40.7266 114.357C41.3008 123.039 42.0225 120.346 62.2366 97.5541C83.2953 72.102 108.077 53.4206 116.073 55.563C118.779 56.2882 121.362 56.9802 119.468 53.7174C117.45 50.4216 104.773 55.4215 84.6731 66.9608C61.8674 77.775 40.2426 105.831 40.6938 114.48L40.7266 114.357ZM24.2686 143.797C28.2622 139.226 29.6726 133.962 26.4006 135.84C24.5964 135.357 23.924 134.258 24.3832 132.545C25.072 129.974 22.4889 129.282 22.4889 129.282L20.3897 137.116C21.5624 143.072 20.8408 145.765 24.2686 143.797Z" fill="url(#paint0_linear_247_49)"/>
<path d="M48.9548 246.689C48.3907 246.689 48.9548 243.018 51.7745 231.741C52.9024 227.505 53.7417 224.41 53.7417 224.973C53.7417 225.25 54.5943 222.993 55.4336 220.737C57.6894 213.408 58.2533 210.3 58.8174 210.3C58.8174 210.3 58.2533 212.266 57.6894 214.536C55.1451 222.155 51.4859 236.54 51.4859 237.379C51.7614 237.667 52.3253 235.687 53.1778 232.579C54.3056 229.471 55.4336 225.25 55.9976 222.993C56.5615 221.027 58.5418 213.971 60.5092 207.48C64.7453 192.255 67.8405 183.509 71.788 171.09C73.48 165.726 74.8964 161.215 74.8964 161.215C74.621 160.94 74.8964 160.94 74.8964 160.94C75.4603 161.215 75.7488 161.215 75.4603 160.665V159.813C75.7488 160.376 76.3128 158.121 76.3128 157.268C76.8767 157.544 76.8767 157.268 77.1652 156.14C77.4538 155.012 77.4408 154.449 77.4408 154.16L77.7162 153.597C78.0046 153.597 78.5685 152.181 79.1326 150.777C79.9719 148.521 81.9523 143.158 83.0801 141.191C83.3557 140.627 83.3557 139.775 83.3557 139.775C83.3557 139.5 83.6311 139.212 83.6311 139.212C83.6311 138.647 83.9195 138.084 84.4834 137.794C84.7588 136.942 85.336 134.686 86.4637 132.431C87.8807 128.76 90.9749 120.026 91.2641 118.609C91.5388 117.481 90.411 120.576 89.0085 124.537C86.4637 130.74 83.6441 137.794 83.6441 137.794C83.3687 138.071 83.3687 137.794 83.3687 137.506V136.667C83.6441 136.942 85.0606 133.559 84.7852 133.284V131.868C85.0606 131.578 85.349 130.74 85.349 130.451C85.349 130.162 85.9131 128.76 86.4768 127.344L87.0407 124.524C87.0407 124.524 87.6046 123.396 87.8938 121.98C88.1685 120.563 88.4577 119.724 88.4577 119.724C88.1816 119.436 87.6177 121.416 86.4899 124.524C85.9262 126.215 84.5097 128.472 83.9457 129.599C83.3818 130.727 83.0933 131.855 83.0933 132.143C83.0933 132.143 82.5293 133.27 82.2408 134.686C81.6769 135.539 81.6769 136.667 81.6769 136.942L82.5162 134.686C82.8047 133.835 83.0801 133.559 83.3687 133.835C83.3687 134.123 83.3687 134.686 83.0933 134.686V134.963C83.0933 134.963 83.0933 136.09 82.2408 136.942C81.6769 139.199 81.6769 139.762 82.2408 139.199C82.5162 138.634 82.5162 138.071 83.0933 138.634C83.6572 139.199 82.2408 140.889 81.9654 140.889C81.9654 140.889 81.69 141.164 81.9654 141.164C81.9654 141.454 81.9654 142.292 81.69 142.857L80.8375 143.984L81.4014 142.569C81.4014 141.716 81.4015 140.876 81.69 140.588V140.024C80.8375 140.876 79.1456 145.663 76.8898 152.155C76.0374 154.973 74.3456 159.484 73.5061 162.029C72.6536 164.847 71.2504 168.52 70.3979 171.05C69.8339 173.031 68.7061 176.689 68.1421 178.669C67.3028 180.637 66.7256 182.342 66.7256 183.18C66.7256 183.47 66.7256 183.745 66.4502 183.47L65.3223 186.288C65.0469 187.705 64.4699 189.108 64.4699 189.108C64.1945 189.108 64.1945 189.383 64.1945 189.671C64.1945 190.231 64.2862 190.511 64.4699 190.511V190.8C64.4699 190.8 64.4699 191.075 64.1945 191.075C63.6305 191.35 63.6305 191.928 63.6305 192.203V192.478C63.342 192.203 62.778 192.203 62.778 192.478C62.778 192.753 63.342 193.331 63.342 193.331C62.778 193.331 62.5026 193.606 62.5026 193.894V192.478C62.778 191.35 63.342 190.787 63.342 190.498C63.342 190.498 63.342 190.223 63.6305 189.658C64.4699 186.84 65.5977 183.167 65.3223 183.167C65.3223 183.167 65.0469 183.457 65.0469 183.732C65.0469 184.107 64.859 184.107 64.483 183.732C64.483 183.457 64.2076 183.457 64.2076 184.295C64.2076 184.584 63.9322 185.147 63.6436 185.712C62.7912 187.403 61.0994 193.894 61.3879 194.17C61.3879 194.17 61.3879 194.733 61.1125 194.733C61.1125 194.733 60.8238 195.008 61.1125 195.586C61.1125 196.426 61.1125 197.002 60.8238 197.002C60.5353 197.002 60.5484 197.855 60.5484 198.419C60.5484 199.27 60.5484 199.835 59.9845 199.835C59.9845 199.835 59.696 200.11 59.696 200.963C59.696 201.238 59.696 202.655 59.4206 204.071C59.1452 204.91 58.8566 206.326 58.8566 207.179C58.2927 207.742 56.6009 216.765 54.9091 221.839C54.0696 224.384 53.7811 223.531 54.9091 219.873C55.1975 218.456 55.1975 216.765 55.1975 216.765C55.1975 216.765 54.345 219.308 53.5057 222.128C52.6663 224.947 52.0893 227.202 52.0893 226.927C51.8139 226.927 54.345 215.925 55.4729 212.266C56.0368 210.575 56.6009 208.883 56.3255 208.883C56.0368 208.595 56.3255 207.192 56.6009 207.192C56.8763 207.192 56.8763 207.48 56.8763 207.755C57.2523 207.38 57.2523 207.096 56.8763 206.904C56.6009 206.051 56.6009 205.775 56.8763 205.775C57.4402 205.775 57.4402 205.5 57.4402 204.923C57.0642 204.739 57.0642 204.647 57.4402 204.647C57.7287 204.923 57.7287 204.647 57.7287 204.372C57.7287 204.097 57.7287 203.244 58.0042 202.956C58.2796 202.668 58.2796 201.829 58.2796 201.829V201.553C58.8435 201.553 59.4074 198.445 59.4074 197.881C59.6828 198.156 60.8238 195.061 60.5353 194.21V192.792C60.719 192.234 60.9069 192.046 61.0994 192.229V190.249C61.2829 189.681 61.3748 189.773 61.3748 190.524C61.0994 191.377 61.3748 191.377 61.3748 190.813C61.9387 190.524 61.9387 189.684 61.9387 189.396V187.98C62.1222 187.228 62.2141 187.04 62.2141 187.416C62.5026 187.98 62.5026 187.416 62.5026 186.565C62.5026 185.712 62.5026 185.147 62.2141 185.147C62.2141 185.712 58.2664 198.681 56.85 204.045C56.2861 206.3 55.9976 207.153 54.3056 213.066C53.7417 214.758 52.8892 218.142 52.0499 220.685C50.3581 227.176 50.3581 226.888 50.0695 226.613C49.8859 226.613 49.8859 226.801 50.0695 227.176C50.0695 227.453 50.0695 228.029 49.7941 228.029C49.7941 228.029 46.1219 242.126 46.1219 242.978C46.3973 243.253 46.6858 242.978 46.9743 242.126C47.8268 240.435 47.8268 240.71 46.9743 243.253C46.6989 244.671 46.4104 244.946 45.8465 244.946C44.7186 244.946 44.7186 244.658 45.8465 241.563C46.1219 240.435 46.4104 239.307 46.4104 239.018C46.4104 238.73 46.4104 238.455 46.9743 237.89C46.9743 237.615 47.2497 236.474 47.2497 235.91C47.5253 234.782 48.1022 231.675 48.9417 228.291C50.3581 221.236 50.6335 222.089 50.0695 222.089C50.0695 222.364 49.7941 222.089 49.7941 221.8C49.7941 221.236 50.0695 221.236 50.3581 221.236C50.6335 221.8 50.6335 221.236 50.6335 220.961C50.6335 220.585 50.5417 220.493 50.3581 220.685C50.3581 220.961 50.0695 220.961 50.0695 220.685C50.0695 220.685 55.9976 198.406 56.5615 195.586C56.8369 195.022 56.5615 195.022 56.5615 195.022C56.2861 195.298 55.9976 195.586 55.9976 195.874C55.9976 196.727 54.8697 200.385 54.5812 199.822C54.5812 199.257 57.4008 188.255 57.9648 186.565C58.2402 185.712 58.8174 184.872 58.8174 184.872V184.308C59.0928 183.745 59.3812 182.892 59.6566 181.764C59.9451 180.637 61.0731 176.965 62.201 173.018C63.3289 169.347 64.4567 164.271 65.0207 162.579C65.8733 159.196 66.7126 155.248 68.9684 149.047C69.5323 147.066 71.2241 142.555 72.3521 138.608C73.48 134.937 75.4603 129.297 76.2997 125.914C77.4275 122.53 78.5555 119.422 78.8439 118.295C79.1326 117.455 79.9719 115.751 80.2604 114.059L82.2408 108.132C82.8047 106.44 83.9326 104.46 84.4967 103.057C85.349 100.802 85.0606 100.514 86.1885 98.5462C86.4768 97.6936 86.753 96.854 86.753 96.2908C86.753 96.0144 87.0276 94.5986 87.8807 93.4709C89.2963 89.7997 89.8471 88.3955 89.5724 88.1074V87.8324C89.8471 87.8324 89.8471 87.2678 89.8471 87.2678C89.8471 87.0758 90.036 86.9797 90.411 86.9797C90.5956 86.7964 90.5956 86.7047 90.411 86.7047C89.5593 86.7047 89.5593 85.5766 90.411 85.5766C90.6871 85.5766 90.6871 85.3011 90.6871 85.3011C90.6871 85.1177 90.7787 85.0258 90.9618 85.0258C91.251 85.0258 90.9618 85.0258 90.6871 84.462C90.504 84.2784 90.5956 84.1865 90.9618 84.1865C91.1551 84.1865 91.251 84.0947 91.251 83.9111C90.9618 83.9111 90.9618 83.3473 91.251 82.2196C91.5257 81.3803 92.0896 80.8033 92.0896 80.5279C92.0896 80.5279 92.0896 79.964 92.3788 79.4002C92.3788 79.1247 92.3788 77.9838 92.9427 76.8561C94.6344 72.9089 96.6153 68.3978 96.6153 67.5454C96.8899 67.2701 97.1791 66.1292 97.4669 65.5784C98.0308 64.4507 98.3069 63.8867 98.3069 63.3229C98.5947 63.0476 99.1586 61.9066 99.4347 61.0674C99.9986 59.6511 99.9986 58.8118 100.288 58.8118V58.248C100.288 57.3956 101.139 56.5563 101.416 55.14C102.359 53.6364 102.735 52.8845 102.543 52.8845C101.98 53.4484 95.2113 54.3008 92.1027 54.3008C90.411 54.8646 88.4316 54.8646 83.3557 55.717C81.9391 56.0055 80.8113 56.281 80.8113 56.281C80.5359 55.717 79.9588 56.281 79.1193 56.281C77.4275 56.8448 75.7357 57.1334 72.6275 57.1334C71.4995 57.4087 69.8077 57.4087 68.3913 57.9725C66.9749 57.9725 65.0077 58.2611 63.8797 58.2611C62.7518 58.5365 61.06 58.5365 59.9321 58.5365C55.4205 59.3757 51.7482 59.3757 44.1415 59.6642C42.7251 59.6642 41.5971 59.6642 41.5971 59.3757C41.3217 59.6642 41.0332 59.6642 40.1807 59.6642C32.5609 59.3757 32.2855 59.3757 30.8691 58.248C29.7412 57.3956 29.1773 57.1201 29.1773 57.1201C28.9019 57.1201 28.3247 56.8317 28.0493 56.5563C27.7739 56.281 27.1968 55.7039 26.3575 55.4286C25.2296 55.1531 24.9411 53.4615 25.7935 52.8845C26.0689 52.8845 26.0689 52.3207 26.0689 52.0321C26.0689 51.2803 25.6929 50.9044 24.9411 50.9044C24.3771 51.1928 23.5245 50.9044 23.5245 50.9044C23.5245 50.629 24.3771 50.629 24.6525 50.629C25.7804 50.3535 25.2165 50.3535 24.3771 49.7766C23.2491 49.7766 22.9607 49.5013 23.2491 49.5013C23.4328 49.3177 23.341 49.2258 22.9737 49.2258C22.6983 49.2258 22.1214 48.9504 22.1214 48.9504C22.1214 48.5745 22.0295 48.5745 21.8459 48.9504C20.718 49.5144 20.718 48.3865 21.8459 47.5342C22.5978 46.9659 22.6896 46.6818 22.1214 46.6818C21.5573 47.2458 21.2688 47.2458 21.2688 46.4065C21.2688 45.2786 21.8327 44.9902 24.3771 43.5871C26.0689 42.7478 28.3247 41.6199 29.4527 41.6199C30.5805 41.3315 31.997 40.7676 32.8363 40.7676C35.3807 40.2037 41.0202 39.9152 41.2956 40.2037C41.4791 40.2037 41.6672 40.1075 41.8595 39.9152C41.8595 39.9152 42.6989 39.3513 43.2759 39.9152C44.0278 39.9152 44.4038 39.7273 44.4038 39.3513C44.1153 39.076 44.4038 39.076 44.6792 39.3513C45.2432 39.9152 45.5317 39.3513 46.0956 39.076C46.2793 38.8836 46.371 38.8836 46.371 39.076C46.0956 39.3513 46.371 39.3513 47.7874 39.3513C48.6269 39.076 49.2039 39.076 49.2039 38.7875C49.2039 38.7875 49.7679 38.512 50.6204 38.512C51.4728 38.512 51.7482 38.512 51.7482 38.7875V39.076C52.0236 39.076 52.0236 38.7875 52.0236 38.512C52.0236 37.6596 51.7482 37.6596 52.299 38.2367L52.8631 38.8006C52.299 39.0891 52.8631 39.0891 53.1385 38.8006C53.4139 38.5253 53.4139 38.2367 53.4139 38.2367C53.1385 38.2367 55.3942 37.6729 58.2139 37.6729H71.7488C90.6479 37.1089 94.8843 37.1089 95.159 37.3974C95.159 37.6729 95.4352 37.6729 95.4352 37.3974C95.7098 37.122 95.999 37.122 96.5629 37.3974C97.1268 37.6729 99.3824 37.6729 103.33 37.3974L109.258 37.122L110.949 33.1749C114.333 25.2804 116.59 20.7694 119.133 16.2583C119.697 14.8421 120.55 13.1505 120.55 13.1505C119.986 12.8751 120.55 12.8751 120.55 12.8751C120.825 13.1505 121.402 11.7474 121.402 11.1834C121.114 11.1834 121.402 10.6195 121.678 10.3441V10.6195C122.242 10.6195 122.242 10.3441 122.242 10.3441C122.242 10.0557 122.531 9.78026 122.806 9.78026C123.659 9.78026 124.223 9.21641 124.497 9.21641C125.35 8.92786 125.625 8.92786 125.914 9.21641C126.106 9.5924 126.483 9.78026 127.042 9.78026C127.33 9.21641 127.606 9.21641 127.606 9.78026C128.17 9.78026 128.458 10.0557 128.734 10.0557C129.009 10.3441 129.009 10.6195 129.009 11.7474C128.734 12.5996 129.009 12.8751 129.009 12.5996C129.572 12.5996 129.862 12.0358 130.138 12.0358C130.889 12.0358 131.077 12.8838 130.702 14.5799V17.1239C131.266 17.1239 131.553 16.56 131.553 16.56C131.553 16.2846 132.117 15.9961 132.681 15.9961C133.534 15.9961 133.534 16.2847 134.098 18.2516C134.373 19.3795 134.662 20.7957 134.662 20.7957C134.937 21.0841 134.937 21.6481 134.937 21.9234C134.662 22.4873 134.373 23.3397 134.662 23.3397C134.662 23.3397 134.937 22.7758 135.226 22.5005C135.602 22.3169 135.886 22.4087 136.078 22.7758C136.641 23.9036 136.354 29.5424 135.226 33.778L134.662 37.1614H155.817C167.66 37.4367 178.099 37.4367 178.663 37.4367C179.791 37.7122 182.899 37.7122 185.719 37.7122C188.828 38.276 191.358 38.276 191.647 38.276C191.647 38.5514 195.883 38.8398 200.395 38.8398C211.962 39.9677 220.985 40.2562 221.549 40.8201C222.113 41.3839 221.824 41.3839 220.985 41.3839C220.709 40.8201 220.145 41.3839 220.145 41.3839C220.145 41.6725 220.709 41.6725 221.837 41.6725C222.965 41.6725 222.965 41.9478 222.401 41.3839C221.837 40.8201 222.401 40.8201 223.241 40.8201C223.805 40.8201 224.658 40.8201 224.658 41.3839C224.658 41.5763 224.469 41.6725 224.094 41.6725C223.53 41.3839 223.241 41.3839 223.241 41.6725C223.241 41.6725 224.658 41.9478 226.35 41.9478C227.765 42.2232 230.586 42.8002 232.552 43.0756C234.244 43.3509 235.936 43.6395 236.789 43.6395C237.165 43.6395 237.068 43.7356 236.5 43.928C235.94 44.3038 236.129 44.3038 237.064 43.928C237.627 43.928 238.193 43.928 238.193 44.4919C238.193 44.4919 238.467 44.7673 238.757 44.7673C239.884 44.7673 236.789 45.3311 235.648 45.3311C235.084 45.3311 235.359 45.0426 235.923 45.0426C237.051 44.7673 236.487 44.7673 234.231 44.7673C232.539 45.0426 229.72 44.7673 228.303 44.7673C226.887 44.4919 224.92 44.4919 223.792 44.4919C222.1 44.4919 221.811 44.2164 222.375 43.928C223.215 43.364 222.939 43.6395 221.523 43.6395C219.542 43.6395 218.978 43.6395 219.268 43.928C219.268 44.4918 218.414 44.4918 215.595 43.928C211.084 43.928 211.359 44.4919 215.87 44.7673C221.798 45.0426 231.385 46.1835 230.822 46.4588C230.532 46.4588 228.277 46.4588 226.31 46.1704C224.053 45.895 220.382 45.895 217.563 45.3311C213.89 45.3311 213.326 45.6064 215.87 45.895C221.51 46.4588 219.254 46.4588 211.922 46.1704C207.975 46.1704 204.303 46.1704 204.028 45.895C203.752 45.895 203.464 45.895 203.464 46.1704C203.088 46.3627 202.803 46.3627 202.611 46.1704C202.335 45.895 202.047 45.895 202.047 46.1704C202.047 46.1704 202.047 46.4588 201.483 46.4588C200.355 46.4588 171.305 46.7343 164.538 46.7343C154.387 47.2981 130.123 49.2782 129.849 49.8422V50.6946C129.849 50.6946 132.957 50.1306 137.179 49.8422C148.748 48.7144 164.538 47.8751 161.719 48.426C160.591 48.426 159.174 48.9898 158.334 48.9898C156.918 48.9898 153.823 49.2651 151.003 49.5537C148.184 49.5537 143.671 50.4061 140.852 50.4061C138.032 50.6815 134.36 50.9699 132.668 50.9699C128.721 51.2585 129.559 50.9699 127.304 55.7695C126.74 57.1858 125.048 60.0051 124.197 61.9723L122.503 65.9194C122.503 66.1948 122.503 66.4832 122.216 66.4832C122.216 66.4832 121.652 66.4832 121.652 67.0472C121.652 67.3225 121.376 67.8863 121.088 69.0142C120.524 70.7059 118.543 74.6529 117.705 76.9085C117.705 77.7609 117.141 78.3249 117.141 78.3249C117.141 78.7007 117.048 78.8887 116.865 78.8887V79.4526C116.59 79.4526 116.301 80.0164 116.011 81.1442C115.448 82.2719 115.173 82.8359 114.884 82.8359L114.609 83.3998C114.609 83.6882 113.756 85.3799 113.192 87.0714C112.064 88.4872 111.5 90.1795 111.5 90.4545C111.5 90.4545 111.5 91.0191 110.936 91.3072C110.753 91.4905 110.662 91.6782 110.662 91.8717C110.662 91.8717 110.662 92.4349 110.386 92.4349C110.386 92.7099 110.098 92.9994 110.098 92.9994C110.098 93.2875 109.534 94.4152 108.97 94.9784C108.694 96.106 107.553 97.5233 107.277 98.651C107.002 99.5037 106.425 100.631 106.149 100.631C105.585 101.47 104.457 103.175 104.457 104.014C104.457 104.854 104.17 105.43 103.606 105.43C103.606 105.43 103.33 105.995 103.606 105.995L103.042 106.558C102.766 106.833 102.478 107.123 102.478 106.833L101.914 107.109V108.237C101.914 108.237 101.914 108.512 101.625 108.512C101.349 109.077 101.061 109.365 101.061 109.64C101.061 110.209 100.776 110.3 100.208 109.915C99.8329 109.732 99.7414 109.732 99.9332 109.915C100.208 110.768 99.9332 112.735 99.3693 112.735C99.3693 112.735 98.8054 112.735 99.3693 113.01C99.3693 113.01 99.3693 113.863 98.8054 114.138C97.1138 118.373 96.5499 120.066 95.986 121.468C95.6968 122.884 95.1329 124.288 95.1329 123.161C95.1329 122.976 95.0413 122.976 94.8582 123.161C94.4818 123.353 94.4818 123.728 94.8582 124.288C94.4818 124.288 94.4818 124.384 94.8582 124.576C94.8582 125.139 94.2928 127.12 93.7289 126.544V127.396C94.0051 127.671 93.7289 127.959 93.7289 127.671C93.5371 127.671 93.4412 127.763 93.4412 127.946C93.7289 128.799 92.6012 131.894 92.0242 132.182C91.6492 132.365 91.6492 132.457 92.0242 132.457C92.0242 132.457 92.0242 133.022 91.4603 133.31C91.4603 133.585 91.1856 134.162 91.1856 134.726C91.1856 135.002 90.8964 135.002 90.8964 135.29C90.6217 135.29 90.3325 136.13 90.3325 136.418C88.917 139.526 88.3531 139.801 87.7892 139.526C87.6046 139.526 87.6046 139.618 87.7892 139.801C88.1641 140.37 88.1641 140.745 87.7892 140.929C87.7892 141.204 87.5131 141.493 87.5131 142.344C86.9492 143.197 85.8212 146.857 84.9687 146.292C84.9687 146.292 84.6933 146.292 84.6933 146.857C84.6933 146.857 84.9687 147.132 85.2573 147.132L84.9687 147.42C84.6933 147.42 84.4048 147.695 84.6933 147.695C85.2573 147.695 84.9687 148.824 84.4179 148.824C83.8671 148.824 83.5654 149.099 83.854 149.662C83.854 150.515 83.0015 152.77 82.4376 152.207V153.335C82.4376 153.623 82.1622 154.462 81.8735 154.751C81.8735 154.462 81.8735 154.186 81.5981 154.462C81.4059 154.462 81.4059 154.182 81.5981 153.623C81.5981 153.335 81.8735 152.77 81.8735 152.207C81.8735 151.917 82.4376 150.79 83.0015 149.662C83.5654 148.534 84.6933 145.151 86.1097 141.48C87.5261 138.372 88.3662 135.277 88.93 134.989C89.2047 134.149 89.2047 133.861 89.2047 133.861V133.022C89.3878 132.453 89.3878 132.265 89.2047 132.457C88.93 132.457 88.93 133.022 88.93 133.022C88.93 133.297 88.93 133.585 88.3662 133.861C88.09 134.149 87.8023 134.712 87.8023 134.712C87.8023 135.277 85.8212 140.076 85.2573 139.788C85.2573 139.513 86.0966 138.372 86.3851 137.532C87.8023 133.861 86.9492 134.712 85.2573 138.385C84.6933 140.076 83.5654 142.331 83.5654 142.896C83.29 143.749 83.0015 144.312 83.0015 144.312C83.0015 144.312 82.4376 145.164 82.4376 145.439C82.1622 146.004 81.5981 147.42 81.3097 148.547C80.7456 149.675 80.4702 150.515 80.1817 150.515C80.1817 150.79 79.3424 152.77 78.7653 154.462C77.9259 156.153 76.7981 159.261 75.9456 161.229C75.093 163.484 74.5291 165.464 74.5291 165.739C74.5291 166.304 74.2537 166.592 74.2537 166.867C73.9653 167.707 72.5619 172.795 72.5619 173.07C72.5619 173.345 72.5619 173.345 72.2865 173.345C72.2865 173.345 71.7225 173.91 72.2865 173.91C72.2865 174.185 72.2865 174.473 71.7225 174.473C71.7225 174.473 71.4471 174.749 71.4471 175.325C71.4471 175.6 70.5946 178.709 69.4799 182.381C68.3519 186.327 66.9355 189.712 66.9355 189.712C67.224 190.275 68.3519 186.892 69.7553 182.944C73.1389 172.507 74.8307 167.72 75.3947 167.157C75.6832 166.88 75.3947 167.72 74.5553 170.263C66.9355 191.98 60.4567 212.857 60.7321 213.696C60.7321 213.696 60.7321 213.971 60.4567 213.696C60.4567 213.696 59.8927 213.696 60.4567 214.536C60.4567 214.824 60.4567 215.099 59.8927 214.824C59.8927 214.824 59.6042 215.099 59.8927 215.387C59.8927 216.24 59.8927 216.515 59.6042 216.24C59.6042 214.824 60.1681 212.294 61.0206 209.474C63.2765 202.418 63.5649 201.58 62.7124 202.707C62.7124 202.982 60.7321 209.199 60.4567 210.326C59.8927 212.017 59.3288 213.997 59.3288 214.562C59.0534 214.85 59.0534 215.125 59.0534 215.413C59.0534 215.978 58.778 216.83 58.2008 218.233C57.9254 219.361 57.9254 220.489 57.9254 220.777C58.2008 221.341 58.4893 221.053 58.2008 220.489C57.637 219.649 58.2008 219.649 58.2008 219.649C58.7649 219.925 58.7649 219.649 58.7649 219.086C58.2008 218.233 58.2008 217.958 58.7649 218.521C59.3288 219.086 59.0403 219.086 59.0403 217.958C58.8566 217.581 58.8566 217.49 59.0403 217.683C59.2238 217.875 59.3157 217.784 59.3157 217.407C59.3157 217.119 59.3157 216.844 59.5911 216.554C59.5911 216.83 59.5911 218.246 59.0271 219.939C58.4632 222.194 58.1747 222.482 57.8993 221.904L57.6239 220.777L57.3352 221.904C56.7714 222.194 57.0598 222.469 57.3352 223.034C57.8993 223.885 57.6239 223.885 57.6239 222.757V222.482C58.1878 223.61 57.6239 225.302 56.7714 225.026C56.7714 225.026 56.7714 224.462 57.3352 224.462C57.5277 224.27 57.5277 224.081 57.3352 223.898C56.496 223.047 55.9188 225.878 56.2073 227.006C56.4829 227.57 56.4829 228.134 56.2073 228.134V228.698C56.2073 228.973 56.2073 229.551 55.9188 229.826C55.3549 230.101 55.0795 230.101 55.0795 229.826C55.0795 229.551 55.0795 229.551 54.7909 229.826C54.7909 230.101 55.0795 230.389 55.3549 230.389C55.3549 230.389 55.3549 231.517 54.7909 234.062C54.227 236.029 53.3745 238.008 53.3745 238.572C53.0991 239.136 53.0991 239.425 52.8106 239.136C52.2467 239.136 52.2467 239.412 52.8106 239.7C52.8106 240.452 52.6225 240.736 52.2467 240.553C52.063 240.369 52.063 240.557 52.2467 241.116V242.244C51.9711 242.244 51.9712 242.533 51.9712 243.096C51.9712 243.371 51.9712 243.661 51.6957 243.661C51.4203 243.936 50.8434 244.789 50.2793 247.044C49.7154 252.407 48.5875 253.81 48.8629 249.299V246.756L48.9548 246.689ZM50.0827 39.1153C49.8073 39.1153 50.0827 39.3907 50.3712 39.1153C50.9351 39.1153 50.9351 38.8267 50.9351 38.8267C50.6597 38.8267 50.3712 38.8268 50.0827 39.1153ZM50.3712 240.487C50.3712 240.762 50.3712 241.05 50.3712 240.762V240.198C50.3712 239.822 50.3712 239.914 50.3712 240.474V240.487ZM50.6466 237.392V238.808C50.6466 239.185 50.6466 239.185 50.6466 238.808C50.922 237.955 50.922 237.392 50.922 237.117C50.922 236.74 50.8301 236.832 50.6466 237.392ZM50.9351 217.932V219.348C50.9351 219.723 50.9351 219.723 50.9351 219.348C51.4991 218.508 51.4991 218.22 51.4991 217.932C51.4991 217.642 51.4991 217.657 50.9351 217.932ZM51.4991 239.083C51.4991 239.36 51.4991 239.648 51.4991 239.36V238.795C51.4991 238.603 51.4991 238.695 51.4991 239.07V239.083ZM51.7745 232.592C51.7745 232.882 52.0499 233.157 52.0499 233.157V232.592C52.0499 232.217 51.9581 232.217 51.7745 232.592ZM52.9024 237.667C52.9024 237.942 53.1778 238.507 53.1778 238.507V237.667C53.1778 237.475 53.086 237.475 52.9024 237.667ZM53.1909 236.252C53.1909 236.54 53.4663 237.104 53.4663 237.104V236.252C53.4663 236.068 53.3745 236.068 53.1909 236.252ZM53.4663 234.847C53.4663 235.412 53.7417 235.7 53.7417 235.7V234.847C53.7417 234.664 53.6499 234.664 53.4663 234.847ZM53.7548 233.432C53.7548 233.996 54.3189 234.284 54.3189 234.284V233.432C54.3189 233.248 54.1308 233.248 53.7548 233.432ZM54.5943 231.176C54.5943 231.451 54.8697 231.741 54.8697 231.741V231.176C54.8697 230.993 54.7778 230.993 54.5943 231.176ZM55.4466 227.229C55.4466 227.505 56.0107 228.081 56.0107 228.081V227.229C56.0107 227.045 55.8226 227.045 55.4466 227.229ZM56.85 192.819C56.85 193.383 56.5746 193.671 56.5746 193.946C56.5746 195.075 56.85 194.799 57.414 193.383C57.414 192.814 57.226 192.627 56.85 192.819ZM57.7025 190.288C57.7025 190.563 57.414 190.853 57.414 191.416C57.414 192.544 57.7025 192.269 57.9779 191.141C57.9779 190.576 57.9779 190.288 57.7025 190.288ZM58.2664 188.872L57.991 189.147V189.712C58.2664 189.712 58.2664 189.422 58.2664 189.147V188.872ZM59.6697 183.522C59.3943 183.522 58.2533 186.905 58.2533 188.033C58.8174 188.321 59.3812 186.066 59.6697 184.65V183.522ZM59.9584 181.83C59.9584 182.105 59.6697 182.394 59.6697 182.957C59.6697 183.232 59.9584 183.232 59.9584 182.957C60.5222 182.394 60.5222 182.105 60.5222 181.83C60.5222 181.555 60.5222 181.555 59.9584 181.83ZM60.5222 193.671C60.5222 193.946 60.7977 194.236 60.7977 194.236V193.671C60.7977 193.488 60.7058 193.488 60.5222 193.671ZM63.6305 200.437C63.6305 201.002 63.342 201.277 63.342 201.567C63.6305 201.842 63.9059 201.002 63.9059 200.149L63.6305 200.437ZM64.4699 197.907C64.1945 198.472 64.1945 199.323 64.1945 199.599C64.1945 199.874 63.9191 199.599 64.4699 198.747C64.7584 198.182 65.0338 197.331 65.0338 197.054C65.0338 196.779 65.0338 197.054 64.4699 197.907ZM68.7061 173.358C68.7061 173.358 67.8536 174.775 67.2897 176.741C66.7256 178.434 66.4372 180.414 65.8731 181.254C65.5846 181.529 65.3092 182.092 65.3092 182.381C65.3092 183.509 66.4372 181.817 67.2897 177.581C68.4175 175.601 68.7061 173.345 68.7061 173.345V173.358ZM65.8863 192.819C65.8863 193.383 65.5977 193.671 65.5977 193.946C65.8863 194.223 66.4502 193.383 66.4502 192.53L65.8863 192.805V192.819ZM66.7256 190.853C66.7256 191.128 66.4502 191.416 66.4502 191.98C66.7256 192.255 67.0143 191.128 67.0143 190.563L66.7387 190.853H66.7256ZM80.2604 140.929C80.8244 139.238 81.3883 137.821 81.3883 137.821C81.3883 136.968 77.7162 146.004 77.7162 146.844C77.7162 147.407 78.0046 146.844 78.8439 145.426C79.1326 144.575 79.9719 142.608 80.2604 140.916V140.929ZM87.8807 140.654C87.8807 140.278 87.7892 140.089 87.6046 140.089V140.654L87.8807 140.929V140.654ZM94.0836 112.157C93.8089 112.157 91.2641 116.957 91.2641 117.521C91.2641 118.36 91.5388 118.085 92.3919 116.669C93.8089 113.561 94.0836 112.157 94.0836 112.157ZM98.32 101.733C98.32 101.733 94.0836 110.754 94.0836 111.319C94.0836 112.157 94.6475 111.594 96.6283 106.807C97.7561 103.988 98.32 102.008 98.32 101.733ZM97.1922 115.542C96.903 115.817 97.1922 115.817 97.4669 115.542C97.4669 115.265 98.0308 115.265 97.4669 114.977C97.4669 114.977 97.1922 115.252 97.1922 115.542ZM98.6078 112.157C98.32 112.722 98.0439 113.574 98.0439 113.574C98.0439 113.863 98.32 113.574 98.6078 112.735C98.8839 112.17 99.4478 111.319 99.4478 111.043C99.4478 111.043 98.8839 111.332 98.6078 112.17V112.157ZM99.4478 99.1879L98.8839 100.028L99.737 99.1879C100.012 98.8998 100.012 98.0602 100.012 97.7721C100.012 97.484 100.012 98.3367 99.4478 99.1879ZM101.703 105.391C101.703 105.391 101.429 105.956 101.139 106.231C101.139 106.794 100.576 107.646 100.288 108.211C100.012 109.064 100.012 109.339 100.012 109.339C100.288 109.339 100.576 108.486 101.139 107.646C101.703 106.519 101.703 105.391 101.703 105.391ZM104.523 99.4775C104.235 99.4775 102.831 102.296 102.831 102.586C102.831 103.437 103.684 101.746 104.248 100.618C104.536 100.054 104.536 99.4906 104.536 99.4906L104.523 99.4775ZM185.482 45.0426C184.918 45.0426 185.482 45.3311 186.046 45.3311C187.175 45.3311 187.463 45.0426 187.175 45.0426H185.482ZM191.686 42.2101C190.269 42.2101 191.41 42.774 193.378 42.774C195.923 42.774 196.487 42.2101 195.359 42.2101H191.686ZM202.402 42.7871C202.126 43.0625 202.676 43.0625 203.817 43.0625C204.958 43.0625 205.509 43.0625 205.509 42.7871H202.402ZM205.785 45.0426C205.509 45.3311 205.785 45.3311 206.06 45.3311C206.436 45.3311 206.624 45.235 206.624 45.0426H205.785ZM218.48 43.3509C218.48 43.3509 217.641 43.3509 216.514 43.0756C215.097 43.0756 213.129 43.0756 211.437 42.8002H206.926C206.073 42.8002 208.618 43.0756 212.001 43.3642C215.673 43.6395 218.493 43.6395 218.493 43.6395V43.3642L218.48 43.3509ZM209.458 45.318C209.458 45.0295 208.894 45.0295 208.604 45.0295H207.477L208.33 45.318C208.894 45.318 209.458 45.8819 209.458 45.8819V45.318ZM218.769 40.807C217.916 40.5315 216.513 40.5315 215.66 40.5315H214.243L215.937 40.807C217.064 40.807 217.916 41.3708 218.756 41.3708H220.172L218.756 40.807H218.769ZM226.376 43.0625C226.1 43.3378 226.376 43.3378 226.65 43.3378C226.927 43.3378 226.927 43.3378 226.927 43.0625H226.363H226.376ZM226.94 43.6264C226.664 43.9149 226.94 43.9149 227.504 43.9149C227.687 43.9149 227.778 43.8187 227.778 43.6264H226.927H226.94ZM230.048 43.3509C229.772 43.6264 230.048 43.6264 230.612 43.6264C230.804 43.6264 230.9 43.5345 230.9 43.3509H230.048ZM233.156 44.4788C232.868 44.7541 233.156 44.7541 233.719 44.7541C233.904 44.7541 233.996 44.6624 233.996 44.4788H233.156Z" fill="url(#paint1_linear_247_49)"/>
</g>
<path d="M105.983 141.977C106.071 141.891 105.811 141.891 105.383 141.891C104.779 141.977 104.607 141.891 104.091 141.381L103.403 140.701C103.319 140.192 103.147 139.852 102.971 139.935C102.627 140.018 102.023 139.678 102.023 139.425C102.023 139.255 101.935 139.169 101.851 139.169C101.767 139.169 101.591 138.829 101.335 138.402C100.731 137.213 100.903 136.024 102.195 131.86C102.627 130.84 102.539 130.923 103.743 128.375C104.519 126.676 106.667 123.022 106.927 122.769C107.011 122.769 107.359 122.259 107.703 121.75C109.339 119.371 112.691 116.397 114.587 115.717C116.051 115.207 116.823 115.124 119.059 115.46C120.179 115.547 120.435 115.63 120.351 115.887C120.351 115.97 120.351 116.057 120.435 115.97C120.519 115.883 120.691 115.97 120.867 116.14C120.951 116.227 121.211 116.397 121.299 116.397C121.471 116.397 121.815 116.566 122.075 116.823L122.591 117.25L123.539 116.314C123.971 115.804 124.571 115.377 124.659 115.377C124.831 115.377 125.003 115.377 125.091 115.294C125.091 115.211 125.263 115.124 125.351 115.211C125.439 115.298 125.611 115.211 125.695 115.041C125.751 114.986 125.779 114.986 125.779 115.041C125.779 115.211 126.039 115.298 126.467 115.298C127.243 115.298 127.759 115.725 127.759 116.404C127.759 116.661 127.843 116.831 127.931 116.831C127.931 116.831 128.191 117.171 128.363 117.511L128.707 118.107L127.931 120.063C127.499 121.169 127.155 122.101 127.243 122.188C127.243 122.271 127.243 122.358 127.159 122.271C126.899 122.188 126.727 122.781 126.899 123.038C126.987 123.125 126.899 123.125 126.815 123.125C126.643 122.955 126.211 123.717 126.383 123.974C126.467 124.057 126.383 124.144 126.299 124.144C126.215 124.144 126.127 124.144 126.211 124.231C126.299 124.314 126.211 124.401 126.127 124.484C126.043 124.484 125.007 126.522 124.235 128.308C123.287 130.516 122.599 134.598 123.031 135.36C123.115 135.617 123.203 136.04 123.203 136.296C123.291 136.723 123.375 136.893 123.635 136.893C124.411 137.063 128.367 134.515 132.067 131.627C136.283 128.312 136.539 128.142 136.883 127.549C136.967 127.293 137.055 127.293 137.055 127.632C137.055 127.917 137.142 127.945 137.315 127.715C137.571 127.289 137.915 127.632 137.659 128.055C137.487 128.565 137.487 128.652 137.831 128.395C137.946 128.282 137.946 128.395 137.831 128.735C137.659 128.991 137.487 129.331 137.487 129.501C137.487 129.584 137.403 129.758 137.315 129.758C137.227 129.758 136.111 130.777 134.735 132.136C133.443 133.412 131.723 135.111 130.779 135.874C129.747 136.723 129.315 137.233 129.403 137.32C129.575 137.572 131.467 135.874 133.791 133.412C134.823 132.393 135.683 131.544 135.771 131.544C135.859 131.627 137.491 129.928 137.835 129.335C137.95 129.164 138.007 129.164 138.007 129.335C138.007 129.928 137.491 130.694 135.855 132.48C134.907 133.586 134.135 134.436 134.219 134.519C134.219 134.601 134.135 134.775 133.875 134.945L133.531 135.285C133.531 135.285 133.619 135.285 133.619 135.368C133.619 135.538 133.275 135.795 133.103 135.795C133.019 135.795 132.931 135.795 132.847 135.878C132.759 135.961 132.847 135.961 132.931 135.961C133.015 135.878 133.103 135.878 133.103 135.961C133.103 136.217 129.835 139.528 129.575 139.615C129.403 139.615 129.143 139.785 128.887 139.872C128.455 140.212 128.199 140.298 128.371 140.042C128.371 139.872 128.115 139.959 127.771 140.125C127.427 140.381 127.083 140.551 127.083 140.551C127.083 140.721 127.599 140.634 127.859 140.381C128.031 140.212 128.119 140.125 128.203 140.212C128.287 140.294 127.859 140.721 127.427 141.061L126.995 141.318L127.427 141.235C127.943 141.065 129.663 140.129 130.439 139.449C131.215 138.852 131.471 138.77 131.215 139.109C131.131 139.192 131.215 139.192 131.387 139.109C131.559 138.939 131.643 138.77 131.643 138.683C131.643 138.596 132.247 137.833 133.019 137.154C134.395 135.625 138.007 131.208 138.439 130.441C138.523 130.102 138.783 129.932 138.871 129.932C139.043 129.932 139.043 130.189 138.871 130.272C138.699 130.358 138.699 130.528 138.699 130.611C138.699 130.694 138.699 130.694 138.871 130.528C138.955 130.445 138.955 130.358 138.955 130.445C138.955 131.125 131.987 139.963 131.643 139.793C131.559 139.706 131.471 139.793 131.299 139.963C131.184 140.134 131.242 140.161 131.471 140.046C131.642 139.877 131.642 139.905 131.471 140.129C131.299 140.298 131.039 140.468 130.955 140.385C130.871 140.302 130.871 140.385 130.955 140.468C131.043 140.638 129.751 141.744 128.891 142.167C128.203 142.594 125.535 142.677 124.847 142.337C124.587 142.167 124.331 142.08 124.243 142.08C124.071 142.08 123.383 141.484 122.607 140.721C121.315 139.445 120.971 139.192 120.371 138.766C120.199 138.679 119.939 138.169 119.595 137.659L119.163 136.723V134.258C119.251 131.453 119.595 129.754 120.883 125.93C121.315 124.91 121.571 124.061 121.487 123.974L120.971 124.484C120.711 124.823 120.371 125.25 120.111 125.503C119.851 125.756 119.335 126.439 118.907 127.032C118.475 127.628 118.131 128.138 118.047 128.138C118.047 128.138 118.307 127.628 118.735 127.119C120.627 124.484 120.971 123.804 120.455 124.314C120.195 124.654 117.703 128.051 115.379 131.366C114.775 132.215 114.347 132.982 114.347 132.982C114.403 133.037 114.403 133.065 114.347 133.065C114.263 133.065 113.487 133.914 112.711 134.933C110.647 137.651 109.787 138.671 108.583 139.777C107.983 140.37 107.551 140.883 107.551 140.966C107.551 141.049 107.379 141.136 107.035 141.223C106.691 141.306 106.603 141.306 106.779 141.476C106.951 141.559 107.123 141.559 107.211 141.476C107.295 141.476 107.295 141.559 107.211 141.816C107.123 142.155 107.123 142.242 107.383 142.155C107.9 141.984 108.072 141.842 107.899 141.729C107.727 141.646 107.811 141.559 108.155 141.472C108.415 141.302 108.499 141.219 108.499 141.132C108.415 141.049 108.499 140.962 108.583 140.962C108.927 140.962 109.359 140.535 111.163 138.074C112.883 135.779 113.143 135.439 112.711 135.609C112.537 135.664 112.508 135.579 112.623 135.352C112.883 134.925 113.139 134.76 113.055 135.099C112.883 135.352 112.967 135.352 113.139 135.182C113.399 135.012 113.399 134.925 113.311 134.756C113.196 134.642 113.196 134.586 113.311 134.586C113.483 134.669 113.743 134.416 114.171 133.736C114.771 132.8 116.235 130.761 116.495 130.509C116.667 130.339 115.719 132.037 114.603 133.736C113.827 134.842 113.483 135.605 113.571 135.775C113.655 136.028 113.571 136.028 113.487 135.858C113.315 135.518 113.055 135.858 113.227 136.285C113.283 136.398 113.255 136.398 113.143 136.285C113.059 136.202 112.971 136.202 112.883 136.285C112.795 136.367 112.883 136.541 112.967 136.711C113.055 136.881 113.139 136.968 112.967 136.968C112.883 136.968 112.795 137.051 112.795 137.138C112.739 137.193 112.711 137.137 112.711 136.968C112.795 136.458 112.539 136.628 112.195 137.308C112.023 137.734 112.023 137.817 112.195 137.648C112.283 137.561 112.455 137.478 112.539 137.561C112.623 137.648 111.075 140.026 110.903 140.026C110.819 140.026 110.903 139.773 110.903 139.599C110.987 139.259 110.987 139.172 110.819 139.259C110.731 139.342 110.731 139.599 110.731 139.856C110.819 140.283 110.559 140.792 110.299 140.535C110.299 140.535 110.215 140.618 110.299 140.788C110.299 140.958 110.215 141.045 109.955 141.045C109.871 141.045 109.783 141.045 109.783 141.128C109.955 141.385 107.719 143.084 107.203 142.997C107.115 142.997 106.771 142.914 106.427 142.744C105.823 142.487 105.651 142.317 105.995 141.977H105.983ZM106.843 133.479C106.759 133.479 106.843 133.397 106.927 133.397C107.011 133.397 107.099 133.314 107.011 133.227C106.927 133.227 107.011 133.057 107.095 133.057C107.179 133.057 107.699 132.12 108.299 131.018C110.279 127.194 112.427 124.136 115.011 121.841C115.443 121.414 115.787 121.074 115.699 121.074C115.527 121.074 112.859 123.709 111.999 124.729C110.879 126.175 109.419 128.466 108.559 130.165C108.043 130.931 107.699 131.611 107.611 131.611C107.439 131.611 108.731 129.063 109.675 127.534C110.535 126.175 110.363 126.258 109.419 127.617C107.955 129.825 105.891 134.499 106.323 134.499C106.411 134.499 106.583 134.329 106.667 134.072C106.839 133.815 106.839 133.562 106.839 133.476L106.843 133.479ZM117.599 123.2C120.095 120.055 120.783 119.123 120.267 119.545C120.011 119.715 118.631 120.138 118.459 120.138C118.375 120.055 118.287 120.138 118.287 120.225C118.287 120.312 118.203 120.478 117.943 120.565C117.769 120.678 117.712 120.678 117.771 120.565C117.855 120.395 117.771 120.395 117.511 120.565C117.339 120.648 117.167 120.817 117.251 120.904C117.335 120.904 117.167 121.074 117.079 121.244C116.905 121.357 116.876 121.33 116.991 121.161C117.335 120.734 116.991 120.821 116.559 121.244C116.387 121.414 116.387 121.501 116.559 121.414C116.673 121.359 116.673 121.415 116.559 121.584C116.303 121.841 116.127 121.924 116.303 121.671C116.475 121.414 116.215 121.501 115.787 121.841C115.615 122.097 115.443 122.267 115.527 122.35C115.527 122.437 115.527 122.52 115.443 122.437C115.359 122.35 115.011 122.607 114.667 122.947C114.323 123.287 113.979 123.543 113.891 123.543C113.807 123.46 113.719 123.46 113.807 123.543C113.891 123.713 113.375 124.48 113.203 124.393C113.031 124.31 111.655 126.092 111.739 126.179C111.739 126.179 111.911 126.096 112.083 125.922C112.515 125.412 112.167 126.009 110.879 127.877C110.275 128.814 109.503 130.003 109.243 130.513C108.555 131.872 107.867 133.231 107.951 133.231C108.035 133.231 108.727 132.638 109.499 131.955C111.391 130.339 115.175 126.179 117.587 123.204L117.599 123.2ZM111.835 138.236C111.835 138.066 111.751 138.066 111.491 138.406C111.319 138.576 111.147 138.916 111.147 138.999C111.147 139.255 111.235 139.255 111.319 138.999C111.319 138.916 111.491 138.746 111.579 138.659C111.751 138.576 111.835 138.406 111.835 138.232V138.236ZM113.211 124.472C113.295 124.559 112.607 125.491 112.435 125.491C112.351 125.574 112.519 125.321 112.695 124.981C112.951 124.642 113.211 124.472 113.211 124.472ZM120.179 124.132C121.383 122.603 121.555 122.346 121.211 122.603C120.435 123.283 115.363 129.995 115.531 130.252C115.589 130.365 116.249 129.543 117.511 127.787C118.459 126.51 119.663 124.899 120.179 124.132ZM121.211 123.453C121.039 123.536 120.951 123.705 120.951 123.792V123.962C120.951 123.879 121.123 123.705 121.211 123.536C121.384 123.309 121.384 123.281 121.211 123.453ZM122.331 139.852C122.331 139.852 122.247 139.935 122.247 140.022C122.247 140.109 122.331 140.192 122.503 140.192C122.591 140.192 122.675 140.105 122.591 140.022C122.591 139.939 122.419 139.852 122.331 139.852ZM122.503 129.825C122.419 129.908 122.503 129.995 122.675 129.908C122.759 129.908 122.847 129.825 122.847 129.825C122.847 129.568 122.591 129.568 122.503 129.825ZM123.363 127.19C123.279 127.273 123.191 127.36 123.191 127.447C123.191 127.7 123.279 127.617 123.451 127.36C123.451 127.277 123.451 127.19 123.367 127.19H123.363ZM126.715 141.468C126.455 141.468 126.283 141.551 126.283 141.638C126.283 141.808 126.627 141.808 126.971 141.638C127.143 141.468 127.055 141.468 126.711 141.468H126.715ZM128.439 138.236C128.523 138.236 128.523 138.153 128.439 138.066C128.439 137.983 128.523 137.896 128.611 137.896C128.783 137.896 128.871 137.813 128.783 137.727C128.695 137.557 128.783 137.557 128.955 137.644C129.215 137.727 129.471 137.474 129.215 137.387C129.127 137.304 128.439 137.727 127.667 138.236C126.203 139.172 126.031 139.595 127.495 138.746C127.927 138.406 128.355 138.236 128.443 138.236H128.439ZM127.663 141.298C127.579 141.298 127.407 141.381 127.319 141.468C127.319 141.551 127.319 141.638 127.491 141.638C127.575 141.638 127.751 141.551 127.835 141.468C127.919 141.385 127.835 141.298 127.663 141.298ZM131.447 136.454L131.103 136.794C130.931 136.964 130.843 137.134 130.843 137.134C130.927 137.134 131.103 136.964 131.275 136.794C131.363 136.624 131.535 136.454 131.447 136.454ZM134.203 134.416L133.687 134.842C133.255 135.269 133.171 135.439 133.427 135.269H133.511L133.855 134.842L134.199 134.416H134.203Z" fill="white"/>
<path d="M136.309 148.877C136.141 148.877 136.141 148.623 136.141 148.287C136.141 147.783 136.223 147.783 136.059 148.119C135.978 148.373 135.806 148.455 135.725 148.373C135.643 148.287 135.471 148.119 135.304 148.037C135.051 147.869 134.883 147.701 134.883 147.365C134.883 146.943 134.883 146.861 134.716 147.029C134.381 147.365 134.128 147.197 133.879 146.775C133.793 146.607 133.626 146.438 133.458 146.438C133.205 146.438 132.87 145.934 132.87 145.512C132.87 145.344 132.788 145.258 132.617 145.258C132.197 145.258 131.694 144.418 131.78 143.996C131.862 143.828 131.78 143.66 131.698 143.66C131.612 143.574 131.612 143.406 131.698 143.07C131.866 142.648 131.866 142.48 131.698 142.398C131.587 142.286 131.558 142.286 131.612 142.398C131.612 142.566 131.612 142.82 131.531 143.07C131.449 143.406 131.449 143.574 131.531 143.742C131.642 143.854 131.615 143.881 131.449 143.824C131.028 143.656 130.947 142.816 131.028 141.554C131.11 140.964 131.196 140.291 131.196 140.123C131.363 139.533 132.956 136.341 133.038 136.426C133.205 136.512 133.707 135.25 133.707 134.914C133.707 134.859 133.735 134.832 133.789 134.832C133.875 134.914 135.129 132.48 136.554 129.537C139.486 123.655 140.573 121.721 142.165 119.369C143.17 117.856 144.428 116.344 144.428 116.68C144.428 116.766 143.844 117.856 142.835 119.623C141.998 121.135 141.745 121.725 141.83 121.725C141.916 121.725 143.423 118.95 143.423 118.782C143.423 118.7 143.591 118.614 143.676 118.528C143.758 118.446 144.179 117.77 144.513 117.098C144.848 116.34 145.101 115.836 145.101 115.922C145.156 116.091 145.24 116.091 145.355 115.922C145.436 115.754 145.522 115.754 145.436 116.09C145.436 116.34 145.436 116.426 145.518 116.426C145.686 116.426 145.771 116.34 145.771 116.258C145.771 115.754 146.106 116.426 146.106 117.016C146.106 117.52 146.188 117.688 146.441 117.606C146.862 117.524 147.364 118.782 147.364 119.877C147.364 120.717 146.943 122.819 146.694 123.491C146.527 124.081 146.527 124.164 146.776 123.827C146.888 123.603 146.943 123.631 146.943 123.909C146.889 124.134 146.945 124.19 147.111 124.078C147.278 123.909 147.446 123.824 147.36 123.824C147.36 123.741 148.283 122.897 148.365 122.897C148.532 122.897 148.867 122.643 148.867 122.475C148.867 122.393 148.781 122.393 148.614 122.475C148.446 122.643 148.532 122.475 148.696 122.307C149.116 121.803 149.365 121.717 148.949 122.139C148.867 122.307 148.867 122.389 148.949 122.389C149.031 122.307 149.786 121.549 150.541 120.709C151.297 119.869 152.134 119.029 152.469 118.692L152.971 118.188L152.551 118.692C152.383 118.946 152.13 119.197 152.13 119.197C152.13 119.283 151.71 119.701 151.293 120.205C150.791 120.795 151.126 120.541 152.048 119.619C152.886 118.692 153.641 118.02 153.723 118.02C153.805 118.102 153.805 117.938 153.805 117.852C153.723 117.598 154.642 116.758 154.809 116.844C154.895 116.926 154.895 116.844 154.809 116.762C154.728 116.594 157.154 113.905 157.321 114.073C157.321 114.073 157.407 114.241 157.239 114.409L157.407 114.241C157.909 113.737 157.991 113.651 157.574 113.905L157.995 113.483C158.33 113.147 158.832 112.643 158.918 112.389C159.167 111.885 159.085 111.885 159.085 112.307C159.085 112.643 159.337 112.67 159.841 112.389C160.429 112.139 160.51 112.139 160.845 112.389C161.85 113.061 162.52 114.491 162.438 115.75C162.27 117.516 160.343 122.643 158.084 127.18C157.329 128.779 155.822 132.644 155.908 132.726C155.908 132.808 155.908 132.894 155.826 133.062C155.744 133.23 155.908 133.062 156.328 132.64C157.084 131.882 157.084 131.968 156.41 132.894C156.242 133.144 156.075 133.398 156.157 133.398C156.239 133.398 156.238 133.48 156.238 133.566C156.184 133.623 156.184 133.652 156.238 133.652C156.406 133.566 156.406 133.398 156.406 133.23C156.324 133.062 156.324 132.98 156.406 133.062C156.573 133.23 156.655 133.062 156.827 132.98C156.908 132.898 156.908 132.812 156.827 132.812C156.827 132.812 156.908 132.562 157.08 132.39C157.664 131.803 157.917 131.463 158.084 131.213C158.17 131.045 158.084 131.045 157.917 131.295C157.835 131.463 157.664 131.549 157.664 131.463C157.664 131.463 157.999 130.959 158.501 130.287C159.003 129.615 159.424 129.193 159.424 129.279C159.424 129.365 159.256 129.615 158.922 129.951C157.917 131.213 158.166 131.127 159.342 129.783C160.098 128.857 160.179 128.521 159.763 128.943C159.51 129.111 159.51 129.025 159.763 128.775C159.93 128.521 160.098 128.439 160.183 128.521C160.269 128.603 160.939 127.935 160.939 127.763C160.939 127.681 160.771 127.763 160.518 127.931L160.686 127.763C161.02 127.427 161.188 127.176 161.27 127.176C161.355 127.345 162.36 126.336 162.36 126.168C162.36 126.086 162.278 126.086 162.111 126.25C161.943 126.418 162.111 126.168 162.446 125.746C162.781 125.41 163.03 125.242 163.115 125.242C163.201 125.242 163.369 125.242 163.45 125.074C163.536 124.992 163.536 124.906 163.536 124.906L164.961 123.476C164.961 123.394 164.876 123.476 164.206 124.148L163.536 124.906V124.824C163.45 124.824 163.703 124.488 164.12 124.066C164.537 123.644 164.957 123.308 165.043 123.394C165.21 123.476 166.215 122.467 166.133 122.299C166.052 122.217 166.052 122.131 166.215 122.217C166.297 122.217 166.636 122.217 166.971 121.963C167.363 121.682 167.335 121.709 166.889 122.045C166.052 122.718 162.87 125.996 162.115 126.919C161.78 127.341 162.196 127.001 163.038 126.16C163.96 125.32 164.965 124.312 165.3 124.058C165.721 123.722 166.305 123.218 166.64 122.882C166.893 122.628 167.477 122.124 167.897 121.873C168.318 121.537 168.653 121.369 168.735 121.283C168.735 121.229 168.679 121.145 168.567 121.033C168.4 120.865 168.481 120.947 168.902 120.947C169.323 121.033 169.486 121.033 169.572 120.865C169.654 120.611 170.242 120.611 170.409 120.865C170.491 120.947 170.662 121.033 170.83 121.201C171.083 121.201 171.083 121.369 171.083 121.455C171.001 121.623 171.083 121.877 171.25 122.042C171.418 122.378 171.503 122.464 171.332 122.546C171.22 122.6 171.22 122.628 171.332 122.628C171.92 122.628 172.422 125.234 172.087 127.083C172.087 127.337 171.92 127.923 171.92 128.345C171.838 128.767 171.752 129.521 171.667 130.111C171.585 130.615 171.499 131.624 171.418 132.214C171.332 132.8 171.332 133.644 171.164 134.062C171.083 134.902 171.083 136.919 171.164 137.173C171.246 137.259 171.332 137.509 171.246 137.763C171.164 138.353 171.749 138.771 172.586 138.603C173.341 138.521 176.102 137.091 177.527 136.083C178.197 135.578 179.79 134.402 181.129 133.476C183.306 131.878 185.569 129.861 185.569 129.525C185.569 129.443 185.736 129.357 185.903 129.271C186.071 129.189 186.238 129.271 186.238 129.357C186.238 129.525 186.32 129.525 186.406 129.357C186.655 128.935 186.741 129.271 186.573 129.779C186.32 130.369 184.813 132.3 184.311 132.636C184.143 132.804 184.058 132.89 184.143 132.89C184.311 132.89 186.238 130.955 186.238 130.787C186.238 130.533 186.741 130.197 187.161 130.197C187.329 130.197 187.582 130.365 187.582 130.619C187.664 130.955 187.749 131.292 187.835 131.46C188.59 132.468 186.745 134.82 182.477 138.353C181.721 138.939 180.97 139.615 180.717 139.865C180.463 140.033 180.296 140.202 180.382 140.033C180.463 139.951 180.129 140.119 179.712 140.37C178.454 141.378 176.612 142.386 175.608 142.64C174.435 142.976 174.182 143.144 174.938 143.144C175.44 143.144 177.115 142.304 178.789 141.21C180.214 140.37 180.296 140.284 179.626 140.956C178.622 141.796 176.78 143.058 176.024 143.394C174.934 143.816 174.182 143.73 173.178 143.14C172.59 142.886 172.173 142.718 172.087 142.718C171.92 142.718 171.585 142.464 171.25 142.128L169.911 140.784C168.988 140.026 168.318 139.271 167.816 138.513C167.562 138.177 167.313 137.927 167.313 137.927C167.231 138.009 167.231 137.927 167.231 137.841C167.231 137.505 166.643 135.993 166.562 136.075C166.48 136.161 166.48 135.993 166.48 135.825C166.562 135.657 166.562 135.489 166.48 135.571C166.145 135.739 166.059 135.317 166.145 133.05C166.227 130.698 166.566 128.931 167.235 127.083C167.403 126.579 167.488 126.157 167.488 126.074C167.154 125.82 161.877 132.546 159.112 136.747C158.275 138.009 157.352 139.353 157.017 139.69C156.348 140.53 154.673 141.792 154.42 141.706C154.338 141.624 154.085 141.624 153.832 141.538C153.583 141.452 153.411 141.37 153.411 141.202C153.411 141.12 152.991 140.866 152.489 140.612C151.986 140.358 151.566 140.108 151.566 140.022C151.566 139.936 151.398 139.518 151.231 139.182C151.063 138.845 150.978 138.677 150.978 138.845C150.978 139.014 150.978 139.099 150.896 139.099C150.814 139.099 150.728 139.017 150.728 138.845C150.728 138.763 150.561 138.509 150.394 138.341C149.806 137.919 149.638 137.333 149.556 136.407C149.471 134.304 151.566 127.079 153.575 122.624C153.824 122.034 154.077 121.448 154.159 121.279C154.412 120.693 154.077 120.943 153.575 121.616C153.24 122.038 152.15 123.464 151.145 124.894C149.05 127.669 146.538 131.366 145.285 133.468C144.362 135.067 143.022 137.755 142.687 138.509C142.605 138.763 142.438 139.099 142.438 139.099C142.352 139.182 142.185 139.604 142.017 140.108C141.768 140.948 140.845 142.796 138.501 147.337C138.248 147.841 137.913 148.346 137.746 148.514C137.325 148.936 136.741 149.104 136.574 148.936C136.492 148.936 136.406 148.854 136.32 148.854L136.309 148.877ZM131.955 141.984C131.901 142.153 131.929 142.209 132.041 142.152C132.123 142.069 132.208 141.901 132.123 141.815C132.041 141.647 132.041 141.733 131.955 141.984ZM132.878 141.479C132.625 141.733 132.123 142.488 132.123 142.824C132.123 143.078 132.625 142.488 132.878 141.898C133.045 141.307 133.131 141.225 132.878 141.475V141.479ZM134.05 137.783C133.968 137.783 133.548 138.541 133.127 139.381C132.204 141.397 132.29 141.315 132.372 141.315C132.454 141.315 132.707 140.725 133.127 139.971C134.05 138.037 134.132 137.786 134.05 137.786V137.783ZM133.462 140.389C133.63 140.221 133.63 140.053 133.544 139.967C133.462 139.799 133.376 139.967 133.209 140.389C133.127 140.725 133.042 140.979 133.042 140.979C133.209 140.979 133.209 140.897 133.209 140.811C133.209 140.643 133.291 140.557 133.462 140.389ZM133.63 139.631C133.711 139.799 133.711 139.885 133.797 139.799C133.883 139.799 133.797 139.631 133.715 139.545C133.548 139.377 133.548 139.463 133.633 139.627L133.63 139.631ZM135.137 135.43C135.471 134.672 135.892 133.918 135.806 133.918C135.725 133.836 135.386 134.508 135.051 135.348L134.128 137.196C133.961 137.532 133.961 137.618 134.128 137.618C134.214 137.618 134.295 137.45 134.381 137.196C134.463 137.028 134.716 136.27 135.137 135.43ZM134.969 146.102C134.887 146.102 134.716 146.27 134.634 146.356C134.467 146.524 134.299 146.61 134.214 146.61C134.128 146.61 134.046 146.693 134.128 146.778C134.295 147.115 134.463 147.115 134.798 146.778C135.133 146.528 135.133 146.106 134.965 146.106L134.969 146.102ZM135.39 142.992C135.308 142.992 135.222 143.16 135.222 143.242C135.222 143.41 135.308 143.496 135.39 143.41C135.471 143.41 135.557 143.242 135.557 143.156C135.557 143.07 135.475 142.988 135.39 142.988V142.992ZM136.562 132.401C136.48 132.319 136.309 132.655 136.141 132.991C135.639 133.918 135.888 133.918 136.309 133.074C136.476 132.737 136.644 132.483 136.562 132.401ZM139.661 132.319C139.493 132.431 139.408 132.404 139.408 132.237C139.576 132.069 139.49 131.983 139.408 132.069C139.327 132.155 139.241 132.237 139.327 132.405C139.327 132.487 139.408 132.741 139.327 132.827C139.245 133.081 139.159 133.081 139.073 132.913C138.992 132.745 138.906 132.827 138.992 132.913C139.073 133.081 138.992 133.499 138.824 133.922C138.322 134.93 138.824 134.09 139.408 132.995C139.743 132.323 139.829 132.155 139.661 132.323V132.319ZM139.911 131.647C139.743 131.729 139.743 131.647 139.825 131.479C139.825 131.422 139.798 131.393 139.743 131.393C139.661 131.479 139.576 131.647 139.661 131.647C139.743 131.901 139.996 131.901 140.164 131.647C140.164 131.565 140.082 131.565 139.915 131.647H139.911ZM140.331 130.807C140.164 130.639 140.164 130.471 140.413 130.553C140.58 130.553 140.666 130.553 140.748 130.471C140.83 130.389 140.748 130.303 140.58 130.389C140.331 130.471 140.331 130.389 140.499 129.967C140.752 129.545 141.001 129.545 140.834 129.967C140.834 130.053 141.001 129.799 141.254 129.295C141.589 128.79 141.756 128.368 141.675 128.286C141.593 128.118 142.095 127.024 142.263 127.11C142.263 127.11 142.43 127.11 142.43 126.942C142.43 126.774 142.43 126.774 142.345 126.774C142.263 126.86 142.263 126.774 142.263 126.692C142.344 126.524 142.43 126.438 142.598 126.524C142.652 126.524 142.652 126.468 142.598 126.356C142.598 126.274 142.598 126.106 142.679 126.106C142.761 126.106 142.847 125.938 142.847 125.77C142.847 125.684 143.182 124.843 143.602 123.921C143.937 123.081 144.525 121.819 144.86 120.979C145.113 120.22 145.448 119.548 145.53 119.634C145.616 119.716 145.53 119.634 145.53 119.548C145.448 119.38 145.448 119.212 145.362 119.212C145.362 119.212 145.109 119.97 144.774 120.725C144.44 121.565 143.267 124.085 142.095 126.438C140.335 129.967 140 130.639 140.253 130.893C140.365 131.005 140.338 131.032 140.172 130.975C140.004 130.975 139.922 130.975 140.004 131.057C140.086 131.225 140.507 131.225 140.507 131.057C140.507 130.975 140.425 130.889 140.339 130.807H140.331ZM141.418 128.2C141.667 128.2 141.585 128.536 141.336 128.704C141.25 128.787 141.168 128.958 141.25 129.041C141.25 129.123 141.25 129.209 141.168 129.209C141.001 129.209 141.001 129.127 141.001 129.127C141.001 128.958 141.336 128.2 141.422 128.2H141.418ZM145.02 129.967C145.857 128.79 146.445 127.782 146.445 127.782C146.192 127.782 143.01 132.319 142.508 133.413C141.838 134.676 141.25 135.934 141.336 135.852C141.418 135.77 141.92 134.926 142.508 134.004C143.092 132.995 144.182 131.229 145.02 129.971V129.967ZM141.92 127.778C141.808 128.06 141.836 128.087 142.002 127.86C142.087 127.692 142.169 127.524 142.169 127.438C142.169 127.188 142.169 127.356 141.916 127.774L141.92 127.778ZM144.852 129.377C144.517 129.545 144.432 129.627 144.603 129.627C144.603 129.627 144.771 129.545 144.852 129.377C144.964 129.207 144.964 129.207 144.852 129.377ZM145.775 128.2C146.196 127.696 146.445 127.36 146.531 127.528C146.612 127.61 146.866 127.442 147.119 127.106L147.539 126.52L147.037 126.942C146.367 127.532 146.535 127.278 147.123 126.52C147.457 126.184 147.625 125.93 147.543 126.098C147.461 126.52 147.543 126.434 147.964 125.93C148.299 125.426 148.299 125.34 147.964 125.676C147.796 125.844 147.629 125.93 147.629 125.762C147.629 125.762 147.796 125.508 147.964 125.34C148.131 125.258 148.299 125.172 148.299 125.258C148.299 125.258 148.38 125.258 148.552 125.09C148.887 124.836 149.054 124.5 148.719 124.668C148.552 124.75 148.552 124.668 148.637 124.5C148.719 124.418 148.805 124.418 148.89 124.5C148.972 124.5 149.728 123.659 150.565 122.651C151.402 121.557 152.239 120.467 152.492 120.213C152.742 119.877 152.827 119.877 152.66 119.959C152.407 120.127 151.904 120.717 151.402 121.303C150.982 121.893 150.479 122.311 150.397 122.229C150.397 122.229 149.642 122.987 148.805 123.995C147.212 126.012 145.035 129.037 145.121 129.037L145.791 128.196L145.775 128.2ZM146.527 124.335C146.359 124.503 146.274 124.672 146.274 124.672C146.274 124.922 146.359 124.84 146.527 124.503C146.638 124.279 146.638 124.223 146.527 124.335ZM148.369 124.754C148.536 124.672 148.536 124.754 148.536 124.836C148.536 124.918 148.536 125.004 148.369 125.09C148.314 125.09 148.287 125.062 148.287 125.008C148.287 124.922 148.287 124.84 148.369 124.754ZM149.373 123.745C149.455 123.745 149.455 123.827 149.373 123.999C149.292 124.081 149.12 124.249 148.953 124.249C148.871 124.249 148.953 124.081 149.034 123.999C149.116 123.831 149.288 123.745 149.369 123.745H149.373ZM149.961 122.823C150.129 122.655 150.21 122.487 150.21 122.655C150.21 122.823 149.708 123.581 149.626 123.413C149.626 123.331 149.794 123.077 149.961 122.823ZM150.549 121.225C150.549 121.225 150.3 121.479 150.129 121.647C149.876 121.901 149.794 122.069 149.794 122.069C149.876 122.069 149.961 121.901 150.214 121.647C150.468 121.393 150.549 121.225 150.549 121.225ZM152.224 129.377C152.224 129.291 152.224 129.209 152.142 129.209L151.807 129.881C151.64 130.385 151.554 130.553 151.472 130.385C151.39 130.217 151.305 130.299 151.39 130.553C151.39 130.721 151.223 131.729 150.97 132.823C150.549 134.504 150.214 136.27 150.468 136.016C150.549 135.934 150.721 135.258 150.888 134.336C151.141 132.991 151.893 130.385 152.228 129.377H152.224ZM151.971 132.823C151.803 132.741 151.387 135.176 151.387 135.512C151.387 136.016 151.468 135.594 151.721 134.25C151.889 133.492 151.971 132.819 151.971 132.819V132.823ZM152.224 128.704C152.142 128.536 152.142 128.368 152.224 128.282V128.364C152.224 128.533 152.391 128.533 152.477 128.533C152.563 128.533 152.559 128.45 152.559 128.364C152.477 128.196 152.477 128.11 152.559 128.11C152.64 128.11 152.64 127.942 152.64 127.774C152.722 127.102 152.722 126.68 152.894 126.512C152.975 126.426 153.228 125.672 153.649 124.746C153.984 123.82 154.486 122.811 154.572 122.393C154.992 121.635 155.074 121.217 154.992 121.217C154.992 121.217 155.074 121.049 155.242 120.881C155.327 120.799 155.409 120.627 155.327 120.545C155.074 120.377 152.313 127.52 152.395 127.774C152.481 127.942 152.395 127.942 152.313 127.942C152.232 127.856 151.978 128.279 151.811 128.869C151.39 130.045 151.39 130.549 151.811 129.541C151.978 129.119 152.064 128.869 152.232 128.955C152.485 129.037 152.399 129.037 152.232 128.701L152.224 128.704ZM152.391 130.975C152.224 131.311 152.142 131.815 152.056 132.151C151.999 132.487 152.055 132.46 152.224 132.069C152.306 131.733 152.391 131.229 152.477 130.893C152.531 130.557 152.503 130.584 152.391 130.975ZM153.98 118.45C153.98 118.45 153.645 118.704 153.392 119.04C153.057 119.294 152.89 119.544 152.89 119.544C152.971 119.544 153.225 119.294 153.559 119.04C153.809 118.704 153.98 118.45 153.98 118.45ZM153.396 140.389C152.975 140.643 152.975 140.811 153.396 140.811C153.563 140.811 153.731 140.643 153.731 140.557C153.813 140.303 153.731 140.221 153.396 140.389ZM154.903 117.36C154.817 117.36 154.65 117.528 154.482 117.696C154.401 117.864 154.233 118.032 154.315 118.032C154.397 118.032 154.482 117.864 154.65 117.696C154.817 117.528 154.985 117.36 154.903 117.36ZM156.242 115.762C156.242 115.762 156.075 116.012 155.822 116.266L155.487 116.602C155.569 116.602 155.822 116.434 155.989 116.266C156.239 116.012 156.324 115.762 156.238 115.762H156.242ZM155.826 133.664C155.491 133.914 155.491 134 155.573 134C155.654 134 155.74 133.914 155.826 133.746C155.994 133.576 155.994 133.549 155.826 133.664ZM155.993 115.425C155.491 115.93 155.405 116.098 155.74 115.93C155.822 115.848 156.075 115.676 156.242 115.343C156.411 115.062 156.328 115.089 155.993 115.425ZM155.908 120.131C155.853 120.3 155.882 120.327 155.993 120.213C156.075 120.045 156.161 120.045 156.075 119.959C155.993 119.877 155.993 119.959 155.908 120.127V120.131ZM157.668 114.331C157.418 114.499 157.247 114.753 157.084 114.753C156.92 114.753 156.916 114.835 156.916 114.835C157.084 114.917 156.916 115.089 156.749 115.339C156.581 115.508 156.414 115.676 156.496 115.676C156.496 115.676 156.916 115.339 157.333 114.835C157.753 114.413 157.835 114.163 157.668 114.331ZM156.912 118.114C156.83 118.114 156.83 118.2 156.83 118.368C156.83 118.536 156.83 118.536 156.998 118.2C157.084 118.114 156.998 118.032 156.916 118.114H156.912ZM160.931 128.368C160.682 128.622 160.596 128.704 160.682 128.704C160.767 128.704 160.849 128.622 160.931 128.45C161.1 128.281 161.1 128.254 160.931 128.368ZM163.026 125.344C163.026 125.344 162.858 125.43 162.605 125.68C162.352 125.934 162.352 126.102 162.352 126.102C162.438 126.102 162.52 125.934 162.773 125.68C163.026 125.426 163.108 125.344 163.022 125.344H163.026ZM163.949 128.873C164.116 128.704 164.202 128.536 164.202 128.536C164.116 128.536 163.949 128.704 163.781 128.873C163.614 129.041 163.614 129.209 163.614 129.209L163.949 128.873ZM167.633 126.352C167.633 126.606 167.8 127.11 167.886 126.942C167.886 126.942 167.886 126.774 167.804 126.52C167.718 126.352 167.636 126.266 167.636 126.352H167.633Z" fill="white"/>
<path d="M188.542 143.187C188.453 143.111 188.369 143.031 188.369 143.111C188.369 143.191 188.107 142.874 188.107 142.717C188.107 142.641 188.023 142.48 187.934 142.404C187.846 142.327 187.85 142.247 187.934 142.327C187.934 142.327 188.019 142.327 188.019 142.171C188.019 142.094 187.934 142.094 187.846 142.094C187.672 142.171 187.672 142.094 187.672 142.094C187.672 142.043 187.644 141.991 187.588 141.937C186.98 141.701 186.807 140.917 187.242 140.214C187.415 139.82 187.934 139.274 187.934 139.43C187.934 139.43 188.019 139.43 188.196 139.274C188.542 139.037 188.888 138.804 189.234 138.804C189.58 138.88 190.1 138.647 190.188 138.49C190.273 138.414 190.188 138.414 190.104 138.414C189.931 138.49 189.757 138.57 189.669 138.57C189.496 138.651 189.496 138.57 189.496 138.414C189.58 138.177 189.323 138.1 189.061 138.1C188.8 138.177 188.8 138.1 188.888 137.944C188.888 137.864 188.977 137.787 188.977 137.707C188.888 137.63 190.188 137.08 190.707 137C190.881 137 191.227 137.077 191.4 137.077C191.573 137.153 191.834 137.153 191.919 137.153C192.177 137.23 192.438 137.466 192.784 137.78C193.046 138.017 193.304 138.25 193.219 138.173C193.135 138.097 193.219 138.017 193.219 138.017C193.219 138.017 193.827 139.113 193.827 139.27L193.742 139.19C193.654 139.19 193.742 139.27 193.827 139.427C194 139.664 194 139.74 194 140.524C193.915 141.464 193.827 141.777 193.046 142.56C192.092 143.657 190.881 144.127 189.931 143.971C189.496 143.89 188.719 143.42 188.546 143.187H188.542ZM187.85 139.66C188.023 139.503 187.934 139.503 187.761 139.583C187.588 139.74 187.242 140.367 187.157 140.76C187.157 140.997 187.157 141.074 187.242 140.917C187.326 140.837 187.415 140.524 187.503 140.29C187.588 139.977 187.761 139.74 187.85 139.664V139.66ZM189.753 139.897C189.58 139.897 188.888 140.917 188.888 141.23C188.888 141.467 189.061 141.311 189.496 140.524C189.669 140.21 189.757 139.897 189.757 139.897H189.753ZM189.665 139.27C189.576 139.27 189.492 139.347 189.403 139.427C189.315 139.507 189.23 139.583 189.319 139.583C189.319 139.583 189.403 139.503 189.492 139.427C189.58 139.35 189.665 139.27 189.665 139.27ZM190.619 140.13C190.792 139.973 190.792 139.893 190.703 139.893C190.703 139.893 190.619 139.893 190.53 139.973C190.53 139.973 190.446 140.05 190.269 140.05C190.184 140.05 189.923 140.287 189.834 140.6L189.661 141.07L190.007 140.833C190.18 140.677 190.353 140.52 190.353 140.44C190.353 140.44 190.526 140.283 190.615 140.126L190.619 140.13ZM191.138 141.934C191.05 141.934 190.792 142.09 190.53 142.167C189.923 142.48 190.096 142.48 190.703 142.247C191.138 142.09 191.311 141.934 191.138 141.934ZM190.881 138.093C190.796 138.093 190.707 138.17 190.619 138.17C190.563 138.223 190.563 138.25 190.619 138.25C190.619 138.25 190.703 138.25 190.792 138.17C190.881 138.089 190.965 138.093 190.876 138.093H190.881ZM193.388 140.443C193.3 140.207 193.3 140.287 192.869 141.07C192.434 141.934 191.83 142.637 191.569 142.637C191.48 142.637 191.396 142.637 191.48 142.714C191.569 142.79 191.915 142.557 192.434 142.087C193.042 141.617 193.473 140.677 193.388 140.44V140.443ZM193.65 139.503C193.565 139.66 193.565 139.817 193.65 139.74C193.709 139.74 193.738 139.766 193.738 139.817C193.738 139.893 193.823 139.893 193.823 139.893V139.66C193.738 139.503 193.738 139.423 193.65 139.503Z" fill="url(#paint2_linear_247_49)"/>
</g>
<defs>
<linearGradient id="paint0_linear_247_49" x1="-162.031" y1="-182.819" x2="299.301" y2="284.388" gradientUnits="userSpaceOnUse">
<stop stop-color="#0B394C"/>
<stop offset="0.582207" stop-color="#0B0C10"/>
<stop offset="0.676004" stop-color="#0B0C10"/>
<stop offset="0.958083" stop-color="#0B1A18"/>
</linearGradient>
<linearGradient id="paint1_linear_247_49" x1="21" y1="9.00004" x2="238.999" y2="9.00004" gradientUnits="userSpaceOnUse">
<stop stop-color="#00FF8F"/>
<stop offset="1" stop-color="#00A1FF"/>
</linearGradient>
<linearGradient id="paint2_linear_247_49" x1="187" y1="137" x2="194" y2="137" gradientUnits="userSpaceOnUse">
<stop stop-color="#00FF8F"/>
<stop offset="1" stop-color="#00A1FF"/>
</linearGradient>
<clipPath id="clip0_247_49">
<rect width="260" height="260" fill="white"/>
</clipPath>
</defs>
</svg>
