<svg width="512" height="512" viewBox="0 0 512 512" fill="none" xmlns="http://www.w3.org/2000/svg">
<path d="M102.31 361.17C99.88 359.39 93.77 356.62 85.36 351.82C83.12 350.55 80.72 349.13 78.18 347.57C78.38 346.59 78.59 345.61 78.79 344.65C79.42 344.96 80.02 345.25 80.58 345.5C83.11 346.73 84.96 347.33 86.19 347.71C87.43 348.07 88.09 348.13 88.41 347.98C89.64 347.41 85.38 343.82 88.99 344.54C85.87 343.1 82.81 341.53 79.8 339.86C80.53 336.43 81.25 333.16 81.93 330.14C90.98 291.54 100.74 251.29 110.66 210.97C110.88 210.84 111.09 210.71 111.31 210.57C121.58 204.2 131.68 196.92 140.47 187.88C142.61 185.56 144.67 183.16 146.76 180.8L152.37 173.1C155.84 167.74 158.77 162.1 161.13 156.28C165.84 144.64 168.47 132.49 169.75 120.42C171.02 108.35 171.03 96.0098 169.04 83.7498C168.55 80.6898 167.91 77.6298 167.14 74.5998C166.8 73.0798 166.29 71.5798 165.87 70.0698C165.66 69.3098 165.41 68.5698 165.15 67.8198L164.34 65.4598C163.96 64.2898 163.34 62.9998 162.83 61.7998L161.24 58.1098C160.75 56.8198 160.07 55.8298 159.48 54.6898L157.65 51.3598C156.42 49.1898 155.13 47.1498 153.88 45.0498L149.93 38.5498C148.68 40.1298 147.38 41.8698 146.16 43.4698L142.56 48.2398L140.77 50.6198L139.03 53.2198C137.84 54.8898 136.79 56.8698 135.71 58.7598C134.62 60.6598 133.77 62.6598 132.79 64.5998C132.27 65.8198 131.75 66.9798 131.27 68.1898C130.32 70.5698 129.42 72.9698 128.63 75.3598C127.01 80.1398 125.67 84.9098 124.43 89.6098C123.17 94.3098 122.08 98.9198 120.92 103.58C116.34 122.15 111.75 140.73 107.16 159.34C104.86 168.64 102.56 177.95 100.26 187.27C99.27 191.36 98.28 195.45 97.29 199.54C89.42 204.2 81.18 208.6 72.83 213.11C63.55 218.11 54.14 223.33 45.06 229.32C42.76 230.75 40.55 232.38 38.33 233.97L35.01 236.37L31.8 238.97C27.52 242.31 23.23 246.15 19.42 250.6C15.63 255.07 12.14 260.19 9.99 266.33C8.92 269.39 8.21 272.67 8 276.01C7.76 279.36 8.1 282.73 8.79 285.85C10.2 292.13 12.96 297.44 15.9 302.06C18.88 306.72 22.06 310.62 25.28 314.51C31.79 322.22 38.85 329.11 46.21 335.14C51.66 339.59 57.28 343.56 62.95 347.06C59.69 362.25 56.53 377.54 53.54 392.95C51.95 401.2 50.82 408.93 49.81 416.08C48.86 423.24 48.17 429.85 47.59 435.87C52.92 407.19 58.9 377.99 65.34 348.5C65.5 348.6 65.66 348.7 65.83 348.79C59.59 378.26 53.91 407.23 48.67 436.3C48.03 439.88 47.38 443.5 46.74 447.12C46.4 451.91 46.16 456.21 46 460.04C45.68 475.11 47.12 482.81 53.28 453.56C53.86 449.88 54.73 444.35 55.45 439.75C56.21 435.15 56.82 431.48 56.82 431.48C58.02 428.7 58.51 430.5 58.96 432.36C63.56 405.96 68.76 379.65 74.35 353.43C74.44 353.47 74.52 353.51 74.61 353.56C69.07 380.2 63.93 407.02 59.4 433.99C59.99 435.75 60.83 435.45 63.12 425.01C64.89 417.77 67.82 401.3 71.22 383.01C72.97 373.68 74.87 363.89 76.74 354.6C80.39 356.34 83.71 357.71 86.64 358.79C89.08 359.73 91.27 360.42 93.18 360.98C95.08 361.57 96.73 361.97 98.11 362.25C100.88 362.83 102.52 362.98 103.15 362.75C103.8 362.53 103.49 361.99 102.29 361.15L102.31 361.17ZM101.53 197C101.33 197.12 101.13 197.25 100.93 197.37L103.65 186.24C105.56 178.59 107.47 170.95 109.38 163.31C113.2 148.04 117.02 132.8 120.82 117.62C122.73 110.03 124.63 102.46 126.52 94.9098C128.51 87.3598 130.58 79.6998 133.45 72.1898C131.07 78.5398 129.21 85.0898 127.5 91.6498C125.79 98.2098 124.25 104.82 122.59 111.51C119.31 124.88 115.98 138.47 112.64 152.07C108.89 167.15 105.18 182.23 101.52 196.99L101.53 197ZM113 189.36C115.44 179.75 117.89 170.18 120.37 160.66C124.09 146.48 127.78 132.38 131.46 118.36L120.35 161.38C117.96 170.64 115.59 179.91 113.25 189.19C113.17 189.25 113.09 189.31 113.01 189.36H113ZM152.37 122.12C150.9 133.44 148.11 144.49 143.41 154.46C142.26 156.96 140.94 159.36 139.55 161.71C138.2 164.07 136.46 166.21 134.9 168.46L133.7 170.13L132.33 171.69L129.61 174.81C128.75 175.89 127.7 176.82 126.7 177.8L123.69 180.72C121.47 182.75 119.12 184.7 116.69 186.59C120.18 172.62 123.72 158.71 127.21 144.9C129.83 134.64 132.43 124.43 135.01 114.3C137.62 104.22 140.09 93.9698 143.07 84.6998C143.89 82.2098 144.71 79.7298 145.64 77.3598C146.08 76.1498 146.59 74.9998 147.06 73.8298C147.52 72.7998 148.27 71.0698 148.14 71.4298C148.22 71.2998 148.23 71.2898 148.25 71.2798C148.27 71.2598 148.29 71.2498 148.31 71.2398C148.35 71.2198 148.37 71.2198 148.39 71.2398C148.41 71.3098 148.42 71.3598 148.42 71.3998V71.4398V71.4598C148.42 71.4798 148.41 71.4198 148.42 71.5098L148.66 72.2198C150.43 77.3598 151.67 82.7398 152.46 88.2498C154.06 99.2698 153.8 110.78 152.36 122.15L152.37 122.12ZM100.62 186.89C102.95 177.59 105.27 168.32 107.58 159.06C112.2 140.54 116.81 122.08 121.42 103.6C122.58 98.9698 123.68 94.3698 124.95 89.6998C126.2 85.0298 127.54 80.2798 129.16 75.5298C129.95 73.1498 130.85 70.7798 131.8 68.4098C132.27 67.2198 132.8 66.0598 133.31 64.8498C134.26 62.9698 135.09 61.0398 136.14 59.1998C137.19 57.3698 138.2 55.4598 139.35 53.8298L141.03 51.2998L142.76 48.9798L146.25 44.3398C147.43 42.7998 148.7 41.0898 149.9 39.5898L154.92 47.8998C155.72 49.2698 156.55 50.5698 157.34 51.9898L159.68 56.2798C160.51 57.6398 161.11 59.3298 161.81 60.8798C162.46 62.4498 163.24 64.0598 163.78 65.6098L164.84 68.7098C165.19 69.6998 165.44 70.6998 165.74 71.6998C168.09 79.6898 169.29 87.8998 169.82 96.0898C170.28 104.28 170.03 112.48 169.15 120.6C168.27 128.72 166.82 136.88 164.48 144.93C164.5 144.01 164.9 141.54 163.54 145.53C165.84 137.44 167.24 129.25 168.1 121.11C168.93 112.97 169.18 104.77 168.69 96.5798C168.41 92.4898 168.03 88.3998 167.33 84.3298C167.05 82.2898 166.57 80.2798 166.18 78.2498C165.67 76.2398 165.25 74.2198 164.63 72.2398C164.33 71.2498 164.07 70.2498 163.74 69.2598L162.71 66.2698C162.24 64.8398 161.5 63.3098 160.9 61.8498L159.95 59.6298C159.79 59.2598 159.64 58.8798 159.47 58.5298L158.93 57.5198L156.76 53.4698C156.04 52.1198 155.25 50.8898 154.51 49.5898C153.03 47.0598 151.37 44.3698 149.79 41.7498C148.65 43.0998 147.44 44.7798 146.32 46.2298L143.01 50.6798L141.38 52.9098L139.8 55.3298C138.72 56.8798 137.79 58.7398 136.79 60.4598C136.29 61.3298 135.9 62.2498 135.45 63.1398L134.79 64.4898C134.58 64.9298 134.32 65.4498 134.23 65.6798C133.72 66.8698 133.17 68.0498 132.71 69.2498C131.73 71.6398 130.87 74.0398 130.05 76.4298C126.82 86.0698 124.54 95.5198 122.15 104.9C117.38 123.71 112.62 142.51 107.84 161.36C104.67 173.8 101.58 186.29 98.52 198.82C98.2 199.01 97.87 199.2 97.55 199.39C98.57 195.22 99.6 191.04 100.62 186.89ZM64.8 338.55C61.56 336.16 58.23 333.58 54.83 330.7C55.06 330.41 55.52 329.84 55.74 329.55C59.18 332.33 62.33 334.67 65.21 336.64C65.07 337.28 64.93 337.91 64.8 338.55ZM53.46 321C48.18 316.22 43.27 311.05 38.8 305.54C37.68 304.16 36.56 302.79 35.53 301.35C34.48 299.93 33.4 298.5 32.44 297.08C30.51 294.23 28.81 291.38 27.58 288.57C26.17 285.82 24.71 281.73 24.77 277.99C24.73 274.24 26.32 270.36 27.76 267.79C30.06 263.67 33.53 259.73 37.47 256.1L38.98 254.75L40.6 253.43L43.84 250.79C44.38 250.35 44.91 249.9 45.47 249.48L47.18 248.24L50.6 245.77C59.86 239.29 69.92 233.64 80.2 228.06C84.08 225.95 88 223.85 91.93 221.7C89.03 233.84 86.11 246.01 83.2 258.2C86.15 245.92 89.12 233.74 92.09 221.62C92.44 221.43 92.78 221.24 93.13 221.05C88.77 239.27 84.5 257.66 80.39 276.32C80.03 276.24 79.33 276.08 78.97 275.99C74.68 294.33 70.46 312.78 66.36 331.37C61.86 328.16 57.54 324.7 53.45 321H53.46ZM67.58 340.57C67.44 340.47 67.3 340.37 67.16 340.27C67.31 339.59 67.46 338.91 67.61 338.23C67.75 338.32 67.88 338.41 68.02 338.49C67.87 339.18 67.73 339.87 67.58 340.56V340.57ZM76.12 346.27C76.05 346.22 75.98 346.18 75.9 346.13C76.09 345.24 76.28 344.34 76.47 343.45C76.54 343.49 76.61 343.52 76.68 343.56C76.49 344.46 76.3 345.36 76.11 346.26L76.12 346.27ZM69.15 333.29C69.02 333.2 68.9 333.12 68.77 333.03C74.55 307.21 80.64 281.2 86.89 255.11C89.74 243.35 92.61 231.55 95.47 219.76C95.62 219.68 95.77 219.6 95.92 219.51C94.89 223.63 93.86 227.72 92.84 231.76C84.11 266.9 76.27 300.46 69.14 333.29H69.15ZM77.55 338.56C81.04 322.63 84.65 306.74 88.37 290.86C94.4 264.72 100.68 238.82 107.05 213.15C107.12 213.11 107.2 213.06 107.27 213.02C100.82 238.94 94.47 264.87 88.37 290.86C84.72 306.71 81.17 322.66 77.74 338.66C77.68 338.62 77.62 338.59 77.55 338.55V338.56Z" fill="url(#paint0_linear_197_70)"/>
<path d="M333.22 284.08C332.68 283.88 331.9 284.65 330.47 286.3C329.02 287.91 326.88 290.5 323.02 292.97C321.27 294.42 318.24 296.08 315.49 296.78C314.12 297.15 312.86 297.37 311.94 297.44C311.02 297.54 310.46 297.55 310.46 297.55C308.66 296.84 309.75 296.07 310.66 295.28C307.36 295.41 304.03 294.7 301.11 293.27C298.21 291.81 295.63 289.63 293.56 286.93C289.36 281.52 286.95 274.56 285.21 267.4C282.11 254.61 281.29 241.3 281.36 227.92C281.37 227.9 281.38 227.88 281.39 227.86C281.39 241.31 282.33 254.74 285.6 267.62C287.42 274.81 289.97 281.78 294.29 287.03C295.37 288.32 296.55 289.49 297.83 290.5C299.12 291.49 300.5 292.34 301.96 292.98C304.89 294.26 308.21 294.79 311.43 294.51C311.82 294.03 311.9 293.6 311.26 293.3C310.62 292.95 309.23 292.83 306.78 292.17C305.07 291.6 302.46 290.8 299.73 288.67C296.98 286.61 294.14 283.08 291.94 278.4C290.83 276.09 289.85 273.54 289.02 270.88C288.19 268.21 287.44 265.41 286.85 262.69C285.63 257.23 284.9 251.9 284.56 247.37C284.17 241.72 284.05 235.95 284.09 230.1C284.12 227.23 284.18 224.32 284.27 221.41C284.99 219.63 285.68 217.84 286.31 216.02C290.75 203.16 292.84 189.44 292.21 175.7L290.55 139.01L276.66 173.05C271.48 185.75 269.85 199.09 269.24 211.79C269.9 198.99 271.63 185.64 276.81 173.11L290.59 139.82L292.05 175.7C292.61 189.46 290.46 203.09 286.01 215.84C285.48 217.36 284.91 218.86 284.31 220.34C284.34 219.46 284.39 218.58 284.42 217.7C284.69 216.99 284.98 216.29 285.23 215.57C289.7 202.94 291.84 189.38 291.2 175.74L289.69 143.64L277.59 173.43C274.87 180.12 273.15 187.1 272.11 194.04C271.18 200.25 270.79 206.43 270.63 212.57C270.35 213.3 270.06 214.03 269.77 214.75C269.52 214.75 269.28 214.73 269.11 214.73C269.09 215.33 269.08 215.93 269.06 216.53C266.37 222.68 263.05 228.5 259.18 233.82C255.23 239.2 250.86 244.01 246.21 247.07C244.5 248.22 242.61 249.22 241.15 249.71C239.63 250.25 238.57 250.22 238.23 250.09C238.04 250.02 237.85 249.95 237.55 249.74C237.25 249.54 236.84 249.19 236.39 248.67C235.47 247.64 234.46 245.99 233.53 244.04C229.52 235.75 227.35 226.5 227.29 217.28L209.35 216.16C207.84 228.24 206.01 240.31 203.92 252.37C203.73 249.38 203.52 246.45 203.28 243.59C203.07 241.21 202.87 239.08 202.63 237.04C202.39 234.99 202.1 233.05 201.73 231.29C201 227.75 199.9 224.92 198.85 223.06C198.32 222.12 197.82 221.42 197.38 220.92C196.96 220.46 196.66 220.3 196.39 220.21C195.87 220.06 195.62 220.51 195.61 221.49C195.65 222.61 195.93 224.33 196.09 226.55C196.26 228.77 196.31 231.47 196.19 234.57C195.88 240.74 195.53 248.68 195.41 258.14C195.04 258.15 194.31 258.18 193.94 258.19C193.81 248.76 193.4 242.88 192.96 239.29C192.51 235.72 191.91 234.52 191.36 234.29C190.27 233.86 189.17 237.24 188.07 235.15C188.26 237.26 188.36 239.59 188.46 241.95L188.73 248.98C188.88 253.67 188.96 258.36 188.99 263.05C189.03 272.43 188.82 281.83 188.31 291.21C188.34 295.9 188.31 305.29 188.26 309.97C188.26 310.97 188.23 311.97 188.22 312.97C188 312.97 187.78 312.99 187.56 312.97C185.38 312.89 183.58 312.42 181.62 311.46C177.72 309.58 173.83 305.73 170.06 301.2C166.25 296.68 162.76 291.89 159.73 286.9C158.19 284.42 156.81 281.87 155.5 279.3C154.84 278.02 154.26 276.71 153.64 275.43C153.06 274.1 152.47 272.77 151.89 271.44C151.31 270.08 150.69 268.82 150.18 267.28L148.94 263.87L148.31 262.16L148 261.3C147.9 261 147.81 260.65 147.71 260.33C146.93 257.68 146.15 255.04 145.38 252.4C141.62 253.29 139.15 253.96 138.21 254.22L137.72 254.36L137.26 251.38L136.35 245.39V245.34C135.99 237.26 136.82 256.33 136.73 254.37L136.75 254.41L136.79 254.46L136.87 254.57C136.87 254.57 136.91 254.59 136.93 254.59L136.8 254.63L133.95 255.54C132.1 256.13 130.09 256.69 128.22 257.41C128.18 258.38 127.98 258.93 127.82 259.55C127.65 260.15 127.46 260.7 127.27 261.25C126.89 262.34 126.47 263.39 126.08 264.45L123.68 270.79L121.36 276.93L120.2 280.12C112.17 302.78 101.29 326.68 95.5298 345.54C90.5598 362.37 97.7098 358.18 105.78 342.52C106.12 342.65 106.81 342.92 107.15 343.06C100.11 359.12 106.71 352.31 107.62 355.02C110.8 346.86 114.32 338.82 118.53 331.05C119.32 329.01 120.92 324.92 121.71 322.88C124.96 314.49 128.17 306.18 131.36 297.94C132.94 293.82 134.52 289.71 136.1 285.61L137.21 282.72L137.3 282.45L137.5 281.85C137.63 281.45 137.8 281.04 137.88 280.58C137.91 280.39 137.9 280.17 137.85 279.98L138 280.46C138.11 280.79 138.24 281.12 138.38 281.47C138.5 281.75 138.62 282.02 138.77 282.32L139.31 283.38C139.98 284.64 140.6 285.92 141.31 287.16C144.05 292.16 147.1 297 150.43 301.65C151.25 302.82 152.11 303.97 152.99 305.1C153.85 306.25 154.75 307.36 155.65 308.47C157.47 310.7 159.3 312.84 161.36 315.04C163.44 317.22 165.71 319.4 168.37 321.41C171.03 323.41 174.1 325.27 177.65 326.54C174.05 325.23 170.97 323.33 168.33 321.29C165.67 319.24 163.42 317.03 161.37 314.83C157.39 310.44 153.91 306.05 150.61 301.37C147.34 296.72 144.37 291.89 141.68 286.91C140.99 285.67 140.38 284.4 139.72 283.14L139.39 282.48L139.31 282.29L139.14 281.91C138.94 281.45 138.76 281.02 138.58 280.56C138.37 279.99 138.16 279.43 137.99 278.87L137.74 278.06C137.82 278.33 137.84 278.69 137.79 279C137.7 279.61 137.47 280.19 137.29 280.76C137.19 280.36 137.13 279.69 136.94 279.64C137.14 278.56 137.52 277.4 137.67 276.18C137.75 275.58 137.73 274.89 137.58 274.37L138.01 275.69C138.31 276.63 138.68 277.65 139.03 278.67C139.34 279.5 139.64 280.31 139.96 281.1L140.22 281.72L140.34 282.02L140.76 282.87C141.4 284.15 142.01 285.45 142.69 286.71C145.35 291.79 148.31 296.71 151.62 301.44C153.27 303.81 155.02 306.11 156.85 308.36C158.7 310.6 160.55 312.8 162.71 314.99C164.86 317.17 167.24 319.32 170.06 321.22C172.85 323.12 176.11 324.77 179.77 325.68C179.67 326.03 179.48 326.73 179.38 327.09C182.17 327.92 185.12 328.25 187.94 328.21C187.93 328.71 187.92 329.23 187.91 329.73L186.06 410.96L204.27 331.79C204.4 331.24 204.52 330.68 204.65 330.13H204.66C204.66 330.13 204.66 330.09 204.66 330.08C205.16 327.89 205.67 325.69 206.17 323.5C210.95 321.24 215.44 318.33 219.51 314.87C223.84 311.02 226.43 306.62 227.97 302.8C222.41 310.07 215.2 316.06 206.93 320.2C206.99 319.95 207.05 319.7 207.1 319.44C214.99 315.2 221.74 309.24 227.08 302.1C227.82 301.16 228.5 300.14 229.2 299.14C229.61 297.55 229.91 296.12 230.09 294.83L230.15 293.89V293.78L230.27 293.37C230.34 293.09 230.4 292.8 230.42 292.58C230.48 292.09 230.45 291.69 230.42 291.31C230.2 289.87 229.7 289.01 228.92 288.06C228.48 287.59 228.04 287.09 226.99 286.6C226.58 286.41 225.79 286.23 225.25 286.28C224.67 286.32 224.04 286.53 223.78 286.73C223.48 286.93 223.21 287.18 223.09 287.35C223 287.51 222.94 287.66 222.91 287.78C222.85 288.03 222.89 288.2 222.99 288.29C223.1 288.38 223.27 288.39 223.49 288.36L223.87 288.3C224.06 288.25 224.28 288.21 224.52 288.2C225.12 288.13 225.81 288.51 226 288.91C226.22 289.3 226.22 289.63 226.21 289.97C226.27 291.44 224.82 292.3 223.49 294.04C223 294.99 222.17 296.38 221.45 297.51C220.69 298.62 220.08 299.5 220.08 299.5C218.98 299.75 218.66 298.89 218.33 298.06C215.92 301.21 213.11 304.05 210.02 306.5C210.08 306.25 210.13 305.99 210.19 305.74C213.11 303.26 215.76 300.43 217.99 297.3C217.51 296.42 216.84 296.14 214.74 298.01C213.92 298.59 212.82 299.7 211.47 301.04C211.37 301.13 211.27 301.23 211.17 301.33C214.54 286.09 217.72 270.86 220.49 255.58C220.99 256.39 221.54 257.2 222.15 258.01C223.44 259.7 224.97 261.41 226.95 262.94C228.93 264.45 231.4 265.77 234.11 266.43C236.83 267.1 239.55 267.1 241.93 266.72C244.33 266.35 246.45 265.64 248.38 264.82C250.32 263.97 252.01 263.05 253.62 262.04C255.24 261.03 256.77 259.92 258.22 258.77C261.12 256.45 263.68 253.9 266 251.28C267.22 249.89 268.38 248.46 269.51 247.02C269.68 249.2 269.88 251.38 270.13 253.57C270.92 260.17 272.1 266.82 273.89 273.43C275.71 280.1 278.24 287.1 283 293.69C287 299.12 292.8 303.38 298.89 305.19C304.9 307 310.7 306.74 315.56 305.34C308.09 306.6 300.27 305.13 293.87 300.95C290.71 298.92 288.01 296.33 285.84 293.53C283.66 290.73 281.93 287.76 280.53 284.74C279.14 281.72 278.04 278.66 277.13 275.61C276.21 272.54 275.54 269.56 274.87 266.5C273.63 260.41 272.79 254.26 272.31 248.11C272.19 246.63 272.09 245.15 272 243.67C272.11 243.52 272.23 243.37 272.33 243.22C272.56 246.92 272.89 250.61 273.36 254.29C274.09 259.9 275.09 265.48 276.52 270.96C277.91 276.44 279.79 282.04 282.75 287.36C284.24 290.02 286.03 292.61 288.21 294.98C290.38 297.35 293.01 299.45 295.95 301.08C301.91 304.33 308.83 305.42 315.52 304.18C318.41 303.67 321.31 302.67 323.94 301.26C327.11 298.96 329.37 296.36 331 293.87C332.54 291.37 333.36 288.95 333.63 287.16C333.9 285.37 333.67 284.23 333.17 284.06L333.22 284.08ZM136.94 254.59C136.94 254.59 136.97 254.57 136.98 254.58L137.08 254.55L136.94 254.59ZM188 325.4C185.58 325.43 183.07 325.16 180.67 324.49C177.87 323.7 175.27 322.49 172.96 321.04C168.34 318.11 164.75 314.45 161.55 310.81C158.39 307.19 155.42 303.4 152.67 299.48C149.92 295.56 147.39 291.5 145.1 287.33C144.54 286.28 143.95 285.25 143.43 284.19L141.91 281.15C141.42 280.08 140.96 279.01 140.54 277.93C140.93 278.8 141.33 279.69 141.8 280.62L142.2 281.41L142.92 282.78C143.41 283.69 143.87 284.62 144.4 285.52C146.41 289.18 148.67 292.78 151.04 296.29C153.42 299.8 155.94 303.22 158.57 306.47C161.2 309.71 163.8 312.89 166.81 315.87C168.98 317.95 171.38 319.91 174.13 321.5C176.87 323.09 179.99 324.33 183.28 324.84C184.88 325.1 186.46 325.19 188.01 325.16C188.01 325.24 188.01 325.32 188.01 325.4H188ZM188.17 315.71C187.28 315.73 186.41 315.71 185.56 315.62C182.09 315.26 178.78 313.66 175.74 311.27C172.69 308.89 169.94 305.85 167.29 302.56C161.99 296.06 157.51 289.02 153.98 281.68C157.72 289.11 162.29 296.15 167.59 302.63C170.23 305.91 172.96 308.9 175.94 311.26C178.93 313.61 182.15 315.22 185.55 315.61C186.4 315.7 187.27 315.7 188.16 315.66C188.16 315.67 188.16 315.69 188.16 315.7L188.17 315.71ZM210.79 217.38C210.79 217.38 210.79 217.35 210.79 217.34L211.8 217.4C211.8 217.4 211.8 217.43 211.8 217.44L210.79 217.38ZM268.91 222.74C268.91 222.81 268.91 222.88 268.91 222.95C266.82 226.93 264.46 230.74 261.82 234.31C264.48 230.65 266.83 226.77 268.92 222.74H268.91ZM266.85 244.8C267.64 243.76 268.42 242.7 269.18 241.63C269.18 241.76 269.19 241.9 269.2 242.03C268.56 242.91 267.91 243.78 267.24 244.64C262.27 251.01 256.27 257.19 248.33 261.06C255.95 257.29 261.91 251.21 266.86 244.8H266.85ZM224.69 218.21L225.7 218.27C225.7 218.27 225.7 218.3 225.7 218.31L224.69 218.25C224.69 218.25 224.69 218.22 224.69 218.21ZM265.83 250.77C261.23 255.94 255.78 260.88 248.55 264.18C246.69 265.01 244.63 265.71 242.33 266.12C240.03 266.52 237.44 266.6 234.8 266.03C232.16 265.47 229.69 264.27 227.72 262.81C225.72 261.35 224.17 259.69 222.89 258.02C222.04 256.92 221.32 255.83 220.66 254.74C220.77 254.12 220.88 253.51 220.99 252.89C221.8 254.35 222.71 255.82 223.84 257.28C225.07 258.87 226.54 260.46 228.42 261.83C230.27 263.21 232.57 264.33 235.03 264.86C237.49 265.41 239.93 265.34 242.11 264.97C244.29 264.59 246.26 263.93 248.06 263.14C255.08 259.97 260.46 255.17 265.03 250.09C266.54 248.38 267.97 246.61 269.35 244.81C269.38 245.31 269.43 245.82 269.46 246.33C268.29 247.84 267.08 249.33 265.81 250.78L265.83 250.77ZM271.95 216.25C272.02 216.09 272.08 215.94 272.15 215.78C272.15 215.9 272.15 216.03 272.14 216.15C272.07 216.3 272.01 216.46 271.94 216.61C271.94 216.49 271.94 216.37 271.95 216.25ZM271.78 237.79C271.87 237.65 271.97 237.51 272.06 237.36C272.06 237.52 272.08 237.68 272.08 237.85C271.98 238 271.88 238.14 271.79 238.29C271.79 238.12 271.79 237.96 271.78 237.79ZM272 242.96C271.97 242.42 271.95 241.89 271.93 241.35C272.03 241.2 272.13 241.05 272.23 240.9C272.26 241.43 272.29 241.97 272.32 242.5C272.21 242.65 272.11 242.81 272 242.96ZM276.5 183.74C276.39 184.11 276.28 184.48 276.18 184.85C274.2 192.2 273.19 199.51 272.64 206.68C272.56 206.95 272.46 207.22 272.38 207.49C272.98 199.17 274.14 190.67 276.57 182.38C276.56 182.83 276.53 183.29 276.51 183.74H276.5ZM281.4 226.96C281.4 226.96 281.38 226.99 281.38 227.01C281.38 226.34 281.39 225.66 281.4 224.99C281.4 224.99 281.4 224.97 281.41 224.96C281.41 225.63 281.4 226.29 281.4 226.96ZM281.5 219.93C281.5 219.93 281.49 219.96 281.48 219.97C281.48 219.56 281.5 219.15 281.51 218.74C281.51 218.72 281.53 218.7 281.53 218.68C281.52 219.1 281.51 219.51 281.5 219.93ZM284.76 210.75C284.81 210 284.85 209.25 284.91 208.51C286.94 201.18 288.17 193.67 288.64 186.22C288.82 185.6 289.02 184.99 289.21 184.38C288.84 193.33 287.34 202.21 284.76 210.74V210.75ZM288.13 178.47C288.21 178.28 288.28 178.08 288.36 177.89L288.54 177.92C288.46 178.11 288.39 178.31 288.31 178.5L288.13 178.47ZM279.4 176.98C279.4 176.77 279.4 176.56 279.4 176.36L279.58 176.39C279.58 176.6 279.58 176.81 279.58 177.01L279.4 176.98ZM278.79 176.88L278.4 176.81C278.72 175.94 279.06 175.06 279.42 174.2L288.3 152.65L289.23 175.86C289.27 176.79 289.29 177.73 289.3 178.66L288.86 178.59C288.86 177.69 288.84 176.78 288.81 175.89L288.11 154.74L279.81 174.36C279.45 175.2 279.12 176.04 278.8 176.88H278.79Z" fill="white"/>
<path d="M115.77 405.23C116.13 405.01 116.49 404.8 116.85 404.58C116.2 405.05 115.22 405.74 114.09 406.49C119.67 402.96 126.14 398.97 132.47 395.24C138.79 391.51 144.96 388.02 149.77 385.27C153.34 383.47 156.45 381.76 156.7 381.4C156.94 381.04 154.22 382.17 150.61 383.97C149.81 384.35 148.88 384.81 148.29 385.07C143.01 387.41 136.66 390.52 129.8 394.32C131.14 393.62 132.52 392.87 133.87 392.2C131.87 393.26 129.92 394.34 127.74 395.62C127.99 395.51 128.3 395.38 128.55 395.27C125.13 397.15 121.14 399.51 117.55 401.94C113.93 404.34 110.7 406.79 108.62 408.54C106.52 410.29 106 411.06 106.75 410.75C107.5 410.45 109.59 409.19 112.86 407.05L115.79 405.21L115.77 405.23Z" fill="url(#paint1_linear_197_70)"/>
<path d="M128.65 398.53C124.6 400.76 120.77 403.05 116.96 405.37L116.19 405.81L116.62 405.91L116.68 405.84C120 403.28 125.75 399.48 131.19 396.24L133.12 395.07C134.03 394.49 134.64 394.09 134.8 393.92C135.18 393.52 133.38 394.35 130.82 395.82C129.83 396.38 128.85 396.94 127.87 397.53C124.24 399.55 119.69 402.39 115.65 405.16C113.63 406.56 111.73 407.92 110.15 409.18C108.55 410.41 107.26 411.51 106.41 412.33C105.65 413.06 106.48 412.64 106.75 412.62C106.63 412.98 109.23 411.23 112.62 408.85C114.33 407.67 115.9 406.56 117.06 405.68C118.23 404.83 118.99 404.23 119.04 404.06C119.64 403.69 120.25 403.3 120.84 402.93C120.39 403.25 119.94 403.58 119.49 403.91C120.36 403.09 123.53 401.04 125.88 399.48L129.46 397.26L127.16 398.05L125.31 399.24C125.46 399.17 125.76 399.03 125.74 399.05C122.25 401.35 119 403.58 115.26 406.24C113.7 407.37 112.16 408.51 110.64 409.7C109.43 410.69 109.63 410.72 111.07 409.79L113.21 408.39C112.88 408.59 112.56 408.8 112.23 409.01C117.11 405.7 122.35 402.39 127.38 399.49C128.18 399.04 129.12 398.44 129.51 398.15C129.84 397.89 129.47 398.05 128.64 398.52L128.65 398.53Z" fill="url(#paint2_linear_197_70)"/>
<path d="M111.32 409.92C110.52 410.45 109.75 410.94 108.66 411.76C108.41 411.98 108.29 412.09 108.22 412.14C108.63 411.85 109.2 411.47 109.77 411.1C110.89 410.37 111.43 409.93 111.32 409.92Z" fill="url(#paint3_linear_197_70)"/>
<path d="M108.21 412.14C107.82 412.4 107.57 412.58 107.57 412.58C107.72 412.48 107.87 412.39 108.01 412.3C108.13 412.21 108.13 412.2 108.13 412.2C108.13 412.2 108.13 412.2 108.21 412.13V412.14Z" fill="url(#paint4_linear_197_70)"/>
<path d="M338.95 305.9C347.52 303.11 356.08 300.23 364.76 297.68C369.09 296.38 373.4 295.01 377.75 293.76L390.82 290.09C391.4 289.93 391.89 289.76 391.91 289.73C391.93 289.7 391.47 289.8 390.93 289.95C386.57 291.17 382.22 292.4 377.87 293.62C373.53 294.87 369.23 296.23 364.91 297.53C356.25 300.08 347.71 302.94 339.14 305.73C338.56 305.92 338.1 306.1 338.03 306.15C338.01 306.19 338.42 306.08 338.96 305.91L338.95 305.9Z" fill="url(#paint5_linear_197_70)"/>
<path d="M470.16 274.95C469.74 275.05 469.76 275.08 470.21 275.02C470.59 274.97 471.26 274.86 471.67 274.77C472.02 274.69 472 274.65 471.62 274.7C471.18 274.75 470.51 274.87 470.16 274.95Z" fill="url(#paint6_linear_197_70)"/>
<path d="M466.78 278.03C464.31 278.52 461.96 278.92 459.9 279.46C459.51 279.55 459.08 279.64 458.74 279.69C458.89 279.71 458.43 279.85 457.55 280.05C453.19 281.02 448.75 282.01 444.26 283.02C443.14 283.27 442.01 283.51 440.88 283.76C439.75 284.04 438.63 284.31 437.5 284.59C435.24 285.15 432.96 285.7 430.68 286.26C428.4 286.82 426.11 287.38 423.82 287.93C421.52 288.48 419.22 289.04 416.94 289.68C412.37 290.92 407.79 292.16 403.23 293.39C403.12 293.46 402.89 293.56 402.49 293.7C401.26 294.15 398.73 294.85 396.11 295.6L394.12 296.13C386.12 298.35 378.11 300.46 370.22 302.9C368.62 303.45 366.76 304.07 364.73 304.71C357.94 306.91 351.2 309.37 344.29 311.78C344.74 311.67 345.02 311.62 345.03 311.66C344.93 311.81 343.35 312.42 341.47 313.04C340.52 313.36 339.58 313.67 338.63 313.99C341.35 313.11 344.08 312.24 346.8 311.36C347.19 311.24 347.56 311.12 347.89 311.02C350.87 310.03 353.87 309.02 356.93 308C383.69 299.29 409.1 291.89 434.62 285.67C435.04 285.56 435.69 285.41 436.07 285.35C436.32 285.32 436.29 285.36 435.82 285.49C427.82 287.65 420.35 289.56 412.71 291.93C408.87 293.06 404.98 294.21 400.93 295.4C396.87 296.6 392.69 297.97 388.22 299.31C385.56 300.12 382.91 300.93 380.25 301.74C377.59 302.54 374.98 303.46 372.34 304.31C367.08 306.06 361.8 307.73 356.53 309.53C351.28 311.36 346.01 313.2 340.72 315.06C338.06 315.96 335.43 316.96 332.78 317.93C330.13 318.91 327.47 319.89 324.79 320.88C302.36 328.95 281.86 337.16 259.5 346.75C229.27 359.66 201.02 372.66 171.94 386.45C161.1 391.68 151.19 396.29 149.52 396.46C148.54 396.53 150.75 394.94 155.04 392.47C154.16 392.92 153.3 393.36 152.43 393.8L148.28 395.87C144.36 397.84 141.02 399.51 138.86 400.48C137.87 400.92 136.89 401.38 135.91 401.85C131.9 403.52 125.73 406.82 122.49 408.33L123.04 407.73L122.31 408.14C119.91 409.52 118.27 410.42 117.62 410.61L117.7 410.26C118.02 409.7 119.01 408.69 120.75 407.27C120.63 407.23 120.8 406.99 121.23 406.59C119.5 407.42 118.59 407.7 119.7 406.63C118.7 407.2 118.8 407.01 119.91 406.2C120.29 405.92 120.77 405.6 121.25 405.28H121.24C120.67 405.58 120.5 405.67 119.75 406.07C118.78 406.68 118.22 407.03 118.22 407.03C116.527 408.157 114.947 409.21 113.48 410.19C111.58 411.45 110.37 412.18 110.37 412.18C108.07 413.32 108.09 413.34 108.28 412.95C108.39 412.84 108.51 412.73 108.64 412.61C106.98 413.78 106.87 413.86 106.42 414.18C105.95 414.49 105.61 414.7 105.61 414.7C105.523 414.68 105.38 414.73 105.18 414.85C105.07 414.89 105.06 414.85 105.06 414.85C105.62 414.337 105.9 414.063 105.9 414.03C106.11 413.84 106.38 413.6 106.38 413.6C107.42 412.77 107.83 412.44 108.01 412.3C109.22 411.54 109.85 411.19 110.16 411C110.47 410.82 110.47 410.82 110.47 410.82L110.92 410.38L111.53 410.09L111.16 410.22L112.37 409.43L110.98 410.31C113.76 408.35 113.78 408.38 114.9 407.59C116.08 406.8 117.06 406.09 117.18 406.01C117.06 406.05 117.04 406.03 117.04 406.03C120.11 404.08 120.09 404.04 123.11 402.2C123.4 402.05 123.63 401.93 123.85 401.82C124.12 401.61 124.69 401.24 125.28 400.87C125.81 400.54 126.35 400.24 126.88 399.92C127 399.84 127.11 399.77 127.21 399.7C127.74 399.36 128.11 399.12 128.53 398.85C128.79 398.68 128.8 398.67 128.8 398.67C128.8 398.67 128.81 398.67 128.82 398.67C129.72 398.07 131.05 397.25 134.56 395.06C135.53 394.54 136.42 394.06 137.28 393.6C137 393.74 136.73 393.87 136.47 394C135.95 394.25 136.36 393.91 136.08 394.05C129.22 397.65 121.91 401.95 114.95 406.61C113.72 407.47 112.52 408.21 112.3 408.29C112.09 408.33 112.93 407.66 114.2 406.78C117.61 404.24 121.35 401.75 125.24 399.27C129.15 396.82 133.22 394.41 137.37 392.13C145.67 387.56 154.21 383.39 162.06 379.83C166.17 377.92 170.3 376 174.45 374.07L173.84 374.3C174.92 373.82 176 373.34 177.08 372.87L177.43 372.71C176.59 373.04 175.76 373.36 174.93 373.68C174.36 373.93 173.8 374.17 173.22 374.42C163.62 378.88 154.81 382.81 145.59 387.42C140.63 389.89 136.37 392.05 131.74 394.57C130.56 395.24 129.72 395.66 129.82 395.52C129.92 395.38 130.99 394.7 132.14 394.05C147.34 385.15 165.41 376.78 178.22 371.46C181.09 370.12 183.87 368.88 186.21 367.91L186.34 367.85C185.72 368.08 185.13 368.31 184.51 368.54C186.67 367.57 187.86 367.15 189.84 366.28C189.58 366.33 189.29 366.38 189.03 366.43C194.33 363.99 199.9 361.54 205.34 359.08C208.07 357.87 210.77 356.67 213.41 355.49C216.07 354.36 218.66 353.26 221.17 352.23C221.57 352.06 221.94 351.9 222.32 351.74C226.53 349.74 230.76 347.66 235.83 345.47C234.1 346.18 232.41 346.89 230.7 347.63C234.33 345.91 237.98 344.34 241.93 342.64C252.6 338.02 264.78 333.42 270.66 331.56C291.53 323.07 312.61 315 333.83 307.51C334.92 307.1 335.93 306.83 336.14 306.82C336.27 306.84 335.56 307.13 334.47 307.52C326.91 310.34 319.25 313.05 311.62 315.94C307.81 317.4 304 318.86 300.18 320.33L294.45 322.52L288.75 324.8C295.12 322.29 301.6 320.02 308.08 317.6C314.54 315.16 321.13 312.93 327.74 310.58C329.42 309.97 331.12 309.36 332.81 308.75C334.48 308.13 336.16 307.59 337.85 307.06C342.11 305.65 346.31 304.25 350.49 302.86C352.58 302.18 354.66 301.45 356.75 300.8L363.04 298.85C367.23 297.54 371.44 296.23 375.69 294.9C379.96 293.65 384.28 292.39 388.67 291.1C392.43 290.02 396.04 288.88 399.65 287.94C403.25 286.97 406.79 286.02 410.33 285.07C412.1 284.59 413.87 284.12 415.64 283.64C416.53 283.4 417.42 283.16 418.31 282.92C419.21 282.7 420.11 282.48 421.01 282.26C424.63 281.38 428.3 280.49 432.09 279.57C434.75 278.93 437.38 278.29 439.99 277.66C442.61 277.1 445.22 276.54 447.8 275.98C450.39 275.43 452.96 274.88 455.52 274.33C458.08 273.79 460.63 273.21 463.2 272.77C468.34 271.84 473.47 270.92 478.64 269.99C479.94 269.77 481.23 269.52 482.54 269.31C483.85 269.12 485.16 268.93 486.48 268.74C489.12 268.36 491.77 267.99 494.45 267.6C497.3 267.18 499.96 266.92 500.31 267.02C500.67 267.12 498.62 267.55 495.77 267.98C492.98 268.4 490.19 268.83 487.41 269.25C484.63 269.67 481.84 270.07 479.08 270.61C473.55 271.62 468.02 272.64 462.5 273.65C456.99 274.72 451.51 275.96 446 277.11C443.25 277.72 440.48 278.23 437.75 278.91C435.01 279.57 432.27 280.23 429.52 280.89C418.51 283.41 407.56 286.44 396.47 289.38C390.96 290.97 385.41 292.56 379.84 294.17C377.04 294.94 374.27 295.82 371.48 296.68C368.69 297.54 365.89 298.4 363.07 299.27C360.64 300.02 358.23 300.76 355.84 301.49C353.46 302.28 351.1 303.06 348.74 303.84C348.81 303.84 348.87 303.84 348.88 303.86C348.91 303.94 348.48 304.16 347.75 304.47C350.43 303.59 353.12 302.71 355.82 301.83C358.54 301.01 361.26 300.19 364 299.36C367.78 298.15 371.56 296.94 375.35 295.72C379.15 294.53 383.01 293.45 386.88 292.3C390.76 291.18 394.66 290.01 398.63 288.93C402.62 287.91 406.66 286.87 410.76 285.82C413.58 285.11 416.33 284.41 419.04 283.77C421.76 283.18 424.44 282.59 427.1 282.01C429.75 281.44 432.38 280.87 435 280.31C437.62 279.74 440.23 279.17 442.88 278.71C449.55 277.34 456.19 275.86 462.88 274.57C469.59 273.37 476.32 272.13 483.1 270.97C483.64 270.88 484.21 270.82 484.41 270.82C484.61 270.82 484.32 270.89 483.77 270.98C479.11 271.79 474.41 272.75 469.66 273.62C467.29 274.07 464.9 274.51 462.51 274.96C460.12 275.39 457.74 275.97 455.35 276.47C456.88 276.26 457.8 276.2 457.71 276.36C457.62 276.52 456.47 276.88 454.7 277.33L461.21 276.02C462.56 275.79 463.63 275.66 463.61 275.74C463.59 275.82 462.53 276.06 461.25 276.28C456.82 277.17 452.4 278.06 447.98 278.95L441.35 280.28C439.14 280.71 436.95 281.27 434.75 281.76C429.49 283.01 424.23 284.26 418.97 285.51C413.75 286.89 408.52 288.27 403.28 289.66C404.76 289.37 405.86 289.21 406.4 289.2C408.02 288.78 409.64 288.36 411.26 287.94C440.82 280 471.6 273.63 502.98 269.7C503.59 269.61 504.1 269.57 504.12 269.6C504.14 269.63 503.66 269.72 503.11 269.8C498.38 270.46 493.66 271.12 488.95 271.78C486.6 272.12 484.24 272.42 481.89 272.8C479.55 273.21 477.21 273.62 474.88 274.02C474.9 274.02 474.9 274.02 474.92 274.02C475.3 273.97 475.38 274 474.97 274.09C474.61 274.17 473.88 274.3 473.5 274.34C473.06 274.39 473.1 274.35 473.45 274.27C469.1 275.04 464.75 275.77 460.43 276.59C456.12 277.49 451.82 278.39 447.54 279.28C445.4 279.73 443.26 280.18 441.12 280.63C438.98 281.08 436.87 281.63 434.75 282.13C430.52 283.15 426.3 284.17 422.09 285.19C437.73 281.47 453.46 278.03 469.3 275.38C471.02 275.04 472.73 274.71 474.48 274.37C474.95 274.28 475.58 274.19 475.78 274.19C475.92 274.19 475.57 274.29 475.08 274.38C474.59 274.47 474.11 274.57 473.63 274.66C476.63 274.16 478.96 273.89 478.94 274.07C478.8 274.27 476.25 274.84 473.14 275.37C468.98 276.11 464.82 276.81 460.68 277.58C456.55 278.42 452.42 279.26 448.3 280.1L445.63 280.67C444.73 280.88 443.85 281.09 442.95 281.29C449.38 280.04 455.79 278.78 462.2 277.53C468.64 276.46 475.06 275.4 481.47 274.34C482.57 274.14 483.51 274.05 483.55 274.11C483.59 274.16 482.7 274.34 481.6 274.54C459.04 278.38 436.41 283.33 413.88 289.06C406.56 291.25 399.19 293.29 391.79 295.75C392.73 295.48 393.69 295.22 394.65 294.95C396.17 294.52 397.67 294.09 399.16 293.67C400.66 293.27 402.14 292.88 403.62 292.49C406.57 291.7 409.47 290.92 412.34 290.15C415.21 289.39 418.04 288.56 420.87 287.86C423.7 287.16 426.52 286.46 429.32 285.76C434.94 284.38 440.51 282.89 446.24 281.71C449.1 281.09 451.98 280.47 454.88 279.84C456.34 279.53 457.8 279.22 459.28 278.9C460.75 278.58 462.24 278.28 463.75 278.02C464.35 277.91 464.86 277.85 464.94 277.86C465.01 277.88 464.61 277.98 463.99 278.08C461.04 278.57 458.2 279.27 455.38 279.85C452.56 280.47 449.78 281.07 446.99 281.68C444.21 282.32 441.42 282.85 438.64 283.58C435.85 284.27 433.03 284.97 430.16 285.68C427.78 286.27 425.43 286.85 423.1 287.42C421.94 287.71 420.78 287.99 419.63 288.28C418.49 288.59 417.35 288.91 416.22 289.22C411.7 290.48 407.26 291.71 402.86 292.93C407.36 291.74 411.82 290.55 416.25 289.38L419.57 288.49L422.9 287.68C425.12 287.14 427.33 286.61 429.54 286.07L436.17 284.46C438.38 283.93 440.59 283.35 442.82 282.91C447.28 281.96 451.76 281.01 456.27 280.05C457.06 279.88 457.86 279.73 458.37 279.66C458.41 279.64 458.57 279.59 458.81 279.53C461.05 278.97 463.52 278.48 466.05 278C466.53 277.9 467.15 277.81 467.41 277.8C467.67 277.78 467.38 277.86 466.84 277.97L466.78 278.03ZM160.32 382.95C160.15 383.02 160.01 383.07 159.89 383.12C160.35 382.92 160.84 382.7 161.39 382.45L163.55 381.67C163.55 381.67 161.94 382.31 160.32 382.94V382.95ZM135.31 397.03C135.31 397.03 135.31 397.03 135.32 397.03C134.62 397.34 134.11 397.57 134.11 397.57C134.6 397.35 134.99 397.18 135.31 397.04V397.03ZM301.28 320.33C298.97 321.19 296.67 322.05 294.38 322.91C292.1 323.8 289.82 324.68 287.54 325.56C282.98 327.3 278.43 329.03 273.89 330.77C276.1 329.89 278.29 329 280.5 328.12C287.39 325.49 294.28 322.8 301.29 320.33H301.28ZM142.74 390.88C145.1 389.78 146.96 388.96 148.74 388.23C150.25 387.43 151.83 386.59 153.45 385.8C157.79 383.62 162.06 381.6 166.27 379.62C165.69 379.8 166.7 379.33 167.21 379.08C167.74 378.82 168.26 378.56 168.78 378.31C164.28 380.38 159.77 382.5 155.2 384.69C151.08 386.66 146.64 388.92 142.75 390.88H142.74ZM113.12 409.26C113 409.33 112.89 409.4 112.75 409.48L113.44 408.83C113.44 408.83 113.3 409.01 113.12 409.25V409.26ZM112.05 410.29C112.24 410.16 112.43 410.03 112.64 409.89C112.46 410.08 112.26 410.2 112.05 410.29ZM117.53 406.68C117.19 406.87 116.98 406.99 116.73 407.15C117.53 406.68 117.53 406.68 117.53 406.68ZM123.46 407.29C124.05 406.65 124.65 406.03 125.25 405.4C124.58 406.07 123.91 406.71 123.26 407.39L123.46 407.29Z" fill="url(#paint7_linear_197_70)"/>
<defs>
<linearGradient id="paint0_linear_197_70" x1="7.92334" y1="38.5498" x2="170.632" y2="38.5498" gradientUnits="userSpaceOnUse">
<stop stop-color="#00FF8F"/>
<stop offset="1" stop-color="#00A1FF"/>
</linearGradient>
<linearGradient id="paint1_linear_197_70" x1="106.425" y1="381.333" x2="156.715" y2="381.333" gradientUnits="userSpaceOnUse">
<stop stop-color="#00FF8F"/>
<stop offset="1" stop-color="#00A1FF"/>
</linearGradient>
<linearGradient id="paint2_linear_197_70" x1="106.097" y1="393.82" x2="134.851" y2="393.82" gradientUnits="userSpaceOnUse">
<stop stop-color="#00FF8F"/>
<stop offset="1" stop-color="#00A1FF"/>
</linearGradient>
<linearGradient id="paint3_linear_197_70" x1="108.22" y1="409.92" x2="111.334" y2="409.92" gradientUnits="userSpaceOnUse">
<stop stop-color="#00FF8F"/>
<stop offset="1" stop-color="#00A1FF"/>
</linearGradient>
<linearGradient id="paint4_linear_197_70" x1="107.57" y1="412.13" x2="108.21" y2="412.13" gradientUnits="userSpaceOnUse">
<stop stop-color="#00FF8F"/>
<stop offset="1" stop-color="#00A1FF"/>
</linearGradient>
<linearGradient id="paint5_linear_197_70" x1="338.029" y1="289.725" x2="391.911" y2="289.725" gradientUnits="userSpaceOnUse">
<stop stop-color="#00FF8F"/>
<stop offset="1" stop-color="#00A1FF"/>
</linearGradient>
<linearGradient id="paint6_linear_197_70" x1="469.858" y1="274.678" x2="471.92" y2="274.678" gradientUnits="userSpaceOnUse">
<stop stop-color="#00FF8F"/>
<stop offset="1" stop-color="#00A1FF"/>
</linearGradient>
<linearGradient id="paint7_linear_197_70" x1="105.06" y1="266.999" x2="504.121" y2="266.999" gradientUnits="userSpaceOnUse">
<stop stop-color="#00FF8F"/>
<stop offset="1" stop-color="#00A1FF"/>
</linearGradient>
</defs>
</svg>
