<svg width="512" height="512" viewBox="0 0 512 512" fill="none" xmlns="http://www.w3.org/2000/svg">
<path d="M71.4967 383.731C70.8751 383.731 71.4967 379.684 74.6046 367.252C75.8478 362.583 76.7729 359.171 76.7729 359.793C76.7729 360.096 77.7125 357.61 78.6377 355.124C81.124 347.043 81.7456 343.617 82.3672 343.617C82.3672 343.617 81.7456 345.786 81.124 348.286C78.3196 356.685 74.2866 372.543 74.2866 373.468C74.5902 373.786 75.2117 371.603 76.1513 368.177C77.3945 364.751 78.6377 360.096 79.2592 357.61C79.8808 355.442 82.0636 347.665 84.2319 340.509C88.901 323.727 92.3125 314.085 96.6635 300.396C98.5283 294.483 100.089 289.511 100.089 289.511C99.7859 289.207 100.089 289.207 100.089 289.207C100.711 289.511 101.029 289.511 100.711 288.904V287.964C101.029 288.586 101.651 286.099 101.651 285.16C102.272 285.463 102.272 285.16 102.59 283.917C102.908 282.673 102.894 282.052 102.894 281.734L103.197 281.112C103.515 281.112 104.137 279.551 104.759 278.004C105.684 275.518 107.866 269.606 109.11 267.437C109.413 266.816 109.413 265.876 109.413 265.876C109.413 265.573 109.717 265.255 109.717 265.255C109.717 264.633 110.035 264.012 110.656 263.693C110.96 262.754 111.596 260.268 112.839 257.781C114.4 253.734 117.812 244.106 118.13 242.545C118.433 241.302 117.19 244.714 115.643 249.079C112.839 255.916 109.731 263.693 109.731 263.693C109.428 263.997 109.428 263.693 109.428 263.375V262.45C109.731 262.754 111.292 259.024 110.989 258.721V257.16C111.292 256.842 111.61 255.917 111.61 255.598C111.61 255.28 112.232 253.734 112.854 252.173L113.475 249.065C113.475 249.065 114.097 247.821 114.415 246.26C114.718 244.699 115.036 243.774 115.036 243.774C114.733 243.456 114.111 245.639 112.868 249.065C112.246 250.929 110.685 253.416 110.064 254.659C109.442 255.902 109.124 257.145 109.124 257.463C109.124 257.463 108.502 258.706 108.184 260.268C107.563 261.207 107.563 262.45 107.563 262.754L108.488 260.268C108.806 259.328 109.11 259.024 109.428 259.328C109.428 259.646 109.428 260.268 109.124 260.268V260.571C109.124 260.571 109.124 261.814 108.184 262.754C107.563 265.24 107.563 265.862 108.184 265.24C108.488 264.619 108.488 263.997 109.124 264.619C109.746 265.24 108.184 267.105 107.881 267.105C107.881 267.105 107.577 267.409 107.881 267.409C107.881 267.727 107.881 268.652 107.577 269.273L106.638 270.516L107.259 268.955C107.259 268.016 107.259 267.091 107.577 266.772V266.151C106.638 267.091 104.773 272.367 102.287 279.522C101.347 282.63 99.4823 287.603 98.5572 290.407C97.6176 293.515 96.0709 297.562 95.1313 300.352C94.5097 302.535 93.2665 306.568 92.6449 308.751C91.7198 310.919 91.0837 312.798 91.0837 313.724C91.0837 314.042 91.0838 314.345 90.7802 314.042L89.537 317.15C89.2335 318.711 88.5974 320.257 88.5974 320.257C88.2939 320.257 88.2939 320.561 88.2939 320.879C88.2939 321.496 88.395 321.804 88.5974 321.804V322.122C88.5974 322.122 88.5974 322.426 88.2939 322.426C87.6723 322.729 87.6723 323.365 87.6723 323.669V323.972C87.3543 323.669 86.7327 323.669 86.7327 323.972C86.7327 324.276 87.3543 324.912 87.3543 324.912C86.7327 324.912 86.4291 325.216 86.4291 325.534V323.972C86.7327 322.729 87.3543 322.108 87.3543 321.79C87.3543 321.79 87.3543 321.486 87.6723 320.865C88.5974 317.757 89.8406 313.709 89.537 313.709C89.537 313.709 89.2335 314.027 89.2335 314.331C89.2335 314.745 89.0263 314.745 88.6119 314.331C88.6119 314.027 88.3083 314.027 88.3083 314.952C88.3083 315.27 88.0048 315.892 87.6867 316.513C86.7471 318.378 84.8824 325.534 85.2004 325.837C85.2004 325.837 85.2004 326.459 84.8968 326.459C84.8968 326.459 84.5788 326.762 84.8968 327.398C84.8968 328.324 84.8968 328.96 84.5788 328.96C84.2608 328.96 84.2753 329.899 84.2753 330.521C84.2753 331.46 84.2753 332.082 83.6537 332.082C83.6537 332.082 83.3357 332.385 83.3357 333.325C83.3357 333.629 83.3357 335.19 83.0321 336.751C82.7285 337.676 82.4105 339.237 82.4105 340.177C81.7889 340.799 79.9242 350.744 78.0594 356.338C77.1343 359.142 76.8163 358.203 78.0594 354.17C78.3775 352.609 78.3775 350.744 78.3775 350.744C78.3775 350.744 77.4379 353.548 76.5127 356.656C75.5876 359.764 74.9515 362.25 74.9515 361.947C74.648 361.947 77.4379 349.819 78.681 345.786C79.3026 343.921 79.9242 342.056 79.6206 342.056C79.3026 341.738 79.6206 340.191 79.9242 340.191C80.2278 340.191 80.2278 340.509 80.2278 340.813C80.6421 340.399 80.6421 340.085 80.2278 339.873C79.9242 338.934 79.9242 338.63 80.2278 338.63C80.8493 338.63 80.8493 338.327 80.8493 337.691C80.4349 337.488 80.4349 337.387 80.8493 337.387C81.1674 337.691 81.1674 337.387 81.1674 337.083C81.1674 336.78 81.1674 335.84 81.4709 335.522C81.7745 335.204 81.7745 334.279 81.7745 334.279V333.976C82.3961 333.976 83.0176 330.55 83.0176 329.928C83.3212 330.232 84.5788 326.82 84.2608 325.881V324.319C84.4632 323.703 84.6704 323.495 84.8824 323.698V321.515C85.0848 320.889 85.186 320.99 85.186 321.819C84.8824 322.758 85.186 322.758 85.186 322.137C85.8075 321.819 85.8075 320.893 85.8075 320.575V319.014C86.0099 318.185 86.1111 317.978 86.1111 318.393C86.4291 319.014 86.4291 318.393 86.4291 317.453C86.4291 316.513 86.4291 315.892 86.1111 315.892C86.1111 316.513 81.76 330.81 80.1988 336.722C79.5773 339.208 79.2592 340.148 77.3945 346.667C76.7729 348.532 75.8333 352.262 74.9082 355.066C73.0434 362.221 73.0434 361.903 72.7254 361.6C72.523 361.6 72.523 361.807 72.7254 362.221C72.7254 362.525 72.7254 363.161 72.4218 363.161C72.4218 363.161 68.3743 378.701 68.3743 379.64C68.6779 379.944 68.9959 379.64 69.3139 378.701C70.2535 376.836 70.2535 377.139 69.3139 379.944C69.0104 381.505 68.6924 381.808 68.0708 381.808C66.8276 381.808 66.8276 381.49 68.0708 378.079C68.3743 376.836 68.6924 375.593 68.6924 375.275C68.6924 374.957 68.6924 374.653 69.3139 374.031C69.3139 373.728 69.6175 372.47 69.6175 371.849C69.9211 370.606 70.5571 367.18 71.4822 363.45C73.0434 355.673 73.347 356.613 72.7254 356.613C72.7254 356.916 72.4218 356.613 72.4218 356.295C72.4218 355.673 72.7254 355.673 73.0434 355.673C73.347 356.295 73.347 355.673 73.347 355.37C73.347 354.955 73.2458 354.854 73.0434 355.066C73.0434 355.37 72.7254 355.37 72.7254 355.066C72.7254 355.066 79.2592 330.506 79.8808 327.398C80.1844 326.777 79.8808 326.777 79.8808 326.777C79.5773 327.08 79.2592 327.398 79.2592 327.716C79.2592 328.656 78.0161 332.689 77.6981 332.067C77.6981 331.446 80.806 319.318 81.4276 317.453C81.7311 316.513 82.3672 315.588 82.3672 315.588V314.967C82.6707 314.345 82.9887 313.406 83.2923 312.162C83.6103 310.919 84.8535 306.872 86.0966 302.521C87.3398 298.473 88.583 292.879 89.2046 291.014C90.1442 287.285 91.0693 282.934 93.5556 276.096C94.1772 273.913 96.0419 268.941 97.2851 264.59C98.5283 260.542 100.711 254.326 101.636 250.597C102.879 246.867 104.123 243.442 104.441 242.198C104.759 241.273 105.684 239.394 106.002 237.529L108.184 230.995C108.806 229.131 110.049 226.948 110.671 225.401C111.61 222.915 111.292 222.597 112.536 220.429C112.854 219.489 113.157 218.564 113.157 217.942C113.157 217.639 113.461 216.077 114.4 214.834C115.961 210.787 116.569 209.24 116.265 208.922V208.618C116.569 208.618 116.569 207.997 116.569 207.997C116.569 207.785 116.776 207.679 117.19 207.679C117.393 207.477 117.393 207.375 117.19 207.375C116.251 207.375 116.251 206.132 117.19 206.132C117.494 206.132 117.494 205.829 117.494 205.829C117.494 205.626 117.595 205.525 117.797 205.525C118.115 205.525 117.797 205.525 117.494 204.903C117.291 204.701 117.393 204.6 117.797 204.6C118.009 204.6 118.115 204.499 118.115 204.296C117.797 204.296 117.797 203.675 118.115 202.432C118.419 201.506 119.04 200.87 119.04 200.567C119.04 200.567 119.04 199.945 119.358 199.324C119.358 199.02 119.358 197.763 119.98 196.519C121.845 192.168 124.028 187.196 124.028 186.256C124.331 185.952 124.649 184.695 124.967 184.088C125.589 182.845 125.892 182.223 125.892 181.601C126.21 181.298 126.832 180.04 127.135 179.115C127.757 177.554 127.757 176.629 128.075 176.629V176.007C128.075 175.068 129.015 174.142 129.318 172.581C130.359 170.924 130.773 170.095 130.561 170.095C129.94 170.716 122.481 171.656 119.055 171.656C117.19 172.278 115.007 172.278 109.413 173.217C107.852 173.535 106.609 173.839 106.609 173.839C106.305 173.217 105.669 173.839 104.744 173.839C102.879 174.46 101.015 174.778 97.5887 174.778C96.3455 175.082 94.4808 175.082 92.9196 175.704C91.3584 175.704 89.1901 176.022 87.9469 176.022C86.7038 176.325 84.839 176.325 83.5959 176.325C78.6232 177.25 74.5757 177.25 66.1916 177.568C64.6304 177.568 63.3872 177.568 63.3872 177.25C63.0837 177.568 62.7657 177.568 61.8261 177.568C53.4275 177.25 53.1239 177.25 51.5627 176.007C50.3196 175.068 49.698 174.764 49.698 174.764C49.3944 174.764 48.7584 174.446 48.4548 174.142C48.1513 173.839 47.5152 173.203 46.5901 172.899C45.3469 172.596 45.0289 170.731 45.9685 170.095C46.2721 170.095 46.2721 169.473 46.2721 169.155C46.2721 168.327 45.8577 167.912 45.0289 167.912C44.4073 168.23 43.4677 167.912 43.4677 167.912C43.4677 167.609 44.4073 167.609 44.7109 167.609C45.954 167.305 45.3325 167.305 44.4073 166.669C43.1642 166.669 42.8461 166.365 43.1642 166.365C43.3665 166.163 43.2653 166.062 42.8606 166.062C42.557 166.062 41.921 165.758 41.921 165.758C41.921 165.344 41.8198 165.344 41.6174 165.758C40.3743 166.38 40.3743 165.137 41.6174 164.197C42.4462 163.571 42.5474 163.258 41.921 163.258C41.2994 163.879 40.9814 163.879 40.9814 162.954C40.9814 161.711 41.603 161.393 44.4073 159.846C46.2721 158.921 48.7584 157.678 50.0016 157.678C51.2447 157.36 52.8059 156.738 53.731 156.738C56.5354 156.117 62.7512 155.799 63.0548 156.117C63.2571 156.117 63.4643 156.011 63.6763 155.799C63.6763 155.799 64.6015 155.177 65.2375 155.799C66.0663 155.799 66.4807 155.591 66.4807 155.177C66.1627 154.873 66.4807 154.873 66.7843 155.177C67.4058 155.799 67.7239 155.177 68.3454 154.873C68.5478 154.661 68.649 154.661 68.649 154.873C68.3454 155.177 68.649 155.177 70.2102 155.177C71.1353 154.873 71.7714 154.873 71.7714 154.555C71.7714 154.555 72.3929 154.252 73.3325 154.252C74.2721 154.252 74.5757 154.252 74.5757 154.555V154.873C74.8793 154.873 74.8793 154.555 74.8793 154.252C74.8793 153.312 74.5757 153.312 75.1828 153.948L75.8044 154.57C75.1828 154.888 75.8044 154.888 76.108 154.57C76.4115 154.266 76.4115 153.948 76.4115 153.948C76.108 153.948 78.5943 153.327 81.7022 153.327H96.6202C117.45 152.705 122.119 152.705 122.423 153.023C122.423 153.327 122.727 153.327 122.727 153.023C123.03 152.72 123.348 152.72 123.97 153.023C124.591 153.327 127.078 153.327 131.429 153.023L137.963 152.72L139.827 148.368C143.557 139.666 146.043 134.694 148.847 129.721C149.469 128.16 150.409 126.295 150.409 126.295C149.787 125.992 150.409 125.992 150.409 125.992C150.712 126.295 151.348 124.748 151.348 124.127C151.03 124.127 151.348 123.505 151.652 123.202V123.505C152.273 123.505 152.273 123.202 152.273 123.202C152.273 122.884 152.591 122.58 152.895 122.58C153.835 122.58 154.456 121.958 154.76 121.958C155.699 121.64 156.003 121.64 156.321 121.958C156.533 122.373 156.947 122.58 157.564 122.58C157.882 121.958 158.186 121.958 158.186 122.58C158.807 122.58 159.125 122.884 159.429 122.884C159.732 123.202 159.732 123.505 159.732 124.748C159.429 125.688 159.732 125.992 159.732 125.688C160.354 125.688 160.672 125.066 160.976 125.066C161.804 125.066 162.011 126.001 161.597 127.871V130.675C162.219 130.675 162.537 130.053 162.537 130.053C162.537 129.75 163.158 129.432 163.78 129.432C164.719 129.432 164.719 129.75 165.341 131.918C165.645 133.161 165.963 134.723 165.963 134.723C166.266 135.041 166.266 135.662 166.266 135.966C165.963 136.587 165.645 137.527 165.963 137.527C165.963 137.527 166.266 136.905 166.584 136.602C166.999 136.399 167.312 136.501 167.524 136.905C168.145 138.149 167.827 144.364 166.584 149.033L165.963 152.763H189.279C202.332 153.066 213.839 153.066 214.46 153.066C215.704 153.37 219.13 153.37 222.237 153.37C225.663 153.992 228.453 153.992 228.771 153.992C228.771 154.295 233.44 154.613 238.413 154.613C251.163 155.856 261.108 156.174 261.73 156.796C262.351 157.418 262.033 157.418 261.108 157.418C260.804 156.796 260.183 157.418 260.183 157.418C260.183 157.736 260.804 157.736 262.048 157.736C263.291 157.736 263.291 158.039 262.669 157.418C262.048 156.796 262.669 156.796 263.594 156.796C264.216 156.796 265.155 156.796 265.155 157.418C265.155 157.63 264.948 157.736 264.534 157.736C263.912 157.418 263.594 157.418 263.594 157.736C263.594 157.736 265.155 158.039 267.02 158.039C268.581 158.343 271.689 158.979 273.858 159.282C275.722 159.586 277.587 159.904 278.527 159.904C278.941 159.904 278.835 160.01 278.209 160.222C277.592 160.636 277.799 160.636 278.83 160.222C279.452 160.222 280.073 160.222 280.073 160.843C280.073 160.843 280.377 161.147 280.695 161.147C281.938 161.147 278.527 161.769 277.269 161.769C276.647 161.769 276.951 161.451 277.573 161.451C278.816 161.147 278.194 161.147 275.708 161.147C273.843 161.451 270.735 161.147 269.174 161.147C267.613 160.843 265.445 160.843 264.201 160.843C262.337 160.843 262.019 160.54 262.64 160.222C263.565 159.6 263.262 159.904 261.701 159.904C259.518 159.904 258.896 159.904 259.214 160.222C259.214 160.843 258.275 160.843 255.167 160.222C250.194 160.222 250.498 160.843 255.47 161.147C262.004 161.451 272.571 162.708 271.949 163.012C271.631 163.012 269.145 163.012 266.977 162.694C264.491 162.39 260.443 162.39 257.335 161.769C253.288 161.769 252.666 162.072 255.47 162.39C261.686 163.012 259.2 163.012 251.119 162.694C246.768 162.694 242.721 162.694 242.417 162.39C242.114 162.39 241.796 162.39 241.796 162.694C241.381 162.906 241.068 162.906 240.856 162.694C240.552 162.39 240.234 162.39 240.234 162.694C240.234 162.694 240.234 163.012 239.613 163.012C238.37 163.012 206.351 163.315 198.892 163.315C187.704 163.937 160.961 166.12 160.658 166.741V167.681C160.658 167.681 164.083 167.059 168.738 166.741C181.488 165.498 198.892 164.573 195.784 165.18C194.541 165.18 192.98 165.802 192.055 165.802C190.493 165.802 187.082 166.105 183.974 166.423C180.866 166.423 175.893 167.363 172.786 167.363C169.678 167.666 165.63 167.984 163.765 167.984C159.414 168.302 160.339 167.984 157.853 173.275C157.232 174.836 155.367 177.944 154.427 180.112L152.562 184.464C152.562 184.767 152.562 185.085 152.244 185.085C152.244 185.085 151.623 185.085 151.623 185.707C151.623 186.01 151.319 186.632 151.001 187.875C150.38 189.74 148.197 194.091 147.272 196.577C147.272 197.517 146.65 198.138 146.65 198.138C146.65 198.553 146.549 198.76 146.347 198.76V199.382C146.043 199.382 145.725 200.003 145.407 201.246C144.785 202.489 144.482 203.111 144.164 203.111L143.86 203.733C143.86 204.051 142.921 205.915 142.299 207.78C141.056 209.341 140.434 211.206 140.434 211.51C140.434 211.51 140.434 212.131 139.813 212.449C139.61 212.652 139.509 212.859 139.509 213.071C139.509 213.071 139.509 213.692 139.206 213.692C139.206 213.996 138.888 214.314 138.888 214.314C138.888 214.632 138.266 215.875 137.645 216.497C137.341 217.74 136.083 219.301 135.78 220.544C135.476 221.484 134.84 222.727 134.537 222.727C133.915 223.652 132.672 225.531 132.672 226.456C132.672 227.382 132.354 228.018 131.732 228.018C131.732 228.018 131.429 228.639 131.732 228.639L131.111 229.261C130.807 229.564 130.489 229.882 130.489 229.564L129.868 229.868V231.111C129.868 231.111 129.868 231.415 129.55 231.415C129.246 232.036 128.928 232.354 128.928 232.658C128.928 233.284 128.615 233.385 127.988 232.961C127.574 232.759 127.473 232.759 127.685 232.961C127.988 233.901 127.685 236.069 127.063 236.069C127.063 236.069 126.442 236.069 127.063 236.373C127.063 236.373 127.063 237.312 126.442 237.616C124.577 242.285 123.955 244.15 123.334 245.697C123.016 247.258 122.394 248.804 122.394 247.561C122.394 247.359 122.293 247.359 122.091 247.561C121.676 247.773 121.676 248.188 122.091 248.804C121.676 248.804 121.676 248.91 122.091 249.122C122.091 249.744 121.469 251.927 120.847 251.291V252.23C121.151 252.534 120.847 252.852 120.847 252.534C120.635 252.534 120.529 252.635 120.529 252.838C120.847 253.777 119.604 257.189 118.968 257.507C118.554 257.709 118.554 257.81 118.968 257.81C118.968 257.81 118.968 258.432 118.347 258.75C118.347 259.053 118.043 259.689 118.043 260.311C118.043 260.615 117.725 260.615 117.725 260.933C117.421 260.933 117.103 261.858 117.103 262.176C115.542 265.602 114.921 265.905 114.299 265.602C114.097 265.602 114.097 265.703 114.299 265.905C114.713 266.532 114.713 266.946 114.299 267.148C114.299 267.452 113.996 267.77 113.996 268.71C113.374 269.649 112.131 273.682 111.191 273.061C111.191 273.061 110.888 273.061 110.888 273.682C110.888 273.682 111.191 273.986 111.509 273.986L111.191 274.304C110.888 274.304 110.57 274.607 110.888 274.607C111.509 274.607 111.191 275.85 110.584 275.85C109.977 275.85 109.644 276.154 109.962 276.776C109.962 277.715 109.023 280.202 108.401 279.58V280.823C108.401 281.141 108.098 282.066 107.78 282.384C107.78 282.066 107.78 281.763 107.476 282.066C107.264 282.066 107.264 281.758 107.476 281.141C107.476 280.823 107.78 280.202 107.78 279.58C107.78 279.262 108.401 278.019 109.023 276.776C109.644 275.532 110.888 271.803 112.449 267.755C114.01 264.33 114.935 260.918 115.557 260.6C115.86 259.675 115.86 259.357 115.86 259.357V258.432C116.063 257.805 116.063 257.598 115.86 257.81C115.557 257.81 115.557 258.432 115.557 258.432C115.557 258.735 115.557 259.053 114.935 259.357C114.632 259.675 114.314 260.296 114.314 260.296C114.314 260.918 112.131 266.209 111.509 265.891C111.509 265.587 112.434 264.33 112.752 263.404C114.314 259.357 113.374 260.296 111.509 264.344C110.888 266.209 109.644 268.695 109.644 269.317C109.341 270.256 109.023 270.878 109.023 270.878C109.023 270.878 108.401 271.817 108.401 272.121C108.098 272.743 107.476 274.304 107.158 275.547C106.537 276.79 106.233 277.715 105.915 277.715C105.915 278.019 104.99 280.202 104.354 282.066C103.429 283.931 102.185 287.357 101.246 289.525C100.306 292.012 99.6847 294.194 99.6847 294.498C99.6847 295.119 99.3811 295.438 99.3811 295.741C99.0631 296.666 97.5164 302.275 97.5164 302.578C97.5164 302.882 97.5164 302.882 97.2128 302.882C97.2128 302.882 96.5913 303.504 97.2128 303.504C97.2128 303.807 97.2128 304.125 96.5913 304.125C96.5913 304.125 96.2877 304.429 96.2877 305.065C96.2877 305.368 95.3481 308.794 94.1194 312.842C92.8762 317.193 91.315 320.922 91.315 320.922C91.6331 321.544 92.8762 317.814 94.4229 313.463C98.1524 301.957 100.017 296.681 100.639 296.059C100.957 295.756 100.639 296.681 99.7136 299.485C91.315 323.423 84.1741 346.436 84.4776 347.361C84.4776 347.361 84.4776 347.665 84.1741 347.361C84.1741 347.361 83.5525 347.361 84.1741 348.286C84.1741 348.604 84.1741 348.908 83.5525 348.604C83.5525 348.604 83.2345 348.908 83.5525 349.226C83.5525 350.166 83.5525 350.469 83.2345 350.166C83.2345 348.604 83.8561 345.815 84.7957 342.707C87.282 334.93 87.6 334.004 86.6604 335.248C86.6604 335.551 84.4776 342.403 84.1741 343.646C83.5525 345.511 82.9309 347.694 82.9309 348.315C82.6273 348.633 82.6273 348.937 82.6273 349.255C82.6273 349.876 82.3238 350.816 81.6877 352.363C81.3842 353.606 81.3842 354.849 81.3842 355.167C81.6877 355.789 82.0058 355.471 81.6877 354.849C81.0662 353.924 81.6877 353.924 81.6877 353.924C82.3093 354.228 82.3093 353.924 82.3093 353.302C81.6877 352.363 81.6877 352.059 82.3093 352.681C82.9309 353.302 82.6129 353.302 82.6129 352.059C82.4105 351.645 82.4105 351.544 82.6129 351.756C82.8153 351.968 82.9165 351.867 82.9165 351.452C82.9165 351.134 82.9165 350.831 83.22 350.513C83.22 350.816 83.22 352.377 82.5984 354.242C81.9769 356.728 81.6588 357.046 81.3553 356.41L81.0517 355.167L80.7337 356.41C80.1121 356.728 80.4301 357.032 80.7337 357.653C81.3553 358.593 81.0517 358.593 81.0517 357.35V357.046C81.6733 358.29 81.0517 360.154 80.1121 359.851C80.1121 359.851 80.1121 359.229 80.7337 359.229C80.9457 359.017 80.9457 358.81 80.7337 358.608C79.8085 357.668 79.1725 360.79 79.4905 362.033C79.7941 362.655 79.7941 363.277 79.4905 363.277V363.898C79.4905 364.202 79.4905 364.838 79.1725 365.141C78.5509 365.445 78.2474 365.445 78.2474 365.141C78.2474 364.838 78.2474 364.838 77.9293 365.141C77.9293 365.445 78.2474 365.763 78.5509 365.763C78.5509 365.763 78.5509 367.006 77.9293 369.81C77.3078 371.979 76.3682 374.162 76.3682 374.783C76.0646 375.405 76.0646 375.723 75.7466 375.405C75.125 375.405 75.125 375.708 75.7466 376.026C75.7466 376.855 75.5394 377.168 75.125 376.966C74.9226 376.764 74.9226 376.971 75.125 377.587V378.831C74.8214 378.831 74.8214 379.149 74.8214 379.77C74.8214 380.074 74.8214 380.392 74.5179 380.392C74.2143 380.695 73.5783 381.635 72.9567 384.121C72.3351 390.034 71.092 391.58 71.3955 386.608V383.803L71.4967 383.731ZM72.7399 154.917C72.4363 154.917 72.7399 155.22 73.0579 154.917C73.6795 154.917 73.6795 154.599 73.6795 154.599C73.3759 154.599 73.0579 154.599 72.7399 154.917ZM73.0579 376.894C73.0579 377.197 73.0579 377.515 73.0579 377.197V376.576C73.0579 376.161 73.0579 376.262 73.0579 376.879V376.894ZM73.3614 373.482V375.043C73.3614 375.458 73.3614 375.458 73.3614 375.043C73.665 374.104 73.665 373.482 73.665 373.179C73.665 372.764 73.5638 372.865 73.3614 373.482ZM73.6795 352.03V353.592C73.6795 354.006 73.6795 354.006 73.6795 353.592C74.301 352.666 74.301 352.348 74.301 352.03C74.301 351.712 74.301 351.727 73.6795 352.03ZM74.301 375.347C74.301 375.65 74.301 375.968 74.301 375.65V375.029C74.301 374.817 74.301 374.918 74.301 375.332V375.347ZM74.6046 368.191C74.6046 368.509 74.9082 368.813 74.9082 368.813V368.191C74.9082 367.777 74.807 367.777 74.6046 368.191ZM75.8478 373.786C75.8478 374.089 76.1513 374.711 76.1513 374.711V373.786C76.1513 373.574 76.0501 373.574 75.8478 373.786ZM76.1658 372.225C76.1658 372.543 76.4694 373.164 76.4694 373.164V372.225C76.4694 372.022 76.3682 372.022 76.1658 372.225ZM76.4694 370.678C76.4694 371.299 76.7729 371.617 76.7729 371.617V370.678C76.7729 370.475 76.6717 370.475 76.4694 370.678ZM76.7874 369.117C76.7874 369.738 77.409 370.056 77.409 370.056V369.117C77.409 368.914 77.2018 368.914 76.7874 369.117ZM77.7125 366.63C77.7125 366.934 78.0161 367.252 78.0161 367.252V366.63C78.0161 366.428 77.9149 366.428 77.7125 366.63ZM78.6521 362.279C78.6521 362.583 79.2737 363.219 79.2737 363.219V362.279C79.2737 362.077 79.0665 362.077 78.6521 362.279ZM80.1988 324.348C80.1988 324.97 79.8953 325.288 79.8953 325.591C79.8953 326.835 80.1988 326.531 80.8204 324.97C80.8204 324.343 80.6132 324.136 80.1988 324.348ZM81.1384 321.558C81.1384 321.862 80.8204 322.18 80.8204 322.802C80.8204 324.045 81.1384 323.741 81.442 322.498C81.442 321.876 81.442 321.558 81.1384 321.558ZM81.76 319.997L81.4565 320.301V320.922C81.76 320.922 81.76 320.604 81.76 320.301V319.997ZM83.3067 314.099C83.0032 314.099 81.7456 317.829 81.7456 319.072C82.3671 319.39 82.9887 316.904 83.3067 315.343V314.099ZM83.6248 312.235C83.6248 312.538 83.3067 312.856 83.3067 313.478C83.3067 313.781 83.6248 313.781 83.6248 313.478C84.2464 312.856 84.2464 312.538 84.2464 312.235C84.2464 311.931 84.2464 311.931 83.6248 312.235ZM84.2464 325.288C84.2464 325.591 84.5499 325.909 84.5499 325.909V325.288C84.5499 325.086 84.4487 325.086 84.2464 325.288ZM87.6723 332.747C87.6723 333.368 87.3543 333.672 87.3543 333.99C87.6723 334.294 87.9758 333.368 87.9758 332.429L87.6723 332.747ZM88.5974 329.957C88.2939 330.579 88.2939 331.518 88.2939 331.822C88.2939 332.125 87.9903 331.822 88.5974 330.882C88.9154 330.261 89.219 329.321 89.219 329.017C89.219 328.714 89.219 329.017 88.5974 329.957ZM93.2665 302.896C93.2665 302.896 92.3269 304.458 91.7053 306.626C91.0837 308.491 90.7657 310.674 90.1441 311.599C89.8261 311.902 89.5226 312.524 89.5226 312.842C89.5226 314.085 90.7657 312.22 91.7053 307.551C92.9485 305.368 93.2665 302.882 93.2665 302.882V302.896ZM90.1586 324.348C90.1586 324.97 89.8406 325.288 89.8406 325.591C90.1586 325.895 90.7802 324.97 90.7802 324.03L90.1586 324.334V324.348ZM91.0837 322.18C91.0837 322.484 90.7802 322.802 90.7802 323.423C91.0838 323.727 91.4018 322.484 91.4018 321.862L91.0982 322.18H91.0837ZM106.002 267.148C106.623 265.284 107.245 263.722 107.245 263.722C107.245 262.783 103.197 272.743 103.197 273.668C103.197 274.289 103.515 273.668 104.441 272.107C104.759 271.167 105.684 268.999 106.002 267.134V267.148ZM114.4 266.845C114.4 266.43 114.299 266.223 114.097 266.223V266.845L114.4 267.148V266.845ZM121.238 235.433C120.934 235.433 118.13 240.724 118.13 241.345C118.13 242.271 118.433 241.967 119.373 240.406C120.934 236.98 121.238 235.433 121.238 235.433ZM125.907 223.941C125.907 223.941 121.238 233.886 121.238 234.508C121.238 235.433 121.859 234.812 124.042 229.535C125.285 226.428 125.907 224.245 125.907 223.941ZM124.664 239.163C124.346 239.466 124.664 239.466 124.967 239.163C124.967 238.859 125.589 238.859 124.967 238.541C124.967 238.541 124.664 238.845 124.664 239.163ZM126.225 235.433C125.907 236.055 125.603 236.994 125.603 236.994C125.603 237.312 125.907 236.994 126.225 236.069C126.528 235.448 127.15 234.508 127.15 234.205C127.15 234.205 126.528 234.523 126.225 235.448V235.433ZM127.15 221.137L126.528 222.062L127.468 221.137C127.772 220.819 127.772 219.894 127.772 219.576C127.772 219.258 127.772 220.197 127.15 221.137ZM129.636 227.974C129.636 227.974 129.333 228.596 129.015 228.899C129.015 229.521 128.393 230.461 128.075 231.082C127.772 232.022 127.772 232.325 127.772 232.325C128.075 232.325 128.393 231.386 129.015 230.461C129.636 229.217 129.636 227.974 129.636 227.974ZM132.744 221.455C132.426 221.455 130.879 224.563 130.879 224.881C130.879 225.82 131.819 223.956 132.441 222.712C132.759 222.091 132.759 221.469 132.759 221.469L132.744 221.455ZM221.977 161.451C221.356 161.451 221.977 161.769 222.599 161.769C223.842 161.769 224.16 161.451 223.842 161.451H221.977ZM228.815 158.328C227.253 158.328 228.511 158.95 230.679 158.95C233.484 158.95 234.105 158.328 232.862 158.328H228.815ZM240.625 158.964C240.321 159.268 240.928 159.268 242.186 159.268C243.443 159.268 244.051 159.268 244.051 158.964H240.625ZM244.354 161.451C244.051 161.769 244.354 161.769 244.658 161.769C245.072 161.769 245.279 161.663 245.279 161.451H244.354ZM258.347 159.586C258.347 159.586 257.422 159.586 256.179 159.282C254.617 159.282 252.449 159.282 250.584 158.979H245.612C244.672 158.979 247.477 159.282 251.206 159.6C255.254 159.904 258.361 159.904 258.361 159.904V159.6L258.347 159.586ZM248.402 161.754C248.402 161.436 247.78 161.436 247.462 161.436H246.219L247.158 161.754C247.78 161.754 248.402 162.376 248.402 162.376V161.754ZM258.665 156.781C257.725 156.478 256.179 156.478 255.239 156.478H253.678L255.543 156.781C256.786 156.781 257.725 157.403 258.651 157.403H260.212L258.651 156.781H258.665ZM267.049 159.268C266.746 159.571 267.049 159.571 267.353 159.571C267.656 159.571 267.656 159.571 267.656 159.268H267.035H267.049ZM267.671 159.889C267.367 160.207 267.671 160.207 268.292 160.207C268.495 160.207 268.596 160.101 268.596 159.889H267.656H267.671ZM271.097 159.586C270.793 159.889 271.097 159.889 271.718 159.889C271.93 159.889 272.036 159.788 272.036 159.586H271.097ZM274.523 160.829C274.205 161.133 274.523 161.133 275.144 161.133C275.346 161.133 275.448 161.031 275.448 160.829H274.523Z" fill="url(#paint0_linear_198_72)"/>
<path d="M148.284 338.038C148.602 337.72 147.662 337.72 146.115 337.72C143.932 338.038 143.311 337.72 141.446 335.855L138.96 333.369C138.656 331.504 138.035 330.261 137.399 330.564C136.155 330.868 133.973 329.625 133.973 328.699C133.973 328.078 133.655 327.76 133.351 327.76C133.048 327.76 132.412 326.517 131.486 324.956C129.304 320.604 129.925 316.253 134.594 301.017C136.155 297.288 135.837 297.592 140.189 288.268C142.993 282.052 150.755 268.681 151.695 267.756C151.999 267.756 153.256 265.891 154.499 264.026C160.412 255.324 172.525 244.439 179.377 241.953C184.668 240.088 187.458 239.784 195.538 241.013C199.586 241.331 200.511 241.635 200.207 242.574C200.207 242.878 200.207 243.196 200.511 242.878C200.814 242.56 201.436 242.878 202.072 243.499C202.376 243.817 203.315 244.439 203.633 244.439C204.255 244.439 205.498 245.061 206.438 246L208.302 247.561L211.728 244.136C213.289 242.271 215.458 240.71 215.776 240.71C216.397 240.71 217.019 240.71 217.337 240.406C217.337 240.102 217.958 239.784 218.277 240.102C218.595 240.42 219.216 240.102 219.52 239.481C219.722 239.279 219.823 239.279 219.823 239.481C219.823 240.102 220.763 240.42 222.31 240.42C225.114 240.42 226.979 241.982 226.979 244.468C226.979 245.408 227.282 246.029 227.6 246.029C227.6 246.029 228.54 247.272 229.161 248.515L230.405 250.698L227.6 257.854C226.039 261.901 224.796 265.313 225.114 265.631C225.114 265.934 225.114 266.252 224.81 265.934C223.871 265.631 223.249 267.799 223.871 268.739C224.189 269.057 223.871 269.057 223.567 269.057C222.946 268.435 221.384 271.225 222.006 272.165C222.31 272.468 222.006 272.786 221.702 272.786C221.399 272.786 221.081 272.786 221.384 273.104C221.702 273.408 221.384 273.726 221.081 274.029C220.777 274.029 217.033 281.488 214.243 288.022C210.818 296.103 208.331 311.035 209.892 313.825C210.196 314.765 210.514 316.311 210.514 317.251C210.832 318.812 211.136 319.434 212.075 319.434C214.879 320.055 229.176 310.731 242.547 300.165C257.783 288.037 258.708 287.415 259.951 285.247C260.255 284.307 260.573 284.307 260.573 285.55C260.573 286.591 260.886 286.692 261.513 285.854C262.438 284.293 263.681 285.55 262.756 287.097C262.134 288.962 262.134 289.28 263.377 288.34C263.792 287.926 263.792 288.34 263.377 289.583C262.756 290.523 262.134 291.766 262.134 292.388C262.134 292.691 261.831 293.327 261.513 293.327C261.195 293.327 257.161 297.057 252.189 302.029C247.52 306.698 241.304 312.914 237.892 315.704C234.163 318.812 232.602 320.677 232.92 320.995C233.541 321.92 240.379 315.704 248.777 306.698C252.507 302.969 255.615 299.861 255.933 299.861C256.251 300.165 262.149 293.949 263.392 291.78C263.806 291.154 264.013 291.154 264.013 291.78C264.013 293.949 262.149 296.753 256.236 303.287C252.81 307.334 250.021 310.442 250.324 310.746C250.324 311.049 250.021 311.686 249.081 312.307L247.838 313.55C247.838 313.55 248.156 313.55 248.156 313.854C248.156 314.475 246.913 315.415 246.291 315.415C245.987 315.415 245.669 315.415 245.366 315.719C245.048 316.022 245.366 316.022 245.669 316.022C245.973 315.719 246.291 315.719 246.291 316.022C246.291 316.962 234.481 329.075 233.541 329.393C232.92 329.393 231.98 330.015 231.055 330.333C229.494 331.576 228.569 331.894 229.19 330.955C229.19 330.333 228.265 330.651 227.022 331.258C225.779 332.198 224.536 332.819 224.536 332.819C224.536 333.441 226.4 333.123 227.34 332.198C227.962 331.576 228.28 331.258 228.583 331.576C228.887 331.88 227.34 333.441 225.779 334.684L224.218 335.624L225.779 335.32C227.644 334.698 233.859 331.273 236.664 328.786C239.468 326.603 240.393 326.3 239.468 327.543C239.165 327.847 239.468 327.847 240.09 327.543C240.711 326.921 241.015 326.3 241.015 325.982C241.015 325.664 243.198 322.874 245.987 320.388C250.96 314.793 264.013 298.632 265.575 295.828C265.878 294.585 266.818 293.963 267.136 293.963C267.757 293.963 267.757 294.903 267.136 295.206C266.514 295.524 266.514 296.146 266.514 296.45C266.514 296.753 266.514 296.753 267.136 296.146C267.439 295.842 267.439 295.524 267.439 295.842C267.439 298.329 242.258 330.665 241.015 330.044C240.711 329.726 240.393 330.044 239.772 330.665C239.357 331.292 239.564 331.393 240.393 330.969C241.01 330.352 241.01 330.453 240.393 331.273C239.772 331.894 238.832 332.516 238.528 332.212C238.225 331.909 238.225 332.212 238.528 332.516C238.846 333.137 234.177 337.185 231.069 338.732C228.583 340.293 218.941 340.596 216.455 339.353C215.516 338.732 214.59 338.414 214.272 338.414C213.651 338.414 211.164 336.231 208.36 333.441C203.691 328.772 202.448 327.847 200.28 326.285C199.658 325.967 198.718 324.103 197.475 322.238L195.914 318.812V309.792C196.232 299.529 197.475 293.313 202.13 279.32C203.691 275.59 204.616 272.483 204.313 272.165L202.448 274.029C201.508 275.272 200.28 276.834 199.34 277.759C198.4 278.684 196.536 281.185 194.989 283.353C193.428 285.536 192.185 287.4 191.881 287.4C191.881 287.4 192.821 285.536 194.367 283.671C201.205 274.029 202.448 271.543 200.583 273.408C199.644 274.651 190.638 287.082 182.239 299.211C180.056 302.318 178.51 305.123 178.51 305.123C178.712 305.325 178.712 305.426 178.51 305.426C178.206 305.426 175.402 308.534 172.598 312.264C165.139 322.209 162.031 325.939 157.68 329.986C155.511 332.154 153.95 334.034 153.95 334.337C153.95 334.641 153.328 334.959 152.085 335.277C150.842 335.58 150.524 335.58 151.16 336.202C151.782 336.505 152.403 336.505 152.721 336.202C153.025 336.202 153.025 336.505 152.721 337.445C152.403 338.688 152.403 339.006 153.343 338.688C155.213 338.062 155.834 337.541 155.208 337.127C154.586 336.823 154.89 336.505 156.133 336.187C157.072 335.566 157.376 335.262 157.376 334.944C157.072 334.641 157.376 334.323 157.68 334.323C158.923 334.323 160.484 332.761 167.003 323.756C173.219 315.357 174.159 314.114 172.598 314.736C171.971 314.938 171.865 314.625 172.279 313.796C173.219 312.235 174.144 311.628 173.841 312.871C173.219 313.796 173.523 313.796 174.144 313.174C175.084 312.553 175.084 312.235 174.766 311.613C174.351 311.199 174.351 310.992 174.766 310.992C175.387 311.295 176.327 310.37 177.874 307.884C180.042 304.458 185.333 296.999 186.272 296.074C186.894 295.452 183.468 301.668 179.435 307.884C176.631 311.931 175.387 314.721 175.705 315.343C176.009 316.268 175.705 316.268 175.402 315.646C174.78 314.403 173.841 315.646 174.462 317.207C174.665 317.622 174.563 317.622 174.159 317.207C173.855 316.904 173.537 316.904 173.219 317.207C172.901 317.511 173.219 318.147 173.523 318.769C173.841 319.39 174.144 319.708 173.523 319.708C173.219 319.708 172.901 320.012 172.901 320.33C172.699 320.532 172.598 320.325 172.598 319.708C172.901 317.844 171.976 318.465 170.733 320.951C170.111 322.513 170.111 322.816 170.733 322.195C171.051 321.877 171.672 321.573 171.976 321.877C172.279 322.195 166.685 330.897 166.064 330.897C165.76 330.897 166.064 329.972 166.064 329.336C166.367 328.092 166.367 327.774 165.76 328.092C165.442 328.396 165.442 329.336 165.442 330.275C165.76 331.836 164.821 333.701 163.881 332.761C163.881 332.761 163.577 333.065 163.881 333.687C163.881 334.308 163.577 334.626 162.638 334.626C162.334 334.626 162.016 334.626 162.016 334.93C162.638 335.869 154.557 342.085 152.692 341.767C152.374 341.767 151.131 341.464 149.888 340.842C147.705 339.902 147.084 339.281 148.327 338.038H148.284ZM151.391 306.944C151.088 306.944 151.391 306.641 151.695 306.641C151.999 306.641 152.317 306.337 151.999 306.019C151.695 306.019 151.999 305.397 152.302 305.397C152.606 305.397 154.485 301.972 156.653 297.938C163.809 283.946 171.571 272.757 180.909 264.359C182.471 262.797 183.714 261.554 183.396 261.554C182.774 261.554 173.132 271.196 170.024 274.925C165.977 280.216 160.701 288.6 157.593 294.816C155.728 297.62 154.485 300.107 154.167 300.107C153.545 300.107 158.214 290.783 161.626 285.189C164.734 280.216 164.112 280.52 160.701 285.492C155.41 293.573 147.951 310.674 149.512 310.674C149.83 310.674 150.452 310.052 150.755 309.112C151.377 308.173 151.377 307.248 151.377 306.93L151.391 306.944ZM190.262 269.331C199.282 257.825 201.768 254.413 199.904 255.96C198.979 256.582 193.991 258.128 193.37 258.128C193.066 257.825 192.748 258.128 192.748 258.446C192.748 258.764 192.445 259.371 191.505 259.69C190.879 260.104 190.672 260.104 190.884 259.69C191.187 259.068 190.884 259.068 189.944 259.69C189.322 259.993 188.701 260.615 189.004 260.933C189.308 260.933 188.701 261.554 188.383 262.176C187.756 262.59 187.65 262.489 188.065 261.872C189.308 260.311 188.065 260.629 186.504 262.176C185.882 262.797 185.882 263.115 186.504 262.797C186.918 262.595 186.918 262.802 186.504 263.419C185.578 264.359 184.942 264.662 185.578 263.737C186.2 262.797 185.26 263.115 183.714 264.359C183.092 265.298 182.471 265.92 182.774 266.223C182.774 266.541 182.774 266.845 182.471 266.541C182.167 266.223 180.909 267.163 179.666 268.406C178.423 269.649 177.18 270.589 176.862 270.589C176.558 270.285 176.24 270.285 176.558 270.589C176.862 271.21 174.997 274.015 174.376 273.697C173.754 273.393 168.781 279.913 169.085 280.231C169.085 280.231 169.706 279.927 170.328 279.291C171.889 277.426 170.632 279.609 165.977 286.446C163.794 289.872 161.004 294.223 160.065 296.088C157.578 301.061 155.092 306.033 155.396 306.033C155.699 306.033 158.2 303.865 160.99 301.364C167.827 295.452 181.502 280.231 190.219 269.346L190.262 269.331ZM169.432 324.348C169.432 323.727 169.128 323.727 168.189 324.97C167.567 325.592 166.945 326.835 166.945 327.138C166.945 328.078 167.263 328.078 167.567 327.138C167.567 326.835 168.189 326.213 168.507 325.895C169.128 325.592 169.432 324.97 169.432 324.334V324.348ZM174.404 273.986C174.708 274.304 172.222 277.715 171.6 277.715C171.297 278.019 171.904 277.094 172.54 275.851C173.465 274.607 174.404 273.986 174.404 273.986ZM199.586 272.743C203.937 267.148 204.558 266.209 203.315 267.148C200.511 269.635 182.181 294.195 182.789 295.134C183.001 295.548 185.386 292.542 189.944 286.114C193.37 281.445 197.721 275.547 199.586 272.743ZM203.315 270.256C202.694 270.56 202.376 271.182 202.376 271.5V272.121C202.376 271.818 202.997 271.182 203.315 270.56C203.942 269.731 203.942 269.63 203.315 270.256ZM207.363 330.261C207.363 330.261 207.059 330.564 207.059 330.882C207.059 331.2 207.363 331.504 207.984 331.504C208.302 331.504 208.606 331.186 208.302 330.882C208.302 330.579 207.681 330.261 207.363 330.261ZM207.984 293.573C207.681 293.876 207.984 294.194 208.606 293.876C208.909 293.876 209.227 293.573 209.227 293.573C209.227 292.633 208.302 292.633 207.984 293.573ZM211.092 283.931C210.789 284.235 210.471 284.553 210.471 284.871C210.471 285.796 210.789 285.492 211.41 284.553C211.41 284.249 211.41 283.931 211.107 283.931H211.092ZM223.206 336.173C222.266 336.173 221.645 336.476 221.645 336.795C221.645 337.416 222.888 337.416 224.131 336.795C224.753 336.173 224.434 336.173 223.191 336.173H223.206ZM229.436 324.348C229.74 324.348 229.74 324.045 229.436 323.727C229.436 323.423 229.74 323.105 230.058 323.105C230.679 323.105 230.997 322.802 230.679 322.484C230.361 321.862 230.679 321.862 231.301 322.18C232.24 322.484 233.166 321.559 232.24 321.241C231.922 320.937 229.436 322.484 226.646 324.348C221.355 327.774 220.734 329.321 226.025 326.213C227.586 324.97 229.132 324.348 229.451 324.348H229.436ZM226.632 335.551C226.328 335.551 225.707 335.855 225.389 336.173C225.389 336.477 225.389 336.795 226.01 336.795C226.314 336.795 226.95 336.477 227.253 336.173C227.557 335.869 227.253 335.551 226.632 335.551ZM240.307 317.829L239.063 319.072C238.442 319.694 238.124 320.315 238.124 320.315C238.427 320.315 239.063 319.694 239.685 319.072C240.003 318.451 240.625 317.829 240.307 317.829ZM250.266 310.37L248.402 311.931C246.84 313.492 246.537 314.114 247.462 313.492H247.765L249.009 311.931L250.252 310.37H250.266Z" fill="white"/>
<path d="M257.711 363.84C257.089 363.84 257.089 362.9 257.089 361.657C257.089 359.793 257.393 359.793 256.786 361.036C256.482 361.975 255.846 362.279 255.542 361.975C255.239 361.657 254.603 361.036 253.981 360.732C253.042 360.111 252.42 359.489 252.42 358.246C252.42 356.685 252.42 356.381 251.798 357.003C250.555 358.246 249.616 357.624 248.691 356.063C248.373 355.442 247.751 354.82 247.129 354.82C246.19 354.82 244.947 352.955 244.947 351.394C244.947 350.772 244.643 350.454 244.007 350.454C242.446 350.454 240.581 347.346 240.899 345.785C241.203 345.164 240.899 344.542 240.596 344.542C240.278 344.224 240.278 343.603 240.596 342.359C241.217 340.798 241.217 340.177 240.596 339.873C240.181 339.459 240.075 339.459 240.278 339.873C240.278 340.495 240.277 341.434 239.974 342.359C239.67 343.603 239.67 344.224 239.974 344.846C240.388 345.26 240.287 345.361 239.67 345.149C238.109 344.528 237.806 341.42 238.109 336.751C238.413 334.568 238.731 332.082 238.731 331.46C239.352 329.277 245.265 317.467 245.568 317.785C246.19 318.103 248.054 313.434 248.054 312.191C248.054 311.989 248.156 311.887 248.358 311.887C248.676 312.191 253.331 303.185 258.621 292.3C269.506 270.545 273.539 263.39 279.452 254.687C283.181 249.093 287.85 243.499 287.85 244.742C287.85 245.06 285.682 249.093 281.938 255.627C278.83 261.221 277.89 263.404 278.208 263.404C278.526 263.404 284.121 253.141 284.121 252.519C284.121 252.216 284.742 251.898 285.06 251.58C285.364 251.276 286.925 248.775 288.168 246.289C289.411 243.485 290.351 241.62 290.351 241.938C290.553 242.564 290.867 242.564 291.291 241.938C291.594 241.316 291.912 241.316 291.594 242.559C291.594 243.485 291.594 243.803 291.898 243.803C292.519 243.803 292.837 243.485 292.837 243.181C292.837 241.316 294.08 243.803 294.08 245.985C294.08 247.85 294.384 248.472 295.324 248.168C296.885 247.865 298.75 252.519 298.75 256.567C298.75 259.675 297.188 267.452 296.263 269.938C295.642 272.121 295.642 272.424 296.567 271.181C296.981 270.352 297.188 270.453 297.188 271.485C296.986 272.313 297.193 272.521 297.81 272.106C298.432 271.485 299.053 271.167 298.735 271.167C298.735 270.863 302.161 267.741 302.465 267.741C303.086 267.741 304.329 266.801 304.329 266.18C304.329 265.876 304.011 265.876 303.39 266.18C302.768 266.801 303.086 266.18 303.693 265.558C305.254 263.693 306.18 263.375 304.633 264.936C304.329 265.558 304.329 265.861 304.633 265.861C304.936 265.558 307.741 262.754 310.545 259.646C313.349 256.538 316.457 253.43 317.701 252.187L319.565 250.322L318.004 252.187C317.383 253.126 316.443 254.051 316.443 254.051C316.443 254.369 314.882 255.916 313.335 257.781C311.47 259.964 312.713 259.024 316.139 255.613C319.247 252.187 322.052 249.7 322.355 249.7C322.659 250.004 322.659 249.397 322.659 249.079C322.355 248.139 325.767 245.031 326.388 245.349C326.706 245.653 326.706 245.349 326.388 245.046C326.085 244.424 335.09 234.479 335.712 235.1C335.712 235.1 336.03 235.722 335.408 236.344L336.03 235.722C337.895 233.857 338.198 233.539 336.652 234.479L338.213 232.918C339.456 231.675 341.321 229.81 341.639 228.87C342.564 227.005 342.26 227.005 342.26 228.567C342.26 229.81 343.195 229.911 345.065 228.87C347.247 227.945 347.551 227.945 348.794 228.87C352.524 231.357 355.01 236.647 354.706 241.302C354.085 247.836 346.929 266.801 338.545 283.584C335.741 289.496 330.147 303.792 330.465 304.096C330.465 304.4 330.465 304.718 330.161 305.339C329.857 305.961 330.465 305.339 332.026 303.778C334.83 300.974 334.83 301.292 332.329 304.718C331.708 305.643 331.086 306.582 331.39 306.582C331.693 306.582 331.693 306.886 331.693 307.204C331.491 307.416 331.491 307.522 331.693 307.522C332.315 307.204 332.315 306.582 332.315 305.961C332.011 305.339 332.011 305.036 332.315 305.339C332.936 305.961 333.24 305.339 333.876 305.036C334.18 304.732 334.18 304.414 333.876 304.414C333.876 304.414 334.18 303.489 334.816 302.853C336.984 300.685 337.924 299.427 338.545 298.502C338.863 297.88 338.545 297.88 337.924 298.805C337.62 299.427 336.984 299.745 336.984 299.427C336.984 299.427 338.227 297.562 340.092 295.076C341.957 292.589 343.518 291.028 343.518 291.346C343.518 291.664 342.896 292.589 341.653 293.833C337.924 298.502 338.849 298.184 343.214 293.211C346.019 289.785 346.322 288.542 344.775 290.103C343.836 290.725 343.836 290.407 344.775 289.482C345.397 288.542 346.019 288.238 346.337 288.542C346.655 288.846 349.141 286.374 349.141 285.738C349.141 285.434 348.519 285.738 347.58 286.359L348.201 285.738C349.445 284.494 350.066 283.569 350.37 283.569C350.688 284.191 354.417 280.461 354.417 279.84C354.417 279.536 354.114 279.536 353.492 280.143C352.87 280.765 353.492 279.84 354.735 278.279C355.978 277.036 356.904 276.414 357.222 276.414C357.54 276.414 358.161 276.414 358.465 275.792C358.783 275.489 358.783 275.171 358.783 275.171L364.073 269.88C364.073 269.577 363.755 269.88 361.269 272.366L358.783 275.171V274.867C358.465 274.867 359.404 273.624 360.951 272.063C362.498 270.502 364.059 269.259 364.377 269.577C364.999 269.88 368.728 266.151 368.424 265.529C368.121 265.225 368.121 264.907 368.728 265.225C369.032 265.225 370.289 265.225 371.532 264.286C372.988 263.245 372.886 263.346 371.229 264.589C368.121 267.076 356.311 279.204 353.507 282.615C352.263 284.176 353.81 282.919 356.932 279.811C360.358 276.703 364.088 272.974 365.331 272.034C366.892 270.791 369.06 268.926 370.304 267.683C371.243 266.743 373.412 264.879 374.973 263.953C376.534 262.71 377.777 262.089 378.081 261.771C378.081 261.568 377.873 261.26 377.459 260.845C376.837 260.224 377.141 260.527 378.702 260.527C380.263 260.845 380.871 260.845 381.189 260.224C381.492 259.284 383.675 259.284 384.296 260.224C384.6 260.527 385.236 260.845 385.858 261.467C386.797 261.467 386.797 262.089 386.797 262.407C386.494 263.028 386.797 263.968 387.419 264.575C388.04 265.818 388.358 266.136 387.722 266.44C387.308 266.642 387.308 266.743 387.722 266.743C389.905 266.743 391.77 276.385 390.527 283.222C390.527 284.162 389.905 286.33 389.905 287.891C389.602 289.453 389.284 292.243 388.966 294.425C388.662 296.29 388.344 300.02 388.04 302.202C387.722 304.371 387.722 307.493 387.101 309.04C386.797 312.148 386.797 319.607 387.101 320.546C387.404 320.864 387.722 321.789 387.404 322.729C387.101 324.912 389.269 326.458 392.377 325.837C395.181 325.533 405.43 320.243 410.721 316.513C413.207 314.648 419.119 310.297 424.092 306.871C432.173 300.959 440.571 293.5 440.571 292.257C440.571 291.953 441.193 291.635 441.814 291.317C442.436 291.014 443.058 291.317 443.058 291.635C443.058 292.257 443.361 292.257 443.679 291.635C444.604 290.074 444.922 291.317 444.301 293.197C443.361 295.379 437.767 302.52 435.902 303.764C435.281 304.385 434.963 304.703 435.281 304.703C435.902 304.703 443.058 297.548 443.058 296.926C443.058 295.987 444.922 294.743 446.484 294.743C447.105 294.743 448.045 295.365 448.045 296.305C448.348 297.548 448.666 298.791 448.984 299.412C451.789 303.142 444.937 311.844 429.094 324.912C426.289 327.08 423.499 329.581 422.56 330.506C421.62 331.128 420.999 331.749 421.317 331.128C421.62 330.824 420.377 331.446 418.83 332.371C414.161 336.1 407.324 339.83 403.594 340.769C399.243 342.012 398.304 342.634 401.108 342.634C402.973 342.634 409.189 339.526 415.404 335.479C420.695 332.371 420.999 332.053 418.512 334.539C414.783 337.647 407.945 342.316 405.141 343.559C401.094 345.12 398.304 344.802 394.574 342.62C392.391 341.68 390.845 341.058 390.527 341.058C389.905 341.058 388.662 340.119 387.419 338.876L382.446 333.903C379.02 331.099 376.534 328.309 374.669 325.504C373.73 324.261 372.804 323.336 372.804 323.336C372.501 323.64 372.501 323.336 372.501 323.018C372.501 321.775 370.318 316.181 370.015 316.484C369.711 316.802 369.711 316.181 369.711 315.559C370.015 314.938 370.015 314.316 369.711 314.62C368.468 315.241 368.15 313.68 368.468 305.296C368.771 296.594 370.029 290.06 372.515 283.222C373.137 281.358 373.455 279.796 373.455 279.493C372.212 278.553 352.625 303.431 342.361 318.971C339.253 323.64 335.828 328.612 334.584 329.855C332.098 332.963 325.882 337.632 324.943 337.314C324.639 337.011 323.7 337.011 322.76 336.693C321.835 336.375 321.199 336.071 321.199 335.45C321.199 335.146 319.638 334.207 317.773 333.267C315.908 332.327 314.347 331.402 314.347 331.084C314.347 330.766 313.725 329.219 313.104 327.976C312.482 326.733 312.164 326.112 312.164 326.733C312.164 327.355 312.164 327.673 311.861 327.673C311.557 327.673 311.239 327.369 311.239 326.733C311.239 326.43 310.617 325.49 309.996 324.868C307.813 323.307 307.191 321.139 306.888 317.713C306.57 309.936 314.347 283.208 321.806 266.729C322.731 264.546 323.671 262.378 323.974 261.756C324.914 259.588 323.671 260.513 321.806 262.999C320.563 264.561 316.515 269.837 312.786 275.127C305.009 285.391 295.685 299.066 291.03 306.842C287.604 312.755 282.632 322.7 281.389 325.49C281.085 326.43 280.463 327.673 280.463 327.673C280.145 327.976 279.524 329.537 278.902 331.402C277.977 334.51 274.551 341.348 265.849 358.145C264.909 360.009 263.666 361.874 263.045 362.496C261.484 364.057 259.315 364.678 258.694 364.057C258.39 364.057 258.072 363.753 257.754 363.753L257.711 363.84ZM241.55 338.341C241.347 338.967 241.453 339.174 241.868 338.962C242.171 338.659 242.489 338.037 242.171 337.719C241.868 337.098 241.868 337.416 241.55 338.341ZM244.976 336.476C244.036 337.416 242.171 340.206 242.171 341.449C242.171 342.388 244.036 340.206 244.976 338.023C245.597 335.84 245.915 335.536 244.976 336.462V336.476ZM249.327 322.801C249.023 322.801 247.462 325.606 245.901 328.714C242.475 336.172 242.793 335.869 243.096 335.869C243.4 335.869 244.339 333.686 245.901 330.896C249.327 323.741 249.63 322.816 249.327 322.816V322.801ZM247.144 332.443C247.765 331.821 247.765 331.2 247.447 330.882C247.144 330.26 246.826 330.882 246.204 332.443C245.901 333.686 245.583 334.626 245.583 334.626C246.204 334.626 246.204 334.322 246.204 334.004C246.204 333.383 246.508 333.065 247.144 332.443ZM247.765 329.639C248.069 330.26 248.069 330.578 248.387 330.26C248.705 330.26 248.387 329.639 248.083 329.321C247.462 328.699 247.462 329.017 247.78 329.624L247.765 329.639ZM253.36 314.099C254.603 311.295 256.164 308.505 255.846 308.505C255.542 308.201 254.285 310.688 253.042 313.796L249.616 320.633C248.994 321.876 248.994 322.194 249.616 322.194C249.934 322.194 250.237 321.573 250.555 320.633C250.859 320.011 251.798 317.207 253.36 314.099ZM252.738 353.577C252.434 353.577 251.798 354.198 251.495 354.516C250.873 355.138 250.252 355.456 249.934 355.456C249.616 355.456 249.312 355.76 249.616 356.078C250.237 357.321 250.859 357.321 252.102 356.078C253.345 355.152 253.345 353.591 252.724 353.591L252.738 353.577ZM254.299 342.07C253.996 342.07 253.678 342.692 253.678 342.995C253.678 343.617 253.996 343.935 254.299 343.617C254.603 343.617 254.921 342.995 254.921 342.677C254.921 342.359 254.617 342.056 254.299 342.056V342.07ZM258.65 302.896C258.347 302.593 257.711 303.836 257.089 305.079C255.224 308.505 256.15 308.505 257.711 305.383C258.332 304.139 258.954 303.2 258.65 302.896ZM270.157 302.593C269.53 303.007 269.217 302.906 269.217 302.289C269.839 301.667 269.521 301.349 269.217 301.667C268.914 301.985 268.596 302.289 268.914 302.911C268.914 303.214 269.217 304.154 268.914 304.472C268.61 305.411 268.292 305.411 267.974 304.79C267.67 304.168 267.352 304.472 267.67 304.79C267.974 305.411 267.67 306.958 267.049 308.519C265.184 312.249 267.049 309.141 269.217 305.093C270.46 302.607 270.778 301.985 270.157 302.607V302.593ZM271.082 300.106C270.46 300.41 270.46 300.106 270.764 299.485C270.764 299.273 270.663 299.167 270.46 299.167C270.157 299.485 269.839 300.106 270.157 300.106C270.46 301.046 271.4 301.046 272.022 300.106C272.022 299.803 271.718 299.803 271.096 300.106H271.082ZM272.643 296.998C272.022 296.377 272.022 295.755 272.947 296.059C273.568 296.059 273.886 296.059 274.19 295.755C274.493 295.452 274.19 295.134 273.568 295.452C272.643 295.755 272.643 295.452 273.265 293.89C274.204 292.329 275.129 292.329 274.508 293.89C274.508 294.208 275.129 293.269 276.069 291.404C277.312 289.539 277.934 287.978 277.63 287.675C277.327 287.053 279.191 283.006 279.813 283.324C279.813 283.324 280.435 283.324 280.435 282.702C280.435 282.08 280.435 282.08 280.117 282.08C279.813 282.398 279.813 282.08 279.813 281.777C280.117 281.155 280.435 280.837 281.056 281.155C281.258 281.155 281.258 280.948 281.056 280.534C281.056 280.23 281.056 279.609 281.36 279.609C281.663 279.609 281.981 278.987 281.981 278.365C281.981 278.047 283.224 274.939 284.786 271.528C286.029 268.42 288.212 263.751 289.455 260.643C290.394 257.839 291.637 255.352 291.941 255.67C292.259 255.974 291.941 255.67 291.941 255.352C291.637 254.731 291.637 254.109 291.319 254.109C291.319 254.109 290.38 256.914 289.137 259.704C287.894 262.811 283.542 272.135 279.191 280.837C272.658 293.89 271.414 296.377 272.354 297.316C272.768 297.731 272.667 297.832 272.05 297.62C271.429 297.62 271.125 297.62 271.429 297.924C271.732 298.545 273.294 298.545 273.294 297.924C273.294 297.62 272.99 297.302 272.672 296.998H272.643ZM276.676 287.357C277.601 287.357 277.298 288.6 276.373 289.221C276.055 289.525 275.751 290.161 276.055 290.465C276.055 290.768 276.055 291.086 275.751 291.086C275.129 291.086 275.129 290.783 275.129 290.783C275.129 290.161 276.373 287.357 276.691 287.357H276.676ZM290.047 293.89C293.155 289.539 295.338 285.81 295.338 285.81C294.398 285.81 282.588 302.593 280.724 306.64C278.237 311.309 276.055 315.964 276.373 315.66C276.676 315.357 278.541 312.234 280.724 308.823C282.892 305.093 286.939 298.56 290.047 293.905V293.89ZM278.541 285.795C278.127 286.836 278.228 286.937 278.844 286.099C279.162 285.477 279.466 284.856 279.466 284.538C279.466 283.613 279.466 284.234 278.526 285.781L278.541 285.795ZM289.426 291.708C288.183 292.329 287.865 292.633 288.501 292.633C288.501 292.633 289.122 292.329 289.426 291.708C289.84 291.081 289.84 291.081 289.426 291.708ZM292.852 287.357C294.413 285.492 295.338 284.249 295.656 284.87C295.96 285.174 296.899 284.552 297.839 283.309L299.4 281.141L297.535 282.702C295.049 284.885 295.671 283.945 297.853 281.141C299.096 279.898 299.718 278.958 299.414 279.58C299.111 281.141 299.414 280.823 300.976 278.958C302.219 277.093 302.219 276.775 300.976 278.018C300.354 278.64 299.732 278.958 299.732 278.336C299.732 278.336 300.354 277.397 300.976 276.775C301.597 276.472 302.219 276.154 302.219 276.472C302.219 276.472 302.522 276.472 303.158 275.85C304.402 274.911 305.023 273.667 303.78 274.289C303.158 274.593 303.158 274.289 303.476 273.667C303.78 273.364 304.098 273.364 304.416 273.667C304.72 273.667 307.524 270.559 310.632 266.83C313.74 262.782 316.848 258.749 317.787 257.81C318.712 256.567 319.03 256.567 318.409 256.87C317.469 257.492 315.604 259.675 313.74 261.843C312.179 264.026 310.314 265.572 310.01 265.269C310.01 265.269 307.206 268.073 304.098 271.803C298.186 279.262 290.105 290.45 290.423 290.45L292.91 287.342L292.852 287.357ZM295.642 273.06C295.02 273.682 294.702 274.303 294.702 274.303C294.702 275.229 295.02 274.925 295.642 273.682C296.056 272.853 296.056 272.646 295.642 273.06ZM302.479 274.607C303.101 274.303 303.101 274.607 303.101 274.911C303.101 275.214 303.101 275.532 302.479 275.85C302.277 275.85 302.175 275.749 302.175 275.547C302.175 275.229 302.175 274.925 302.479 274.607ZM306.208 270.878C306.512 270.878 306.512 271.181 306.208 271.817C305.905 272.121 305.269 272.742 304.647 272.742C304.344 272.742 304.647 272.121 304.951 271.817C305.254 271.196 305.89 270.878 306.194 270.878H306.208ZM308.391 267.466C309.013 266.844 309.316 266.223 309.316 266.844C309.316 267.466 307.452 270.27 307.148 269.649C307.148 269.345 307.77 268.406 308.391 267.466ZM310.574 261.554C310.574 261.554 309.649 262.493 309.013 263.115C308.073 264.055 307.77 264.676 307.77 264.676C308.073 264.676 308.391 264.055 309.331 263.115C310.27 262.175 310.574 261.554 310.574 261.554ZM316.79 291.708C316.79 291.39 316.79 291.086 316.486 291.086L315.243 293.572C314.622 295.437 314.304 296.059 314 295.437C313.696 294.816 313.378 295.119 313.696 296.059C313.696 296.68 313.075 300.41 312.135 304.457C310.574 310.673 309.331 317.207 310.27 316.267C310.574 315.964 311.21 313.463 311.832 310.052C312.771 305.079 315.561 295.437 316.804 291.708H316.79ZM315.85 304.457C315.229 304.154 313.682 313.159 313.682 314.403C313.682 316.267 313.985 314.706 314.925 309.734C315.547 306.929 315.85 304.443 315.85 304.443V304.457ZM316.79 289.221C316.486 288.6 316.486 287.978 316.79 287.66V287.964C316.79 288.585 317.411 288.585 317.729 288.585C318.047 288.585 318.033 288.282 318.033 287.964C317.729 287.342 317.729 287.024 318.033 287.024C318.337 287.024 318.337 286.403 318.337 285.781C318.64 283.295 318.64 281.734 319.276 281.112C319.58 280.794 320.519 278.004 322.081 274.578C323.324 271.152 325.188 267.423 325.506 265.876C327.068 263.072 327.371 261.525 327.068 261.525C327.068 261.525 327.371 260.903 327.993 260.282C328.311 259.978 328.614 259.342 328.311 259.039C327.371 258.417 317.122 284.841 317.426 285.781C317.744 286.403 317.426 286.403 317.122 286.403C316.819 286.085 315.879 287.646 315.258 289.829C313.696 294.18 313.696 296.044 315.258 292.315C315.879 290.754 316.197 289.829 316.819 290.147C317.758 290.45 317.44 290.45 316.819 289.207L316.79 289.221ZM317.411 297.62C316.79 298.863 316.486 300.728 316.168 301.971C315.956 303.214 316.163 303.113 316.79 301.667C317.093 300.424 317.411 298.56 317.729 297.316C317.932 296.073 317.826 296.174 317.411 297.62ZM323.309 251.29C323.309 251.29 322.066 252.23 321.126 253.473C319.883 254.413 319.262 255.338 319.262 255.338C319.565 255.338 320.505 254.413 321.748 253.473C322.673 252.23 323.309 251.29 323.309 251.29ZM321.141 332.443C319.58 333.383 319.58 334.004 321.141 334.004C321.762 334.004 322.384 333.383 322.384 333.065C322.688 332.125 322.384 331.821 321.141 332.443ZM326.735 247.257C326.417 247.257 325.796 247.879 325.174 248.501C324.87 249.122 324.249 249.744 324.552 249.744C324.856 249.744 325.174 249.122 325.796 248.501C326.417 247.879 327.039 247.257 326.735 247.257ZM331.708 241.345C331.708 241.345 331.086 242.27 330.147 243.21L328.903 244.453C329.207 244.453 330.147 243.831 330.768 243.21C331.693 242.27 332.011 241.345 331.693 241.345H331.708ZM330.161 307.565C328.918 308.49 328.918 308.808 329.221 308.808C329.525 308.808 329.843 308.49 330.161 307.869C330.787 307.242 330.787 307.141 330.161 307.565ZM330.783 240.102C328.918 241.967 328.6 242.588 329.843 241.967C330.147 241.663 331.086 241.027 331.708 239.798C332.334 238.758 332.026 238.859 330.783 240.102ZM330.465 257.506C330.262 258.133 330.368 258.234 330.783 257.81C331.086 257.188 331.404 257.188 331.086 256.87C330.783 256.567 330.783 256.87 330.465 257.492V257.506ZM336.998 236.054C336.073 236.676 335.437 237.616 334.83 237.616C334.223 237.616 334.209 237.919 334.209 237.919C334.83 238.223 334.209 238.859 333.587 239.784C332.965 240.406 332.344 241.027 332.647 241.027C332.647 241.027 334.209 239.784 335.755 237.919C337.316 236.358 337.62 235.433 336.998 236.054ZM334.194 250.047C333.891 250.047 333.891 250.365 333.891 250.987C333.891 251.608 333.891 251.608 334.512 250.365C334.83 250.047 334.512 249.744 334.209 250.047H334.194ZM349.112 287.978C348.187 288.918 347.869 289.221 348.187 289.221C348.505 289.221 348.808 288.918 349.112 288.282C349.738 287.655 349.738 287.554 349.112 287.978ZM356.889 276.79C356.889 276.79 356.267 277.108 355.328 278.033C354.388 278.973 354.388 279.594 354.388 279.594C354.706 279.594 355.01 278.973 355.949 278.033C356.889 277.093 357.193 276.79 356.875 276.79H356.889ZM360.315 289.843C360.937 289.221 361.255 288.6 361.255 288.6C360.937 288.6 360.315 289.221 359.693 289.843C359.072 290.465 359.072 291.086 359.072 291.086L360.315 289.843ZM373.99 280.519C373.99 281.459 374.611 283.324 374.929 282.702C374.929 282.702 374.929 282.08 374.626 281.141C374.308 280.519 374.004 280.201 374.004 280.519H373.99Z" fill="white"/>
<path d="M451.399 344.253C451.081 343.95 450.777 343.632 450.777 343.95C450.777 344.268 449.838 343.01 449.838 342.389C449.838 342.085 449.534 341.449 449.216 341.146C448.898 340.842 448.912 340.524 449.216 340.842C449.216 340.842 449.52 340.842 449.52 340.22C449.52 339.917 449.216 339.917 448.898 339.917C448.276 340.22 448.276 339.917 448.276 339.917C448.276 339.714 448.175 339.507 447.973 339.295C445.79 338.356 445.168 335.248 446.73 332.458C447.351 330.897 449.216 328.728 449.216 329.35C449.216 329.35 449.52 329.35 450.156 328.728C451.399 327.789 452.642 326.864 453.885 326.864C455.128 327.167 456.993 326.242 457.311 325.62C457.615 325.317 457.311 325.317 457.007 325.317C456.386 325.62 455.764 325.939 455.446 325.939C454.825 326.257 454.825 325.939 454.825 325.317C455.128 324.377 454.203 324.074 453.263 324.074C452.324 324.377 452.324 324.074 452.642 323.452C452.642 323.134 452.96 322.831 452.96 322.513C452.642 322.209 457.311 320.026 459.176 319.708C459.797 319.708 461.04 320.012 461.662 320.012C462.284 320.315 463.223 320.315 463.527 320.315C464.452 320.619 465.392 321.559 466.635 322.802C467.574 323.741 468.499 324.666 468.196 324.363C467.892 324.059 468.196 323.741 468.196 323.741C468.196 323.741 470.379 328.092 470.379 328.714L470.075 328.396C469.757 328.396 470.075 328.714 470.379 329.336C471 330.275 471 330.579 471 333.687C470.697 337.416 470.379 338.659 467.574 341.767C464.148 346.118 459.797 347.983 456.386 347.361C454.825 347.043 452.035 345.179 451.413 344.253H451.399ZM448.912 330.261C449.534 329.639 449.216 329.639 448.594 329.957C447.973 330.579 446.73 333.065 446.426 334.626C446.426 335.566 446.426 335.869 446.73 335.248C447.033 334.93 447.351 333.687 447.669 332.761C447.973 331.518 448.594 330.579 448.912 330.275V330.261ZM455.75 331.2C455.128 331.2 452.642 335.248 452.642 336.491C452.642 337.431 453.263 336.809 454.825 333.687C455.446 332.443 455.764 331.2 455.764 331.2H455.75ZM455.432 328.714C455.114 328.714 454.81 329.018 454.492 329.336C454.174 329.654 453.871 329.957 454.189 329.957C454.189 329.957 454.492 329.639 454.81 329.336C455.128 329.032 455.432 328.714 455.432 328.714ZM458.858 332.125C459.479 331.504 459.479 331.186 459.161 331.186C459.161 331.186 458.858 331.186 458.54 331.504C458.54 331.504 458.236 331.807 457.6 331.807C457.297 331.807 456.357 332.747 456.039 333.99L455.417 335.855L456.66 334.915C457.282 334.294 457.904 333.672 457.904 333.354C457.904 333.354 458.525 332.733 458.843 332.111L458.858 332.125ZM460.722 339.281C460.404 339.281 459.479 339.902 458.54 340.206C456.357 341.449 456.979 341.449 459.161 340.524C460.722 339.902 461.344 339.281 460.722 339.281ZM459.797 324.045C459.494 324.045 459.176 324.348 458.858 324.348C458.655 324.56 458.655 324.666 458.858 324.666C458.858 324.666 459.161 324.666 459.479 324.348C459.797 324.03 460.101 324.045 459.783 324.045H459.797ZM468.803 333.369C468.485 332.429 468.485 332.747 466.938 335.855C465.377 339.281 463.209 342.071 462.269 342.071C461.951 342.071 461.648 342.071 461.951 342.374C462.269 342.678 463.512 341.753 465.377 339.888C467.56 338.023 469.107 334.294 468.803 333.354V333.369ZM469.743 329.639C469.439 330.261 469.439 330.882 469.743 330.579C469.955 330.579 470.061 330.68 470.061 330.882C470.061 331.186 470.364 331.186 470.364 331.186V330.261C470.061 329.639 470.061 329.321 469.743 329.639Z" fill="url(#paint1_linear_198_72)"/>
<defs>
<linearGradient id="paint0_linear_198_72" x1="40.6851" y1="121.72" x2="280.963" y2="121.72" gradientUnits="userSpaceOnUse">
<stop stop-color="#00FF8F"/>
<stop offset="1" stop-color="#00A1FF"/>
</linearGradient>
<linearGradient id="paint1_linear_198_72" x1="445.861" y1="319.708" x2="471" y2="319.708" gradientUnits="userSpaceOnUse">
<stop stop-color="#00FF8F"/>
<stop offset="1" stop-color="#00A1FF"/>
</linearGradient>
</defs>
</svg>
