<svg width="270" height="270" viewBox="0 0 270 270" fill="none" xmlns="http://www.w3.org/2000/svg">
<g clip-path="url(#clip0_235_75)">
<path d="M269.782 0H0V269.782H269.782V0Z" fill="url(#paint0_diamond_235_75)"/>
<g filter="url(#filter0_d_235_75)">
<path d="M180.029 106.193C180.052 112.488 178.373 118.672 175.172 124.098C173.636 126.714 171.77 129.12 169.626 131.278C162.993 137.971 153.947 141.726 144.525 141.704H144.263V141.816H111.682C107.807 141.786 104.637 144.897 104.599 148.779V148.892C104.599 149.851 104.779 150.803 105.147 151.687C105.844 153.404 107.2 154.768 108.909 155.48C109.786 155.847 110.73 156.034 111.675 156.019H125.893C128.741 156.004 131.566 156.566 134.19 157.676C139.309 159.827 143.379 163.897 145.53 169.016C147.741 174.315 147.741 180.281 145.53 185.58C144.458 188.105 142.914 190.399 140.973 192.34C139.024 194.281 136.723 195.833 134.19 196.919C131.566 198.051 128.741 198.621 125.893 198.606H94.3463V184.395H125.893C129.805 184.395 132.976 181.232 132.976 177.32C132.976 173.408 129.813 170.237 125.9 170.23H111.675C108.834 170.252 106.016 169.675 103.408 168.551C98.3112 166.362 94.2489 162.293 92.0679 157.181C90.9361 154.565 90.3665 151.74 90.3815 148.884C90.359 146.044 90.9361 143.225 92.0679 140.617C94.2564 135.528 98.3187 131.466 103.408 129.277C106.024 128.146 108.834 127.576 111.682 127.591H142.292L144.525 127.471C147.373 127.493 150.199 126.924 152.822 125.815C157.941 123.671 162.011 119.594 164.162 114.475C165.271 111.851 165.834 109.033 165.819 106.185C165.834 103.345 165.271 100.526 164.162 97.9182C163.09 95.3924 161.539 93.099 159.605 91.1578C157.657 89.2091 155.356 87.6576 152.822 86.5708C150.207 85.4391 147.381 84.8695 144.525 84.892H137.443V124.083H123.127V70.674H144.518C147.711 70.659 150.881 71.0862 153.954 71.9331C159.89 73.5745 165.286 76.7299 169.626 81.092C171.77 83.2505 173.628 85.6639 175.165 88.2722C178.365 93.6986 180.037 99.8819 180.022 106.178L180.029 106.193Z" fill="white"/>
<path d="M175.413 188.338C175.421 189.544 175.181 190.743 174.694 191.853C174.229 192.917 173.57 193.884 172.738 194.701C171.898 195.518 170.916 196.17 169.837 196.634C167.574 197.594 165.018 197.594 162.754 196.634C160.596 195.72 158.872 194.011 157.95 191.853C156.991 189.612 156.991 187.086 157.95 184.845C158.864 182.679 160.588 180.955 162.754 180.041C165.018 179.081 167.574 179.081 169.837 180.041C170.916 180.498 171.898 181.157 172.738 181.974C173.57 182.799 174.237 183.773 174.694 184.845C175.173 185.947 175.413 187.138 175.413 188.338Z" fill="#CB4A68"/>
</g>
</g>
<defs>
<filter id="filter0_d_235_75" x="75.7809" y="56.0736" width="118.848" height="157.133" filterUnits="userSpaceOnUse" color-interpolation-filters="sRGB">
<feFlood flood-opacity="0" result="BackgroundImageFix"/>
<feColorMatrix in="SourceAlpha" type="matrix" values="0 0 0 0 0 0 0 0 0 0 0 0 0 0 0 0 0 0 127 0" result="hardAlpha"/>
<feOffset/>
<feGaussianBlur stdDeviation="7.3"/>
<feComposite in2="hardAlpha" operator="out"/>
<feColorMatrix type="matrix" values="0 0 0 0 0.0416667 0 0 0 0 0.0295139 0 0 0 0 0.0416667 0 0 0 1 0"/>
<feBlend mode="normal" in2="BackgroundImageFix" result="effect1_dropShadow_235_75"/>
<feBlend mode="normal" in="SourceGraphic" in2="effect1_dropShadow_235_75" result="shape"/>
</filter>
<radialGradient id="paint0_diamond_235_75" cx="0" cy="0" r="1" gradientUnits="userSpaceOnUse" gradientTransform="translate(40.2438 35.027) rotate(45) scale(445.821 503.48)">
<stop stop-color="#240F24"/>
<stop offset="1"/>
</radialGradient>
<clipPath id="clip0_235_75">
<rect width="270" height="270" fill="white"/>
</clipPath>
</defs>
</svg>
