<svg width="270" height="270" viewBox="0 0 270 270" fill="none" xmlns="http://www.w3.org/2000/svg">
<rect width="270" height="270" fill="url(#paint0_radial_241_107)"/>
<path d="M99.1357 135.291C98.7985 135.338 98.4819 135.482 98.2242 135.704C93.5845 139.79 90.2939 144.716 88.8491 150.764C87.6185 155.913 88.3933 160.98 89.7834 165.959C90.8772 169.886 92.1671 173.764 93.4569 177.634C96.3761 186.388 96.1163 195.256 94.5097 204.177C94.3092 205.283 93.9036 206.353 93.5276 207.668C94.3409 207.034 95.0245 206.25 95.542 205.36C97.4884 202.294 98.9919 198.972 100.008 195.49C100.988 192.084 101.565 188.655 101.396 185.103C101.214 181.282 100.12 177.677 98.9124 174.093C97.2579 169.187 95.1136 164.442 94.038 159.336C92.5545 152.315 93.1264 145.579 96.7316 139.245C97.4927 137.901 98.3268 136.598 99.1289 135.277L99.1563 135.254L99.1357 135.291Z" fill="#FEFEFE"/>
<path d="M125.652 62.5513C125.053 63.0053 124.433 63.4344 123.859 63.9134C117.934 68.9305 113.014 74.7786 109.274 81.58C105.229 88.9354 103.044 96.7744 103.012 105.21C102.983 112.555 104.548 119.615 106.585 126.596C109.137 135.343 112.46 143.849 115.092 152.562C116.514 157.271 117.742 162.027 118.219 166.939C118.75 172.406 118.642 177.893 118.565 183.373C118.488 188.722 117.847 194 116.352 199.156C115.454 202.252 114.283 205.258 113.23 208.393C114.475 207.56 115.183 206.377 115.988 205.294C120.064 199.78 123.26 193.671 125.463 187.185C127.668 180.821 128.901 174.163 129.12 167.434C129.405 158.742 127.525 150.381 125.075 142.135C122.468 133.343 119.105 124.798 116.279 116.076C115.115 112.482 114.062 108.852 113.415 105.122C112.608 100.459 112.756 95.7937 113.346 91.1171C114.278 83.7127 116.773 76.5885 120.666 70.2132C122.245 67.5979 124.05 65.1416 125.652 62.5513Z" fill="#FEFEFE"/>
<path d="M129.289 75.3574L130.586 74.867C133.031 73.9452 135.547 73.5049 138.165 73.8068C143.741 74.4493 148.144 77.4005 152.159 81.0328C156.774 85.1919 160.472 90.1135 163.667 95.4099C164.073 96.091 164.467 96.2295 165.219 96.057C169.223 95.1488 173.145 93.9774 176.891 92.2953C182.132 89.9456 186.943 87.0034 190.673 82.5334C191.305 81.7797 191.585 81.1713 190.48 80.581C190.092 80.379 189.796 79.9817 189.472 79.673C184.293 74.8443 178.443 71.0939 171.727 68.7352C167.434 67.2278 162.99 66.6171 158.467 66.2834C151.487 65.768 144.671 66.1767 138.226 69.1983C134.993 70.7102 132.01 72.6058 129.289 75.3574Z" fill="#FEFEFE"/>
<path d="M126.094 83.0444C126.379 88.0093 127.678 92.6654 130.285 96.904C134.006 102.961 139.327 107.19 145.703 110.223C151.721 113.084 158.056 114.764 164.665 115.547C165.87 115.69 166.119 115.213 166.303 114.21C167.265 108.988 166.244 104.046 164.2 99.2536C163.448 97.4896 163.407 97.51 161.568 97.8415C161.01 97.9413 160.445 98.0095 159.884 98.0958C154.13 98.9812 148.401 99.0901 142.743 97.4782C137.255 95.9186 132.668 93.0378 129.227 88.4133C127.978 86.7334 127.074 84.8923 126.094 83.0444Z" fill="#FEFEFE"/>
<path d="M99.6657 134.596L99.5645 134.692L99.6424 134.712L99.6657 134.596Z" fill="#FEFEFE"/>
<path d="M125.653 62.5513C124.058 65.137 122.246 67.5979 120.667 70.211C116.774 76.5862 114.279 83.7103 113.348 91.1148C112.757 95.7915 112.609 100.457 113.416 105.12C114.063 108.85 115.116 112.48 116.28 116.073C119.106 124.795 122.47 133.34 125.077 142.133C127.519 150.378 129.406 158.739 129.121 167.432C128.902 174.161 127.669 180.819 125.464 187.182C123.26 193.672 120.061 199.785 115.982 205.301C115.177 206.384 114.469 207.571 113.224 208.401C114.277 205.265 115.449 202.27 116.346 199.163C117.841 194.007 118.482 188.72 118.559 183.38C118.637 177.9 118.744 172.413 118.213 166.946C117.737 162.034 116.508 157.277 115.086 152.569C112.454 143.847 109.132 135.35 106.58 126.603C104.542 119.622 102.977 112.561 103.006 105.217C103.038 96.7813 105.224 88.9423 109.268 81.5868C113.008 74.7763 117.928 68.9374 123.853 63.9202C124.434 63.4344 125.054 63.0076 125.653 62.5513Z" fill="url(#paint1_linear_241_107)"/>
<path d="M129.289 75.3575C132.01 72.6128 134.986 70.7172 138.226 69.2007C144.671 66.1791 151.487 65.7705 158.467 66.2858C162.99 66.6195 167.434 67.2302 171.727 68.7377C178.443 71.0964 184.293 74.8467 189.472 79.6754C189.805 79.9864 190.092 80.3836 190.48 80.5835C191.594 81.1669 191.305 81.7821 190.673 82.5359C186.943 87.0036 182.121 89.9458 176.891 92.2976C173.145 93.9799 169.223 95.1422 165.219 96.0593C164.467 96.2319 164.08 96.0889 163.667 95.4124C160.477 90.1115 156.774 85.1965 152.159 81.0352C148.144 77.4165 143.741 74.4517 138.165 73.807C135.547 73.5005 133.031 73.9454 130.586 74.8671L129.289 75.3575Z" fill="url(#paint2_linear_241_107)"/>
<path d="M126.094 83.0444C127.074 84.8832 127.978 86.7334 129.227 88.4133C132.668 93.0378 137.255 95.9186 142.743 97.4782C148.401 99.0901 154.137 98.9812 159.884 98.0958C160.445 98.0095 161.01 97.9413 161.568 97.8415C163.407 97.51 163.448 97.4896 164.2 99.2536C166.251 104.046 167.265 108.984 166.303 114.21C166.119 115.213 165.87 115.69 164.665 115.547C158.056 114.766 151.721 113.084 145.703 110.223C139.322 107.19 134.006 102.958 130.285 96.904C127.678 92.6654 126.379 88.0093 126.094 83.0444Z" fill="url(#paint3_linear_241_107)"/>
<path d="M99.1192 135.291C98.3193 136.61 97.4829 137.913 96.7219 139.257C93.135 145.591 92.5539 152.317 94.0374 159.355C95.113 164.454 97.2574 169.198 98.9117 174.111C100.12 177.696 101.213 181.301 101.396 185.122C101.564 188.674 100.988 192.114 100.008 195.508C98.9913 198.991 97.4878 202.313 95.5414 205.379C95.0239 206.269 94.3402 207.053 93.5269 207.687C93.903 206.371 94.3085 205.301 94.5091 204.195C96.1043 195.274 96.3754 186.406 93.4563 177.653C92.1665 173.793 90.8767 169.904 89.7829 165.977C88.3951 160.998 87.618 155.931 88.8485 150.783C90.2933 144.735 93.584 139.808 98.2236 135.722C98.4813 135.5 98.7978 135.357 99.1351 135.309L99.1192 135.291Z" fill="url(#paint4_linear_241_107)"/>
<path d="M99.6657 134.596L99.6424 134.712L99.5645 134.692L99.6657 134.596Z" fill="#2594CF"/>
<path d="M99.1417 135.321L99.1804 135.266L99.1289 135.313L99.1417 135.321Z" fill="#2594CF"/>
<defs>
<radialGradient id="paint0_radial_241_107" cx="0" cy="0" r="1" gradientUnits="userSpaceOnUse" gradientTransform="translate(66 226) rotate(-46.9162) scale(285.477)">
<stop stop-color="#FEF6FF"/>
<stop offset="1" stop-color="#F9C8FF"/>
</radialGradient>
<linearGradient id="paint1_linear_241_107" x1="116.082" y1="208.401" x2="116.082" y2="62.5513" gradientUnits="userSpaceOnUse">
<stop offset="0.16" stop-color="#EB6F98"/>
<stop offset="0.33" stop-color="#EA6795"/>
<stop offset="0.61" stop-color="#E7538D"/>
<stop offset="0.93" stop-color="#E23180"/>
<stop offset="1" stop-color="#E1297D"/>
</linearGradient>
<linearGradient id="paint2_linear_241_107" x1="160.26" y1="66.0906" x2="160.26" y2="96.1184" gradientUnits="userSpaceOnUse">
<stop stop-color="#EB6F98"/>
<stop offset="1" stop-color="#E1297D"/>
</linearGradient>
<linearGradient id="paint3_linear_241_107" x1="146.38" y1="115.572" x2="146.38" y2="83.0444" gradientUnits="userSpaceOnUse">
<stop stop-color="#18AADD"/>
<stop offset="0.74" stop-color="#2685C3"/>
</linearGradient>
<linearGradient id="paint4_linear_241_107" x1="94.8305" y1="207.674" x2="94.8305" y2="135.291" gradientUnits="userSpaceOnUse">
<stop offset="0.39" stop-color="#18AADD"/>
<stop offset="0.92" stop-color="#247BB4"/>
</linearGradient>
</defs>
</svg>
