<svg width="270" height="270" viewBox="0 0 270 270" fill="none" xmlns="http://www.w3.org/2000/svg">
<rect width="270" height="270" fill="#FEF6FF"/>
<path d="M68.2049 132.326C67.9248 132.366 67.6618 132.485 67.4476 132.669C63.5932 136.053 60.8594 140.133 59.6591 145.142C58.6368 149.406 59.2805 153.603 60.4353 157.726C61.344 160.979 62.4157 164.191 63.4872 167.396C65.9124 174.646 65.6965 181.991 64.3618 189.379C64.1952 190.296 63.8582 191.182 63.5459 192.271C64.2216 191.746 64.7895 191.097 65.2194 190.36C66.8364 187.821 68.0854 185.069 68.93 182.185C69.744 179.364 70.223 176.524 70.083 173.582C69.9315 170.418 69.0228 167.432 68.0194 164.463C66.6449 160.4 64.8635 156.47 63.9699 152.242C62.7375 146.426 63.2126 140.848 66.2077 135.602C66.84 134.489 67.5329 133.409 68.1992 132.315L68.222 132.296L68.2049 132.326Z" fill="#FEFEFE"/>
<path d="M90.2346 72.0823C89.7367 72.4583 89.2218 72.8137 88.7447 73.2104C83.8225 77.3657 79.7352 82.2092 76.6285 87.8422C73.2682 93.9342 71.4527 100.427 71.4261 107.413C71.4015 113.496 72.7021 119.344 74.3945 125.125C76.5149 132.37 79.2752 139.415 81.4618 146.631C82.6431 150.531 83.6635 154.47 84.0592 158.539C84.5003 163.066 84.4113 167.611 84.3469 172.15C84.2826 176.579 83.7506 180.951 82.5087 185.221C81.7628 187.785 80.7897 190.275 79.9151 192.871C80.9487 192.181 81.5375 191.202 82.2058 190.305C85.5921 185.738 88.2472 180.678 90.0775 175.306C91.9097 170.036 92.9339 164.521 93.1161 158.949C93.3527 151.749 91.7909 144.824 89.7557 137.995C87.5899 130.713 84.7956 123.636 82.4481 116.412C81.4807 113.436 80.606 110.429 80.0684 107.34C79.3983 103.478 79.5213 99.6143 80.0116 95.7411C80.7857 89.6086 82.8579 83.7082 86.0925 78.428C87.4044 76.262 88.9038 74.2276 90.2346 72.0823Z" fill="#FEFEFE"/>
<path d="M93.2559 82.6887L94.333 82.2825C96.3644 81.5191 98.4545 81.1544 100.63 81.4045C105.262 81.9365 108.92 84.3808 112.256 87.3891C116.089 90.8338 119.162 94.91 121.816 99.2966C122.153 99.8607 122.481 99.9754 123.105 99.8325C126.432 99.0803 129.69 98.1102 132.802 96.717C137.156 94.7709 141.153 92.3341 144.252 88.632C144.776 88.0078 145.009 87.5039 144.091 87.015C143.769 86.8476 143.523 86.5186 143.254 86.263C138.951 82.2637 134.091 79.1576 128.512 77.204C124.945 75.9555 121.254 75.4498 117.496 75.1734C111.697 74.7466 106.035 75.085 100.681 77.5876C97.9944 78.8398 95.5163 80.4097 93.2559 82.6887Z" fill="#FEFEFE"/>
<path d="M90.6016 89.0552C90.8383 93.1672 91.9174 97.0235 94.0832 100.534C97.1747 105.55 101.595 109.053 106.892 111.565C111.892 113.934 117.155 115.326 122.645 115.974C123.647 116.093 123.853 115.698 124.006 114.867C124.805 110.542 123.957 106.449 122.259 102.48C121.634 101.019 121.6 101.036 120.072 101.31C119.609 101.393 119.139 101.45 118.673 101.521C113.893 102.254 109.134 102.345 104.433 101.01C99.8743 99.7178 96.0634 97.3318 93.2047 93.5018C92.1672 92.1105 91.4156 90.5856 90.6016 89.0552Z" fill="#FEFEFE"/>
<path d="M116.876 148.656C116.537 146.649 116.391 144.614 116.44 142.579C116.469 140.656 116.819 140.267 118.712 139.99C120.452 139.736 122.018 139.178 123.053 137.644C123.225 137.388 123.507 137.127 123.256 136.811C123.034 136.534 122.724 136.734 122.47 136.826C121.189 137.28 119.822 137.44 118.47 137.294C116.113 137.083 113.794 136.626 111.384 136.766C109.076 136.901 107.058 137.548 105.35 139.022C103.179 140.902 102.919 143.79 104.602 146.138C105.462 147.336 106.967 147.818 108.271 147.31C109.752 146.733 111.037 144.907 110.863 143.615C110.835 143.403 110.838 143.13 110.587 143.062C110.28 142.98 110.274 143.301 110.168 143.469C110.116 143.582 110.071 143.699 110.034 143.818C109.483 144.967 108.235 145.522 106.656 145.322C105.503 145.176 104.521 144.382 104.307 143.442C104.008 142.109 104.508 141.086 105.822 140.327C107.137 139.567 108.642 139.193 110.163 139.247C111.842 139.291 113.466 139.674 115.102 140C116.238 140.221 116.289 140.235 115.496 141.109C113.305 143.523 112.883 146.317 113.36 149.431C113.739 151.864 114.117 154.319 113.51 156.803C112.692 160.137 109.411 161.626 106.482 159.962C104.08 158.597 102.654 154.133 103.813 151.617C104.57 149.957 105.986 149.25 107.434 149.801C108.826 150.329 109.595 152.08 109.129 153.658C108.868 154.539 108.311 154.915 107.361 154.842C107.236 154.833 107.113 154.801 106.982 154.791C106.751 154.774 106.516 154.81 106.429 155.051C106.329 155.333 106.59 155.414 106.768 155.532C107.209 155.825 107.728 155.837 108.224 155.887C109.572 156.027 111.024 155.286 111.484 154.254C111.771 153.62 111.85 152.913 111.707 152.233C111.564 151.553 111.209 150.935 110.691 150.469C109.818 149.639 108.691 149.124 107.489 149.004C104.852 148.739 102.667 149.551 101.217 151.798C99.824 153.958 100.256 156.145 101.596 158.159C104.856 163.085 112.955 162.512 115.984 157.19C116.982 155.442 117.08 153.563 116.961 151.636C116.925 151.072 116.915 150.508 117.213 149.991C117.51 149.474 117.94 149.267 118.489 149.489C118.956 149.677 119.138 150.053 118.926 150.563C118.843 150.751 118.706 150.999 118.979 151.14C119.295 151.302 119.437 151.02 119.566 150.818C120.085 149.999 120.564 149.154 121.101 148.346C121.499 147.748 121.313 147.445 120.689 147.246C119.17 146.755 117.981 147.24 116.876 148.656Z" fill="#FEFEFE"/>
<path d="M175.178 145.956C175.439 145.99 175.574 145.785 175.728 145.644C176.093 145.308 176.405 144.905 176.795 144.603C177.408 144.125 177.31 143.796 176.771 143.286C175.178 141.805 175.201 141.782 173.646 143.333C173.456 143.521 173.176 143.676 173.194 144.005C173.208 144.236 174.955 145.934 175.178 145.956Z" fill="#FEFEFE"/>
<path d="M68.6446 131.751L68.5605 131.831L68.6253 131.848L68.6446 131.751Z" fill="#FEFEFE"/>
<path d="M90.2346 72.0823C88.9094 74.2238 87.4043 76.262 86.0923 78.4262C82.8579 83.7063 80.7856 89.6067 80.0115 95.7392C79.5211 99.6125 79.3981 103.476 80.0683 107.338C80.606 110.428 81.4806 113.434 82.448 116.41C84.7955 123.634 87.5898 130.711 89.7556 137.993C91.7851 144.822 93.3526 151.747 93.1159 158.947C92.9338 164.52 91.9097 170.034 90.0775 175.304C88.2461 180.679 85.589 185.742 82.2 190.311C81.5317 191.207 80.9429 192.191 79.9092 192.878C80.7838 190.281 81.757 187.8 82.5029 185.227C83.7448 180.957 84.2768 176.578 84.3412 172.155C84.4055 167.616 84.4944 163.072 84.0534 158.544C83.6577 154.476 82.6373 150.536 81.456 146.637C79.2693 139.413 76.5091 132.375 74.3888 125.131C72.6963 119.349 71.3957 113.502 71.4203 107.419C71.4468 100.432 73.2623 93.9398 76.6227 87.8479C79.7293 82.2073 83.8168 77.3714 88.739 73.216C89.2217 72.8137 89.7367 72.4602 90.2346 72.0823Z" fill="url(#paint0_linear_235_129)"/>
<path d="M93.2559 82.6887C95.5163 80.4155 97.9888 78.8455 100.681 77.5895C106.035 75.087 111.697 74.7485 117.496 75.1753C121.254 75.4517 124.945 75.9575 128.512 77.206C134.091 79.1595 138.951 82.2656 143.254 86.2648C143.531 86.5224 143.769 86.8514 144.091 87.017C145.017 87.5002 144.776 88.0096 144.252 88.634C141.153 92.3343 137.147 94.771 132.802 96.7189C129.69 98.1121 126.432 99.0748 123.105 99.8344C122.481 99.9773 122.159 99.8589 121.816 99.2985C119.166 94.9082 116.089 90.8376 112.256 87.3911C108.92 84.394 105.262 81.9385 100.63 81.4045C98.4545 81.1507 96.3644 81.5192 94.333 82.2825L93.2559 82.6887Z" fill="url(#paint1_linear_235_129)"/>
<path d="M175.191 148.35C175.403 148.914 175.302 149.478 175.304 150.042C175.317 152.424 175.304 154.805 175.319 157.187C175.319 157.67 175.192 158.283 175.743 158.526C176.295 158.768 176.657 158.227 176.994 157.886C179.909 154.937 182.812 151.979 185.703 149.014C186.56 148.139 187.195 148.188 187.892 149.202C188.239 149.729 188.412 150.351 188.386 150.98C188.369 152.954 188.372 154.929 188.386 156.901C188.386 157.194 188.255 157.599 188.641 157.719C188.96 157.821 189.103 157.471 189.282 157.258C191.512 154.615 193.761 151.994 195.96 149.32C196.528 148.624 197.187 148.299 198.015 148.589C198.841 148.878 198.991 149.619 198.982 150.437C198.955 152.785 198.982 155.137 198.982 157.484C198.982 157.879 198.891 158.338 199.397 158.529C199.901 158.721 200.154 158.341 200.436 158.059C202.919 155.57 205.397 153.072 207.87 150.565C209.741 148.662 211.965 148.121 214.441 149.034C217.04 150.003 218.457 151.967 218.67 154.733C218.72 155.38 218.67 156.032 218.67 156.747C219.238 156.57 219.506 156.079 219.89 155.743C220.025 155.624 220.178 155.427 220.367 155.57C220.556 155.713 220.49 155.916 220.416 156.095C220.365 156.208 220.295 156.313 220.21 156.405C218.99 157.758 217.758 159.108 216.347 160.265C214.223 162.01 211.827 162.389 209.4 161.017C207.028 159.682 205.822 157.567 205.932 154.799C205.945 154.491 205.984 154.182 206.013 153.859C205.674 153.752 205.548 153.994 205.376 154.152C203.041 156.298 200.816 158.554 198.617 160.835C198.45 161.022 198.267 161.194 198.069 161.35C197.199 161.978 196.473 161.707 196.28 160.662C196.21 160.197 196.179 159.728 196.186 159.259C196.139 156.754 196.288 154.248 196.107 151.738C196.087 151.469 196.199 151.121 195.881 150.986C195.521 150.83 195.313 151.121 195.109 151.362C192.997 153.869 190.883 156.376 188.765 158.883C188.057 159.721 187.367 160.575 186.649 161.406C186.46 161.626 186.29 162 185.892 161.829C185.54 161.673 185.601 161.305 185.601 160.998C185.601 158.086 185.62 155.169 185.601 152.259C185.601 151.749 185.835 151.033 185.289 150.79C184.687 150.525 184.418 151.272 184.067 151.623C181.228 154.459 178.43 157.319 175.611 160.169C175.172 160.613 174.766 161.098 174.217 161.429C173.505 161.859 173.047 161.724 172.728 160.968C172.571 160.556 172.502 160.117 172.523 159.678C172.531 157.579 172.531 155.48 172.523 153.381V152.112L172.286 152.031L169.537 154.664C167.589 156.531 165.696 158.46 163.668 160.246C161.433 162.218 158.68 162.151 156.813 160.148C155.568 158.81 155.183 157.14 155.369 155.35C155.397 155.077 155.539 154.808 155.369 154.455C154.399 155.406 153.476 156.36 152.497 157.262C151.102 158.559 149.945 160.109 148.277 161.12C145.979 162.514 143.247 162.06 141.583 159.971C141.382 159.723 141.356 159.548 141.583 159.334C141.996 158.947 142.399 158.552 142.817 158.17C143.113 157.901 143.313 157.9 143.529 158.317C143.793 158.886 144.139 159.414 144.557 159.883C145.731 161.094 147.543 161.096 148.93 159.964C150.112 159.001 150.318 157.262 149.455 155.882C148.4 154.19 146.791 153.062 145.358 151.755C144.949 151.379 144.703 151.663 144.411 151.943C141.616 154.786 138.815 157.625 136.008 160.46C135.712 160.785 135.388 161.084 135.042 161.355C134.275 161.908 133.592 161.643 133.338 160.727C133.149 160.082 133.211 159.422 133.204 158.766C133.204 158.432 133.204 158.099 133.204 157.61C132.414 158.377 131.737 159.001 131.095 159.661C129.228 161.577 127.184 162.143 125.353 161.228C124.265 160.675 123.381 159.797 122.826 158.716C122.27 157.636 122.072 156.409 122.259 155.211C122.292 155 122.331 154.792 122.386 154.479C121.481 154.72 121.169 155.608 120.38 155.921C120.12 155.393 120.472 155.072 120.758 154.793C122.403 153.201 123.88 151.435 125.68 150.01C127.114 148.882 128.696 148.303 130.512 149.057C131.809 149.595 132.801 151.257 132.687 152.629C132.661 152.973 131.502 154.417 131.208 154.491C131.147 154.507 131.083 154.503 131.024 154.48C130.965 154.457 130.915 154.416 130.881 154.363C130.82 154.291 130.789 154.199 130.793 154.106C130.797 154.012 130.835 153.924 130.902 153.857C131.167 153.507 131.791 153.338 131.578 152.729C131.325 151.94 130.774 151.28 130.04 150.886C127.666 149.675 124.63 150.134 124.202 153.629C123.861 156.408 125.396 158.823 127.943 159.312C128.842 159.483 129.722 159.409 130.495 158.907C132.102 157.862 133.586 156.756 133.228 154.459C133.075 153.479 133.281 152.449 133.173 151.45C133.066 150.452 133.552 149.848 134.292 149.361C134.826 149.014 135.303 148.143 135.877 148.421C136.369 148.656 136.034 149.574 136.04 150.185C136.063 152.597 136.04 155.01 136.057 157.422C136.057 157.809 135.905 158.283 136.371 158.518C136.905 158.791 137.191 158.319 137.477 158.029C140.632 154.837 143.78 151.635 146.92 148.423C147.096 148.235 147.278 148.068 147.457 147.893C147.637 147.718 147.813 147.618 148.025 147.829C148.198 148.002 148.084 148.152 147.999 148.331C147.408 149.549 147.406 149.835 148.417 150.644C150.5 152.336 151.62 154.383 151.195 157.114C151.195 157.155 151.254 157.208 151.344 157.339C152.217 156.668 152.908 155.835 153.65 155.049C155.271 153.344 156.813 151.559 158.694 150.117C160.787 148.51 163.09 148.026 165.634 148.874C166.524 149.171 166.556 149.292 165.851 149.939C165.758 150.023 165.662 150.097 165.569 150.189C164.674 151.204 163.898 151.465 162.493 150.661C160.127 149.305 157.593 150.896 157.304 153.629C157.029 156.581 158.495 158.823 161.062 159.345C161.696 159.486 162.355 159.47 162.983 159.3C163.609 159.13 164.185 158.811 164.659 158.37C167.364 155.976 169.912 153.415 172.494 150.892C173.371 150.042 174.269 149.219 175.191 148.35ZM210.611 149.954C209.36 149.933 208.435 150.604 207.99 151.834C207.57 152.994 207.602 154.268 208.078 155.406C209.118 158.01 210.699 160.041 213.739 160.432C214.998 160.594 215.927 160.056 216.503 158.945C217.245 157.505 216.959 156.104 216.467 154.681C215.528 151.981 213.096 150.001 210.611 149.954Z" fill="#E72379"/>
<path d="M90.6016 89.0552C91.4156 90.5781 92.1672 92.1105 93.2047 93.5018C96.0634 97.3318 99.8743 99.7178 104.433 101.01C109.134 102.345 113.899 102.254 118.673 101.521C119.139 101.45 119.609 101.393 120.072 101.31C121.6 101.036 121.634 101.019 122.259 102.48C123.963 106.449 124.805 110.539 124.007 114.867C123.853 115.698 123.647 116.093 122.645 115.974C117.155 115.327 111.892 113.934 106.892 111.565C101.591 109.053 97.1747 105.548 94.0832 100.534C91.9174 97.0235 90.8383 93.1672 90.6016 89.0552Z" fill="url(#paint2_linear_235_129)"/>
<path d="M68.1912 132.327C67.5266 133.419 66.8318 134.498 66.1996 135.611C63.2197 140.857 62.7369 146.428 63.9694 152.257C64.863 156.48 66.6445 160.41 68.0189 164.479C69.0222 167.447 69.931 170.433 70.0824 173.598C70.2225 176.54 69.7436 179.389 68.9295 182.2C68.085 185.084 66.8359 187.836 65.2189 190.375C64.7889 191.112 64.221 191.761 63.5453 192.286C63.8578 191.197 64.1947 190.311 64.3613 189.395C65.6865 182.006 65.9118 174.661 63.4866 167.412C62.4151 164.215 61.3436 160.994 60.4349 157.742C59.282 153.618 58.6364 149.422 59.6587 145.157C60.859 140.148 63.5927 136.068 67.4472 132.684C67.6613 132.5 67.9242 132.381 68.2044 132.342L68.1912 132.327Z" fill="url(#paint3_linear_235_129)"/>
<path d="M116.876 148.656C117.976 147.24 119.17 146.755 120.69 147.24C121.315 147.44 121.501 147.742 121.103 148.34C120.565 149.149 120.086 149.993 119.568 150.813C119.439 151.014 119.297 151.296 118.981 151.134C118.708 150.993 118.845 150.758 118.928 150.557C119.14 150.051 118.958 149.673 118.491 149.483C117.942 149.262 117.5 149.498 117.215 149.985C116.929 150.472 116.927 151.059 116.963 151.631C117.082 153.558 116.984 155.436 115.986 157.185C112.957 162.506 104.858 163.079 101.598 158.153C100.273 156.139 99.8334 153.953 101.219 151.792C102.669 149.545 104.854 148.733 107.491 148.998C108.693 149.118 109.82 149.634 110.693 150.463C111.211 150.93 111.566 151.547 111.709 152.227C111.851 152.907 111.773 153.615 111.486 154.248C111.026 155.28 109.574 156.021 108.226 155.882C107.73 155.831 107.211 155.82 106.77 155.526C106.592 155.408 106.331 155.327 106.431 155.045C106.518 154.804 106.753 154.769 106.984 154.786C107.111 154.786 107.234 154.827 107.362 154.836C108.309 154.91 108.877 154.534 109.131 153.652C109.596 152.074 108.828 150.324 107.436 149.796C105.988 149.245 104.58 149.952 103.815 151.612C102.656 154.133 104.082 158.591 106.484 159.956C109.413 161.62 112.694 160.131 113.512 156.797C114.117 154.321 113.737 151.858 113.362 149.425C112.885 146.311 113.307 143.517 115.497 141.103C116.291 140.229 116.232 140.216 115.104 139.994C113.468 139.674 111.844 139.291 110.164 139.242C108.644 139.187 107.139 139.561 105.823 140.321C104.498 141.073 104.004 142.104 104.309 143.437C104.523 144.377 105.505 145.176 106.658 145.317C108.237 145.518 109.485 144.963 110.036 143.813C110.073 143.693 110.118 143.576 110.17 143.463C110.276 143.296 110.282 142.974 110.588 143.057C110.84 143.125 110.836 143.397 110.865 143.61C111.039 144.901 109.754 146.727 108.273 147.304C106.969 147.812 105.464 147.331 104.604 146.133C102.921 143.784 103.181 140.902 105.352 139.016C107.056 137.535 109.078 136.888 111.386 136.76C113.795 136.621 116.118 137.078 118.472 137.288C119.823 137.434 121.191 137.274 122.472 136.82C122.726 136.728 123.04 136.529 123.257 136.805C123.509 137.121 123.227 137.382 123.055 137.638C122.019 139.172 120.454 139.731 118.714 139.984C116.821 140.261 116.471 140.65 116.442 142.574C116.392 144.61 116.538 146.647 116.876 148.656Z" fill="#E72379"/>
<path d="M175.178 145.954C174.955 145.934 173.208 144.236 173.194 144.012C173.176 143.683 173.45 143.536 173.646 143.341C175.201 141.788 175.178 141.812 176.771 143.294C177.31 143.796 177.408 144.125 176.796 144.61C176.405 144.905 176.102 145.3 175.724 145.644C175.574 145.785 175.44 145.99 175.178 145.954Z" fill="#E72379"/>
<path d="M68.6446 131.751L68.6253 131.848L68.5605 131.831L68.6446 131.751Z" fill="#2594CF"/>
<path d="M68.2098 132.352L68.242 132.306L68.1992 132.345L68.2098 132.352Z" fill="#2594CF"/>
<path d="M213.04 141.519C212.967 141.519 212.91 141.498 212.869 141.457C212.827 141.412 212.807 141.352 212.807 141.276V137.903H211.529C211.46 137.903 211.408 137.885 211.369 137.847C211.332 137.809 211.312 137.76 211.312 137.7C211.312 137.636 211.332 137.587 211.369 137.554C211.408 137.52 211.46 137.503 211.529 137.503H214.555C214.624 137.503 214.677 137.52 214.715 137.554C214.752 137.587 214.772 137.636 214.772 137.7C214.772 137.764 214.752 137.815 214.715 137.853C214.677 137.886 214.624 137.903 214.555 137.903H213.278V141.276C213.278 141.352 213.257 141.412 213.215 141.457C213.178 141.498 213.119 141.519 213.04 141.519ZM215.468 141.519C215.399 141.519 215.347 141.5 215.308 141.463C215.271 141.421 215.252 141.365 215.252 141.293V137.689C215.252 137.614 215.271 137.557 215.308 137.52C215.347 137.482 215.399 137.463 215.468 137.463C215.529 137.463 215.576 137.477 215.61 137.503C215.648 137.525 215.682 137.565 215.712 137.621L217.268 140.532H217.098L218.649 137.621C218.679 137.565 218.711 137.525 218.745 137.503C218.779 137.477 218.828 137.463 218.893 137.463C218.957 137.463 219.008 137.482 219.046 137.52C219.084 137.557 219.102 137.614 219.102 137.689V141.293C219.102 141.365 219.084 141.421 219.046 141.463C219.011 141.5 218.959 141.519 218.887 141.519C218.819 141.519 218.765 141.5 218.728 141.463C218.689 141.421 218.671 141.365 218.671 141.293V138.123H218.807L217.388 140.769C217.361 140.818 217.332 140.853 217.302 140.876C217.275 140.895 217.236 140.904 217.183 140.904C217.13 140.904 217.088 140.893 217.058 140.87C217.027 140.848 217.002 140.814 216.978 140.769L215.542 138.118H215.677V141.293C215.677 141.365 215.659 141.421 215.621 141.463C215.587 141.5 215.536 141.519 215.468 141.519Z" fill="#231F20"/>
<defs>
<linearGradient id="paint0_linear_235_129" x1="82.2833" y1="192.878" x2="82.2833" y2="72.0823" gradientUnits="userSpaceOnUse">
<stop offset="0.16" stop-color="#EB6F98"/>
<stop offset="0.33" stop-color="#EA6795"/>
<stop offset="0.61" stop-color="#E7538D"/>
<stop offset="0.93" stop-color="#E23180"/>
<stop offset="1" stop-color="#E1297D"/>
</linearGradient>
<linearGradient id="paint1_linear_235_129" x1="118.986" y1="75.0136" x2="118.986" y2="99.8833" gradientUnits="userSpaceOnUse">
<stop stop-color="#EB6F98"/>
<stop offset="1" stop-color="#E1297D"/>
</linearGradient>
<linearGradient id="paint2_linear_235_129" x1="107.455" y1="115.995" x2="107.455" y2="89.0552" gradientUnits="userSpaceOnUse">
<stop stop-color="#18AADD"/>
<stop offset="0.74" stop-color="#2685C3"/>
</linearGradient>
<linearGradient id="paint3_linear_235_129" x1="64.6283" y1="192.276" x2="64.6283" y2="132.327" gradientUnits="userSpaceOnUse">
<stop offset="0.39" stop-color="#18AADD"/>
<stop offset="0.92" stop-color="#247BB4"/>
</linearGradient>
</defs>
</svg>
