<svg width="270" height="270" viewBox="0 0 270 270" fill="none" xmlns="http://www.w3.org/2000/svg">
<rect width="270" height="270" fill="#E7FFF2"/>
<path d="M62.1216 193.42H57.819C57.6936 193.42 57.6387 193.42 57.6387 193.258V171.014C57.6387 171.014 57.6387 170.888 57.7838 170.888H65.2126C67.2292 170.775 69.2145 171.417 70.7803 172.688C71.4638 173.31 72.001 174.074 72.3539 174.927C72.7068 175.779 72.8675 176.698 72.8231 177.619C72.8466 178.952 72.4964 180.266 71.8141 181.413C71.1306 182.56 70.1412 183.496 68.9545 184.116C67.8056 184.73 66.5182 185.046 65.2126 185.033H62.3033V193.186C62.3033 193.366 62.2484 193.42 62.1216 193.42ZM65.2126 174.722H62.3033V181.146H65.2126C65.6164 181.142 66.0138 181.052 66.3797 180.881C66.7444 180.71 67.0672 180.463 67.3286 180.156C67.9468 179.444 68.2696 178.524 68.2317 177.583C68.2448 177.199 68.1781 176.815 68.0383 176.456C67.8984 176.098 67.688 175.771 67.4188 175.495C67.1234 175.222 66.7757 175.012 66.3967 174.879C66.0177 174.746 65.6138 174.692 65.2126 174.722Z" fill="#4EBF83"/>
<path d="M81.1744 193.42H77.3423C77.1436 193.42 77.0352 193.42 77.0352 193.204V171.14C77.0352 170.96 77.1436 170.888 77.3423 170.888H80.7953L87.2492 183.648L87.0675 171.14C87.0675 170.96 87.176 170.888 87.4112 170.888H91.2067C91.3518 170.888 91.4236 170.888 91.4236 171.14V193.222C91.4236 193.348 91.4236 193.42 91.2433 193.42H87.8817L81.2475 181.488L81.5181 193.114C81.5181 193.33 81.4096 193.42 81.1744 193.42Z" fill="#4EBF83"/>
<path d="M102.724 193.33H95.8725C95.7457 193.33 95.6738 193.33 95.6738 193.168V170.905C95.6738 170.905 95.6738 170.779 95.8359 170.779H102.977C104.308 170.723 105.633 171.002 106.828 171.59C107.937 172.133 108.894 172.944 109.611 173.947C110.287 174.9 110.647 176.038 110.641 177.205V186.509C110.647 187.731 110.274 188.924 109.575 189.929C108.834 190.967 107.846 191.808 106.701 192.376C105.466 192.992 104.105 193.319 102.724 193.33ZM101.585 174.721H98.9099V189.389H101.278C102.154 189.412 103.007 189.118 103.682 188.561C103.981 188.316 104.223 188.009 104.387 187.66C104.553 187.312 104.64 186.931 104.64 186.545V177.259C104.638 176.912 104.557 176.569 104.404 176.258C104.25 175.946 104.028 175.673 103.754 175.459C103.152 174.947 102.376 174.683 101.585 174.721Z" fill="#4EBF83"/>
<path d="M123.403 193.996C122.305 193.99 121.229 193.685 120.293 193.114C119.337 192.525 118.542 191.709 117.979 190.738C117.414 189.752 117.121 188.634 117.129 187.499V186.005C117.129 185.898 117.129 185.825 117.274 185.825H120.889C120.889 185.825 121.016 185.825 121.016 186.005V187.499C121.009 188.167 121.262 188.812 121.72 189.299C121.932 189.545 122.196 189.742 122.494 189.876C122.79 190.009 123.112 190.077 123.438 190.072C123.78 190.084 124.12 190.019 124.432 189.882C124.746 189.745 125.023 189.54 125.245 189.28C125.704 188.793 125.956 188.149 125.951 187.481C125.912 187.026 125.745 186.591 125.47 186.225C125.196 185.859 124.823 185.578 124.396 185.411L123.745 185.015L122.788 184.494L121.703 183.9L120.691 183.324C119.58 182.715 118.661 181.811 118.033 180.714C117.434 179.61 117.134 178.369 117.166 177.115C117.154 175.96 117.466 174.826 118.07 173.839C118.622 172.945 119.385 172.197 120.293 171.661C121.234 171.091 122.318 170.792 123.421 170.798C124.54 170.789 125.641 171.088 126.602 171.661C127.551 172.229 128.346 173.02 128.915 173.965C129.498 174.945 129.799 176.066 129.783 177.205V179.85C129.787 179.867 129.786 179.886 129.781 179.902C129.775 179.919 129.765 179.934 129.753 179.947C129.74 179.959 129.726 179.968 129.709 179.973C129.692 179.978 129.673 179.98 129.656 179.976H126.041C126.024 179.98 126.006 179.978 125.989 179.973C125.972 179.968 125.958 179.959 125.945 179.947C125.933 179.934 125.924 179.919 125.917 179.902C125.913 179.886 125.912 179.867 125.915 179.85V177.205C125.921 176.872 125.86 176.542 125.735 176.233C125.611 175.923 125.427 175.642 125.192 175.405C124.974 175.171 124.71 174.985 124.415 174.857C124.121 174.729 123.804 174.664 123.484 174.664C123.163 174.664 122.846 174.729 122.552 174.857C122.258 174.985 121.994 175.171 121.775 175.405C121.317 175.892 121.063 176.537 121.071 177.205C121.037 177.836 121.195 178.463 121.523 179.005C121.947 179.591 122.512 180.06 123.167 180.373L123.763 180.678L124.794 181.236L125.806 181.794L126.367 182.082C127.372 182.628 128.247 183.382 128.934 184.295C129.586 185.248 129.915 186.383 129.873 187.535C129.889 188.694 129.595 189.837 129.024 190.847C128.437 191.801 127.608 192.583 126.62 193.114C125.649 193.696 124.536 194.002 123.403 193.996Z" fill="#4D5255"/>
<path d="M144.734 193.672H134.231C134.141 193.672 134.086 193.672 134.086 193.51V171.248C134.086 171.214 134.1 171.182 134.124 171.159C134.147 171.135 134.18 171.122 134.213 171.122H144.679C144.679 171.122 144.806 171.122 144.806 171.283V174.883C144.806 174.917 144.793 174.949 144.769 174.972C144.746 174.996 144.713 175.009 144.679 175.009H137.991V180.066H144.679C144.697 180.063 144.716 180.064 144.733 180.069C144.748 180.075 144.764 180.084 144.776 180.096C144.789 180.108 144.798 180.123 144.803 180.14C144.808 180.157 144.81 180.175 144.806 180.192V183.791C144.81 183.809 144.808 183.827 144.803 183.843C144.798 183.86 144.789 183.876 144.776 183.888C144.764 183.9 144.748 183.91 144.733 183.915C144.716 183.919 144.697 183.921 144.679 183.917H138.028V189.568H144.734C144.734 189.568 144.861 189.568 144.861 189.731V193.438C144.861 193.636 144.824 193.672 144.734 193.672Z" fill="#4D5255"/>
<path d="M153.771 193.672H150.156C150.156 193.672 150.03 193.672 150.03 193.51V171.248C150.026 171.23 150.027 171.213 150.032 171.196C150.037 171.18 150.047 171.164 150.06 171.152C150.071 171.139 150.087 171.13 150.103 171.125C150.121 171.12 150.138 171.119 150.156 171.122H156.717C157.861 171.111 158.985 171.41 159.972 171.986C160.935 172.54 161.741 173.326 162.322 174.272C162.919 175.252 163.226 176.382 163.207 177.529C163.214 178.264 163.092 178.995 162.846 179.688C162.637 180.264 162.352 180.809 161.996 181.308C161.747 181.676 161.449 182.008 161.11 182.298C162.28 183.535 162.927 185.171 162.918 186.869V193.51C162.918 193.618 162.918 193.672 162.774 193.672H159.158C159.067 193.672 159.032 193.672 159.032 193.672V186.869C159.033 186.109 158.734 185.379 158.2 184.836C157.937 184.562 157.618 184.346 157.268 184.201C156.915 184.055 156.538 183.983 156.157 183.99H153.934V193.51C153.898 193.618 153.862 193.672 153.771 193.672ZM156.717 175.009H153.934V180.102H156.717C157.055 180.104 157.388 180.037 157.699 179.907C158.01 179.777 158.29 179.586 158.525 179.347C158.779 179.12 158.98 178.842 159.117 178.532C159.254 178.221 159.324 177.886 159.321 177.547C159.33 177.211 159.266 176.876 159.135 176.566C159.005 176.255 158.809 175.976 158.562 175.747C158.321 175.505 158.034 175.315 157.716 175.187C157.4 175.061 157.059 175 156.717 175.009Z" fill="#4D5255"/>
<path d="M174.521 193.672H170.527C170.437 193.672 170.382 193.672 170.382 193.51L165.881 171.248C165.881 171.248 165.881 171.122 166.008 171.122H169.623C169.659 171.126 169.693 171.14 169.722 171.163C169.751 171.184 169.773 171.214 169.786 171.248L172.443 186.095L175.047 171.248C175.055 171.211 175.075 171.179 175.104 171.156C175.134 171.133 175.171 171.121 175.209 171.122H178.825C178.951 171.122 178.987 171.122 178.951 171.248L174.631 193.51C174.611 193.618 174.521 193.672 174.521 193.672Z" fill="#4D5255"/>
<path d="M186.779 193.672H183.164C183.142 193.675 183.119 193.672 183.099 193.665C183.078 193.658 183.058 193.647 183.042 193.631C183.027 193.615 183.015 193.596 183.007 193.575C183.001 193.554 182.998 193.532 183.002 193.51V171.248C183.002 171.23 183.004 171.211 183.012 171.195C183.02 171.179 183.031 171.164 183.045 171.152C183.058 171.14 183.075 171.131 183.092 171.126C183.109 171.121 183.127 171.119 183.146 171.122H186.761C186.795 171.122 186.827 171.135 186.851 171.159C186.874 171.182 186.887 171.214 186.887 171.248V193.51C186.906 193.618 186.869 193.672 186.779 193.672Z" fill="#4D5255"/>
<path d="M198.025 194.014C196.86 194.033 195.712 193.721 194.717 193.114C193.753 192.532 192.961 191.706 192.421 190.721C191.843 189.706 191.549 188.556 191.571 187.391V177.312C191.561 176.174 191.847 175.051 192.404 174.056C192.941 173.08 193.727 172.26 194.681 171.68C195.66 171.109 196.773 170.808 197.908 170.808C199.042 170.808 200.156 171.109 201.135 171.68C202.103 172.272 202.902 173.104 203.453 174.094C204.003 175.084 204.288 176.199 204.279 177.331V178.716C204.283 178.734 204.282 178.751 204.277 178.768C204.271 178.785 204.262 178.8 204.249 178.813C204.237 178.825 204.222 178.834 204.205 178.84C204.189 178.845 204.169 178.846 204.152 178.842H200.537C200.519 178.855 200.497 178.862 200.473 178.861C200.45 178.86 200.429 178.852 200.411 178.838C200.392 178.824 200.379 178.805 200.373 178.783C200.366 178.761 200.367 178.738 200.375 178.716V177.241C200.373 176.578 200.128 175.938 199.688 175.441C199.466 175.184 199.187 174.98 198.875 174.846C198.561 174.712 198.221 174.651 197.88 174.667C197.537 174.637 197.19 174.692 196.874 174.831C196.558 174.97 196.283 175.186 196.073 175.459C195.662 175.97 195.439 176.605 195.44 177.259V187.355C195.428 187.723 195.491 188.089 195.624 188.433C195.758 188.776 195.959 189.089 196.216 189.353C196.431 189.6 196.696 189.798 196.994 189.934C197.292 190.071 197.616 190.141 197.944 190.141C198.271 190.141 198.595 190.071 198.893 189.934C199.191 189.798 199.456 189.6 199.67 189.353C200.096 188.847 200.337 188.212 200.357 187.553V185.915C200.353 185.898 200.354 185.881 200.36 185.864C200.365 185.847 200.374 185.832 200.387 185.819C200.399 185.807 200.414 185.798 200.431 185.792C200.448 185.787 200.465 185.786 200.484 185.789H204.099C204.099 185.789 204.226 185.789 204.226 185.915V187.409C204.253 188.544 203.984 189.666 203.447 190.666C202.908 191.666 202.117 192.51 201.153 193.114C200.215 193.699 199.131 194.011 198.025 194.014Z" fill="#4D5255"/>
<path d="M219.135 193.672H208.614C208.614 193.672 208.489 193.672 208.489 193.51V171.248C208.485 171.23 208.486 171.213 208.491 171.196C208.496 171.18 208.506 171.164 208.519 171.152C208.53 171.139 208.546 171.13 208.563 171.125C208.58 171.12 208.597 171.119 208.614 171.122H219.063C219.063 171.122 219.19 171.122 219.19 171.284V174.883C219.193 174.901 219.191 174.918 219.188 174.935C219.181 174.952 219.172 174.967 219.16 174.979C219.147 174.992 219.133 175.001 219.116 175.006C219.099 175.012 219.08 175.013 219.063 175.009H212.483V180.066H219.154C219.154 180.066 219.28 180.066 219.28 180.192V183.792C219.28 183.825 219.267 183.857 219.244 183.881C219.219 183.905 219.188 183.918 219.154 183.918H212.483V189.569H219.19C219.19 189.569 219.317 189.569 219.317 189.731V193.438C219.348 193.462 219.368 193.497 219.373 193.536C219.378 193.575 219.368 193.614 219.343 193.645C219.32 193.676 219.284 193.697 219.245 193.702C219.206 193.707 219.167 193.696 219.135 193.672Z" fill="#4D5255"/>
<path d="M99.3242 201.536H101.457C101.703 201.522 101.95 201.558 102.183 201.641C102.414 201.726 102.626 201.856 102.806 202.024C102.985 202.193 103.129 202.396 103.226 202.622C103.324 202.847 103.373 203.091 103.373 203.336C103.41 203.653 103.347 203.972 103.19 204.25C103.035 204.528 102.796 204.75 102.505 204.884C102.853 205.033 103.143 205.287 103.338 205.61C103.533 205.933 103.622 206.309 103.59 206.684C103.612 206.972 103.571 207.262 103.469 207.533C103.368 207.804 103.209 208.05 103.002 208.253C102.796 208.457 102.547 208.614 102.274 208.713C102.001 208.811 101.711 208.85 101.421 208.825H99.3242V201.536ZM101.132 204.488C102 204.488 102.252 204.147 102.252 203.462C102.266 203.323 102.249 203.181 102.202 203.049C102.154 202.917 102.077 202.797 101.976 202.698C101.875 202.6 101.754 202.524 101.621 202.479C101.486 202.435 101.343 202.42 101.204 202.437H100.409V204.488H101.132ZM100.409 207.943H101.276C102 207.943 102.397 207.548 102.397 206.684C102.397 205.82 102.035 205.388 101.113 205.388H100.409V207.943Z" fill="#9F9C9F"/>
<path d="M108.036 201.536V206.594C108.036 207.26 108.216 207.998 109.065 207.998C109.916 207.998 110.115 207.386 110.115 206.594V201.536H111.253V206.612C111.253 207.943 110.748 208.969 109.048 208.969C107.349 208.969 106.879 207.998 106.879 206.63V201.536H108.036Z" fill="#9F9C9F"/>
<path d="M115.648 206.845C115.648 207.494 115.992 208.051 116.715 208.051C117.437 208.051 117.691 207.637 117.691 206.99C117.691 206.342 117.384 205.964 116.443 205.514C115.214 204.938 114.725 204.416 114.725 203.336C114.71 203.078 114.749 202.82 114.842 202.579C114.935 202.337 115.078 202.119 115.264 201.937C115.45 201.756 115.672 201.618 115.915 201.53C116.159 201.441 116.419 201.407 116.678 201.429C116.95 201.397 117.224 201.426 117.482 201.516C117.741 201.605 117.975 201.751 118.168 201.943C118.361 202.136 118.508 202.368 118.597 202.625C118.687 202.882 118.717 203.156 118.684 203.426H117.564C117.564 203.03 117.419 202.328 116.66 202.328C115.9 202.328 115.829 202.724 115.829 203.246C115.829 203.768 116.082 204.11 116.968 204.506C118.269 205.118 118.776 205.712 118.776 206.899C118.789 207.175 118.743 207.451 118.642 207.709C118.541 207.966 118.386 208.199 118.188 208.392C117.99 208.586 117.754 208.736 117.494 208.833C117.234 208.929 116.955 208.969 116.678 208.951C116.392 208.978 116.102 208.942 115.83 208.847C115.559 208.751 115.311 208.598 115.104 208.397C114.898 208.197 114.739 207.954 114.635 207.687C114.532 207.419 114.489 207.132 114.509 206.845H115.648Z" fill="#9F9C9F"/>
<path d="M124.867 201.536V208.843H123.729V201.536H124.867Z" fill="#9F9C9F"/>
<path d="M129.729 208.843V201.536H131.139C132.838 205.928 133.128 206.666 133.218 206.935C133.218 206.018 133.218 204.938 133.218 203.75V201.536H134.248V208.843H132.983C131.175 204.2 130.94 203.444 130.85 203.139C130.85 204.038 130.85 205.154 130.85 206.468V208.843H129.729Z" fill="#9F9C9F"/>
<path d="M141.134 205.496H138.749V207.853H141.424L141.279 208.843H137.664V201.536H141.279V202.526H138.749V204.506H141.134V205.496Z" fill="#9F9C9F"/>
<path d="M146.108 206.846C146.108 207.494 146.45 208.052 147.174 208.052C147.897 208.052 148.151 207.638 148.151 206.99C148.151 206.342 147.843 205.964 146.885 205.514C145.927 205.064 145.078 204.416 145.078 203.336C145.125 202.841 145.355 202.382 145.725 202.047C146.093 201.713 146.576 201.528 147.075 201.528C147.574 201.528 148.055 201.713 148.425 202.047C148.794 202.382 149.025 202.841 149.072 203.336H147.952C147.952 202.94 147.807 202.238 147.066 202.238C146.947 202.232 146.827 202.252 146.715 202.297C146.604 202.342 146.505 202.41 146.424 202.498C146.343 202.586 146.283 202.691 146.246 202.804C146.211 202.918 146.199 203.038 146.216 203.156C146.216 203.732 146.487 204.02 147.355 204.416C148.675 205.028 149.162 205.622 149.162 206.809C149.18 207.093 149.136 207.377 149.031 207.641C148.927 207.906 148.765 208.144 148.558 208.34C148.352 208.535 148.105 208.683 147.834 208.773C147.564 208.863 147.276 208.894 146.993 208.861C146.706 208.892 146.415 208.858 146.142 208.763C145.869 208.669 145.62 208.516 145.412 208.315C145.206 208.114 145.046 207.87 144.943 207.601C144.843 207.331 144.802 207.042 144.824 206.756L146.108 206.846Z" fill="#9F9C9F"/>
<path d="M153.717 206.846C153.717 207.494 154.061 208.052 154.784 208.052C155.506 208.052 155.76 207.638 155.76 206.99C155.76 206.342 155.453 205.964 154.495 205.514C153.537 205.064 152.687 204.416 152.687 203.336C152.734 202.841 152.966 202.382 153.334 202.047C153.704 201.713 154.185 201.528 154.684 201.528C155.183 201.528 155.664 201.713 156.034 202.047C156.403 202.382 156.634 202.841 156.683 203.336H155.579C155.579 202.94 155.416 202.238 154.675 202.238C154.556 202.232 154.436 202.252 154.326 202.297C154.215 202.342 154.114 202.41 154.033 202.498C153.952 202.586 153.892 202.691 153.856 202.804C153.82 202.918 153.81 203.038 153.825 203.156C153.825 203.732 154.096 204.02 154.982 204.416C156.284 205.028 156.79 205.622 156.79 206.809C156.808 207.093 156.764 207.377 156.659 207.641C156.554 207.906 156.394 208.144 156.186 208.34C155.979 208.535 155.732 208.683 155.462 208.773C155.191 208.863 154.904 208.894 154.621 208.861C154.334 208.888 154.045 208.853 153.773 208.757C153.501 208.662 153.254 208.508 153.048 208.308C152.841 208.107 152.682 207.865 152.579 207.597C152.475 207.329 152.432 207.042 152.452 206.756L153.717 206.846Z" fill="#9F9C9F"/>
<path d="M169.1 201.537H171.197C171.48 201.517 171.762 201.559 172.026 201.659C172.29 201.76 172.529 201.917 172.725 202.12C172.923 202.322 173.072 202.565 173.163 202.831C173.256 203.097 173.287 203.38 173.257 203.66C173.29 203.951 173.256 204.245 173.158 204.52C173.06 204.796 172.9 205.046 172.691 205.252C172.483 205.458 172.231 205.614 171.953 205.709C171.676 205.805 171.38 205.836 171.089 205.802H170.238V208.844H169.1V201.537ZM170.238 204.884H170.907C171.685 204.884 172.065 204.488 172.065 203.643C172.065 202.796 171.667 202.454 170.98 202.454H170.184L170.238 204.884Z" fill="#9F9C9F"/>
<path d="M177.523 206.846L177.107 208.843H175.969L177.776 201.536H179.258L181.066 208.843H179.874L179.439 206.846H177.523ZM179.096 205.855C178.77 204.308 178.517 203.246 178.409 202.599C178.3 203.246 178.047 204.398 177.758 205.855H179.096Z" fill="#9F9C9F"/>
<path d="M185.569 205.712V208.916H184.447V201.537H186.582C186.849 201.506 187.12 201.535 187.375 201.622C187.63 201.71 187.862 201.853 188.055 202.041C188.247 202.229 188.396 202.458 188.487 202.71C188.579 202.962 188.614 203.232 188.588 203.499C188.626 203.843 188.554 204.19 188.381 204.491C188.21 204.792 187.946 205.03 187.63 205.172C188.244 205.424 188.479 205.947 188.479 206.972V207.26C188.464 207.778 188.499 208.297 188.588 208.808H187.485C187.378 208.299 187.334 207.78 187.359 207.26V206.99C187.359 206 187.141 205.604 186.255 205.604L185.569 205.712ZM185.569 204.777H186.31C187.124 204.777 187.449 204.38 187.449 203.607C187.449 202.833 187.141 202.527 186.418 202.527H185.569V204.777Z" fill="#9F9C9F"/>
<path d="M193.524 202.526H191.932V201.536H196.216V202.526H194.625V208.843H193.487L193.524 202.526Z" fill="#9F9C9F"/>
<path d="M199.561 208.843V201.536H200.879C202.56 205.928 202.85 206.666 202.94 206.935C202.94 206.018 202.94 204.938 202.94 203.75V201.536H203.989V208.843H202.705C200.898 204.2 200.681 203.444 200.59 203.139C200.59 204.038 200.59 205.154 200.59 206.468V208.843H199.561Z" fill="#9F9C9F"/>
<path d="M211.309 205.496H208.869V207.853H211.544L211.4 208.843H207.785V201.536H211.4V202.526H208.869V204.506H211.255L211.309 205.496Z" fill="#9F9C9F"/>
<path d="M216.244 205.712V208.916H215.105V201.536H217.238C217.508 201.503 217.781 201.53 218.038 201.615C218.296 201.701 218.531 201.844 218.724 202.032C218.919 202.221 219.068 202.451 219.162 202.704C219.255 202.958 219.289 203.229 219.263 203.498C219.302 203.842 219.229 204.189 219.058 204.49C218.885 204.791 218.621 205.029 218.305 205.172C218.901 205.424 219.154 205.946 219.154 206.971V207.259C219.115 207.775 219.115 208.292 219.154 208.807H218.051C217.944 208.298 217.901 207.779 217.926 207.259V206.99C217.926 206 217.709 205.603 216.823 205.603L216.244 205.712ZM216.244 204.776H216.968C217.799 204.776 218.106 204.38 218.106 203.606C218.106 202.832 217.799 202.526 217.076 202.526H216.244V204.776Z" fill="#9F9C9F"/>
<path d="M59.538 208.843V206.18C59.5472 206.108 59.5472 206.035 59.538 205.964L57.7305 201.536H58.8336C59.2858 202.706 59.8635 204.218 60.0804 204.974C60.334 204.146 60.913 202.652 61.3286 201.536H62.5205L60.713 205.982C60.6908 206.058 60.6908 206.139 60.713 206.216V208.843H59.538Z" fill="#9F9C9F"/>
<path d="M71.1417 205.136C71.1417 207.746 70.4555 208.97 68.7917 208.97C67.1293 208.97 66.5137 207.764 66.5137 205.118C66.5137 202.473 67.3632 201.519 68.8466 201.519C70.3287 201.519 71.1417 202.617 71.1417 205.136ZM67.6886 205.136C67.6886 206.936 67.9971 208.016 68.8283 208.016C69.6596 208.016 69.9667 207.044 69.9667 205.136C69.9667 203.229 69.6596 202.401 68.8283 202.401C67.9971 202.401 67.6886 203.355 67.6886 205.118V205.136Z" fill="#9F9C9F"/>
<path d="M76.4568 201.536V206.594C76.4568 207.26 76.6189 207.998 77.4867 207.998C78.3545 207.998 78.5349 207.386 78.5349 206.594V201.536H79.6733V206.612C79.6733 207.943 79.1675 208.969 77.4684 208.969C75.7693 208.969 75.2988 207.998 75.2988 206.63V201.536H76.4568Z" fill="#9F9C9F"/>
<path d="M85.1869 205.712V208.916H84.1387V201.536H86.2716C86.5409 201.503 86.8141 201.53 87.0715 201.615C87.329 201.701 87.5629 201.844 87.7577 202.032C87.9524 202.221 88.1014 202.451 88.1942 202.704C88.2883 202.958 88.3223 203.229 88.2962 203.498C88.3341 203.842 88.2622 204.189 88.0896 204.49C87.9184 204.791 87.6544 205.029 87.3381 205.172C87.9341 205.424 88.1877 205.946 88.1877 206.971V207.259C88.172 207.777 88.2086 208.296 88.2962 208.807H87.1748C87.0754 208.298 87.0388 207.777 87.0663 207.259V206.99C87.0663 206 86.8323 205.603 85.9462 205.603L85.1869 205.712ZM85.1869 204.776H85.9462C86.7774 204.776 87.1029 204.38 87.1029 203.606C87.1225 203.463 87.1094 203.317 87.065 203.179C87.0192 203.042 86.9434 202.916 86.8428 202.812C86.7422 202.708 86.618 202.628 86.4821 202.579C86.3448 202.529 86.1984 202.512 86.0547 202.526H85.2235L85.1869 204.776Z" fill="#9F9C9F"/>
<path d="M123.631 126.135L132.434 134.611L116.4 149.819V133.118L123.631 126.135Z" fill="#4EBF83"/>
<path d="M153.548 126.693L148.613 119.17L164.43 103.621L117.033 56.5405L69.4551 103.243L116.4 149.819L116.78 133.136L86.7364 103.189L116.943 74.1057L147.058 103.189L138.472 111.701L153.548 126.693Z" fill="#4D5255"/>
<path d="M147.963 83.7341L139.123 75.3116L155.067 60.0142L155.175 76.7153L147.963 83.7341Z" fill="#4D5255"/>
<path d="M118.064 83.3562L123.017 90.8429L107.309 106.482L154.977 153.293L202.283 106.32L155.068 60.0142L154.796 76.7153L185.003 106.482L154.959 135.727L124.68 106.824L133.213 98.2577L118.064 83.3562Z" fill="#4EBF83"/>
</svg>
