<svg width="270" height="270" viewBox="0 0 270 270" fill="none" xmlns="http://www.w3.org/2000/svg">
<rect width="270" height="270" fill="#FFFBF6"/>
<mask id="mask0_235_185" style="mask-type:luminance" maskUnits="userSpaceOnUse" x="45" y="100" width="59" height="59">
<path d="M103.233 100.828H45.5371V158.426H103.233V100.828Z" fill="white"/>
</mask>
<g mask="url(#mask0_235_185)">
<path d="M62.3646 158.426C65.0198 158.426 67.1725 156.277 67.1725 153.627C67.1725 150.976 65.0198 148.827 62.3646 148.827C59.7093 148.827 57.5566 150.976 57.5566 153.627C57.5566 156.277 59.7093 158.426 62.3646 158.426Z" fill="#F49320"/>
<path d="M86.4056 158.426C89.0609 158.426 91.2136 156.277 91.2136 153.627C91.2136 150.976 89.0609 148.827 86.4056 148.827C83.7503 148.827 81.5977 150.976 81.5977 153.627C81.5977 156.277 83.7503 158.426 86.4056 158.426Z" fill="#F49320"/>
<path d="M102.476 104.034C102.025 103.584 101.414 103.331 100.776 103.331C100.139 103.331 99.5273 103.584 99.0767 104.034L86.6745 116.427L82.946 112.542C82.5041 112.083 81.8976 111.818 81.2602 111.805C80.6228 111.793 80.0064 112.034 79.5467 112.475C79.087 112.916 78.8216 113.521 78.8091 114.157C78.7964 114.794 79.0376 115.409 79.4794 115.868L83.3594 119.898C83.7728 120.344 84.2725 120.701 84.8282 120.948C85.384 121.196 85.9843 121.328 86.5928 121.338H86.6721C87.2684 121.34 87.8592 121.223 88.41 120.996C88.961 120.768 89.4612 120.433 89.8813 120.01L102.476 107.428C102.926 106.977 103.18 106.367 103.18 105.731C103.18 105.094 102.926 104.484 102.476 104.034Z" fill="#EBC026"/>
<path d="M98.1844 122.466C97.8736 122.409 97.5547 122.415 97.2461 122.482C96.9374 122.549 96.6452 122.676 96.3857 122.856C96.1262 123.036 95.9049 123.265 95.7343 123.53C95.5636 123.796 95.4468 124.092 95.391 124.402L95.0833 126.104C94.7834 127.765 93.9081 129.269 92.6105 130.352C91.3128 131.434 89.6754 132.027 87.9843 132.027H58.5619L56.3021 112.827H71.9809C72.6185 112.827 73.2299 112.575 73.6808 112.124C74.1316 111.674 74.3849 111.064 74.3849 110.427C74.3849 109.791 74.1316 109.181 73.6808 108.73C73.2299 108.28 72.6185 108.028 71.9809 108.028H55.7348L55.6339 107.183C55.4266 105.432 54.5834 103.818 53.2639 102.647C51.9444 101.476 50.2404 100.828 48.4747 100.828H47.9411C47.3035 100.828 46.6921 101.08 46.2412 101.531C45.7903 101.981 45.5371 102.591 45.5371 103.228C45.5371 103.864 45.7903 104.474 46.2412 104.925C46.6921 105.375 47.3035 105.628 47.9411 105.628H48.4747C49.0635 105.628 49.6319 105.843 50.0718 106.234C50.5118 106.625 50.7931 107.163 50.8619 107.747L54.1698 135.826C54.5132 138.746 55.9186 141.439 58.1193 143.393C60.32 145.347 63.1628 146.427 66.108 146.427H91.2128C91.8504 146.427 92.4618 146.174 92.9127 145.724C93.3636 145.274 93.6168 144.663 93.6168 144.027C93.6168 143.39 93.3636 142.78 92.9127 142.33C92.4618 141.88 91.8504 141.627 91.2128 141.627H66.108C64.6163 141.627 63.1613 141.166 61.9434 140.306C60.7254 139.446 59.8043 138.231 59.3071 136.827H87.9843C90.8025 136.827 93.5311 135.839 95.6934 134.034C97.8557 132.23 99.3144 129.725 99.8142 126.956L100.122 125.252C100.235 124.626 100.094 123.981 99.7308 123.458C99.3674 122.936 98.8113 122.579 98.1844 122.466Z" fill="#E59245"/>
<path d="M64.7697 126.027C68.0889 126.027 70.7797 123.341 70.7797 120.027C70.7797 116.714 68.0889 114.027 64.7697 114.027C61.4505 114.027 58.7598 116.714 58.7598 120.027C58.7598 123.341 61.4505 126.027 64.7697 126.027Z" fill="#04A54F"/>
<path d="M76.1875 129.627C78.5109 129.627 80.3945 127.747 80.3945 125.427C80.3945 123.108 78.5109 121.227 76.1875 121.227C73.864 121.227 71.9805 123.108 71.9805 125.427C71.9805 127.747 73.864 129.627 76.1875 129.627Z" fill="#292F91"/>
<path d="M87.606 130.827C89.5976 130.827 91.212 129.215 91.212 127.227C91.212 125.239 89.5976 123.627 87.606 123.627C85.6145 123.627 84 125.239 84 127.227C84 129.215 85.6145 130.827 87.606 130.827Z" fill="#00B1F0"/>
</g>
<path d="M120.747 141.063C120.747 142.407 119.976 143.079 118.433 143.079C116.834 143.079 116.035 142.407 116.035 141.063V123.675C116.035 121.379 116.722 119.783 118.097 118.887C119.471 117.991 121.056 117.543 122.85 117.543H127.646C128.684 117.543 129.203 118.201 129.203 119.517C129.259 120.833 128.74 121.491 127.646 121.491H123.187C122.177 121.491 121.518 121.687 121.21 122.079C120.901 122.471 120.747 123.017 120.747 123.717V141.063ZM139.113 142.827C138.243 142.827 137.416 142.715 136.631 142.491C135.845 142.239 135.088 141.889 134.359 141.441V141.483C132.985 140.615 132.297 139.019 132.297 136.695V134.637C132.297 133.489 132.494 132.495 132.886 131.655C133.307 130.787 133.882 130.101 134.611 129.597H134.569C135.27 129.121 136.014 128.771 136.799 128.547C137.584 128.295 138.341 128.169 139.071 128.169H148.368V124.263C148.368 123.563 148.144 122.933 147.695 122.373C147.274 121.785 146.545 121.491 145.507 121.491H140.585C139.519 121.491 138.776 121.757 138.355 122.289C137.963 122.793 137.766 123.395 137.766 124.095V124.431C137.766 125.887 136.981 126.615 135.411 126.615C133.84 126.615 133.055 125.887 133.055 124.431V124.053C133.055 122.905 133.251 121.939 133.644 121.155C134.064 120.371 134.625 119.713 135.326 119.181H135.284C136.014 118.705 136.771 118.313 137.556 118.005C138.369 117.697 139.141 117.543 139.87 117.543H146.265C146.966 117.543 147.709 117.697 148.494 118.005C149.308 118.313 150.065 118.705 150.766 119.181H150.724C151.454 119.713 152.014 120.413 152.406 121.281C152.8 122.121 152.995 123.101 152.995 124.221V141.063C152.995 142.407 152.224 143.079 150.682 143.079C150.373 143.079 150.079 143.065 149.799 143.037C149.546 143.009 149.308 142.939 149.083 142.827C148.887 142.687 148.719 142.505 148.578 142.281C148.466 142.029 148.41 141.707 148.41 141.315L148.368 132.117H139.87C139.253 132.117 138.776 132.187 138.44 132.327C138.103 132.467 137.837 132.691 137.64 132.999C137.416 133.475 137.248 133.853 137.135 134.133C137.051 134.385 137.009 134.679 137.009 135.015V136.653C137.009 137.381 137.22 137.941 137.64 138.333C138.089 138.697 138.846 138.879 139.912 138.879H144.624C145.661 138.879 146.18 139.537 146.18 140.853C146.18 141.413 146.054 141.889 145.802 142.281C145.549 142.645 145.157 142.827 144.624 142.827H139.113ZM159.783 148.707C158.802 148.707 158.283 148.049 158.226 146.733C158.226 145.416 158.746 144.759 159.783 144.759H161.634C162.617 144.759 163.262 144.465 163.57 143.877L164.158 142.323L164.369 141.651L156.166 120.189V120.231C155.941 119.559 155.984 118.985 156.291 118.509C156.628 118.033 157.133 117.683 157.805 117.459C158.31 117.319 158.718 117.249 159.025 117.249C159.84 117.249 160.345 117.725 160.541 118.677L163.864 126.951L166.682 133.839L171.184 118.761C171.437 117.753 172.026 117.249 172.951 117.249C173.176 117.249 173.54 117.319 174.045 117.459C174.718 117.655 175.195 117.977 175.475 118.425C175.784 118.873 175.854 119.405 175.686 120.021C174.423 124.305 173.134 128.617 171.815 132.957C170.526 137.297 169.249 141.595 167.986 145.851C167.847 146.159 167.622 146.466 167.314 146.775C167.033 147.111 166.655 147.419 166.178 147.699C165.702 148.007 165.112 148.245 164.411 148.413C163.71 148.608 162.896 148.707 161.971 148.707H159.783ZM192.729 117.543C193.459 117.543 194.202 117.697 194.96 118.005C195.744 118.313 196.502 118.705 197.231 119.181H197.19C197.918 119.713 198.479 120.413 198.872 121.281C199.264 122.121 199.461 123.101 199.461 124.221V136.149C199.461 138.445 198.704 140.139 197.19 141.231C195.702 142.295 194.215 142.827 192.729 142.827H185.999C185.269 142.827 184.526 142.701 183.768 142.449C183.012 142.197 182.268 141.791 181.539 141.231C180.024 140.167 179.268 138.473 179.268 136.149V124.221C179.268 123.101 179.463 122.121 179.857 121.281C180.248 120.413 180.809 119.713 181.539 119.181H181.497C182.198 118.705 182.941 118.313 183.727 118.005C184.512 117.697 185.269 117.543 185.999 117.543H192.729ZM191.973 138.879C193.009 138.879 193.74 138.585 194.16 137.997C194.609 137.409 194.834 136.779 194.834 136.107V124.263C194.834 123.563 194.609 122.933 194.16 122.373C193.74 121.785 193.009 121.491 191.973 121.491H186.756C185.718 121.491 184.974 121.785 184.526 122.373C184.105 122.933 183.895 123.563 183.895 124.263V136.107C183.895 136.779 184.105 137.409 184.526 137.997C184.974 138.585 185.718 138.879 186.756 138.879H191.973ZM218.452 128.127C219.153 128.127 219.897 128.295 220.682 128.631C221.496 128.939 222.253 129.331 222.954 129.807H222.912C223.641 130.339 224.201 131.025 224.595 131.865C224.987 132.705 225.184 133.713 225.184 134.889V136.149C225.184 138.445 224.426 140.139 222.912 141.231C222.182 141.791 221.44 142.197 220.682 142.449C219.925 142.701 219.182 142.827 218.452 142.827H211.3C210.571 142.827 209.828 142.701 209.071 142.449C208.314 142.197 207.57 141.791 206.841 141.231C205.327 140.167 204.57 138.473 204.57 136.149V135.645C204.57 134.441 205.341 133.853 206.884 133.881C208.455 133.881 209.24 134.469 209.24 135.645V136.107C209.24 136.779 209.45 137.409 209.87 137.997C210.291 138.585 211.034 138.879 212.1 138.879H217.653C218.72 138.879 219.462 138.585 219.883 137.997C220.304 137.409 220.514 136.779 220.514 136.107V134.931C220.514 134.567 220.457 134.217 220.346 133.881C220.261 133.545 220.107 133.251 219.883 132.999C219.658 132.719 219.364 132.495 219 132.327C218.636 132.159 218.185 132.075 217.653 132.075H211.511C210.08 132.075 208.58 131.571 207.01 130.563C205.523 129.611 204.779 127.973 204.779 125.649V124.221C204.779 123.101 204.976 122.121 205.369 121.281C205.762 120.413 206.322 119.713 207.051 119.181H207.01C207.71 118.705 208.455 118.313 209.24 118.005C210.025 117.697 210.781 117.543 211.511 117.543H218.242C218.971 117.543 219.715 117.697 220.471 118.005C221.256 118.313 222.014 118.705 222.744 119.181H222.701C223.432 119.713 223.991 120.413 224.385 121.281C224.777 122.121 224.973 123.101 224.973 124.221V124.599C224.973 125.187 224.777 125.621 224.385 125.901C223.991 126.153 223.416 126.293 222.66 126.321C221.117 126.349 220.346 125.775 220.346 124.599V124.263C220.346 123.563 220.12 122.933 219.672 122.373C219.251 121.785 218.522 121.491 217.485 121.491H212.268C211.23 121.491 210.487 121.785 210.039 122.373C209.618 122.933 209.407 123.563 209.407 124.263V125.271C209.407 125.999 209.618 126.657 210.039 127.245C210.487 127.833 211.23 128.127 212.268 128.127H218.452Z" fill="#66657E"/>
<path d="M230.412 140.427C238.225 136.179 214.986 159.23 174.519 163.826C147.998 166.838 120.846 153.54 109.162 141.851C108.142 140.83 107.326 140.155 109.011 141.16C129.042 153.106 177.649 169.115 230.412 140.427Z" fill="#F49320"/>
<path d="M109.011 141.16C129.042 153.106 177.649 169.115 230.412 140.427C238.225 136.179 214.986 159.23 174.519 163.826C147.998 166.838 120.846 153.54 109.162 141.851M109.011 141.16L109.162 141.851M109.011 141.16C107.326 140.155 108.142 140.83 109.162 141.851" stroke="#F49320"/>
</svg>
