<svg width="270" height="270" viewBox="0 0 270 270" fill="none" xmlns="http://www.w3.org/2000/svg">
<rect width="270" height="270" fill="url(#paint0_radial_241_126)"/>
<mask id="mask0_241_126" style="mask-type:luminance" maskUnits="userSpaceOnUse" x="69" y="69" width="131" height="131">
<path d="M200 69.7566H69.6953V199.842H200V69.7566Z" fill="white"/>
</mask>
<g mask="url(#mask0_241_126)">
<path d="M107.7 199.843C113.697 199.843 118.559 194.989 118.559 189.002C118.559 183.015 113.697 178.162 107.7 178.162C101.703 178.162 96.8418 183.015 96.8418 189.002C96.8418 194.989 101.703 199.843 107.7 199.843Z" fill="#F49320"/>
<path d="M161.995 199.843C167.992 199.843 172.854 194.989 172.854 189.002C172.854 183.015 167.992 178.162 161.995 178.162C155.998 178.162 151.137 183.015 151.137 189.002C151.137 194.989 155.998 199.843 161.995 199.843Z" fill="#F49320"/>
<path d="M198.29 76.9981C197.272 75.9823 195.891 75.4111 194.452 75.4111C193.012 75.4111 191.631 75.9823 190.613 76.9981L162.603 104.988L154.182 96.2131C153.184 95.1767 151.814 94.5783 150.375 94.5497C148.935 94.5214 147.543 95.0651 146.505 96.0611C145.467 97.0574 144.867 98.4244 144.839 99.8618C144.81 101.299 145.355 102.689 146.353 103.726L155.116 112.826C156.049 113.833 157.178 114.64 158.433 115.199C159.688 115.758 161.044 116.057 162.418 116.078H162.597C163.944 116.083 165.279 115.82 166.523 115.305C167.767 114.791 168.897 114.035 169.846 113.081L198.29 84.6625C199.308 83.6459 199.88 82.2675 199.88 80.8303C199.88 79.3931 199.308 78.0147 198.29 76.9981Z" fill="#EBC026"/>
<path d="M188.598 118.625C187.896 118.499 187.176 118.512 186.479 118.663C185.782 118.814 185.122 119.101 184.536 119.507C183.95 119.914 183.45 120.431 183.065 121.03C182.679 121.63 182.415 122.299 182.289 123L181.594 126.843C180.917 130.595 178.94 133.991 176.01 136.436C173.079 138.881 169.381 140.22 165.562 140.22H99.1115L94.008 96.8576H129.418C130.858 96.8576 132.239 96.2867 133.257 95.2701C134.276 94.2535 134.847 92.8751 134.847 91.4373C134.847 89.9999 134.276 88.6215 133.257 87.6049C132.239 86.5883 130.858 86.0174 129.418 86.0174H92.7267L92.4986 84.1094C92.0306 80.1557 90.1261 76.5109 87.1462 73.8654C84.1661 71.2202 80.3176 69.7582 76.3298 69.7566H75.1246C73.6847 69.7566 72.3038 70.3275 71.2855 71.3441C70.2672 72.3607 69.6953 73.7394 69.6953 75.1768C69.6953 76.6143 70.2672 77.9927 71.2855 79.0093C72.3038 80.0259 73.6847 80.5971 75.1246 80.5971H76.3298C77.6597 80.5974 78.9434 81.0844 79.9369 81.9667C80.9306 82.8487 81.5658 84.0645 81.7212 85.3832L89.1922 148.8C89.9675 155.395 93.1418 161.477 98.1119 165.89C103.082 170.302 109.503 172.741 116.154 172.741H172.853C174.293 172.741 175.674 172.169 176.692 171.153C177.71 170.137 178.282 168.758 178.282 167.321C178.282 165.883 177.71 164.505 176.692 163.488C175.674 162.472 174.293 161.901 172.853 161.901H116.154C112.785 161.901 109.499 160.859 106.749 158.918C103.998 156.976 101.918 154.231 100.795 151.06H165.562C171.926 151.06 178.089 148.828 182.972 144.753C187.856 140.678 191.15 135.02 192.279 128.767L192.974 124.918C193.229 123.505 192.911 122.048 192.091 120.868C191.27 119.688 190.014 118.881 188.598 118.625Z" fill="#E59245"/>
<path d="M113.132 126.669C120.628 126.669 126.705 120.602 126.705 113.119C126.705 105.635 120.628 99.5679 113.132 99.5679C105.636 99.5679 99.5586 105.635 99.5586 113.119C99.5586 120.602 105.636 126.669 113.132 126.669Z" fill="#04A54F"/>
<path d="M138.919 134.8C144.167 134.8 148.421 130.553 148.421 125.314C148.421 120.075 144.167 115.829 138.919 115.829C133.672 115.829 129.418 120.075 129.418 125.314C129.418 130.553 133.672 134.8 138.919 134.8Z" fill="#292F91"/>
<path d="M164.707 137.51C169.205 137.51 172.851 133.87 172.851 129.379C172.851 124.889 169.205 121.249 164.707 121.249C160.209 121.249 156.562 124.889 156.562 129.379C156.562 133.87 160.209 137.51 164.707 137.51Z" fill="#00B1F0"/>
</g>
<defs>
<radialGradient id="paint0_radial_241_126" cx="0" cy="0" r="1" gradientUnits="userSpaceOnUse" gradientTransform="translate(6 6.0204e-06) rotate(46.3339) scale(561.949)">
<stop stop-color="#FFFBF6"/>
<stop offset="1" stop-color="#FCA351"/>
</radialGradient>
</defs>
</svg>
