<svg width="270" height="270" viewBox="0 0 270 270" fill="none" xmlns="http://www.w3.org/2000/svg">
<rect width="270" height="270" fill="url(#paint0_radial_236_239)"/>
<g opacity="0.21">
<path opacity="0.21" d="M108.819 151.212C109.146 151.341 109.247 151.552 109.117 151.849C106.915 156.959 104.78 160.388 102.712 162.138C102.414 162.4 102.102 162.645 101.777 162.871C101.433 163.164 101.05 163.411 100.641 163.604C100.448 163.671 100.279 163.719 100.159 163.752L100.063 163.801H99.581C99.503 163.803 99.4254 163.786 99.3548 163.752C99.2024 163.731 99.0538 163.691 98.9116 163.633C98.8418 163.6 98.7772 163.559 98.7192 163.508C98.6448 163.471 98.5776 163.421 98.5217 163.36L98.3722 163.216L98.2228 163.067C98.1482 162.963 98.066 162.864 97.9774 162.771C97.778 162.472 97.616 162.15 97.4958 161.813C97.313 161.4 97.1648 160.975 97.0524 160.538C96.855 159.724 96.7056 159.034 96.6096 158.479C96.5758 158.153 96.5324 157.803 96.4844 157.43C96.436 157.056 96.3926 156.711 96.3638 156.4C96.335 156.088 96.287 155.739 96.2386 155.346C96.1906 154.953 96.1472 154.608 96.1134 154.316C96.0846 153.89 95.9978 153.257 95.868 152.4C95.8054 152.17 95.7377 151.892 95.6705 151.566C95.6028 151.241 95.5402 150.997 95.4726 150.733C95.2464 150.115 95.0636 149.674 94.9334 149.411C94.71 148.985 94.4096 148.603 94.0472 148.285C93.8836 148.122 93.7004 147.959 93.503 147.806C93.063 148.043 92.6018 148.239 92.1256 148.391C91.4582 148.63 90.7616 148.778 90.0545 148.831C89.8671 148.838 89.6792 148.822 89.496 148.783C89.3098 148.785 89.1254 148.752 88.9518 148.687C88.7782 148.66 88.6132 148.593 88.47 148.491C88.3206 148.385 88.2159 148.228 88.1762 148.05C88.109 147.999 88.056 147.932 88.0214 147.855C87.9872 147.778 87.9722 147.694 87.9788 147.61C87.9984 147.338 88.094 147.077 88.2552 146.856C88.4158 146.635 88.6354 146.463 88.8892 146.36C89.5448 146.002 90.2844 145.824 91.032 145.842C91.3935 145.842 91.851 145.842 92.4098 145.794L92.9542 145.157C93.5752 144.405 94.1674 143.624 94.7264 142.805C94.9238 142.546 95.463 141.679 96.3542 140.209C97.54 138.24 98.5922 136.195 99.5042 134.087C99.9804 133.068 100.392 132.02 100.737 130.95C100.776 130.871 100.808 130.789 100.833 130.705L100.935 130.408C100.963 130.312 100.992 130.231 101.007 130.164C101.021 130.097 101.05 130.02 101.079 129.92C101.11 129.832 101.135 129.742 101.156 129.651C101.164 129.562 101.164 129.472 101.156 129.383C101.304 128.904 101.403 128.411 101.45 127.913C101.617 127.103 101.617 126.269 101.45 125.46C101.371 125.04 101.208 124.641 100.968 124.286L100.92 124.186L100.819 124.09C100.775 124.022 100.727 123.956 100.675 123.894C100.631 123.853 100.58 123.82 100.525 123.798L100.429 123.649C99.8378 123.191 99.169 122.842 98.454 122.619C98.0638 122.49 97.7992 122.409 97.669 122.375C97.5228 122.348 97.3748 122.332 97.2262 122.327C97.113 122.294 96.9924 122.294 96.8792 122.327C96.3366 122.35 95.81 122.515 95.3524 122.806C94.0418 123.69 92.8577 124.745 91.8318 125.944C90.4456 127.492 89.1846 129.147 88.0606 130.892C86.9792 132.593 86.0404 134.379 85.2528 136.233C85.0216 137.637 84.7712 138.992 84.564 140.3C83.8095 144.972 83.2844 148.727 82.9891 151.566C82.8204 153.233 82.7241 154.556 82.6904 155.537C82.6858 155.945 82.7035 156.353 82.7434 156.759C82.7344 156.941 82.7505 157.123 82.7916 157.3L82.6904 157.396C82.6716 157.398 82.6534 157.404 82.6369 157.413C82.6203 157.422 82.6058 157.434 82.5941 157.449C82.5794 157.46 82.5675 157.475 82.5592 157.491C82.5508 157.508 82.5463 157.526 82.5459 157.545V158.181H82.3678C82.3143 158.156 82.2642 158.124 82.2184 158.086C82.145 158.047 82.0783 157.997 82.021 157.937C81.9098 157.786 81.8115 157.626 81.7272 157.458C81.6932 157.322 81.643 157.19 81.578 157.066C81.5035 156.793 81.4536 156.514 81.4287 156.232C81.3197 155.731 81.2377 155.223 81.1829 154.714C81.0866 153.8 81.0047 152.77 80.9373 151.624C80.8699 149.797 80.8859 147.773 80.9855 145.55C81.0883 142.152 81.3676 138.51 81.8236 134.624C82.1222 131.928 82.4833 129.29 82.9072 126.71L83.3888 123.721C83.4462 123.395 83.6016 123.094 83.8347 122.858C84.0677 122.622 84.3674 122.462 84.6941 122.399C85.0304 122.316 85.381 122.305 85.722 122.369C86.0626 122.433 86.3856 122.569 86.6686 122.768C86.952 122.938 87.1736 123.194 87.3018 123.498C87.43 123.802 87.458 124.138 87.3816 124.459C87.3816 124.555 87.086 126.204 86.4954 129.407C86.2964 130.486 86.0988 131.532 85.9028 132.545C87.1478 130.293 88.5986 128.16 90.2378 126.174C91.8785 124.181 93.4228 122.776 94.8708 121.958C95.4422 121.591 96.0658 121.31 96.7202 121.125C96.8964 121.06 97.0788 121.011 97.2646 120.981L97.7462 120.929C97.8426 120.929 98.0158 120.929 98.2612 120.905H98.743C99.7672 120.83 100.794 120.994 101.744 121.384C101.951 121.44 102.15 121.524 102.336 121.633C102.462 121.723 102.594 121.805 102.731 121.877C102.827 121.973 102.895 122.021 102.929 122.021C102.966 122.059 103.008 122.093 103.054 122.121C103.102 122.155 103.126 122.188 103.126 122.217L103.348 122.39L103.569 122.61C103.665 122.71 103.733 122.773 103.767 122.806C103.818 122.898 103.885 122.98 103.964 123.051L104.161 123.295C104.199 123.34 104.232 123.39 104.258 123.443C104.283 123.498 104.318 123.548 104.359 123.592C104.422 123.688 104.537 123.884 104.701 124.176C105.072 124.899 105.323 125.677 105.442 126.48C105.534 127.015 105.583 127.557 105.587 128.099C105.618 128.786 105.586 129.474 105.491 130.154C105.457 130.351 105.389 130.681 105.293 131.112C105.197 131.544 105.129 131.946 105.096 132.142C104.756 133.433 104.312 134.694 103.767 135.912C102.727 138.275 101.368 140.484 99.7254 142.48C98.9862 143.386 98.1816 144.238 97.3176 145.028C96.8358 145.449 96.383 145.828 95.9882 146.154C96.0404 146.179 96.0888 146.211 96.1326 146.249C96.588 146.462 97.0178 146.726 97.414 147.035C98.0972 147.547 98.6816 148.178 99.1382 148.898C99.3624 149.276 99.5602 149.668 99.7304 150.072C99.9142 150.471 100.075 150.881 100.212 151.298C100.434 152.101 100.595 152.919 100.694 153.746C100.858 155.277 100.858 156.822 100.694 158.354C100.687 158.502 100.669 158.649 100.641 158.795C100.612 158.991 100.578 159.226 100.544 159.503C100.511 159.782 100.477 160.021 100.448 160.217C100.414 160.577 100.39 160.883 100.371 161.147C100.352 161.41 100.371 161.554 100.371 161.587L100.323 161.635L100.275 161.683L100.173 161.784H100.092L100.289 161.879C100.583 161.946 100.89 161.929 101.175 161.832C101.496 161.724 101.796 161.562 102.062 161.353C103.988 159.756 106.008 156.457 108.12 151.456C108.145 151.39 108.184 151.331 108.234 151.281C108.284 151.232 108.345 151.195 108.412 151.171C108.479 151.148 108.55 151.139 108.62 151.146C108.69 151.153 108.758 151.176 108.819 151.212ZM91.3309 146.867H91.037C90.5642 146.851 90.0934 146.934 89.6546 147.112C89.2936 147.279 89.0816 147.442 89.019 147.591C89.079 147.62 89.145 147.636 89.2118 147.638C89.4598 147.669 89.7114 147.653 89.9535 147.591C90.4602 147.452 90.9302 147.205 91.3309 146.867Z" fill="#401B60"/>
<path opacity="0.21" d="M125.445 150.326C125.512 150.348 125.574 150.385 125.624 150.436C125.674 150.486 125.711 150.547 125.733 150.614C125.756 150.681 125.761 150.752 125.751 150.822C125.74 150.892 125.713 150.958 125.671 151.016C124.778 152.64 123.738 154.181 122.565 155.619C119.996 158.854 117.517 160.749 115.128 161.305C114.691 161.424 114.245 161.506 113.794 161.55C113.106 161.645 112.662 161.712 112.465 161.746C112.137 161.746 111.791 161.746 111.429 161.693C111.044 161.608 110.666 161.495 110.298 161.353C109.957 161.228 109.641 161.045 109.363 160.812C108.889 160.473 108.473 160.061 108.13 159.59C107.579 158.822 107.178 157.958 106.95 157.042C106.715 156.13 106.599 155.191 106.604 154.249C106.607 153.308 106.723 152.37 106.95 151.456C107.143 150.549 107.423 149.661 107.789 148.807C108.123 147.978 108.551 147.189 109.065 146.455C109.531 145.756 110.077 145.113 110.693 144.539C111.088 144.209 111.463 143.898 111.824 143.581C112.087 143.394 112.368 143.234 112.662 143.102C112.979 142.929 113.309 142.782 113.65 142.662C113.963 142.552 114.285 142.47 114.613 142.417C115.103 142.353 115.598 142.336 116.092 142.365L116.241 142.417H116.467C116.578 142.452 116.694 142.468 116.809 142.465C117.027 142.495 117.241 142.545 117.45 142.614C117.882 142.725 118.288 142.921 118.643 143.19C118.999 143.459 119.297 143.796 119.521 144.18C119.991 145.032 120.147 146.019 119.964 146.973C119.677 148.907 118.697 150.673 117.204 151.945C115.497 153.474 113.337 154.411 111.049 154.618C110.985 155.203 110.952 155.792 110.948 156.381C110.958 156.893 111.024 157.402 111.145 157.899C111.205 158.173 111.304 158.438 111.439 158.685C111.517 158.845 111.617 158.994 111.738 159.125C111.882 159.301 112.043 159.462 112.22 159.604C112.391 159.749 112.573 159.88 112.763 159.997C113.08 160.18 113.431 160.296 113.794 160.337C114.154 160.406 114.525 160.389 114.878 160.29C115.985 160.003 117.018 159.485 117.907 158.771C118.867 158.055 119.758 157.253 120.571 156.376C121.352 155.502 122.084 154.586 122.762 153.631C123.485 152.619 123.966 151.9 124.207 151.476C124.397 151.158 124.569 150.83 124.723 150.493C124.754 150.431 124.799 150.375 124.855 150.332C124.91 150.288 124.975 150.257 125.044 150.241C125.113 150.225 125.185 150.224 125.254 150.239C125.323 150.253 125.388 150.283 125.445 150.326ZM111.429 152.434C111.333 152.826 111.251 153.219 111.184 153.612C112.672 153.417 114.096 152.89 115.35 152.07C116.395 151.417 117.285 150.548 117.96 149.521C118.464 148.719 118.806 147.828 118.967 146.896C119.088 146.172 118.977 145.428 118.649 144.769C118.499 144.49 118.294 144.243 118.046 144.045C117.797 143.847 117.511 143.7 117.204 143.615C116.866 143.519 116.507 143.519 116.169 143.615C115.84 143.684 115.535 143.835 115.282 144.056C115.108 144.2 114.946 144.36 114.801 144.535C114.603 144.76 114.44 144.956 114.32 145.119C114.199 145.282 114.074 145.545 113.973 145.708C113.773 146.006 113.593 146.317 113.433 146.638C113.332 146.834 113.087 147.423 112.691 148.405C112.528 148.827 112.296 149.483 112.003 150.364C111.709 151.246 111.531 151.945 111.429 152.434Z" fill="#401B60"/>
<path opacity="0.21" d="M141.994 151.749C141.459 152.272 140.864 152.732 140.222 153.118C139.655 153.48 139.063 153.8 138.449 154.076C137.968 154.287 137.25 154.555 136.33 154.886C135.574 155.178 135.016 155.408 134.654 155.571C134.793 155.739 134.941 155.899 135.097 156.05C135.357 156.347 135.579 156.625 135.786 156.883C136 157.183 136.198 157.493 136.378 157.813C136.533 158.181 136.665 158.559 136.774 158.943C136.841 159.217 136.889 159.496 136.918 159.776C136.955 160.152 136.938 160.531 136.87 160.902C136.743 161.721 136.412 162.495 135.907 163.154C135.519 163.707 135.054 164.203 134.524 164.624L134.23 164.921L133.985 165.113C133.84 165.173 133.706 165.257 133.59 165.362C132.898 165.848 132.155 166.257 131.374 166.584C130.832 166.836 130.271 167.049 129.698 167.221C129.087 167.377 128.453 167.427 127.825 167.369C127.322 167.269 126.86 167.026 126.493 166.67C126.126 166.313 125.871 165.859 125.759 165.362C125.425 164.284 125.425 163.13 125.759 162.052C126.032 160.926 126.591 159.889 127.382 159.039C128.057 158.4 128.764 157.796 129.501 157.228C129.238 157.03 129.077 156.915 129.019 156.883C128.062 156.197 127.141 155.461 126.26 154.68C125.796 154.223 125.368 153.731 124.979 153.209C124.538 152.654 124.174 152.044 123.895 151.394C123.697 150.842 123.581 150.264 123.548 149.679C123.515 149.485 123.515 149.288 123.548 149.094V148.798C123.549 148.698 123.567 148.599 123.601 148.505C123.594 148.406 123.611 148.306 123.649 148.213C123.649 148.112 123.665 148.012 123.697 147.916C123.727 147.733 123.777 147.552 123.847 147.38C124.053 146.704 124.352 146.06 124.733 145.464C124.822 145.354 124.904 145.239 124.979 145.119C125.069 145.029 125.151 144.931 125.224 144.826C125.292 144.76 125.402 144.63 125.571 144.434C126.219 143.775 127.01 143.272 127.883 142.963L128.133 142.868L128.326 142.819L128.769 142.671L129.217 142.57H129.313C129.36 142.546 129.41 142.53 129.462 142.523H129.66C129.737 142.484 129.82 142.46 129.905 142.451C129.971 142.445 130.037 142.445 130.103 142.451H130.546C130.587 142.448 130.628 142.44 130.666 142.427C130.706 142.41 130.749 142.4 130.792 142.398H131.398C133.238 142.497 134.978 143.364 136.619 144.999C136.673 145.044 136.716 145.1 136.746 145.164C136.775 145.227 136.791 145.296 136.791 145.366C136.791 145.435 136.775 145.504 136.746 145.567C136.716 145.631 136.673 145.687 136.619 145.732C136.521 145.827 136.388 145.88 136.251 145.88C136.113 145.88 135.981 145.827 135.882 145.732C134.437 144.263 132.927 143.495 131.35 143.428H131.004L130.806 143.476H130.657L130.266 143.576C130.149 143.599 130.033 143.631 129.92 143.672L129.771 143.773L129.626 143.821L129.327 144.017C129.224 144.075 129.126 144.14 129.033 144.213L128.884 144.362L128.788 144.458C128.319 144.927 127.935 145.476 127.656 146.077C127.621 146.181 127.571 146.279 127.507 146.369C127.478 146.447 127.462 146.53 127.459 146.613C127.412 146.689 127.378 146.771 127.358 146.858C127.221 147.252 127.154 147.667 127.16 148.084V148.525C127.168 148.576 127.184 148.627 127.208 148.673V148.965C127.242 148.965 127.261 148.999 127.261 149.066C127.289 149.09 127.306 149.125 127.309 149.162L127.603 149.751C128.059 150.369 128.608 150.913 129.231 151.365C129.822 151.86 130.642 152.465 131.692 153.181C132.611 153.867 133.317 154.405 133.811 154.795L135.93 153.961C136.852 153.604 137.541 153.326 137.997 153.128C138.56 152.882 139.104 152.595 139.625 152.27C140.207 151.928 140.753 151.527 141.253 151.073C141.29 151.013 141.341 150.964 141.402 150.928C141.463 150.893 141.532 150.874 141.602 150.871C141.673 150.869 141.743 150.884 141.806 150.915C141.87 150.946 141.924 150.992 141.966 151.049C142.021 151.088 142.067 151.139 142.1 151.199C142.132 151.258 142.151 151.324 142.153 151.392C142.156 151.459 142.143 151.526 142.116 151.588C142.088 151.65 142.046 151.705 141.994 151.749ZM132.93 161.501C133.053 161.197 133.105 160.869 133.079 160.543C133.025 160.407 132.959 160.275 132.882 160.15C132.838 160.04 132.771 159.94 132.684 159.858C132.617 159.762 132.521 159.628 132.386 159.465L131.996 159.072C131.827 158.954 131.666 158.824 131.514 158.684C131.22 158.454 130.84 158.177 130.382 157.851C129.582 158.414 128.826 159.035 128.119 159.71C127.401 160.463 126.902 161.395 126.674 162.407C126.406 163.268 126.406 164.189 126.674 165.051C126.742 165.362 126.9 165.648 127.127 165.874C127.354 166.1 127.641 166.257 127.955 166.325C128.397 166.383 128.847 166.298 129.236 166.081C129.657 165.828 130.039 165.515 130.368 165.151C130.855 164.619 131.315 164.063 131.745 163.484C131.816 163.361 131.9 163.245 131.996 163.14C132.193 162.847 132.304 162.661 132.338 162.661C132.568 162.294 132.76 161.906 132.911 161.501H132.93Z" fill="#401B60"/>
<path opacity="0.21" d="M158.749 150.326C158.816 150.349 158.876 150.387 158.926 150.437C158.975 150.487 159.013 150.548 159.035 150.616C159.056 150.682 159.061 150.754 159.05 150.823C159.039 150.893 159.011 150.959 158.97 151.016C158.077 152.64 157.037 154.181 155.864 155.619C153.295 158.854 150.816 160.749 148.428 161.305C147.992 161.423 147.547 161.505 147.098 161.55C146.405 161.645 145.961 161.712 145.764 161.746C145.436 161.746 145.094 161.746 144.733 161.693C144.346 161.609 143.966 161.495 143.597 161.353C143.256 161.228 142.94 161.045 142.662 160.812C142.188 160.473 141.772 160.061 141.429 159.59C140.88 158.822 140.479 157.957 140.249 157.042C140.014 156.13 139.898 155.191 139.902 154.249C139.906 153.308 140.022 152.37 140.249 151.456C140.446 150.55 140.727 149.663 141.087 148.807C141.422 147.977 141.852 147.188 142.368 146.455C142.831 145.755 143.376 145.112 143.992 144.539C144.386 144.209 144.762 143.898 145.124 143.581C145.387 143.396 145.667 143.235 145.961 143.102C146.271 142.931 146.592 142.784 146.924 142.662C147.238 142.552 147.561 142.47 147.888 142.417C148.378 142.353 148.873 142.336 149.366 142.365L149.515 142.417H149.713C149.824 142.452 149.939 142.468 150.056 142.465C150.274 142.495 150.491 142.545 150.701 142.614C151.132 142.726 151.536 142.922 151.892 143.191C152.246 143.46 152.543 143.796 152.767 144.18C153.239 145.031 153.395 146.019 153.21 146.973C152.922 148.907 151.943 150.673 150.451 151.945C148.743 153.474 146.583 154.411 144.295 154.618C144.231 155.203 144.197 155.792 144.194 156.381C144.204 156.893 144.27 157.402 144.391 157.899C144.45 158.175 144.551 158.44 144.69 158.685C144.766 158.845 144.865 158.993 144.984 159.125C145.129 159.3 145.289 159.461 145.465 159.604C145.638 159.748 145.819 159.879 146.009 159.997C146.328 160.18 146.68 160.296 147.045 160.337C147.405 160.406 147.776 160.389 148.128 160.29C149.234 160.001 150.267 159.484 151.159 158.771C152.114 158.054 153.005 157.252 153.817 156.376C154.598 155.502 155.329 154.586 156.009 153.631C156.731 152.619 157.212 151.9 157.453 151.476C157.644 151.158 157.815 150.83 157.968 150.493C157.998 150.421 158.044 150.356 158.105 150.306C158.165 150.255 158.237 150.22 158.314 150.204C158.391 150.187 158.471 150.19 158.546 150.211C158.622 150.232 158.692 150.272 158.749 150.326ZM144.733 152.434C144.632 152.826 144.55 153.219 144.483 153.612C145.97 153.417 147.395 152.89 148.649 152.07C149.695 151.419 150.586 150.549 151.26 149.521C151.763 148.719 152.105 147.828 152.266 146.896C152.387 146.172 152.276 145.428 151.948 144.769C151.799 144.489 151.594 144.243 151.345 144.044C151.097 143.845 150.81 143.7 150.503 143.615C150.167 143.519 149.809 143.519 149.472 143.615C149.142 143.682 148.834 143.834 148.582 144.056C148.406 144.2 148.245 144.36 148.1 144.535C147.903 144.76 147.738 144.956 147.619 145.119C147.497 145.282 147.373 145.545 147.272 145.708C147.072 146.006 146.892 146.317 146.732 146.638C146.631 146.834 146.385 147.423 145.991 148.405C145.826 148.827 145.596 149.483 145.302 150.364C145.008 151.246 144.83 151.945 144.733 152.434Z" fill="#401B60"/>
<path opacity="0.21" d="M174.854 151.063C174.919 151.078 174.981 151.109 175.033 151.152C175.085 151.196 175.125 151.251 175.152 151.313C175.178 151.375 175.19 151.443 175.185 151.51C175.179 151.578 175.159 151.643 175.123 151.7C174.93 152.222 174.641 152.883 174.29 153.683C173.939 154.483 173.361 155.686 172.589 157.286C171.873 158.787 171.048 160.236 170.124 161.621C169.502 162.643 168.683 163.533 167.716 164.241C167.547 164.411 167.346 164.545 167.124 164.634C167.003 164.698 166.869 164.733 166.733 164.734C166.691 164.768 166.637 164.785 166.584 164.782H166.482C166.382 164.786 166.283 164.769 166.189 164.734C165.963 164.703 165.755 164.599 165.597 164.437C165.474 164.314 165.36 164.182 165.255 164.044C165.113 163.83 164.996 163.601 164.907 163.36C164.799 162.94 164.717 162.515 164.662 162.085C164.6 161.681 164.568 161.273 164.566 160.864C164.549 159.339 164.647 157.814 164.859 156.303C164.893 155.882 164.951 155.398 165.033 154.866C165.115 154.335 165.196 153.794 165.279 153.272C165.361 152.749 165.418 152.314 165.452 151.901C165.549 151.054 165.616 150.397 165.65 149.942C165.374 150.103 165.111 150.282 164.859 150.479L164.345 150.872C164.128 151.035 163.907 151.197 163.675 151.35C163.444 151.504 163.232 151.681 163.034 151.83C162.686 152.063 162.325 152.276 161.951 152.467C161.509 152.671 161.047 152.832 160.573 152.946C160.311 152.978 160.047 152.994 159.784 152.993H159.34C159.156 152.964 158.975 152.914 158.801 152.845C158.468 152.713 158.167 152.514 157.915 152.261C157.711 152.046 157.547 151.796 157.433 151.523C157.226 151.092 157.095 150.628 157.043 150.153C156.973 149.732 156.939 149.306 156.941 148.879C156.974 148.045 157.122 147.219 157.385 146.426C157.636 145.6 158.056 144.833 158.617 144.175C158.924 143.832 159.291 143.55 159.701 143.341C160.134 143.149 160.607 143.065 161.079 143.097C161.349 143.067 161.622 143.128 161.854 143.269C162.087 143.41 162.264 143.625 162.36 143.878C162.659 144.568 162.467 145.579 161.797 146.92C161.149 148.213 160.382 149.443 159.504 150.594C159.504 150.612 159.509 150.63 159.517 150.647C159.525 150.664 159.538 150.678 159.552 150.69H159.701C159.818 150.664 159.934 150.632 160.048 150.594C160.615 150.438 161.138 150.153 161.575 149.76L162.437 149.027C162.813 148.697 163.082 148.472 163.246 148.338C163.641 148.012 163.988 147.753 164.281 147.557C164.736 147.275 165.236 147.075 165.76 146.968C165.905 146.933 166.054 146.917 166.203 146.92H166.647C166.764 146.917 166.881 146.933 166.993 146.968C167.189 147.033 167.372 147.132 167.533 147.26C167.68 147.375 167.812 147.506 167.927 147.652C168.065 147.828 168.166 148.028 168.227 148.242C168.327 148.527 168.391 148.823 168.419 149.123C168.455 149.35 168.474 149.579 168.472 149.808C168.472 150.134 168.472 150.546 168.419 151.035C168.385 151.394 168.356 151.786 168.323 152.208C168.255 152.797 168.159 153.549 168.028 154.464C167.894 155.216 167.778 155.949 167.682 156.667C167.581 157.094 167.451 157.789 167.287 158.751C167.124 159.714 166.993 160.457 166.892 160.979C166.791 161.501 166.776 161.846 166.748 162.009C166.714 162.368 166.695 162.679 166.695 162.938C166.69 163.04 166.708 163.141 166.748 163.235V163.331H166.647V163.379H166.796C166.929 163.41 167.069 163.393 167.191 163.331C168.208 162.692 169.406 161.076 170.784 158.483C172.05 156.152 173.185 153.754 174.184 151.298C174.205 151.233 174.242 151.174 174.29 151.125C174.338 151.077 174.396 151.039 174.46 151.017C174.526 150.994 174.594 150.987 174.663 150.994C174.731 151.003 174.795 151.026 174.854 151.063ZM159.066 149.545C159.753 148.564 160.363 147.531 160.887 146.455C161.413 145.379 161.594 144.66 161.431 144.299C161.395 144.204 161.28 144.156 161.084 144.156C160.797 144.19 160.524 144.299 160.294 144.472C160.073 144.661 159.875 144.875 159.701 145.109C159.371 145.665 159.154 146.28 159.061 146.92C158.93 147.566 158.898 148.228 158.965 148.884C158.968 149.108 159.001 149.33 159.066 149.545Z" fill="#401B60"/>
<path opacity="0.21" d="M188.798 150.963C189.072 151.159 189.101 151.403 188.869 151.7C188.695 151.955 188.505 152.2 188.302 152.433C187.866 152.892 187.38 153.303 186.856 153.659C186.236 154.14 185.523 154.49 184.761 154.689C184.471 154.752 184.174 154.784 183.875 154.785C183.792 154.783 183.708 154.766 183.629 154.737C182.522 158.113 181.313 160.334 180.003 161.4C179.978 161.429 179.949 161.453 179.915 161.471C179.881 161.488 179.843 161.498 179.806 161.501C179.599 161.74 179.349 161.939 179.068 162.085C178.901 162.184 178.717 162.251 178.524 162.282C178.407 162.29 178.292 162.306 178.178 162.33C178.079 162.32 177.981 162.304 177.884 162.282C177.459 162.239 177.052 162.087 176.704 161.841C176.383 161.626 176.1 161.361 175.866 161.055C175.469 160.544 175.138 159.985 174.878 159.393C174.634 158.866 174.42 158.326 174.238 157.774C173.889 156.738 173.643 155.671 173.501 154.589C173.333 153.638 173.216 152.678 173.154 151.715C173.058 150.263 173.058 148.807 173.154 147.355L173.255 145.688C173.318 145.392 173.564 145.181 173.993 145.052C174.461 144.917 174.95 144.866 175.438 144.903C175.908 144.918 176.37 145.036 176.791 145.248C177.152 145.444 177.335 145.669 177.335 145.933C177.301 146.053 177.284 146.177 177.282 146.301C177.281 146.425 177.266 146.547 177.234 146.666C177.166 147.322 177.103 147.959 177.036 148.582C176.873 150.737 176.791 152.664 176.791 154.363C176.782 155.397 176.848 156.429 176.988 157.453C177.063 158.309 177.264 159.149 177.58 159.949C177.585 160.001 177.602 160.052 177.628 160.097C177.643 160.109 177.654 160.124 177.662 160.14C177.671 160.157 177.675 160.175 177.676 160.193C177.719 160.264 177.769 160.33 177.826 160.389C177.889 160.49 177.956 160.586 178.023 160.687L178.27 160.83C178.347 160.861 178.431 160.879 178.515 160.883C178.652 160.874 178.785 160.84 178.91 160.782C179.015 160.779 179.117 160.746 179.203 160.687L179.305 160.586L179.353 160.634C180.505 159.676 181.63 157.586 182.724 154.363C181.706 153.584 181.198 151.987 181.198 149.573C181.168 148.023 181.419 146.48 181.939 145.018C182.56 143.418 183.384 142.623 184.4 142.623C184.636 142.62 184.866 142.696 185.054 142.839C185.241 142.981 185.376 143.182 185.436 143.408C185.672 144.674 185.68 145.972 185.46 147.24C185.215 148.992 184.862 150.726 184.4 152.433C184.27 152.912 184.14 153.348 184.005 153.803C184.206 153.804 184.406 153.772 184.597 153.707C185.237 153.539 185.832 153.239 186.346 152.826C186.788 152.512 187.201 152.159 187.58 151.772C187.764 151.563 187.937 151.342 188.094 151.111C188.128 151.052 188.174 151.002 188.229 150.962C188.283 150.922 188.347 150.894 188.413 150.88C188.479 150.866 188.548 150.866 188.614 150.88C188.68 150.894 188.743 150.923 188.798 150.963ZM183.056 153.266C184.046 150 184.555 147.285 184.583 145.123C184.631 144.609 184.564 144.09 184.386 143.605C183.827 143.64 183.334 144.211 182.907 145.32C182.425 146.672 182.191 148.1 182.219 149.535C182.219 151.304 182.498 152.548 183.056 153.266Z" fill="#401B60"/>
<path opacity="0.21" d="M205.891 150.326C205.958 150.349 206.018 150.387 206.068 150.437C206.117 150.487 206.155 150.548 206.176 150.616C206.198 150.682 206.203 150.754 206.192 150.823C206.181 150.893 206.153 150.959 206.112 151.016C205.221 152.64 204.182 154.181 203.011 155.619C200.441 158.854 197.961 160.75 195.569 161.305C195.133 161.424 194.689 161.506 194.24 161.55C193.551 161.645 193.108 161.712 192.91 161.746C192.583 161.746 192.236 161.746 191.875 161.693C191.489 161.609 191.111 161.495 190.743 161.353C190.393 161.231 190.066 161.048 189.78 160.812C189.308 160.472 188.893 160.06 188.552 159.59C188.001 158.822 187.598 157.957 187.367 157.042C187.136 156.129 187.021 155.191 187.025 154.249C187.029 153.308 187.144 152.371 187.367 151.456C187.564 150.55 187.845 149.663 188.205 148.808C188.541 147.978 188.971 147.189 189.486 146.455C189.95 145.755 190.497 145.112 191.114 144.539C191.504 144.209 191.885 143.898 192.246 143.581C192.509 143.395 192.79 143.234 193.084 143.102C193.392 142.93 193.715 142.783 194.048 142.662C194.367 142.55 194.698 142.468 195.034 142.417C195.525 142.353 196.02 142.336 196.513 142.365L196.658 142.417H196.898C197.011 142.452 197.128 142.468 197.245 142.465C197.463 142.495 197.677 142.545 197.886 142.614C198.318 142.725 198.723 142.92 199.079 143.189C199.433 143.458 199.73 143.795 199.952 144.18C200.427 145.03 200.583 146.019 200.395 146.973C200.112 148.907 199.133 150.674 197.641 151.945C195.931 153.474 193.77 154.412 191.48 154.618C191.418 155.203 191.385 155.792 191.383 156.381C191.389 156.893 191.456 157.403 191.581 157.899C191.639 158.174 191.738 158.439 191.875 158.685C191.951 158.845 192.05 158.993 192.169 159.126C192.314 159.3 192.475 159.46 192.651 159.605C192.821 159.748 193.001 159.879 193.19 159.997C193.509 160.18 193.861 160.296 194.225 160.337C194.585 160.406 194.957 160.389 195.309 160.29C196.415 160.002 197.448 159.484 198.338 158.771C199.297 158.056 200.188 157.255 200.997 156.376C201.78 155.502 202.513 154.586 203.193 153.631C203.911 152.62 204.397 151.902 204.638 151.476C204.879 151.049 205.057 150.724 205.158 150.494C205.19 150.429 205.235 150.372 205.291 150.328C205.348 150.283 205.414 150.251 205.484 150.235C205.555 150.219 205.627 150.219 205.698 150.235C205.768 150.25 205.833 150.282 205.891 150.326ZM191.875 152.434C191.779 152.827 191.692 153.219 191.629 153.612C193.115 153.416 194.538 152.889 195.791 152.07C196.838 151.42 197.728 150.55 198.401 149.521C198.908 148.721 199.251 147.829 199.413 146.896C199.529 146.171 199.417 145.428 199.09 144.769C198.941 144.489 198.735 144.242 198.487 144.044C198.239 143.845 197.952 143.699 197.645 143.615C197.307 143.519 196.948 143.519 196.609 143.615C196.28 143.683 195.975 143.834 195.724 144.056C195.546 144.198 195.385 144.358 195.242 144.535C195.045 144.76 194.875 144.956 194.76 145.119C194.644 145.282 194.515 145.545 194.419 145.708C194.217 146.006 194.036 146.317 193.874 146.638C193.777 146.832 193.532 147.422 193.137 148.405C192.973 148.827 192.743 149.483 192.443 150.364C192.145 151.246 191.972 151.945 191.875 152.434Z" fill="#401B60"/>
</g>
<g opacity="0.82">
<path opacity="0.82" d="M109.074 151.543L109.555 151.739C109.887 151.873 109.984 152.084 109.854 152.376C107.661 157.508 105.53 160.941 103.463 162.675C103.167 162.94 102.855 163.187 102.528 163.413C102.185 163.706 101.805 163.952 101.396 164.146C101.199 164.213 101.03 164.261 100.915 164.294L100.818 164.342H100.337C100.26 164.344 100.184 164.328 100.115 164.294C99.9627 164.273 99.8132 164.231 99.6722 164.169C99.6008 164.139 99.5344 164.099 99.4748 164.05C99.4004 164.012 99.3337 163.962 99.2774 163.901L99.1279 163.753L98.9785 163.609C98.905 163.504 98.8228 163.404 98.733 163.312C98.5344 163.013 98.3728 162.691 98.2514 162.354C98.0686 161.942 97.9204 161.516 97.8081 161.08C97.6107 160.261 97.4617 159.576 97.3652 159.02C97.3314 158.694 97.288 158.345 97.24 157.966C97.1916 157.588 97.1486 157.248 97.1194 156.936C97.0906 156.625 97.0426 156.276 96.9942 155.882C96.9462 155.49 96.9028 155.15 96.874 154.858C96.8402 154.431 96.7584 153.794 96.6236 152.941C96.561 152.712 96.4934 152.433 96.4262 152.108C96.3585 151.782 96.2959 151.538 96.2333 151.274C96.002 150.656 95.8192 150.211 95.689 149.952C95.4674 149.51 95.1635 149.113 94.7933 148.783C94.6297 148.621 94.4464 148.458 94.249 148.304C93.8108 148.546 93.3491 148.743 92.8716 148.893C92.2038 149.13 91.5076 149.279 90.8006 149.334C90.6194 149.34 90.4386 149.324 90.2612 149.287C90.0751 149.288 89.8902 149.254 89.717 149.186C89.5425 149.162 89.3768 149.094 89.2353 148.989C89.085 148.885 88.9798 148.727 88.9414 148.549C88.8742 148.497 88.8208 148.431 88.7862 148.353C88.7516 148.277 88.7374 148.192 88.744 148.108C88.7645 147.84 88.8584 147.581 89.0166 147.363C89.1748 147.144 89.3902 146.972 89.6398 146.867C90.2959 146.51 91.0355 146.332 91.783 146.35C92.1446 146.35 92.602 146.35 93.1604 146.302L93.7048 145.665C94.3262 144.913 94.9185 144.132 95.4774 143.313C95.6732 143.054 96.2158 142.189 97.1052 140.717C98.291 138.746 99.3432 136.7 100.255 134.59C100.732 133.573 101.144 132.527 101.488 131.457C101.527 131.379 101.559 131.297 101.584 131.213L101.685 130.916C101.715 130.836 101.739 130.755 101.757 130.672C101.757 130.605 101.801 130.523 101.835 130.428C101.869 130.332 101.888 130.241 101.907 130.159C101.915 130.069 101.915 129.977 101.907 129.886C102.057 129.41 102.156 128.918 102.201 128.421C102.368 127.612 102.368 126.777 102.201 125.968C102.122 125.548 101.958 125.149 101.719 124.794L101.671 124.694L101.57 124.598C101.527 124.529 101.479 124.463 101.425 124.402C101.381 124.36 101.331 124.326 101.276 124.301L101.18 124.157C100.59 123.7 99.9226 123.352 99.2097 123.127C98.8148 122.998 98.5498 122.917 98.42 122.883C98.2739 122.856 98.1258 122.84 97.9768 122.835C97.8636 122.802 97.743 122.802 97.6299 122.835C97.0877 122.858 96.561 123.024 96.1035 123.314C94.7916 124.194 93.607 125.248 92.5828 126.447C91.2004 127.998 89.9398 129.652 88.8116 131.395C87.7323 133.097 86.7932 134.884 86.0034 136.736C85.7789 138.145 85.5494 139.5 85.3148 140.803C84.5699 145.485 84.0498 149.245 83.7545 152.084C83.5906 153.751 83.4912 155.073 83.4557 156.05C83.4511 156.459 83.4688 156.869 83.5087 157.276C83.4996 157.458 83.5159 157.64 83.5569 157.818L83.4557 157.913C83.4192 157.918 83.3853 157.935 83.3595 157.962C83.3449 157.974 83.3331 157.99 83.3248 158.007C83.3165 158.024 83.3119 158.043 83.3113 158.062V158.699H83.1138C83.059 158.674 83.0086 158.64 82.9645 158.598C82.8912 158.562 82.8244 158.513 82.7671 158.455C82.6562 158.303 82.5579 158.143 82.4733 157.976C82.4383 157.841 82.3883 157.711 82.324 157.588C82.2496 157.315 82.1996 157.036 82.1746 156.754C82.0662 156.253 81.9842 155.746 81.929 155.236C81.8327 154.322 81.7508 153.293 81.6834 152.146C81.616 150.316 81.632 148.292 81.7316 146.072C81.8343 142.675 82.1137 139.032 82.5696 135.146C82.8682 132.467 83.2294 129.837 83.6533 127.257L84.1349 124.268C84.1857 123.934 84.3403 123.624 84.5769 123.382C84.8134 123.139 85.1202 122.977 85.4546 122.917C85.7902 122.834 86.14 122.824 86.4797 122.888C86.8198 122.951 87.1421 123.087 87.4242 123.285C87.7076 123.456 87.9297 123.712 88.0578 124.015C88.1856 124.319 88.2136 124.656 88.1372 124.976C88.1372 125.072 87.8416 126.722 87.251 129.925C87.0552 131.001 86.8578 132.05 86.6588 133.072C87.9046 130.822 89.3555 128.691 90.9934 126.706C92.6342 124.713 94.1785 123.308 95.6264 122.49C96.187 122.122 96.801 121.841 97.447 121.657C97.6224 121.588 97.8048 121.538 97.9914 121.508L98.473 121.46L98.9881 121.436H99.4698C100.496 121.357 101.526 121.521 102.475 121.916C102.681 121.971 102.879 122.053 103.063 122.16C103.187 122.252 103.32 122.334 103.458 122.404C103.559 122.505 103.622 122.553 103.655 122.553C103.693 122.591 103.735 122.624 103.781 122.653C103.829 122.682 103.853 122.716 103.853 122.749L104.074 122.921L104.296 123.142C104.397 123.238 104.46 123.305 104.493 123.338C104.546 123.429 104.613 123.512 104.691 123.583L104.888 123.827C104.926 123.872 104.958 123.922 104.984 123.975C105.01 124.028 105.044 124.077 105.086 124.119C105.148 124.22 105.264 124.416 105.428 124.708C105.8 125.431 106.05 126.209 106.169 127.012C106.261 127.546 106.309 128.085 106.314 128.627C106.345 129.315 106.313 130.004 106.217 130.686C106.184 130.883 106.116 131.208 106.02 131.644C105.924 132.08 105.871 132.497 105.822 132.679C105.486 133.972 105.042 135.234 104.493 136.454C103.457 138.822 102.098 141.037 100.452 143.035C99.7118 143.941 98.9071 144.792 98.0444 145.584C97.5627 146.005 97.1098 146.384 96.715 146.709C96.768 146.736 96.8176 146.768 96.8644 146.805C97.3176 147.019 97.7455 147.283 98.1408 147.591C98.8248 148.102 99.4096 148.733 99.865 149.454C100.09 149.831 100.288 150.223 100.457 150.628C100.639 151.028 100.8 151.437 100.939 151.854C101.161 152.657 101.322 153.475 101.421 154.302C101.585 155.833 101.585 157.378 101.421 158.91C101.414 159.057 101.398 159.205 101.372 159.351C101.338 159.547 101.305 159.782 101.271 160.06C101.237 160.337 101.204 160.572 101.175 160.768C101.141 161.128 101.117 161.439 101.098 161.702C101.078 161.966 101.098 162.11 101.098 162.143L101.05 162.191L101.002 162.239L100.9 162.34H100.852L101.05 162.436C101.344 162.499 101.65 162.483 101.936 162.387C102.255 162.277 102.555 162.115 102.822 161.908C104.749 160.312 106.768 157.011 108.881 152.007L109.074 151.543ZM92.0769 147.38H91.783C91.3118 147.364 90.8422 147.447 90.4057 147.624C90.0446 147.787 89.8276 147.95 89.765 148.103C89.8255 148.137 89.8936 148.155 89.9624 148.156C90.2095 148.185 90.4595 148.167 90.6995 148.103C91.2075 147.968 91.6783 147.721 92.0769 147.38Z" fill="black"/>
<path opacity="0.82" d="M125.724 150.613L126.206 150.857C126.272 150.879 126.333 150.917 126.383 150.966C126.433 151.016 126.469 151.077 126.491 151.144C126.513 151.211 126.518 151.282 126.507 151.351C126.496 151.42 126.469 151.486 126.427 151.542C125.533 153.169 124.493 154.711 123.321 156.151C120.752 159.385 118.273 161.279 115.884 161.832C115.45 161.954 115.005 162.036 114.555 162.076L113.221 162.272C112.893 162.272 112.546 162.272 112.19 162.224C111.803 162.14 111.423 162.027 111.053 161.884C110.713 161.759 110.397 161.576 110.119 161.343C109.643 161.004 109.227 160.59 108.886 160.117C108.337 159.35 107.936 158.487 107.706 157.573C107.471 156.659 107.355 155.719 107.36 154.776C107.363 153.834 107.479 152.897 107.706 151.983C107.903 151.078 108.184 150.193 108.544 149.339C108.878 148.508 109.308 147.719 109.825 146.987C110.29 146.288 110.834 145.645 111.448 145.071L112.58 144.141C112.842 143.954 113.123 143.794 113.418 143.662C113.728 143.491 114.049 143.344 114.382 143.222C114.694 143.108 115.017 143.025 115.345 142.973C115.835 142.91 116.33 142.894 116.823 142.925L116.972 142.973H117.17C117.28 143.009 117.396 143.027 117.512 143.025C117.729 143.056 117.943 143.104 118.153 143.169C118.585 143.281 118.991 143.478 119.347 143.747C119.703 144.017 120.001 144.355 120.224 144.74C120.696 145.591 120.853 146.579 120.667 147.533C120.38 149.467 119.4 151.233 117.907 152.505C116.2 154.034 114.04 154.971 111.752 155.173C111.688 155.759 111.654 156.347 111.651 156.936C111.661 157.449 111.727 157.96 111.848 158.459C111.907 158.733 112.007 158.997 112.147 159.24C112.22 159.402 112.32 159.55 112.44 159.681C112.583 159.858 112.744 160.018 112.922 160.159C113.093 160.303 113.275 160.433 113.466 160.548C113.784 160.732 114.137 160.85 114.502 160.893C114.862 160.959 115.233 160.942 115.585 160.845C116.691 160.554 117.723 160.037 118.615 159.326C119.573 158.61 120.463 157.808 121.274 156.931C122.056 156.06 122.788 155.145 123.465 154.191C124.187 153.176 124.669 152.457 124.91 152.036C125.1 151.718 125.272 151.39 125.425 151.054L125.724 150.613ZM112.18 152.965C112.079 153.358 111.998 153.75 111.93 154.139C113.419 153.948 114.844 153.42 116.096 152.596C117.143 151.946 118.034 151.077 118.706 150.048C119.211 149.248 119.553 148.358 119.713 147.427C119.833 146.701 119.722 145.956 119.395 145.296C119.245 145.017 119.04 144.771 118.791 144.574C118.543 144.376 118.257 144.231 117.95 144.146C117.614 144.046 117.256 144.046 116.92 144.146C116.589 144.213 116.282 144.365 116.029 144.587C115.853 144.731 115.692 144.891 115.547 145.066C115.348 145.296 115.187 145.492 115.065 145.655C114.934 145.885 114.818 146.082 114.719 146.244C114.519 146.542 114.339 146.853 114.179 147.174C114.078 147.37 113.832 147.959 113.438 148.936C113.274 149.363 113.043 150.014 112.749 150.895C112.455 151.777 112.277 152.476 112.18 152.965Z" fill="black"/>
<path opacity="0.82" d="M142.721 152.281C142.185 152.805 141.591 153.265 140.948 153.651C140.38 154.01 139.788 154.331 139.176 154.609C138.694 154.82 137.977 155.088 137.057 155.414C136.302 155.711 135.743 155.94 135.381 156.103C135.519 156.271 135.667 156.431 135.824 156.582C136.089 156.875 136.305 157.152 136.512 157.416C136.726 157.715 136.924 158.025 137.105 158.345C137.259 158.712 137.391 159.088 137.5 159.471C137.566 159.745 137.616 160.024 137.649 160.304C137.682 160.682 137.664 161.062 137.596 161.435C137.469 162.253 137.138 163.028 136.633 163.686C136.244 164.242 135.779 164.74 135.251 165.166C135.222 165.2 135.121 165.296 134.957 165.458L134.711 165.655C134.567 165.714 134.434 165.797 134.316 165.899C133.625 166.387 132.882 166.799 132.101 167.125C131.557 167.376 130.997 167.588 130.425 167.763C129.813 167.917 129.18 167.967 128.551 167.911C128.048 167.81 127.585 167.567 127.218 167.21C126.852 166.853 126.597 166.397 126.485 165.899C126.151 164.823 126.151 163.671 126.485 162.594C126.757 161.468 127.316 160.43 128.108 159.581C128.783 158.941 129.49 158.335 130.227 157.765C129.962 157.574 129.799 157.459 129.746 157.426C128.788 156.738 127.867 156.003 126.986 155.222C126.523 154.764 126.095 154.272 125.705 153.752C125.267 153.195 124.902 152.585 124.621 151.936C124.424 151.383 124.307 150.806 124.274 150.221C124.242 150.028 124.242 149.83 124.274 149.637V149.339C124.276 149.24 124.293 149.141 124.327 149.048C124.321 148.946 124.338 148.845 124.375 148.75C124.375 148.651 124.391 148.552 124.423 148.458C124.454 148.273 124.504 148.092 124.573 147.917C124.782 147.242 125.08 146.598 125.459 146.001C125.548 145.891 125.63 145.776 125.705 145.656C125.796 145.567 125.878 145.469 125.95 145.364C126.018 145.297 126.133 145.167 126.297 144.971C126.938 144.319 127.721 143.82 128.585 143.515L128.831 143.419L129.028 143.366L129.471 143.223L129.914 143.122H130.011C130.056 143.096 130.107 143.079 130.16 143.074H130.357C130.434 143.036 130.517 143.012 130.603 143.002C130.668 142.988 130.734 142.978 130.8 142.974H131.244C131.283 142.981 131.324 142.981 131.364 142.974C131.406 142.968 131.448 142.968 131.489 142.974H132.13C133.97 143.072 135.71 143.938 137.35 145.57C137.405 145.615 137.449 145.671 137.479 145.735C137.509 145.799 137.525 145.868 137.525 145.939C137.525 146.009 137.509 146.079 137.479 146.142C137.449 146.206 137.405 146.262 137.35 146.308C137.25 146.399 137.118 146.45 136.982 146.45C136.845 146.45 136.714 146.399 136.614 146.308C135.169 144.839 133.658 144.071 132.081 144.003H131.735L131.537 144.051H131.398L131.003 144.152C130.885 144.175 130.769 144.207 130.656 144.248L130.506 144.348L130.362 144.396L130.064 144.592C129.961 144.65 129.862 144.716 129.77 144.789L129.62 144.933L129.524 145.033C129.054 145.501 128.671 146.048 128.392 146.648C128.358 146.753 128.307 146.853 128.243 146.945C128.213 147.023 128.197 147.105 128.195 147.189C128.148 147.264 128.114 147.347 128.094 147.433C127.957 147.827 127.89 148.242 127.896 148.66V149.1C127.903 149.151 127.921 149.2 127.949 149.244V149.541C127.978 149.541 127.997 149.574 127.997 149.637C128.012 149.649 128.024 149.665 128.032 149.682C128.04 149.699 128.045 149.718 128.046 149.737L128.339 150.322C128.793 150.943 129.343 151.489 129.967 151.941C130.559 152.42 131.378 153.038 132.428 153.752C133.348 154.441 134.056 154.978 134.547 155.37L136.667 154.537C137.588 154.179 138.278 153.901 138.737 153.703C139.298 153.455 139.84 153.168 140.361 152.846C140.942 152.503 141.488 152.101 141.988 151.649C142.025 151.588 142.076 151.539 142.137 151.503C142.198 151.467 142.266 151.447 142.337 151.444C142.408 151.442 142.478 151.456 142.542 151.487C142.605 151.517 142.66 151.563 142.701 151.62C142.749 151.66 142.788 151.71 142.815 151.766C142.842 151.823 142.857 151.884 142.859 151.946C142.86 152.008 142.849 152.07 142.825 152.128C142.802 152.186 142.766 152.238 142.721 152.281ZM133.657 162.029C133.776 161.734 133.827 161.417 133.806 161.1C133.752 160.963 133.686 160.831 133.608 160.707C133.565 160.596 133.497 160.496 133.411 160.415C133.343 160.314 133.247 160.185 133.117 160.022L132.722 159.629C132.552 159.51 132.391 159.379 132.24 159.236C131.946 159.011 131.571 158.757 131.109 158.403C130.31 158.969 129.554 159.592 128.845 160.266C128.131 161.021 127.632 161.952 127.4 162.963C127.132 163.824 127.132 164.746 127.4 165.607C127.47 165.918 127.629 166.203 127.855 166.429C128.082 166.654 128.368 166.811 128.681 166.881C129.123 166.935 129.571 166.849 129.962 166.637C130.386 166.377 130.768 166.054 131.094 165.679C131.583 165.149 132.045 164.594 132.477 164.017C132.545 163.893 132.627 163.777 132.722 163.672C132.919 163.38 133.03 163.217 133.064 163.193C133.3 162.826 133.499 162.436 133.657 162.029Z" fill="black"/>
<path opacity="0.82" d="M159.028 150.613L159.51 150.857C159.577 150.879 159.638 150.917 159.688 150.966C159.737 151.016 159.774 151.077 159.795 151.144C159.818 151.211 159.823 151.282 159.812 151.351C159.8 151.42 159.773 151.486 159.732 151.542C158.838 153.169 157.798 154.711 156.625 156.151C154.057 159.385 151.578 161.279 149.189 161.832C148.754 161.955 148.31 162.037 147.86 162.076L146.526 162.272C146.198 162.272 145.856 162.272 145.494 162.224C145.108 162.14 144.728 162.026 144.358 161.884C144.018 161.759 143.702 161.576 143.424 161.343C142.949 161.003 142.533 160.589 142.191 160.117C141.643 159.348 141.243 158.486 141.011 157.573C140.776 156.659 140.66 155.719 140.664 154.776C140.668 153.834 140.784 152.897 141.011 151.983C141.208 151.078 141.489 150.193 141.849 149.339C142.185 148.509 142.615 147.72 143.13 146.987C143.594 146.288 144.139 145.645 144.753 145.071C145.148 144.745 145.524 144.434 145.89 144.141C146.15 143.954 146.43 143.794 146.723 143.662C147.04 143.49 147.37 143.343 147.71 143.222C148.022 143.108 148.345 143.025 148.674 142.973C149.163 142.91 149.656 142.894 150.147 142.925L150.296 142.973H150.494C150.606 143.01 150.723 143.027 150.841 143.025C151.057 143.056 151.273 143.105 151.481 143.169C151.913 143.282 152.318 143.479 152.673 143.748C153.027 144.018 153.324 144.355 153.547 144.74C154.02 145.591 154.177 146.579 153.99 147.533C153.705 149.467 152.725 151.234 151.231 152.505C149.524 154.034 147.364 154.971 145.076 155.173C145.012 155.759 144.978 156.347 144.975 156.936C144.985 157.449 145.051 157.96 145.172 158.459C145.231 158.733 145.331 158.997 145.471 159.24C145.544 159.402 145.643 159.55 145.764 159.681C145.909 159.855 146.07 160.016 146.246 160.16C146.418 160.303 146.599 160.433 146.79 160.548C147.108 160.732 147.46 160.85 147.826 160.893C148.186 160.959 148.557 160.942 148.909 160.845C150.016 160.554 151.047 160.037 151.939 159.326C152.899 158.613 153.789 157.811 154.598 156.931C155.381 156.061 156.114 155.146 156.789 154.191C157.512 153.176 157.993 152.457 158.234 152.036C158.425 151.718 158.596 151.39 158.749 151.054L159.028 150.613ZM145.48 152.965C145.379 153.358 145.297 153.75 145.235 154.139C146.722 153.947 148.146 153.419 149.396 152.596C150.442 151.946 151.334 151.077 152.006 150.048C152.512 149.248 152.856 148.358 153.018 147.427C153.134 146.701 153.021 145.956 152.695 145.296C152.545 145.017 152.34 144.771 152.091 144.574C151.843 144.376 151.557 144.231 151.25 144.146C150.914 144.046 150.556 144.046 150.22 144.146C149.89 144.211 149.584 144.363 149.333 144.587C149.157 144.73 148.995 144.89 148.851 145.066C148.653 145.296 148.492 145.492 148.37 145.655C148.242 145.885 148.126 146.082 148.023 146.244C147.824 146.542 147.643 146.853 147.484 147.174C147.383 147.37 147.138 147.959 146.742 148.936C146.579 149.363 146.352 150.014 146.054 150.895C145.755 151.777 145.576 152.476 145.48 152.965Z" fill="black"/>
<path opacity="0.82" d="M175.133 151.399L175.614 151.596C175.68 151.61 175.742 151.64 175.795 151.684C175.847 151.727 175.889 151.782 175.916 151.844C175.942 151.906 175.955 151.974 175.95 152.042C175.945 152.109 175.924 152.175 175.888 152.233C175.689 152.756 175.41 153.418 175.051 154.216C174.69 155.014 174.125 156.215 173.35 157.818C172.634 159.312 171.81 160.753 170.885 162.129C170.263 163.151 169.444 164.042 168.476 164.749C168.306 164.915 168.107 165.049 167.889 165.142C167.767 165.205 167.631 165.238 167.493 165.238C167.474 165.257 167.451 165.271 167.424 165.279C167.399 165.289 167.372 165.292 167.344 165.291H167.248C167.146 165.296 167.044 165.278 166.949 165.238C166.724 165.21 166.516 165.107 166.357 164.946C166.261 164.845 166.145 164.716 166.016 164.553C165.875 164.338 165.758 164.108 165.668 163.868C165.561 163.449 165.478 163.023 165.423 162.594C165.361 162.188 165.328 161.778 165.326 161.368C165.309 159.844 165.408 158.321 165.62 156.812C165.654 156.391 165.712 155.907 165.794 155.375C165.876 154.843 165.957 154.307 166.039 153.785C166.122 153.263 166.179 152.827 166.213 152.41C166.309 151.562 166.376 150.911 166.41 150.451C166.135 150.613 165.871 150.794 165.62 150.992L165.105 151.385L164.441 151.864C164.209 152.027 163.992 152.19 163.799 152.343C163.452 152.578 163.091 152.79 162.716 152.98C162.06 153.362 161.309 153.55 160.549 153.521H160.1C159.917 153.491 159.735 153.441 159.561 153.373C159.227 153.24 158.926 153.04 158.676 152.784C158.471 152.571 158.308 152.322 158.194 152.051C157.984 151.618 157.852 151.153 157.798 150.676C157.729 150.256 157.695 149.832 157.697 149.407C157.729 148.572 157.878 147.747 158.141 146.954C158.391 146.127 158.811 145.36 159.374 144.703C159.68 144.36 160.047 144.077 160.458 143.869C160.89 143.677 161.363 143.593 161.835 143.625C162.105 143.593 162.379 143.653 162.612 143.795C162.844 143.936 163.021 144.151 163.115 144.406C163.414 145.091 163.221 146.106 162.553 147.443C161.906 148.738 161.138 149.969 160.26 151.121C160.265 151.158 160.281 151.191 160.308 151.217H160.458L160.804 151.121C161.37 150.963 161.893 150.678 162.331 150.288C162.528 150.125 162.813 149.876 163.193 149.55C163.574 149.224 163.838 148.995 164.003 148.865C164.397 148.539 164.744 148.276 165.038 148.08C165.493 147.802 165.993 147.605 166.516 147.495C166.661 147.459 166.81 147.442 166.959 147.443H167.403C167.52 147.442 167.637 147.459 167.749 147.495C167.946 147.559 168.129 147.658 168.288 147.787C168.438 147.9 168.571 148.032 168.683 148.18C168.816 148.361 168.91 148.566 168.963 148.784C169.065 149.068 169.132 149.364 169.16 149.665C169.194 149.892 169.209 150.121 169.208 150.35C169.208 150.676 169.208 151.083 169.16 151.577C169.126 151.936 169.093 152.328 169.059 152.75C168.992 153.339 168.896 154.091 168.766 155.006C168.631 155.753 168.52 156.491 168.419 157.21C168.323 157.636 168.188 158.331 168.023 159.293C167.86 160.256 167.73 160.999 167.628 161.521C167.527 162.043 167.513 162.388 167.484 162.551C167.451 162.91 167.436 163.221 167.436 163.48C167.43 163.581 167.446 163.683 167.484 163.777V163.873H167.383V163.921H167.532C167.666 163.952 167.806 163.935 167.927 163.873C168.945 163.234 170.143 161.617 171.52 159.021C172.787 156.69 173.922 154.291 174.92 151.835C175.065 151.543 175.133 151.399 175.133 151.399ZM159.812 150.077C160.5 149.096 161.109 148.063 161.637 146.987C162.164 145.911 162.343 145.193 162.177 144.832C162.143 144.736 162.028 144.684 161.83 144.684C161.547 144.713 161.276 144.816 161.045 144.98C160.823 145.169 160.624 145.383 160.453 145.618C160.121 146.173 159.903 146.789 159.812 147.428C159.682 148.073 159.649 148.733 159.715 149.387C159.714 149.621 159.747 149.853 159.812 150.077Z" fill="black"/>
<path opacity="0.82" d="M189.124 151.203L189.543 151.495C189.822 151.691 189.846 151.936 189.615 152.232C189.485 152.424 189.297 152.673 189.051 152.966C188.612 153.421 188.127 153.832 187.606 154.192C186.985 154.672 186.273 155.023 185.511 155.222C185.22 155.284 184.922 155.316 184.625 155.317C184.542 155.315 184.458 155.299 184.379 155.269C183.262 158.632 182.047 160.853 180.733 161.932C180.709 161.961 180.679 161.985 180.644 162.001C180.611 162.018 180.574 162.027 180.536 162.028C180.331 162.271 180.082 162.471 179.799 162.618C179.631 162.715 179.446 162.782 179.254 162.814C179.14 162.82 179.026 162.836 178.913 162.862C178.812 162.853 178.713 162.837 178.614 162.814C178.189 162.77 177.783 162.619 177.434 162.373C177.115 162.157 176.832 161.892 176.596 161.588C176.201 161.074 175.869 160.514 175.608 159.921C175.366 159.395 175.152 158.856 174.969 158.307C174.62 157.271 174.374 156.204 174.232 155.121C174.063 154.17 173.948 153.21 173.885 152.247C173.789 150.794 173.789 149.336 173.885 147.883L173.986 146.216C174.049 145.924 174.299 145.737 174.723 145.584C175.191 145.447 175.681 145.396 176.168 145.435C176.638 145.452 177.099 145.567 177.521 145.775C177.883 145.972 178.066 146.202 178.066 146.465C178.034 146.584 178.018 146.706 178.018 146.829C178.016 146.954 177.997 147.078 177.965 147.198C177.901 147.85 177.834 148.491 177.766 149.114C177.603 151.27 177.521 153.197 177.521 154.896C177.512 155.928 177.578 156.958 177.718 157.981C177.794 158.838 177.994 159.68 178.311 160.481C178.316 160.534 178.332 160.584 178.359 160.63C178.373 160.641 178.385 160.656 178.393 160.673C178.402 160.689 178.407 160.707 178.407 160.725C178.452 160.795 178.501 160.861 178.557 160.922L178.754 161.214C178.84 161.257 178.921 161.307 179 161.362C179.079 161.392 179.161 161.408 179.245 161.411C179.382 161.404 179.516 161.371 179.64 161.315C179.746 161.312 179.849 161.277 179.934 161.214L180.036 161.118L180.084 161.166C181.233 160.208 182.356 158.118 183.455 154.896C182.434 154.11 181.925 152.514 181.928 150.106C181.897 148.554 182.148 147.009 182.664 145.545C183.286 143.946 184.11 143.15 185.126 143.15C185.362 143.147 185.592 143.223 185.78 143.365C185.968 143.508 186.102 143.709 186.161 143.936C186.392 145.203 186.392 146.501 186.161 147.768C185.919 149.519 185.566 151.254 185.102 152.961L184.712 154.331C184.911 154.331 185.11 154.299 185.299 154.235C185.938 154.065 186.532 153.765 187.048 153.353C187.49 153.041 187.904 152.688 188.28 152.3C188.466 152.089 188.64 151.868 188.801 151.638C189.022 151.332 189.124 151.203 189.124 151.203ZM183.801 153.799C184.788 150.532 185.296 147.818 185.328 145.656C185.379 145.141 185.312 144.622 185.131 144.137C184.572 144.172 184.08 144.744 183.652 145.852C183.17 147.204 182.936 148.632 182.964 150.067C182.964 151.836 183.242 153.081 183.801 153.799Z" fill="black"/>
<path opacity="0.82" d="M206.17 150.613L206.651 150.857C206.719 150.879 206.779 150.917 206.829 150.966C206.879 151.016 206.916 151.077 206.937 151.144C206.959 151.211 206.964 151.282 206.953 151.351C206.942 151.42 206.915 151.486 206.873 151.542C205.981 153.169 204.944 154.711 203.771 156.151C201.203 159.385 198.722 161.279 196.33 161.832C195.896 161.955 195.451 162.037 195 162.076L193.672 162.272C193.344 162.272 192.998 162.272 192.636 162.224C192.251 162.14 191.872 162.027 191.505 161.884C191.162 161.759 190.845 161.576 190.565 161.343C190.092 161.003 189.678 160.588 189.336 160.117C188.786 159.35 188.384 158.487 188.153 157.573C187.922 156.659 187.807 155.719 187.811 154.776C187.815 153.835 187.929 152.897 188.153 151.983C188.35 151.078 188.63 150.193 188.99 149.339C189.326 148.509 189.756 147.72 190.271 146.987C190.738 146.288 191.284 145.645 191.899 145.071C192.29 144.745 192.67 144.434 193.031 144.141C193.293 143.953 193.574 143.792 193.869 143.662C194.177 143.49 194.5 143.343 194.832 143.222C195.144 143.108 195.467 143.025 195.796 142.973C196.286 142.91 196.781 142.894 197.275 142.925L197.419 142.973H197.616C197.728 143.009 197.846 143.027 197.963 143.025C198.18 143.056 198.394 143.104 198.603 143.169C199.035 143.282 199.441 143.479 199.795 143.748C200.15 144.018 200.447 144.355 200.67 144.74C201.144 145.59 201.302 146.579 201.113 147.533C200.829 149.467 199.85 151.234 198.358 152.505C196.65 154.036 194.488 154.972 192.198 155.173C192.136 155.759 192.104 156.347 192.102 156.936C192.107 157.45 192.174 157.961 192.299 158.459C192.356 158.733 192.454 158.996 192.593 159.24C192.667 159.402 192.766 159.551 192.886 159.681C193.03 159.856 193.192 160.017 193.368 160.16C193.538 160.303 193.718 160.433 193.908 160.548C194.225 160.732 194.578 160.849 194.943 160.893C195.304 160.959 195.674 160.942 196.027 160.845C197.132 160.555 198.164 160.037 199.056 159.326C200.016 158.613 200.906 157.811 201.715 156.931C202.499 156.06 203.232 155.146 203.911 154.191C204.633 153.176 205.115 152.457 205.356 152.036C205.601 151.609 205.775 151.284 205.876 151.054L206.17 150.613ZM192.622 152.965C192.525 153.358 192.439 153.75 192.377 154.139C193.864 153.947 195.286 153.419 196.537 152.596C197.585 151.948 198.477 151.078 199.148 150.048C199.654 149.249 199.999 148.358 200.159 147.427C200.276 146.701 200.163 145.956 199.836 145.296C199.687 145.017 199.482 144.771 199.234 144.573C198.984 144.376 198.698 144.23 198.392 144.146C198.054 144.046 197.694 144.046 197.357 144.146C197.027 144.212 196.72 144.364 196.47 144.587C196.293 144.73 196.132 144.89 195.988 145.066C195.791 145.296 195.622 145.492 195.507 145.655C195.392 145.818 195.261 146.082 195.165 146.244C194.964 146.542 194.782 146.853 194.621 147.174C194.525 147.37 194.278 147.959 193.883 148.937C193.72 149.363 193.489 150.014 193.19 150.895C192.892 151.777 192.718 152.477 192.622 152.965Z" fill="black"/>
</g>
<path d="M209.297 163.537C207.968 163.537 207.005 162.876 206.407 161.554C205.784 159.962 205.499 158.26 205.569 156.553C205.577 155.252 205.67 153.952 205.849 152.663C206.038 151.284 206.224 149.96 206.407 148.692C206.59 147.424 206.776 146.273 206.966 145.239C207.123 144.467 207.217 143.683 207.245 142.896C207.245 142.58 207.192 142.417 207.086 142.34C206.98 142.264 206.927 142.159 206.927 142.106C206.927 141.895 207.26 141.708 207.924 141.55C208.671 141.38 209.436 141.3 210.202 141.311C210.808 141.305 211.412 141.386 211.995 141.55C212.552 141.71 212.832 142.029 212.832 142.508C212.726 143.463 212.54 144.407 212.273 145.329C211.904 146.84 211.479 148.533 210.997 150.407C210.516 152.282 210.09 154.108 209.72 155.887C209.405 157.229 209.218 158.597 209.163 159.973C209.163 160.821 209.321 161.243 209.644 161.243C209.966 161.243 210.525 160.677 211.16 159.695C211.862 158.612 212.504 157.493 213.087 156.342C213.728 155.102 214.296 153.895 214.802 152.73C215.308 151.566 215.64 150.776 215.804 150.336C215.886 150.16 216.008 150.007 216.16 149.888C216.313 149.768 216.49 149.686 216.68 149.647C216.871 149.609 217.067 149.615 217.254 149.665C217.442 149.716 217.615 149.809 217.759 149.938C217.878 150.048 217.972 150.184 218.035 150.334C218.096 150.485 218.123 150.647 218.115 150.81C218.036 151.223 217.902 151.624 217.716 152.002C217.45 152.639 217.157 153.301 216.84 153.985L215.919 155.973C215.745 156.381 215.545 156.778 215.322 157.161C214.731 158.321 214.065 159.441 213.328 160.514C212.859 161.204 212.324 161.845 211.729 162.431C211.358 162.812 210.91 163.111 210.415 163.307C210.056 163.443 209.679 163.521 209.297 163.537ZM207.702 135.371C207.687 134.931 207.759 134.493 207.917 134.081C208.074 133.67 208.312 133.294 208.618 132.976C208.934 132.655 209.314 132.403 209.734 132.238C210.153 132.073 210.604 131.998 211.055 132.018C211.762 131.981 212.454 132.224 212.981 132.693C213.226 132.936 213.416 133.227 213.54 133.549C213.663 133.87 213.718 134.213 213.699 134.557C213.703 135.003 213.616 135.446 213.445 135.859C213.272 136.272 213.019 136.646 212.698 136.959C212.378 137.272 211.997 137.517 211.579 137.681C211.161 137.844 210.714 137.922 210.265 137.91C208.55 137.895 207.702 137.052 207.702 135.371Z" fill="#F2F2F2"/>
<path d="M209.295 164.064C208.562 164.077 207.843 163.863 207.239 163.451C206.635 163.039 206.175 162.449 205.923 161.764C205.263 160.108 204.949 158.335 205.004 156.553C205.01 155.228 205.105 153.904 205.288 152.592C205.476 151.212 205.659 149.885 205.847 148.615C206.035 147.346 206.223 146.173 206.41 145.143C206.56 144.402 206.65 143.651 206.679 142.896C206.684 142.834 206.684 142.772 206.679 142.71C206.59 142.635 206.517 142.543 206.464 142.439C206.411 142.335 206.379 142.222 206.372 142.106C206.372 141.368 207.335 141.148 207.773 141.033C208.562 140.855 209.371 140.77 210.181 140.779C210.833 140.776 211.48 140.863 212.108 141.038C212.448 141.097 212.757 141.273 212.981 141.536C213.204 141.798 213.329 142.13 213.331 142.475C213.331 142.738 213.268 143.332 212.758 145.421C212.382 146.931 211.955 148.625 211.477 150.503C210.995 152.385 210.571 154.225 210.206 155.959C209.898 157.266 209.716 158.599 209.661 159.94C209.656 160.153 209.672 160.366 209.709 160.577C210.087 160.225 210.412 159.82 210.672 159.374C211.357 158.311 211.987 157.215 212.561 156.088C213.182 154.876 213.755 153.693 214.261 152.505C214.766 151.317 215.093 150.589 215.248 150.148L215.281 150.077C215.402 149.832 215.578 149.619 215.795 149.453C216.013 149.288 216.266 149.175 216.534 149.122C216.803 149.07 217.081 149.081 217.344 149.154C217.609 149.226 217.852 149.359 218.055 149.54C218.232 149.701 218.371 149.897 218.465 150.116C218.558 150.336 218.602 150.572 218.595 150.81C218.531 151.297 218.381 151.768 218.152 152.204C217.872 152.879 217.574 153.549 217.266 154.211L217.189 154.373L216.351 156.194C216.168 156.617 215.96 157.03 215.73 157.43C215.132 158.611 214.456 159.752 213.707 160.845C213.215 161.557 212.658 162.221 212.04 162.828C211.615 163.264 211.099 163.601 210.528 163.815C210.133 163.964 209.717 164.049 209.295 164.064ZM207.615 142.178C207.718 142.402 207.766 142.649 207.754 142.896C207.724 143.715 207.628 144.531 207.464 145.335C207.282 146.35 207.094 147.504 206.911 148.769C206.728 150.034 206.54 151.361 206.352 152.73C206.176 154 206.084 155.281 206.078 156.562C206.023 158.199 206.306 159.829 206.911 161.353C207.392 162.493 208.172 163.024 209.295 163.024C209.606 163.016 209.914 162.958 210.206 162.852C210.627 162.681 211.008 162.424 211.323 162.095C211.89 161.536 212.402 160.925 212.854 160.27C213.578 159.209 214.231 158.102 214.81 156.955L214.838 156.907C215.048 156.548 215.235 156.175 215.397 155.791C215.666 155.207 215.946 154.599 216.24 153.971L216.317 153.803C216.615 153.157 216.909 152.496 217.184 151.835C217.336 151.515 217.457 151.181 217.546 150.838C217.555 150.75 217.543 150.66 217.511 150.577C217.479 150.494 217.429 150.419 217.363 150.359C217.28 150.284 217.182 150.229 217.075 150.199C216.967 150.17 216.855 150.166 216.746 150.188C216.637 150.21 216.534 150.257 216.448 150.326C216.36 150.395 216.29 150.483 216.245 150.584C216.076 151.03 215.763 151.801 215.253 152.951C214.742 154.101 214.155 155.346 213.519 156.591C212.938 157.752 212.294 158.88 211.592 159.973C210.841 161.132 210.259 161.683 209.704 161.76H209.628C208.958 161.76 208.621 161.151 208.621 159.959C208.674 158.545 208.865 157.14 209.189 155.763C209.555 154.009 209.989 152.16 210.47 150.263C210.951 148.366 211.376 146.695 211.747 145.186C212.003 144.305 212.186 143.405 212.291 142.494C212.291 142.369 212.291 142.182 211.839 142.053C211.301 141.905 210.748 141.83 210.19 141.833C209.467 141.824 208.744 141.9 208.037 142.058C207.845 142.106 207.711 142.144 207.615 142.178ZM210.254 138.427C208.264 138.427 207.166 137.335 207.166 135.357C207.153 134.851 207.241 134.348 207.425 133.875C207.607 133.404 207.883 132.972 208.236 132.607C208.6 132.236 209.04 131.944 209.525 131.752C210.011 131.56 210.53 131.471 211.053 131.491C211.891 131.457 212.709 131.751 213.331 132.31C213.629 132.602 213.862 132.954 214.015 133.342C214.167 133.73 214.237 134.145 214.217 134.561C214.222 135.077 214.122 135.588 213.923 136.064C213.725 136.54 213.432 136.972 213.062 137.333C212.691 137.694 212.252 137.977 211.769 138.165C211.287 138.353 210.771 138.442 210.254 138.427ZM211.053 132.549C210.674 132.529 210.295 132.589 209.941 132.725C209.588 132.862 209.267 133.071 209.002 133.34C208.744 133.608 208.544 133.924 208.411 134.271C208.279 134.617 208.217 134.986 208.23 135.357C208.23 136.765 208.837 137.369 210.254 137.369C210.63 137.379 211.005 137.315 211.357 137.178C211.708 137.042 212.028 136.837 212.297 136.575C212.567 136.313 212.78 136 212.926 135.654C213.071 135.308 213.146 134.936 213.143 134.561C213.162 134.29 213.123 134.018 213.029 133.763C212.934 133.507 212.786 133.275 212.594 133.081C212.17 132.711 211.616 132.52 211.053 132.549Z" fill="#FBB03B"/>
<path d="M219.671 134.561C219.356 134.555 219.056 134.428 218.833 134.206C218.61 133.985 218.483 133.687 218.477 133.373C218.484 133.06 218.611 132.761 218.834 132.54C219.057 132.318 219.356 132.189 219.671 132.181H222.229C222.44 130.753 222.612 129.536 222.743 128.53C222.846 127.872 222.913 127.208 222.946 126.542C222.946 126.279 222.864 126.121 222.705 126.063C222.546 126.006 222.546 125.877 222.546 125.824C222.546 125.613 222.893 125.426 223.582 125.268C224.343 125.104 225.12 125.025 225.898 125.034C226.489 125.029 227.08 125.095 227.656 125.23C228.186 125.364 228.45 125.642 228.45 126.063C228.465 126.746 228.386 127.428 228.215 128.09C227.998 129.172 227.733 130.537 227.415 132.176H229.01C229.174 132.167 229.338 132.195 229.491 132.257C229.643 132.319 229.78 132.414 229.891 132.535C230.1 132.762 230.214 133.061 230.209 133.369C230.212 133.676 230.099 133.974 229.891 134.202C229.779 134.321 229.641 134.415 229.49 134.476C229.337 134.537 229.173 134.564 229.01 134.556H226.939C226.512 136.674 226.059 138.989 225.581 141.502C225.102 144.015 224.662 146.463 224.261 148.845C223.863 151.225 223.53 153.382 223.264 155.317C223.036 156.801 222.903 158.299 222.864 159.801C222.864 160.759 222.999 161.204 223.264 161.151C223.633 161.151 224.139 160.661 224.781 159.681C225.481 158.597 226.125 157.478 226.707 156.327C227.343 155.087 227.931 153.88 228.461 152.716C228.991 151.552 229.342 150.761 229.501 150.321C229.583 150.146 229.705 149.993 229.858 149.873C230.01 149.754 230.188 149.671 230.377 149.633C230.568 149.594 230.765 149.6 230.951 149.651C231.139 149.701 231.312 149.794 231.456 149.923C231.576 150.033 231.671 150.169 231.733 150.319C231.794 150.47 231.822 150.632 231.812 150.795C231.736 151.209 231.603 151.61 231.417 151.988C231.148 152.625 230.86 153.286 230.537 153.971C230.214 154.656 229.911 155.322 229.621 155.959C229.444 156.366 229.243 156.762 229.019 157.147C228.43 158.307 227.764 159.427 227.026 160.5C226.556 161.187 226.023 161.829 225.431 162.416C225.058 162.797 224.608 163.095 224.112 163.292C223.766 163.413 223.403 163.48 223.038 163.489C222.409 163.519 221.79 163.35 221.265 163.005C220.741 162.661 220.341 162.159 220.124 161.573C219.524 160.087 219.239 158.493 219.285 156.893C219.285 155.782 219.364 154.325 219.521 152.524C219.679 150.723 219.893 148.807 220.163 146.776C220.428 144.736 220.72 142.644 221.039 140.501C221.357 138.358 221.649 136.361 221.915 134.508L219.671 134.561Z" fill="#F2F2F2"/>
<path d="M223.028 164.064C222.299 164.094 221.578 163.897 220.967 163.499C220.357 163.101 219.887 162.523 219.623 161.846C218.994 160.284 218.694 158.609 218.742 156.927C218.742 155.811 218.824 154.326 218.982 152.515C219.141 150.705 219.363 148.755 219.623 146.738C219.883 144.722 220.182 142.609 220.505 140.458C220.791 138.542 221.053 136.747 221.294 135.074H219.671C219.329 135.076 218.994 134.977 218.708 134.788C218.423 134.599 218.202 134.33 218.071 134.015C217.94 133.7 217.908 133.354 217.977 133.02C218.045 132.687 218.213 132.381 218.457 132.142C218.615 131.981 218.804 131.853 219.013 131.765C219.221 131.677 219.445 131.631 219.671 131.63H221.766C221.949 130.397 222.1 129.334 222.219 128.44C222.315 127.805 222.38 127.165 222.411 126.524L222.33 126.442C222.24 126.366 222.164 126.272 222.111 126.167C222.057 126.062 222.025 125.947 222.017 125.829C222.017 125.091 223.032 124.871 223.461 124.761C224.253 124.587 225.06 124.502 225.869 124.507C226.504 124.502 227.137 124.574 227.753 124.723C228.076 124.761 228.375 124.913 228.595 125.151C228.816 125.389 228.944 125.697 228.957 126.021C228.991 126.749 228.917 127.479 228.735 128.186C228.552 129.144 228.328 130.295 228.061 131.64H229.024C229.263 131.632 229.501 131.676 229.722 131.768C229.942 131.861 230.139 132 230.301 132.176C230.599 132.504 230.764 132.931 230.764 133.374C230.764 133.816 230.599 134.243 230.301 134.571C230.139 134.747 229.942 134.886 229.722 134.979C229.501 135.072 229.263 135.115 229.024 135.108H227.387C226.997 137.053 226.578 139.194 226.116 141.622C225.634 144.123 225.195 146.59 224.8 148.951C224.406 151.313 224.073 153.487 223.808 155.408C223.575 156.862 223.435 158.329 223.389 159.801C223.387 160.038 223.4 160.275 223.428 160.51C223.779 160.183 224.081 159.807 224.324 159.394C225.013 158.333 225.642 157.236 226.212 156.108C226.843 154.881 227.43 153.674 227.96 152.515C228.49 151.356 228.831 150.57 228.981 150.168L229.015 150.096C229.135 149.852 229.311 149.638 229.529 149.473C229.746 149.307 229.999 149.194 230.268 149.142C230.537 149.09 230.813 149.101 231.078 149.173C231.341 149.246 231.585 149.378 231.789 149.559C231.965 149.72 232.104 149.917 232.197 150.136C232.29 150.355 232.335 150.591 232.329 150.829C232.265 151.315 232.117 151.787 231.89 152.223C231.611 152.884 231.312 153.559 231.003 154.23L230.84 154.58L230.084 156.208C229.901 156.634 229.694 157.048 229.462 157.449C228.866 158.63 228.191 159.769 227.44 160.859C226.951 161.575 226.393 162.241 225.773 162.847C225.349 163.283 224.832 163.62 224.261 163.834C223.866 163.977 223.449 164.055 223.028 164.064ZM219.657 132.708C219.57 132.708 219.484 132.726 219.406 132.762C219.327 132.798 219.257 132.849 219.199 132.914C219.132 132.974 219.078 133.048 219.042 133.13C219.006 133.213 218.989 133.303 218.992 133.393C219.003 133.565 219.077 133.726 219.199 133.848C219.322 133.969 219.484 134.043 219.657 134.054H222.508L222.427 134.638C222.156 136.494 221.864 138.493 221.549 140.636C221.227 142.777 220.933 144.885 220.668 146.896C220.404 148.908 220.187 150.824 220.033 152.644C219.879 154.465 219.796 155.873 219.796 156.956C219.75 158.485 220.021 160.008 220.591 161.429C220.765 161.918 221.094 162.337 221.529 162.624C221.963 162.911 222.479 163.05 223 163.02C223.308 163.011 223.614 162.953 223.904 162.847C224.328 162.676 224.71 162.418 225.027 162.091C225.593 161.532 226.103 160.921 226.554 160.265C227.278 159.205 227.931 158.097 228.509 156.951L228.538 156.903C228.748 156.543 228.934 156.17 229.097 155.787C229.338 155.26 229.579 154.714 229.853 154.153L230.017 153.799C230.32 153.142 230.614 152.482 230.889 151.83C231.043 151.51 231.163 151.175 231.244 150.829C231.255 150.74 231.243 150.651 231.212 150.568C231.18 150.484 231.128 150.409 231.062 150.35C230.98 150.275 230.882 150.22 230.775 150.19C230.667 150.16 230.554 150.156 230.445 150.178C230.335 150.2 230.233 150.248 230.147 150.317C230.06 150.386 229.99 150.474 229.944 150.575C229.776 151.016 229.439 151.792 228.909 152.97C228.379 154.149 227.777 155.365 227.141 156.601C226.558 157.76 225.915 158.89 225.215 159.983C224.463 161.137 223.871 161.664 223.289 161.693C223.193 161.706 223.095 161.698 223.002 161.671C222.909 161.644 222.822 161.598 222.749 161.535C222.436 161.286 222.31 160.783 222.31 159.815C222.347 158.29 222.483 156.768 222.715 155.26C222.98 153.344 223.317 151.145 223.711 148.774C224.107 146.403 224.555 143.931 225.032 141.421C225.513 138.811 225.995 136.535 226.39 134.466L226.477 134.044H228.986C229.075 134.053 229.165 134.041 229.248 134.01C229.332 133.978 229.407 133.928 229.467 133.862C229.59 133.733 229.657 133.561 229.655 133.383C229.656 133.205 229.59 133.034 229.467 132.904C229.407 132.839 229.332 132.788 229.248 132.757C229.165 132.725 229.075 132.714 228.986 132.722H226.761L226.887 132.095L227.681 128.004C227.841 127.41 227.922 126.798 227.921 126.184V126.083C227.921 125.992 227.921 125.863 227.526 125.762C226.993 125.637 226.446 125.576 225.899 125.58C225.161 125.573 224.423 125.649 223.702 125.805C223.534 125.843 223.404 125.882 223.307 125.911C223.427 126.105 223.485 126.33 223.476 126.557C223.446 127.245 223.377 127.931 223.273 128.612C223.139 129.623 222.966 130.84 222.753 132.272L222.686 132.722L219.657 132.708Z" fill="#FBB03B"/>
<path d="M108.327 152.898L108.809 153.095C109.137 153.224 109.238 153.44 109.108 153.732C106.905 158.86 104.77 162.29 102.702 164.021C102.408 164.286 102.095 164.53 101.768 164.754C101.424 165.05 101.042 165.298 100.631 165.491C100.438 165.559 100.27 165.606 100.15 165.64L100.053 165.688H99.5714C99.4934 165.688 99.4162 165.672 99.3452 165.64C99.1924 165.618 99.0438 165.576 98.902 165.515C98.8314 165.485 98.7663 165.443 98.7096 165.391C98.6352 165.355 98.5684 165.307 98.5121 165.247L98.3626 165.099L98.2132 164.95C98.1386 164.847 98.0563 164.749 97.9678 164.658C97.7696 164.359 97.608 164.037 97.4862 163.7C97.3025 163.289 97.1544 162.862 97.0428 162.426C96.8454 161.611 96.696 160.927 96.6 160.371C96.5662 160.045 96.5228 159.69 96.4748 159.317C96.4264 158.943 96.383 158.598 96.3542 158.287C96.3254 157.976 96.277 157.626 96.229 157.233C96.181 156.84 96.1376 156.5 96.1038 156.203C96.075 155.782 95.9882 155.145 95.8584 154.287C95.7958 154.062 95.7281 153.808 95.6604 153.459C95.5932 153.109 95.5306 152.884 95.463 152.625C95.2368 152.003 95.054 151.562 94.9238 151.298C94.6992 150.873 94.3992 150.492 94.0376 150.172C93.8736 150.01 93.6908 149.847 93.4934 149.693C93.0547 149.934 92.593 150.131 92.116 150.283C91.4474 150.517 90.7516 150.665 90.0449 150.724C89.8638 150.726 89.683 150.71 89.5056 150.675C89.319 150.677 89.1346 150.643 88.9614 150.575C88.7868 150.55 88.6216 150.482 88.4796 150.379C88.3302 150.273 88.2255 150.116 88.1858 149.938C88.1182 149.887 88.0648 149.819 88.0306 149.743C87.996 149.665 87.9814 149.581 87.9884 149.497C88.0092 149.225 88.1052 148.965 88.266 148.744C88.4266 148.524 88.6458 148.351 88.8988 148.247C89.5562 147.893 90.295 147.717 91.042 147.735C91.4031 147.735 91.8606 147.735 92.4194 147.686C92.583 147.49 92.7663 147.275 92.9638 147.049C93.5864 146.299 94.177 145.515 94.736 144.697C94.9334 144.434 95.4726 143.567 96.3638 142.101C97.5488 140.13 98.601 138.084 99.5138 135.974C99.99 134.955 100.402 133.907 100.747 132.837C100.787 132.759 100.82 132.677 100.843 132.593L100.944 132.3C100.973 132.2 101.002 132.118 101.016 132.056C101.031 131.994 101.06 131.908 101.089 131.812C101.117 131.716 101.146 131.62 101.165 131.539C101.174 131.449 101.174 131.36 101.165 131.271C101.314 130.792 101.412 130.299 101.459 129.8C101.627 128.993 101.627 128.16 101.459 127.352C101.381 126.931 101.217 126.53 100.978 126.174L100.93 126.078L100.829 125.977C100.785 125.909 100.736 125.843 100.684 125.781C100.638 125.743 100.588 125.711 100.535 125.685L100.438 125.537C99.8469 125.08 99.1782 124.733 98.4637 124.512C98.0688 124.378 97.8088 124.296 97.6786 124.263C97.532 124.237 97.3843 124.222 97.2357 124.215C97.1226 124.181 97.002 124.181 96.8888 124.215C96.3458 124.235 95.8186 124.401 95.362 124.694C94.0506 125.574 92.866 126.628 91.8414 127.826C90.4564 129.376 89.1956 131.03 88.0702 132.775C86.9938 134.472 86.058 136.253 85.272 138.101C85.0408 139.505 84.7904 140.86 84.5833 142.168C83.8287 146.84 83.3037 150.597 83.0084 153.44C82.8398 155.102 82.7434 156.429 82.7097 157.406C82.7052 157.815 82.7229 158.224 82.7626 158.632C82.7532 158.812 82.7695 158.993 82.8108 159.168L82.7097 159.269C82.6913 159.27 82.6731 159.275 82.6565 159.283C82.64 159.291 82.6253 159.303 82.6133 159.317C82.5994 159.329 82.5879 159.343 82.5796 159.36C82.5714 159.377 82.5665 159.395 82.5652 159.413V160.05H82.3678C82.3125 160.027 82.2618 159.995 82.2184 159.954C82.145 159.915 82.0783 159.865 82.021 159.805C81.9089 159.655 81.8105 159.494 81.7272 159.326C81.6923 159.19 81.6423 159.059 81.578 158.934C81.503 158.661 81.4531 158.382 81.4287 158.1C81.3193 157.599 81.2374 157.092 81.1829 156.582C81.0866 155.667 81.0047 154.642 80.9373 153.497C80.8699 151.667 80.8859 149.641 80.9855 147.418C81.0883 144.024 81.3676 140.383 81.8236 136.497C82.1189 133.814 82.4802 131.184 82.9072 128.607L83.3888 125.618C83.4462 125.292 83.6016 124.991 83.8347 124.755C84.0677 124.519 84.3674 124.359 84.6941 124.296C85.03 124.212 85.3806 124.201 85.7212 124.264C86.0622 124.326 86.3852 124.462 86.6686 124.66C86.9516 124.831 87.1728 125.087 87.301 125.391C87.4292 125.694 87.457 126.03 87.3816 126.351C87.3816 126.453 87.086 128.103 86.4954 131.299C86.298 132.377 86.1006 133.426 85.9028 134.437C87.1478 132.185 88.5986 130.053 90.2378 128.066C91.878 126.073 93.4228 124.67 94.8708 123.855C95.4396 123.481 96.0637 123.196 96.7202 123.012C96.8956 122.943 97.078 122.893 97.2645 122.864L97.7462 122.816H98.2612C98.5071 122.816 98.6662 122.792 98.743 122.792C99.7672 122.713 100.796 122.877 101.744 123.271C101.951 123.325 102.151 123.407 102.336 123.515C102.461 123.607 102.593 123.689 102.731 123.76C102.827 123.86 102.895 123.908 102.928 123.908C102.964 123.945 103.005 123.977 103.049 124.004C103.102 124.037 103.126 124.071 103.126 124.104C103.256 124.2 103.328 124.258 103.348 124.277L103.569 124.497L103.767 124.694C103.82 124.784 103.887 124.866 103.964 124.938L104.161 125.182C104.199 125.227 104.231 125.275 104.258 125.326C104.283 125.38 104.318 125.431 104.359 125.474C104.422 125.575 104.537 125.767 104.701 126.064C105.073 126.786 105.324 127.564 105.442 128.368C105.534 128.901 105.583 129.441 105.587 129.982C105.619 130.67 105.586 131.359 105.491 132.042C105.457 132.238 105.389 132.564 105.293 133C105.197 133.436 105.129 133.833 105.096 134.03C104.757 135.322 104.312 136.584 103.767 137.804C102.727 140.165 101.368 142.373 99.7254 144.367C98.9875 145.275 98.1828 146.126 97.3176 146.915C96.8358 147.341 96.383 147.715 95.9882 148.041C96.0416 148.066 96.0904 148.1 96.1326 148.142C96.5892 148.353 97.0191 148.617 97.414 148.927C98.0968 149.438 98.6812 150.067 99.1382 150.786C99.3624 151.164 99.5602 151.558 99.7304 151.964C99.9141 152.362 100.075 152.77 100.212 153.185C100.435 153.99 100.596 154.81 100.694 155.638C100.858 157.168 100.858 158.711 100.694 160.241C100.687 160.389 100.67 160.537 100.641 160.682C100.612 160.878 100.578 161.118 100.544 161.396C100.511 161.674 100.477 161.908 100.448 162.105C100.414 162.464 100.39 162.775 100.371 163.034C100.352 163.293 100.371 163.446 100.371 163.475L100.323 163.528L100.275 163.575L100.173 163.671H100.091L100.289 163.772C100.584 163.833 100.889 163.817 101.175 163.724C101.496 163.614 101.795 163.452 102.062 163.245C103.988 161.648 106.008 158.349 108.12 153.348L108.327 152.898ZM91.3309 148.735H91.037C90.5642 148.719 90.0934 148.803 89.6546 148.98C89.2952 149.143 89.0832 149.302 89.019 149.459C89.0782 149.49 89.1446 149.506 89.2118 149.506C89.4598 149.54 89.7118 149.524 89.9535 149.459C90.4602 149.321 90.9302 149.074 91.3309 148.735Z" fill="#FBB03B"/>
<path d="M124.977 151.969L125.459 152.213C125.526 152.235 125.587 152.272 125.636 152.322C125.686 152.372 125.723 152.433 125.744 152.5C125.766 152.566 125.771 152.637 125.76 152.707C125.749 152.776 125.722 152.841 125.68 152.898C124.79 154.524 123.752 156.064 122.579 157.501C120.01 160.74 117.531 162.635 115.142 163.187C114.705 163.306 114.259 163.388 113.808 163.432L112.479 163.628C112.152 163.628 111.805 163.628 111.443 163.58C111.058 163.494 110.679 163.379 110.312 163.235C109.971 163.112 109.655 162.931 109.377 162.699C108.903 162.359 108.486 161.945 108.144 161.473C107.593 160.705 107.192 159.84 106.964 158.924C106.729 158.012 106.613 157.073 106.617 156.132C106.621 155.19 106.737 154.252 106.964 153.339C107.158 152.435 107.437 151.552 107.797 150.699C108.135 149.87 108.564 149.081 109.079 148.347C109.545 147.648 110.091 147.005 110.707 146.431L111.838 145.502C112.101 145.316 112.382 145.155 112.676 145.023C112.994 144.852 113.324 144.704 113.664 144.583C113.977 144.473 114.299 144.391 114.627 144.338C115.117 144.275 115.612 144.259 116.105 144.29L116.255 144.338H116.467C116.577 144.373 116.693 144.389 116.809 144.386C117.026 144.416 117.241 144.465 117.449 144.534C117.881 144.646 118.287 144.842 118.643 145.111C118.998 145.38 119.296 145.716 119.52 146.101C119.99 146.952 120.147 147.94 119.963 148.894C119.674 150.828 118.695 152.595 117.204 153.871C115.497 155.4 113.337 156.336 111.048 156.538C110.985 157.124 110.951 157.712 110.947 158.301C110.957 158.813 111.024 159.323 111.145 159.82C111.204 160.095 111.303 160.359 111.439 160.606C111.515 160.767 111.616 160.915 111.737 161.046C111.881 161.222 112.042 161.383 112.219 161.525C112.389 161.671 112.571 161.803 112.763 161.918C113.08 162.1 113.43 162.217 113.794 162.263C114.154 162.327 114.525 162.31 114.878 162.21C115.985 161.926 117.018 161.408 117.907 160.692C118.868 159.978 119.76 159.176 120.57 158.297C121.354 157.425 122.085 156.509 122.762 155.552C123.484 154.539 123.966 153.821 124.207 153.396C124.397 153.087 124.569 152.767 124.722 152.438L124.977 151.969ZM111.429 154.321C111.333 154.714 111.251 155.101 111.183 155.495C112.672 155.301 114.097 154.774 115.349 153.952C116.395 153.301 117.286 152.432 117.96 151.404C118.463 150.603 118.805 149.713 118.966 148.783C119.087 148.057 118.976 147.312 118.649 146.652C118.498 146.373 118.293 146.127 118.045 145.929C117.796 145.732 117.51 145.587 117.204 145.502C116.866 145.401 116.506 145.401 116.168 145.502C115.838 145.567 115.532 145.719 115.282 145.943C115.105 146.086 114.944 146.246 114.8 146.422C114.601 146.652 114.441 146.848 114.319 147.011C114.184 147.236 114.073 147.432 113.972 147.595C113.774 147.896 113.593 148.208 113.433 148.53C113.331 148.726 113.086 149.31 112.691 150.292C112.527 150.718 112.296 151.37 112.002 152.251C111.708 153.133 111.53 153.827 111.429 154.321Z" fill="#FBB03B"/>
<path d="M141.994 153.636C141.458 154.158 140.863 154.618 140.222 155.006C139.655 155.367 139.063 155.688 138.45 155.964C137.968 156.179 137.25 156.443 136.33 156.773C135.574 157.065 135.016 157.296 134.654 157.458C134.793 157.626 134.941 157.786 135.097 157.937C135.358 158.229 135.579 158.507 135.786 158.766C136 159.067 136.198 159.378 136.378 159.7C136.533 160.067 136.665 160.443 136.773 160.826C136.84 161.1 136.889 161.378 136.918 161.659C136.955 162.035 136.939 162.414 136.87 162.785C136.744 163.605 136.413 164.381 135.906 165.041C135.516 165.592 135.051 166.088 134.524 166.512L134.231 166.804L133.985 167C133.841 167.06 133.708 167.142 133.59 167.244C132.897 167.73 132.154 168.141 131.374 168.471C130.83 168.719 130.27 168.931 129.698 169.108C129.087 169.263 128.453 169.312 127.825 169.252C127.322 169.152 126.859 168.909 126.493 168.553C126.126 168.197 125.871 167.742 125.759 167.244C125.425 166.168 125.425 165.016 125.759 163.94C126.032 162.812 126.59 161.773 127.382 160.922C128.057 160.282 128.764 159.678 129.501 159.111C129.238 158.913 129.077 158.798 129.019 158.766C128.061 158.081 127.139 157.345 126.26 156.562C125.795 156.106 125.366 155.614 124.978 155.092C124.537 154.539 124.173 153.93 123.895 153.281C123.698 152.729 123.581 152.152 123.548 151.566C123.515 151.371 123.515 151.172 123.548 150.977V150.699C123.549 150.598 123.567 150.498 123.601 150.402C123.595 150.303 123.611 150.203 123.649 150.11C123.648 150.011 123.665 149.912 123.697 149.818C123.727 149.633 123.777 149.451 123.847 149.277C124.053 148.601 124.351 147.956 124.733 147.361C124.824 147.254 124.906 147.14 124.978 147.021C125.069 146.929 125.151 146.829 125.224 146.723C125.291 146.661 125.402 146.527 125.571 146.331C126.218 145.672 127.009 145.171 127.882 144.865L128.133 144.764L128.326 144.717L128.769 144.568L129.217 144.472H129.313C129.359 144.446 129.41 144.429 129.462 144.424H129.66C129.737 144.387 129.82 144.361 129.906 144.347H130.103H130.546C130.586 144.355 130.627 144.355 130.666 144.347C130.708 144.343 130.75 144.343 130.792 144.347H131.399C133.238 144.443 134.979 145.309 136.619 146.944C136.673 146.989 136.716 147.045 136.746 147.108C136.775 147.172 136.791 147.241 136.791 147.31C136.791 147.38 136.775 147.449 136.746 147.513C136.716 147.576 136.673 147.632 136.619 147.677C136.52 147.772 136.388 147.825 136.251 147.825C136.113 147.825 135.981 147.772 135.883 147.677C134.438 146.211 132.925 145.44 131.35 145.378H131.004L130.806 145.425H130.657L130.267 145.521C130.148 145.544 130.032 145.578 129.92 145.622L129.771 145.718L129.626 145.765L129.327 145.962C129.226 146.021 129.128 146.087 129.034 146.158L128.884 146.307L128.788 146.403C128.32 146.873 127.937 147.421 127.656 148.022C127.622 148.126 127.571 148.225 127.507 148.314C127.478 148.394 127.461 148.478 127.459 148.563C127.412 148.638 127.378 148.721 127.358 148.807C127.221 149.2 127.155 149.613 127.16 150.029V150.469C127.168 150.521 127.184 150.571 127.208 150.618V150.91C127.242 150.91 127.261 150.944 127.261 151.011C127.288 151.036 127.305 151.07 127.309 151.106C127.372 151.24 127.473 151.437 127.603 151.696C128.059 152.316 128.608 152.862 129.231 153.315C129.822 153.803 130.642 154.407 131.692 155.125C132.611 155.809 133.317 156.349 133.811 156.745L135.931 155.911C136.852 155.553 137.541 155.276 137.997 155.078C138.558 154.828 139.102 154.541 139.625 154.22C140.207 153.875 140.752 153.473 141.253 153.018C141.292 152.959 141.345 152.912 141.407 152.879C141.469 152.846 141.539 152.828 141.609 152.828C141.679 152.828 141.749 152.846 141.811 152.879C141.873 152.912 141.926 152.959 141.965 153.018C142.05 153.097 142.1 153.206 142.105 153.321C142.11 153.436 142.071 153.549 141.994 153.636ZM132.93 163.384C133.049 163.089 133.1 162.771 133.079 162.454C133.026 162.317 132.96 162.186 132.882 162.062C132.839 161.949 132.771 161.848 132.685 161.765C132.617 161.669 132.521 161.539 132.386 161.377L131.996 160.984C131.826 160.864 131.666 160.732 131.514 160.591C131.22 160.361 130.84 160.083 130.382 159.757C129.581 160.32 128.824 160.943 128.119 161.621C127.402 162.372 126.903 163.303 126.674 164.313C126.406 165.176 126.406 166.099 126.674 166.962C126.744 167.273 126.902 167.558 127.129 167.784C127.356 168.009 127.642 168.166 127.955 168.236C128.398 168.29 128.846 168.203 129.236 167.987C129.659 167.737 130.041 167.424 130.368 167.058C130.858 166.528 131.318 165.971 131.745 165.391C131.815 165.268 131.899 165.154 131.996 165.051C132.193 164.754 132.304 164.572 132.338 164.572C132.57 164.197 132.763 163.799 132.911 163.384H132.93Z" fill="#FBB03B"/>
<path d="M158.277 151.969L158.759 152.213C158.825 152.235 158.886 152.272 158.935 152.322C158.985 152.372 159.022 152.433 159.044 152.499C159.065 152.566 159.071 152.637 159.06 152.706C159.049 152.776 159.021 152.841 158.98 152.898C158.086 154.523 157.046 156.063 155.874 157.501C153.305 160.74 150.825 162.635 148.437 163.187C148.002 163.306 147.556 163.387 147.108 163.431L145.774 163.628C145.446 163.628 145.104 163.628 144.743 163.58C144.355 163.494 143.976 163.38 143.606 163.235C143.266 163.112 142.95 162.93 142.672 162.699C142.197 162.358 141.781 161.945 141.439 161.472C140.889 160.703 140.489 159.839 140.259 158.924C140.024 158.012 139.907 157.073 139.912 156.131C139.916 155.19 140.032 154.252 140.259 153.339C140.457 152.433 140.737 151.549 141.097 150.695C141.43 149.863 141.86 149.074 142.378 148.342C142.841 147.642 143.386 146.999 144.001 146.426L145.133 145.497C145.396 145.312 145.677 145.151 145.971 145.018C146.281 144.849 146.603 144.702 146.934 144.577C147.248 144.467 147.57 144.386 147.897 144.333C148.388 144.27 148.883 144.255 149.376 144.285L149.525 144.333H149.723C149.834 144.368 149.949 144.384 150.065 144.381C150.283 144.41 150.498 144.46 150.706 144.53C151.138 144.641 151.543 144.837 151.899 145.106C152.254 145.375 152.553 145.712 152.776 146.096C153.248 146.946 153.405 147.935 153.219 148.889C152.93 150.823 151.951 152.59 150.46 153.866C148.753 155.395 146.593 156.332 144.304 156.534C144.241 157.119 144.207 157.708 144.203 158.296C144.214 158.808 144.28 159.317 144.401 159.815C144.459 160.09 144.56 160.356 144.7 160.6C144.774 160.762 144.873 160.91 144.993 161.041C145.138 161.216 145.299 161.376 145.475 161.52C145.646 161.665 145.828 161.796 146.019 161.913C146.338 162.096 146.69 162.213 147.055 162.258C147.415 162.323 147.786 162.304 148.138 162.205C149.246 161.919 150.278 161.401 151.168 160.687C152.127 159.972 153.017 159.171 153.826 158.292C154.61 157.42 155.342 156.503 156.018 155.547C156.741 154.535 157.222 153.816 157.463 153.392C157.653 153.082 157.825 152.762 157.978 152.433L158.277 151.969ZM144.733 154.321C144.632 154.714 144.55 155.101 144.483 155.494C145.971 155.301 147.396 154.774 148.649 153.952C149.696 153.302 150.587 152.432 151.259 151.403C151.763 150.603 152.105 149.713 152.265 148.783C152.386 148.057 152.276 147.312 151.948 146.652C151.799 146.372 151.593 146.126 151.345 145.929C151.097 145.731 150.81 145.586 150.503 145.502C150.167 145.401 149.808 145.401 149.472 145.502C149.14 145.566 148.833 145.718 148.582 145.943C148.405 146.085 148.244 146.246 148.1 146.422C147.9 146.652 147.74 146.848 147.619 147.011C147.488 147.236 147.372 147.432 147.271 147.595C147.073 147.896 146.892 148.207 146.732 148.53C146.631 148.726 146.385 149.31 145.991 150.292C145.826 150.718 145.595 151.37 145.301 152.251C145.008 153.133 144.83 153.827 144.733 154.321Z" fill="#FBB03B"/>
<path d="M174.386 152.75L174.868 152.947C174.935 152.962 174.996 152.992 175.048 153.035C175.1 153.079 175.141 153.134 175.168 153.196C175.193 153.259 175.204 153.326 175.199 153.393C175.194 153.461 175.174 153.526 175.138 153.583C174.946 154.106 174.656 154.771 174.305 155.571C173.953 156.372 173.375 157.569 172.605 159.169C171.886 160.672 171.062 162.121 170.139 163.509C169.515 164.529 168.697 165.419 167.731 166.129C167.559 166.295 167.359 166.429 167.138 166.522C167.017 166.583 166.884 166.615 166.748 166.618C166.728 166.635 166.704 166.649 166.679 166.657C166.653 166.665 166.626 166.668 166.599 166.665H166.498C166.398 166.671 166.297 166.655 166.204 166.618C165.979 166.588 165.771 166.485 165.612 166.326C165.516 166.225 165.4 166.096 165.269 165.932C165.128 165.718 165.012 165.488 164.923 165.248C164.815 164.828 164.733 164.403 164.677 163.973C164.616 163.568 164.583 163.158 164.581 162.747C164.564 161.224 164.662 159.701 164.875 158.192C164.909 157.765 164.966 157.286 165.048 156.755C165.129 156.223 165.212 155.686 165.294 155.165C165.376 154.642 165.433 154.206 165.468 153.79C165.564 152.942 165.631 152.29 165.665 151.83C165.388 151.991 165.124 152.172 164.875 152.372L164.359 152.76C164.143 152.927 163.921 153.09 163.689 153.239C163.459 153.387 163.247 153.564 163.049 153.718C162.703 153.955 162.341 154.167 161.966 154.355C161.525 154.563 161.064 154.724 160.588 154.834C160.326 154.866 160.062 154.883 159.798 154.882H159.355C159.17 154.856 158.99 154.808 158.816 154.738C158.482 154.606 158.181 154.405 157.929 154.149C157.727 153.935 157.564 153.687 157.448 153.416C157.241 152.983 157.109 152.518 157.058 152.041C156.988 151.62 156.954 151.194 156.957 150.767C156.988 149.934 157.138 149.11 157.399 148.319C157.65 147.491 158.069 146.722 158.633 146.063C158.938 145.72 159.306 145.438 159.717 145.23C160.15 145.04 160.622 144.956 161.094 144.985C161.365 144.955 161.639 145.017 161.871 145.159C162.102 145.301 162.28 145.516 162.375 145.771C162.674 146.456 162.481 147.471 161.811 148.808C161.166 150.102 160.399 151.332 159.519 152.482C159.52 152.501 159.525 152.52 159.533 152.537C159.541 152.554 159.552 152.57 159.568 152.583H159.717C159.846 152.549 159.962 152.515 160.059 152.482C160.629 152.329 161.154 152.043 161.59 151.648L162.453 150.916C162.828 150.59 163.097 150.36 163.262 150.23C163.656 149.905 164.003 149.641 164.297 149.445C164.753 149.167 165.252 148.968 165.776 148.855C165.921 148.823 166.069 148.808 166.218 148.808H166.661C166.779 148.808 166.895 148.823 167.009 148.855C167.204 148.923 167.387 149.024 167.548 149.153C167.696 149.266 167.829 149.398 167.942 149.545C168.079 149.719 168.18 149.918 168.241 150.13C168.341 150.415 168.407 150.71 168.434 151.011C168.471 151.239 168.488 151.47 168.486 151.701C168.486 152.027 168.486 152.434 168.434 152.923C168.4 153.282 168.371 153.675 168.337 154.101C168.27 154.69 168.174 155.437 168.043 156.352C167.908 157.104 167.793 157.842 167.697 158.56C167.596 158.982 167.466 159.677 167.302 160.64C167.138 161.602 167.009 162.349 166.908 162.872C166.806 163.394 166.791 163.734 166.762 163.897C166.729 164.261 166.709 164.567 166.709 164.855C166.704 164.955 166.723 165.055 166.762 165.147V165.248H166.661V165.296H166.811C166.944 165.324 167.083 165.307 167.206 165.248C168.224 164.59 169.422 162.972 170.799 160.395C172.065 158.064 173.2 155.666 174.198 153.21L174.386 152.75ZM159.066 151.428C159.756 150.45 160.364 149.418 160.887 148.343C161.413 147.267 161.595 146.548 161.43 146.188C161.398 146.087 161.282 146.039 161.084 146.039C160.801 146.067 160.531 146.168 160.299 146.331C160.079 146.522 159.881 146.736 159.708 146.968C159.376 147.526 159.158 148.143 159.066 148.784C158.935 149.428 158.904 150.089 158.97 150.743C158.969 150.975 159.001 151.205 159.066 151.428Z" fill="#FBB03B"/>
<path d="M188.378 152.553L188.797 152.85C188.86 152.885 188.914 152.936 188.954 152.996C188.993 153.056 189.017 153.126 189.025 153.198C189.032 153.269 189.021 153.342 188.994 153.409C188.967 153.476 188.924 153.535 188.869 153.583C188.694 153.839 188.504 154.085 188.301 154.32C187.863 154.776 187.379 155.185 186.856 155.542C186.236 156.024 185.524 156.375 184.762 156.572C184.471 156.638 184.173 156.672 183.875 156.672C183.79 156.668 183.708 156.65 183.629 156.62C182.512 159.986 181.297 162.206 179.983 163.283C179.959 163.312 179.929 163.336 179.895 163.353C179.862 163.37 179.824 163.381 179.786 163.383C179.58 163.624 179.33 163.824 179.049 163.973C178.881 164.07 178.696 164.136 178.504 164.169C178.388 164.175 178.273 164.19 178.158 164.217L177.864 164.169C177.44 164.124 177.034 163.972 176.684 163.728C176.365 163.512 176.082 163.247 175.846 162.943C175.45 162.429 175.119 161.869 174.858 161.276C174.614 160.75 174.401 160.211 174.218 159.661C173.871 158.625 173.624 157.559 173.482 156.476C173.313 155.525 173.198 154.565 173.135 153.602C173.039 152.15 173.039 150.694 173.135 149.243L173.236 147.576C173.299 147.284 173.544 147.068 173.973 146.939C174.442 146.806 174.931 146.757 175.418 146.795C175.889 146.806 176.35 146.923 176.771 147.135C177.132 147.331 177.316 147.561 177.316 147.82C177.283 147.94 177.265 148.064 177.262 148.189C177.262 148.314 177.246 148.437 177.215 148.558C177.146 149.209 177.084 149.846 177.016 150.474C176.853 152.629 176.771 154.557 176.771 156.256C176.762 157.287 176.828 158.318 176.968 159.341C177.044 160.198 177.244 161.04 177.561 161.841C177.566 161.892 177.582 161.941 177.609 161.985C177.624 161.997 177.635 162.012 177.643 162.03C177.652 162.047 177.657 162.066 177.658 162.085C177.703 162.154 177.752 162.22 177.807 162.282L178.004 162.574C178.066 162.607 178.149 162.655 178.25 162.722C178.328 162.752 178.411 162.768 178.495 162.77C178.632 162.76 178.765 162.728 178.89 162.674C178.996 162.672 179.099 162.636 179.184 162.574L179.286 162.478L179.334 162.526C180.486 161.568 181.61 159.478 182.705 156.256C181.687 155.47 181.178 153.873 181.178 151.465C181.147 149.915 181.399 148.372 181.92 146.91C182.54 145.31 183.365 144.515 184.381 144.515C184.616 144.511 184.846 144.586 185.033 144.728C185.221 144.869 185.356 145.069 185.416 145.296C185.652 146.561 185.66 147.859 185.441 149.128C185.197 150.879 184.842 152.613 184.381 154.32C184.25 154.799 184.12 155.235 183.986 155.695C184.188 155.694 184.388 155.66 184.578 155.594C185.217 155.426 185.813 155.126 186.326 154.713C186.771 154.402 187.183 154.049 187.56 153.659C187.745 153.45 187.917 153.229 188.075 152.998L188.378 152.553ZM183.056 155.154C184.045 151.887 184.554 149.172 184.583 147.011C184.632 146.496 184.565 145.977 184.385 145.492C183.827 145.521 183.336 146.096 182.907 147.207C182.424 148.558 182.191 149.984 182.218 151.418C182.218 153.19 182.498 154.435 183.056 155.154Z" fill="#FBB03B"/>
<path d="M205.424 151.969L205.905 152.213C205.973 152.235 206.033 152.272 206.083 152.322C206.133 152.372 206.17 152.433 206.191 152.5C206.213 152.566 206.219 152.637 206.208 152.707C206.196 152.776 206.169 152.842 206.127 152.898C205.233 154.522 204.196 156.062 203.025 157.501C200.457 160.74 197.976 162.635 195.584 163.187C195.149 163.307 194.705 163.388 194.256 163.432L192.926 163.628C192.593 163.628 192.252 163.628 191.89 163.58C191.504 163.495 191.126 163.38 190.759 163.235C190.408 163.116 190.082 162.934 189.796 162.699C189.323 162.357 188.909 161.943 188.567 161.473C188.016 160.704 187.614 159.84 187.382 158.924C187.148 158.012 187.031 157.074 187.035 156.132C187.039 155.19 187.156 154.252 187.382 153.339C187.584 152.435 187.867 151.552 188.23 150.699C188.565 149.869 188.995 149.08 189.511 148.347C189.974 147.647 190.519 147.004 191.135 146.431L192.271 145.502C192.534 145.316 192.815 145.155 193.109 145.023C193.418 144.853 193.741 144.705 194.073 144.583C194.393 144.471 194.723 144.389 195.059 144.338C195.55 144.275 196.045 144.259 196.538 144.29L196.682 144.338H196.9C197.012 144.373 197.129 144.389 197.246 144.386C197.464 144.416 197.678 144.466 197.887 144.535C198.318 144.647 198.723 144.843 199.078 145.112C199.433 145.381 199.73 145.717 199.953 146.101C200.425 146.951 200.581 147.94 200.396 148.894C200.112 150.829 199.133 152.597 197.641 153.871C195.932 155.399 193.771 156.335 191.481 156.539C191.419 157.124 191.387 157.713 191.385 158.301C191.398 158.808 191.471 159.311 191.601 159.801C191.659 160.076 191.758 160.341 191.896 160.586C191.97 160.747 192.069 160.896 192.189 161.027C192.336 161.2 192.496 161.361 192.671 161.506C192.841 161.651 193.023 161.782 193.215 161.899C193.534 162.081 193.886 162.198 194.251 162.244C194.611 162.308 194.982 162.29 195.334 162.191C196.441 161.904 197.474 161.387 198.363 160.673C199.324 159.961 200.215 159.158 201.023 158.278C201.807 157.407 202.539 156.49 203.213 155.533C203.936 154.52 204.417 153.802 204.658 153.377C204.848 153.067 205.022 152.747 205.178 152.419L205.424 151.969ZM191.876 154.321C191.775 154.714 191.693 155.102 191.631 155.495C193.117 155.301 194.541 154.773 195.792 153.952C196.84 153.304 197.731 152.434 198.402 151.404C198.907 150.604 199.25 149.714 199.414 148.783C199.531 148.057 199.417 147.312 199.09 146.652C198.941 146.372 198.736 146.127 198.488 145.929C198.24 145.731 197.953 145.586 197.646 145.502C197.308 145.401 196.948 145.401 196.611 145.502C196.281 145.566 195.973 145.718 195.724 145.943C195.547 146.084 195.385 146.245 195.242 146.422C195.047 146.652 194.886 146.848 194.761 147.011L194.419 147.596C194.219 147.896 194.037 148.208 193.875 148.53C193.779 148.726 193.529 149.31 193.137 150.292C192.969 150.719 192.743 151.37 192.445 152.251C192.146 153.133 191.972 153.827 191.876 154.321Z" fill="#FBB03B"/>
<path d="M64.0707 159.087L63.1892 157.674C62.4716 156.515 45.5039 129.144 45.5039 119.329C45.5051 115.672 46.5962 112.098 48.6393 109.057C50.6824 106.017 53.5858 103.648 56.9825 102.248C60.3794 100.848 64.1169 100.482 67.7232 101.194C71.3294 101.907 74.6422 103.667 77.2431 106.251L75.7357 107.751C73.4333 105.461 70.5 103.901 67.3066 103.269C64.1131 102.638 60.803 102.962 57.7948 104.201C54.7866 105.44 52.2156 107.539 50.4067 110.232C48.5979 112.925 47.6325 116.09 47.6327 119.329C47.6327 127.328 60.5788 149.272 64.1188 155.116C66.9797 150.604 75.7501 136.358 78.8132 126.557L80.8264 127.184C77.089 139.203 65.4818 156.926 64.9857 157.698L64.0707 159.087Z" fill="#FBB03B"/>
<g opacity="0.91">
<path opacity="0.91" d="M65.1511 131.884C62.648 131.884 60.1896 131.223 58.0279 129.968C55.8662 128.712 54.0786 126.908 52.8483 124.74C51.6179 122.572 50.9889 120.118 51.0257 117.628C51.0624 115.139 51.7637 112.704 53.0575 110.573C51.8433 112.073 50.9525 113.806 50.4403 115.664C49.9281 117.521 49.8056 119.464 50.0803 121.37C50.355 123.277 51.0212 125.107 52.0373 126.747C53.0533 128.387 54.3977 129.801 55.9867 130.902C57.5758 132.003 59.3755 132.767 61.2741 133.147C63.1727 133.527 65.1297 133.514 67.0231 133.11C68.9166 132.706 70.7062 131.918 72.2807 130.797C73.8553 129.675 75.1811 128.244 76.1756 126.591C74.8526 128.239 73.1729 129.568 71.2616 130.48C69.3503 131.393 67.2567 131.864 65.1367 131.86" fill="white"/>
<path opacity="0.91" d="M64.0962 133.642C60.2807 133.638 56.6225 132.129 53.9245 129.446C51.2264 126.762 49.709 123.124 49.7052 119.329C49.6929 116.084 50.8015 112.934 52.8454 110.405L53.2836 110.707C51.4715 113.703 50.8721 117.273 51.6068 120.693C52.3415 124.113 54.3555 127.127 57.2409 129.125C60.1262 131.124 63.6674 131.957 67.1472 131.456C70.6269 130.955 73.7853 129.158 75.9827 126.428L76.4211 126.73C75.146 128.846 73.3394 130.596 71.1784 131.808C69.0176 133.02 66.5769 133.652 64.0962 133.642ZM51.2319 114.175C50.0655 117.067 49.9178 120.267 50.8128 123.254C51.7079 126.241 53.5932 128.838 56.1615 130.624C58.7299 132.409 61.8303 133.277 64.9579 133.087C68.0857 132.896 71.0564 131.659 73.3867 129.575C71.2283 131.072 68.6988 131.952 66.073 132.119C63.4471 132.287 60.8253 131.736 58.4922 130.526C56.1591 129.316 54.204 127.493 52.8392 125.255C51.4743 123.018 50.7519 120.452 50.7503 117.834C50.7528 116.599 50.9147 115.369 51.2319 114.175Z" fill="#FBB03B"/>
</g>
<g opacity="0.91">
<path opacity="0.91" d="M57.9297 121C57.9297 121 60.1163 114.198 66.4834 114.198C66.4834 114.198 68.6073 120.535 71.4393 121.239C71.4393 121.239 81.3512 100.469 94.4467 97.6479C94.4467 97.6479 90.1989 105.394 93.0309 109.973C89.3082 109.951 85.6706 111.078 82.6179 113.197C77.9365 116.421 73.3611 123.357 72.8553 126.873C72.8553 126.873 64.6581 121 57.9297 121Z" fill="#F2F2F2"/>
<path opacity="0.91" d="M73.2599 127.812L72.5423 127.299C72.4652 127.228 64.4028 121.513 57.9297 121.513H57.2266L57.4481 120.823C57.4722 120.751 59.8273 113.667 66.5075 113.667H66.859L66.9795 114.031C67.5093 115.607 69.2287 119.645 71.16 120.579C72.7061 117.484 82.0255 99.78 94.3264 97.131L95.463 96.8867L94.9041 97.9022C94.8657 97.9789 90.8391 105.437 93.4595 109.696L93.9987 110.563L92.9728 110.5C89.3716 110.497 85.8555 111.59 82.8973 113.633C78.3362 116.775 73.8426 123.582 73.361 126.945L73.2599 127.812ZM58.6955 120.478C64.2824 120.809 70.4761 124.636 72.4989 125.982C73.4959 122.222 77.7583 115.923 82.3144 112.761C85.2173 110.761 88.6265 109.61 92.1543 109.442C90.5165 105.691 92.4577 100.623 93.4595 98.4244C81.3079 102.065 72.0173 121.269 71.921 121.479L71.7332 121.872L71.3094 121.767C68.5978 121.077 66.6472 116.21 66.1078 114.735C61.5612 114.941 59.3939 118.869 58.6955 120.478Z" fill="#FBB03B"/>
</g>
<defs>
<radialGradient id="paint0_radial_236_239" cx="0" cy="0" r="1" gradientUnits="userSpaceOnUse" gradientTransform="translate(261 263.5) rotate(-135.136) scale(298.4)">
<stop stop-color="#0C0313"/>
<stop offset="1" stop-color="#210A35"/>
</radialGradient>
</defs>
</svg>
