<svg width="270" height="270" viewBox="0 0 270 270" fill="none" xmlns="http://www.w3.org/2000/svg">
<rect width="270" height="270" fill="url(#paint0_radial_241_145)"/>
<path d="M134.492 203.973L132.338 200.545C130.584 197.734 89.1191 131.355 89.1191 107.552C89.1221 98.6837 91.7885 90.0153 96.7813 82.6424C101.774 75.2694 108.869 69.5228 117.17 66.1288C125.471 62.7345 134.605 61.8453 143.418 63.5735C152.231 65.3017 160.326 69.5695 166.682 75.8377L162.999 79.4736C157.372 73.9201 150.204 70.138 142.4 68.6056C134.596 67.0735 126.507 67.8597 119.155 70.8653C111.804 73.8708 105.521 78.9605 101.1 85.4907C96.6801 92.0209 94.3209 99.6982 94.3214 107.552C94.3214 126.952 125.959 180.169 134.61 194.342C141.601 183.399 163.034 148.85 170.519 125.082L175.439 126.604C166.306 155.751 137.94 198.733 136.728 200.603L134.492 203.973Z" fill="#FBB03B"/>
<g opacity="0.91">
<path opacity="0.91" d="M137.132 138.001C131.015 138.001 125.007 136.398 119.724 133.353C114.441 130.309 110.073 125.934 107.066 120.676C104.06 115.418 102.523 109.466 102.612 103.429C102.702 97.3914 104.416 91.4862 107.578 86.3176C104.611 89.9566 102.433 94.1594 101.182 98.6642C99.9301 103.169 99.6308 107.88 100.302 112.504C100.974 117.128 102.601 121.566 105.084 125.543C107.567 129.519 110.853 132.949 114.736 135.62C118.619 138.289 123.017 140.143 127.657 141.064C132.297 141.985 137.079 141.955 141.706 140.974C146.334 139.994 150.707 138.084 154.555 135.364C158.403 132.644 161.643 129.173 164.073 125.165C160.84 129.16 156.735 132.384 152.064 134.597C147.394 136.81 142.277 137.953 137.096 137.943" fill="white"/>
<path opacity="0.91" d="M134.553 142.265C125.229 142.255 116.289 138.595 109.696 132.087C103.103 125.58 99.3944 116.756 99.385 107.553C99.3551 99.6841 102.064 92.0438 107.059 85.9106L108.13 86.6425C103.701 93.91 102.237 102.567 104.032 110.861C105.828 119.154 110.749 126.464 117.801 131.311C124.852 136.157 133.505 138.178 142.009 136.964C150.513 135.748 158.231 131.39 163.601 124.769L164.672 125.501C161.556 130.634 157.141 134.878 151.861 137.817C146.58 140.757 140.616 142.289 134.553 142.265ZM103.116 95.053C100.265 102.068 99.9046 109.829 102.092 117.072C104.279 124.315 108.886 130.614 115.163 134.944C121.439 139.274 129.016 141.379 136.659 140.918C144.303 140.456 151.562 137.455 157.257 132.402C151.982 136.031 145.801 138.165 139.384 138.571C132.967 138.978 126.56 137.641 120.859 134.707C115.157 131.772 110.379 127.351 107.044 121.925C103.708 116.499 101.943 110.275 101.939 103.928C101.945 100.932 102.341 97.9497 103.116 95.053Z" fill="#FBB03B"/>
</g>
<g opacity="0.91">
<path opacity="0.91" d="M119.486 111.605C119.486 111.605 124.83 95.1094 140.39 95.1094C140.39 95.1094 145.58 110.478 152.501 112.186C152.501 112.186 176.723 61.8152 208.725 54.9729C208.725 54.9729 198.345 73.7575 205.265 84.8633C196.168 84.8106 187.279 87.5421 179.819 92.6814C168.378 100.5 157.197 117.321 155.961 125.848C155.961 125.848 135.929 111.605 119.486 111.605Z" fill="#F2F2F2"/>
<path opacity="0.91" d="M156.949 128.126L155.196 126.883C155.007 126.708 135.305 112.849 119.486 112.849H117.768L118.309 111.177C118.368 111.002 124.123 93.8207 140.448 93.8207H141.307L141.602 94.7037C142.896 98.5258 147.098 108.319 151.818 110.584C155.596 103.08 178.37 60.1434 208.431 53.7191L211.208 53.1267L209.843 55.5895C209.749 55.7754 199.909 73.863 206.313 84.1905L207.63 86.2931L205.123 86.142C196.323 86.1338 187.73 88.7851 180.501 93.7396C169.355 101.36 158.373 117.868 157.196 126.023L156.949 128.126ZM121.357 110.34C135.01 111.142 150.146 120.424 155.09 123.688C157.526 114.569 167.942 99.2923 179.077 91.6253C186.17 86.7731 194.502 83.9838 203.123 83.5746C199.12 74.4786 203.864 62.1879 206.313 56.8557C176.617 65.6847 153.913 112.257 153.677 112.768L153.218 113.721L152.183 113.465C145.556 111.792 140.79 99.9894 139.471 96.4115C128.36 96.911 123.064 106.437 121.357 110.34Z" fill="#FBB03B"/>
</g>
<defs>
<radialGradient id="paint0_radial_241_145" cx="0" cy="0" r="1" gradientUnits="userSpaceOnUse" gradientTransform="translate(261 263.5) rotate(-135.136) scale(298.4)">
<stop stop-color="#0C0313"/>
<stop offset="1" stop-color="#210A35"/>
</radialGradient>
</defs>
</svg>
