<svg width="162" height="219" viewBox="0 0 162 219" fill="none" xmlns="http://www.w3.org/2000/svg">
<g filter="url(#filter0_d_249_3)">
<path d="M147 67.299C147.033 76.5691 144.561 85.6736 139.848 93.6635C137.586 97.515 134.838 101.057 131.682 104.236C121.915 114.091 108.595 119.62 94.7233 119.586H94.337V119.752H46.3646C40.6591 119.708 35.991 124.288 35.9358 130.004V130.17C35.9358 131.582 36.2006 132.984 36.7414 134.286C37.7677 136.813 39.7652 138.822 42.2813 139.87C43.5725 140.411 44.963 140.687 46.3535 140.665H67.2884C71.4819 140.643 75.6424 141.47 79.505 143.104C87.0424 146.271 93.0348 152.263 96.2021 159.801C99.4576 167.603 99.4576 176.388 96.2021 184.19C94.6239 187.909 92.3506 191.286 89.4923 194.144C86.623 197.002 83.235 199.287 79.505 200.887C75.6424 202.553 71.4819 203.392 67.2884 203.37H20.8388V182.446H67.2884C73.049 182.446 77.7171 177.789 77.7171 172.028C77.7171 166.268 73.0601 161.6 67.2994 161.589H46.3535C42.171 161.622 38.0215 160.772 34.1811 159.117C26.6768 155.894 20.6954 149.902 17.484 142.375C15.8176 138.524 14.9789 134.363 15.0009 130.159C14.9678 125.976 15.8176 121.827 17.484 117.986C20.7064 110.493 26.6878 104.512 34.1811 101.289C38.0326 99.6228 42.171 98.7841 46.3646 98.8061H91.4346L94.7233 98.6296C98.9169 98.6627 103.077 97.824 106.94 96.1907C114.477 93.0344 120.47 87.031 123.637 79.4936C125.27 75.631 126.098 71.4816 126.076 67.288C126.098 63.1054 125.27 58.956 123.637 55.1155C122.059 51.3965 119.774 48.0196 116.927 45.1613C114.058 42.292 110.67 40.0076 106.94 38.4074C103.088 36.741 98.9279 35.9023 94.7233 35.9354H84.2945V93.6414H63.2162V15.0006H94.7122C99.4135 14.9785 104.082 15.6075 108.606 16.8546C117.347 19.2714 125.292 23.9175 131.682 30.3403C134.838 33.5186 137.575 37.0721 139.837 40.9125C144.55 48.9024 147.011 58.0069 146.989 67.277L147 67.299Z" fill="#BDBDBD"/>
<path d="M140.203 188.251C140.214 190.027 139.861 191.793 139.143 193.426C138.459 194.993 137.488 196.417 136.263 197.62C135.027 198.823 133.581 199.783 131.992 200.467C128.659 201.88 124.896 201.88 121.563 200.467C118.385 199.121 115.847 196.605 114.489 193.426C113.077 190.127 113.077 186.408 114.489 183.108C115.836 179.919 118.374 177.38 121.563 176.034C124.896 174.621 128.659 174.621 131.992 176.034C133.581 176.707 135.027 177.678 136.263 178.881C137.488 180.095 138.47 181.53 139.143 183.108C139.85 184.73 140.203 186.485 140.203 188.251Z" fill="#CB4A68"/>
</g>
<defs>
<filter id="filter0_d_249_3" x="0" y="0" width="162" height="218.37" filterUnits="userSpaceOnUse" color-interpolation-filters="sRGB">
<feFlood flood-opacity="0" result="BackgroundImageFix"/>
<feColorMatrix in="SourceAlpha" type="matrix" values="0 0 0 0 0 0 0 0 0 0 0 0 0 0 0 0 0 0 127 0" result="hardAlpha"/>
<feOffset/>
<feGaussianBlur stdDeviation="7.5"/>
<feComposite in2="hardAlpha" operator="out"/>
<feColorMatrix type="matrix" values="0 0 0 0 0.0958333 0 0 0 0 0.0634896 0 0 0 0 0.0958333 0 0 0 1 0"/>
<feBlend mode="normal" in2="BackgroundImageFix" result="effect1_dropShadow_249_3"/>
<feBlend mode="normal" in="SourceGraphic" in2="effect1_dropShadow_249_3" result="shape"/>
</filter>
</defs>
</svg>
