<svg width="270" height="270" viewBox="0 0 270 270" fill="none" xmlns="http://www.w3.org/2000/svg">
<path d="M120.013 162.081L131.092 172.749L110.912 191.889V170.869L120.013 162.081Z" fill="#4EBF83"/>
<path d="M157.665 162.783L151.453 153.316L171.36 133.745L111.708 74.4919L51.8281 133.27L110.912 191.889L111.39 170.892L73.5777 133.202L111.594 96.5988L149.497 133.202L138.69 143.915L157.665 162.783Z" fill="#4D5255"/>
<path d="M150.635 108.717L139.51 98.1162L159.577 78.8635L159.713 99.8829L150.635 108.717Z" fill="#4D5255"/>
<path d="M113.005 108.241L119.239 117.663L99.4688 137.347L159.463 196.26L219 137.143L159.576 78.8635L159.235 99.8829L197.252 137.347L159.44 174.153L121.332 137.777L132.071 126.995L113.005 108.241Z" fill="#4EBF83"/>
</svg>
